<?xml version="1.0" encoding="UTF-8" standalone="no"?>
<svg
   version="1.0"
   width="1248.000000pt"
   height="832.000000pt"
   viewBox="0 0 1248.000000 832.000000"
   preserveAspectRatio="xMidYMid meet"
   id="svg36"
   sodipodi:docname="service-web.svg"
   inkscape:version="1.4.3 (0d15f75, 2025-12-25)"
   xmlns:inkscape="http://www.inkscape.org/namespaces/inkscape"
   xmlns:sodipodi="http://sodipodi.sourceforge.net/DTD/sodipodi-0.dtd"
   xmlns="http://www.w3.org/2000/svg"
   xmlns:svg="http://www.w3.org/2000/svg">
  <defs
     id="defs36" />
  <sodipodi:namedview
     id="namedview36"
     pagecolor="#ffffff"
     bordercolor="#000000"
     borderopacity="0.25"
     inkscape:showpageshadow="2"
     inkscape:pageopacity="0.0"
     inkscape:pagecheckerboard="0"
     inkscape:deskcolor="#d1d1d1"
     inkscape:document-units="pt"
     inkscape:zoom="0.72746394"
     inkscape:cx="832.34366"
     inkscape:cy="554.66667"
     inkscape:window-width="1920"
     inkscape:window-height="1009"
     inkscape:window-x="-8"
     inkscape:window-y="-8"
     inkscape:window-maximized="1"
     inkscape:current-layer="svg36" />
  <g
     transform="translate(0.000000,832.000000) scale(0.100000,-0.100000)"
     fill="#000000"
     stroke="none"
     id="g36"
     style="fill:#000080">
    <path
       d="M0 5811 l0 -2509 23 4 22 5 -22 -10 c-28 -13 -32 -57 -5 -65 20 -6 276 -21 311 -18 14 1 28 7 32 14 6 9 16 9 48 -2 39 -12 45 -11 216 51 96 35 175 66 175 70 0 4 -18 6 -39 5 -22 0 -37 2 -34 7 2 4 26 7 52 7 35 0 53 5 66 20 22 24 38 25 56 4 7 -8 21 -13 31 -11 12 4 18 0 18 -12 0 -9 -8 -17 -17 -18 -77 -8 -117 -18 -254 -66 -176 -62 -222 -83 -199 -91 8 -3 85 -15 170 -27 85 -11 157 -23 160 -26 6 -6 -107 5 -232 23 -54 8 -107 14 -118 14 -33 0 -23 -18 13 -22 17 -2 2 -5 -35 -5 -37 -1 -70 3 -74 9 -7 11 -78 4 -134 -14 -34 -11 -35 -12 -10 -19 15 -5 4 -6 -27 -3 -58 6 -94 -5 -53 -17 18 -5 10 -7 -26 -7 -58 1 -85 -9 -63 -23 10 -6 4 -9 -18 -9 l-33 0 0 -175 0 -175 65 0 c53 0 68 4 82 20 18 21 58 27 68 10 12 -20 63 -9 244 52 159 54 181 64 155 70 -25 6 -24 7 8 3 23 -2 41 2 48 10 7 9 22 12 38 9 18 -4 57 8 122 37 52 23 101 46 108 52 8 7 12 5 12 -7 0 -9 -4 -15 -8 -13 -4 1 -50 -18 -101 -42 -76 -36 -90 -46 -75 -53 15 -7 14 -7 -6 -4 -14 3 -33 -1 -44 -9 -13 -10 -24 -11 -36 -5 -14 8 -153 -33 -280 -83 -8 -3 112 -5 268 -4 l282 2 -1 -25 c-1 -18 -3 -20 -6 -7 -4 17 -23 18 -316 15 -224 -2 -320 -7 -341 -16 -16 -7 -27 -15 -24 -17 3 -3 97 -10 209 -16 222 -11 381 -25 313 -28 -22 0 -98 3 -170 8 -71 6 -183 13 -249 16 -112 6 -123 4 -144 -15 -29 -24 -35 -25 -54 -5 -13 13 -24 11 -91 -11 -76 -26 -76 -26 -76 -61 l0 -36 253 7 c374 11 408 14 433 37 24 22 52 24 79 5 18 -12 30 -11 99 11 49 15 74 28 67 33 -10 5 -9 9 3 13 12 5 16 0 16 -18 0 -17 -6 -25 -17 -26 -28 -1 -98 -35 -87 -42 6 -3 31 -7 57 -9 26 -2 47 -8 47 -13 0 -7 -26 -8 -72 -4 -62 5 -77 4 -101 -13 -30 -20 -46 -23 -87 -13 -19 5 -74 -17 -220 -85 -107 -51 -235 -111 -285 -134 -49 -23 -111 -51 -137 -61 l-48 -18 0 -233 0 -234 38 0 c20 0 60 8 87 19 90 34 91 34 62 13 -15 -10 -35 -29 -44 -41 -12 -17 -21 -21 -43 -16 -16 3 -44 3 -64 -1 l-36 -6 0 -207 0 -207 30 -11 c38 -14 38 -27 0 -50 l-30 -17 0 -623 0 -623 6240 0 6240 0 0 1054 0 1054 -30 12 c-37 15 -34 25 4 11 25 -10 26 -9 26 26 l0 36 -65 -6 c-36 -4 -74 -11 -86 -18 -15 -8 -24 -8 -32 0 -6 6 -31 12 -56 12 l-46 1 50 9 c59 11 77 13 90 9 6 -1 40 -2 78 -1 64 1 67 2 67 25 0 20 -6 25 -32 29 l-33 4 33 1 32 2 0 95 0 95 -252 3 -253 2 253 3 c247 2 252 2 252 23 0 16 -20 29 -92 63 -51 24 -156 75 -233 113 -77 38 -147 70 -155 71 -35 3 -93 20 -75 21 17 2 -33 22 -233 97 -24 9 -42 18 -40 20 2 2 71 -22 153 -53 83 -30 162 -55 178 -55 15 1 27 -3 27 -8 0 -10 161 -93 368 -190 l102 -49 0 114 0 115 -182 3 -183 2 183 3 182 2 0 75 0 75 -31 0 c-24 0 -30 -4 -25 -15 4 -11 -2 -15 -24 -15 -16 0 -32 5 -35 10 -4 6 -83 11 -198 12 l-192 2 175 6 c96 3 165 7 153 8 -32 3 -115 27 -217 62 -49 16 -95 30 -102 30 -7 0 -30 11 -50 25 -47 32 -39 31 39 -1 164 -70 336 -113 432 -111 l70 2 3 82 c2 71 1 82 -15 86 -17 4 -17 5 0 6 13 1 17 8 15 24 -3 20 -9 22 -61 23 -38 1 -62 6 -70 16 -7 8 -75 33 -152 56 -146 44 -174 50 -265 60 -48 5 -51 6 -25 12 28 6 25 8 -39 28 -37 12 -82 22 -100 22 -34 0 -64 15 -53 26 4 4 42 8 85 10 78 2 80 1 27 -11 -27 -6 -23 -9 55 -36 47 -16 97 -29 112 -29 15 0 30 -5 33 -10 3 -5 16 -10 29 -10 12 0 26 -4 32 -9 8 -9 148 -54 261 -85 23 -6 45 -15 49 -19 4 -4 25 -7 46 -7 l38 0 0 1336 0 1335 -31 26 c-28 24 -31 31 -26 67 4 27 15 49 31 63 l26 22 0 1161 0 1160 -6240 0 -6240 0 0 -2509z m11396 2048 c10 -17 -13 -36 -27 -22 -12 12 -4 33 11 33 5 0 12 -5 16 -11z m-462 -265 c35 -13 7 -69 -31 -62 -19 3 -28 30 -19 54 6 15 24 18 50 8z m163 -140 c-3 -3 -12 -4 -19 -1 -8 3 -5 6 6 6 11 1 17 -2 13 -5z m373 -254 c6 -11 8 -20 6 -20 -3 0 -10 9 -16 20 -6 11 -8 20 -6 20 3 0 10 -9 16 -20z m57 -172 c-3 -7 -5 -2 -5 12 0 14 2 19 5 13 2 -7 2 -19 0 -25z m10 -50 c-3 -8 -6 -5 -6 6 -1 11 2 17 5 13 3 -3 4 -12 1 -19z m-6207 -480 l0 -43 -93 -54 c-50 -29 -162 -94 -247 -143 -158 -92 -230 -134 -470 -275 -74 -44 -180 -104 -235 -133 -55 -29 -119 -64 -142 -77 l-43 -25 0 36 c0 21 7 43 18 54 21 21 202 129 667 397 198 115 394 229 435 256 97 61 110 62 110 7z m737 36 c-3 -3 -12 -4 -19 -1 -8 3 -5 6 6 6 11 1 17 -2 13 -5z m32 -58 c42 -24 220 -126 396 -226 176 -100 335 -193 353 -207 27 -20 32 -31 32 -64 0 -21 -3 -39 -7 -39 -3 0 -74 40 -157 88 -83 49 -216 126 -296 172 -80 45 -197 113 -260 150 -63 37 -125 73 -137 79 -17 9 -23 21 -23 45 0 30 6 46 18 46 3 0 39 -20 81 -44z m1321 -219 c21 -29 47 -72 58 -97 18 -43 46 -150 40 -155 -2 -1 -17 4 -35 11 -26 11 -33 21 -42 65 -16 73 -37 113 -82 154 -33 30 -39 41 -39 76 l0 40 30 -21 c17 -12 48 -45 70 -73z m1177 2 c-3 -11 0 -19 6 -19 6 0 7 -3 3 -7 -11 -11 -36 26 -29 43 8 20 26 5 20 -17z m-2444 -30 c31 -17 57 -37 57 -45 0 -19 0 -19 -69 22 -100 59 -89 78 12 23z m70 -95 c64 -37 117 -70 117 -75 0 -18 -19 -17 -51 5 -19 12 -76 46 -126 75 -51 29 -93 57 -93 62 0 16 27 4 153 -67z m1649 24 c51 -28 127 -70 168 -93 171 -96 396 -228 413 -242 15 -14 17 -34 15 -152 l-2 -136 -5 104 -6 104 -100 57 c-55 31 -156 90 -225 130 -69 40 -180 104 -247 142 -120 68 -123 70 -123 104 0 19 4 34 10 34 5 0 52 -23 102 -52z m-1537 -38 c3 -5 0 -10 -7 -10 -19 0 -78 38 -78 50 0 12 75 -24 85 -40z m2603 16 c34 -39 51 -108 32 -131 -32 -39 -112 8 -130 75 -24 88 38 124 98 56z m119 2 c-3 -8 -6 -5 -6 6 -1 11 2 17 5 13 3 -3 4 -12 1 -19z m-449 -41 c43 -46 65 -130 40 -155 -33 -33 -96 3 -122 69 -34 83 26 146 82 86z m-707 -108 c67 -40 86 -56 77 -65 -8 -7 -157 81 -158 94 0 18 5 16 81 -29z m-1461 -55 l40 -27 0 -68 c0 -40 4 -69 10 -69 6 0 28 -12 50 -26 l40 -27 0 -138 c0 -77 -2 -139 -5 -139 -11 0 -67 32 -134 74 l-66 43 3 201 c2 124 7 202 13 202 5 0 27 -12 49 -26z m1415 16 c3 -6 -1 -7 -9 -4 -18 7 -21 14 -7 14 6 0 13 -4 16 -10z m-3145 -36 c0 -31 -7 -43 -45 -76 -54 -48 -115 -163 -115 -220 0 -32 -4 -40 -26 -48 -52 -20 -57 -15 -50 45 12 108 90 249 168 305 55 40 68 39 68 -6z m-620 -7 c0 -2 -10 -12 -22 -23 l-23 -19 19 23 c18 21 26 27 26 19z m2053 -41 c28 -22 37 -37 37 -60 1 -25 10 -38 50 -69 45 -35 50 -42 50 -78 0 -21 -3 -39 -7 -38 -5 0 -51 24 -103 52 l-95 53 0 74 c-1 122 -2 121 68 66z m-903 -146 l0 -170 -32 -20 c-18 -11 -36 -20 -40 -20 -5 0 -8 76 -8 169 l0 169 33 21 c17 11 35 21 40 21 4 0 7 -77 7 -170z m2760 103 c125 -70 187 -104 305 -167 97 -52 112 -62 103 -72 -4 -3 -37 12 -75 34 -70 41 -156 87 -341 182 -58 30 -108 61 -110 68 -6 21 12 14 118 -45z m45 26 c20 -12 34 -24 31 -26 -5 -5 -76 35 -76 43 0 7 9 4 45 -17z m4060 -9 c0 -22 -29 -18 -33 3 -3 14 1 18 15 15 10 -2 18 -10 18 -18z m-3922 -70 c26 -13 47 -30 47 -37 0 -17 -101 36 -108 56 -5 15 -6 15 61 -19z m-603 -6 c-8 -8 -23 -20 -34 -26 -14 -6 -11 -1 8 16 32 29 45 34 26 10z m430 -53 c47 -27 100 -57 117 -67 32 -18 43 -34 24 -34 -12 0 -150 79 -182 104 -15 12 -35 26 -45 33 -11 6 -14 12 -9 12 6 1 49 -21 95 -48z m113 -15 c32 -15 56 -30 54 -33 -7 -7 -75 24 -105 48 -31 25 -28 24 51 -15z m-1333 -206 c0 -109 -4 -170 -10 -170 -6 0 -28 11 -50 25 l-40 25 0 168 c0 93 3 171 6 175 4 3 26 -7 50 -24 l44 -30 0 -169z m1093 199 c45 -23 95 -59 82 -59 -16 0 -145 64 -145 72 0 13 19 9 63 -13z m75 -96 c3 -10 -3 -10 -25 1 -15 7 -47 21 -70 32 -26 11 -43 26 -43 36 0 13 13 9 67 -20 36 -20 68 -43 71 -49z m-7011 45 c-3 -8 -6 -5 -6 6 -1 11 2 17 5 13 3 -3 4 -12 1 -19z m4153 -86 c0 -86 0 -88 -29 -105 -16 -9 -33 -17 -38 -17 -4 0 -9 38 -11 84 l-3 84 33 21 c18 11 36 21 41 21 4 0 7 -40 7 -88z m4001 65 c-10 -9 -11 -8 -5 6 3 10 9 15 12 12 3 -3 0 -11 -7 -18z m-334 -9 c-3 -8 -6 -5 -6 6 -1 11 2 17 5 13 3 -3 4 -12 1 -19z m-626 -34 c16 -8 29 -19 29 -24 0 -17 -30 -11 -68 15 -20 14 -42 25 -49 25 -6 0 -14 4 -17 9 -8 12 69 -6 105 -25z m924 16 c-3 -5 -11 -10 -16 -10 -6 0 -7 5 -4 10 3 6 11 10 16 10 6 0 7 -4 4 -10z m-1037 -28 c6 -18 -15 -14 -22 4 -4 10 -1 14 6 12 6 -2 14 -10 16 -16z m336 -71 c38 -23 76 -43 85 -44 9 -1 27 -10 41 -20 24 -17 25 -17 29 0 4 17 4 17 10 0 4 -10 54 -44 111 -76 58 -32 104 -61 102 -65 -6 -13 32 -35 59 -36 15 0 38 -9 53 -21 22 -17 26 -28 25 -67 0 -26 -4 -56 -9 -67 -10 -23 -13 -14 -10 37 2 45 -35 88 -75 88 -15 0 -68 -23 -118 -51 -250 -140 -288 -160 -297 -154 -6 4 -9 1 -8 -5 2 -6 -53 -43 -122 -82 -69 -39 -159 -91 -200 -116 -188 -113 -357 -206 -373 -205 -9 1 -15 -2 -12 -7 3 -6 0 -7 -7 -5 -8 3 -22 -1 -33 -10 -20 -15 -20 -15 0 -9 11 3 -23 -18 -75 -46 -52 -29 -138 -78 -190 -110 -52 -31 -126 -74 -165 -95 -38 -21 -106 -59 -150 -85 -239 -139 -355 -201 -366 -194 -7 4 -9 3 -6 -2 3 -6 -22 -27 -56 -48 -112 -69 -231 -138 -327 -191 -52 -29 -136 -77 -187 -106 -51 -30 -129 -74 -175 -99 -45 -25 -167 -93 -271 -152 -104 -60 -194 -105 -200 -101 -6 4 -7 1 -2 -7 6 -10 4 -12 -9 -7 -10 4 -15 3 -11 -3 3 -5 -15 -21 -40 -35 -25 -15 -45 -28 -45 -29 0 -1 15 -1 33 1 17 2 25 0 17 -3 -23 -10 -70 -56 -85 -84 -7 -14 -16 -45 -20 -69 -6 -37 -9 -41 -17 -26 -17 30 -2 94 33 139 l32 41 -31 -29 c-41 -38 -62 -84 -62 -136 0 -63 13 -80 64 -80 34 0 57 9 117 49 41 26 148 91 239 143 384 221 367 212 438 238 18 7 48 25 66 39 19 15 56 38 82 52 27 13 51 27 54 30 11 13 187 109 199 109 7 0 36 17 64 38 28 20 108 69 177 108 69 39 174 99 234 134 59 34 130 71 157 80 27 10 68 33 91 52 65 51 314 191 360 202 15 3 51 25 80 49 55 44 444 269 488 282 14 4 50 25 80 47 107 77 449 271 503 286 53 15 37 -1 -46 -46 -40 -21 -128 -71 -197 -112 -69 -40 -188 -109 -265 -153 -77 -44 -277 -159 -445 -255 -168 -97 -366 -210 -440 -252 -228 -129 -640 -364 -740 -422 -52 -30 -174 -99 -270 -153 -202 -113 -269 -151 -400 -227 -52 -30 -126 -72 -165 -94 -38 -21 -131 -75 -205 -119 -170 -102 -235 -135 -267 -135 -23 0 -193 92 -368 200 -84 52 -186 102 -193 96 -3 -3 -11 3 -19 14 -8 11 -20 20 -27 20 -23 0 -39 56 -33 112 7 59 59 141 110 174 44 29 475 274 482 274 3 0 5 -7 5 -16 0 -25 49 -67 135 -113 44 -24 124 -70 177 -102 103 -62 121 -68 154 -45 20 14 21 28 27 222 l6 207 -25 45 c-14 24 -23 46 -21 49 4 4 115 68 332 193 55 31 117 65 137 74 20 10 42 24 49 32 17 21 37 17 72 -16 18 -16 37 -30 42 -31 46 -4 60 -10 88 -37 36 -35 60 -42 55 -16 -2 9 -46 39 -98 67 -52 27 -96 52 -97 56 -1 3 20 21 48 40 27 19 48 35 46 37 -1 2 -43 24 -92 50 -139 71 -274 164 -240 164 3 0 45 -24 93 -53 48 -30 119 -71 157 -92 39 -21 77 -44 87 -52 14 -13 20 -12 48 2 26 13 38 15 57 6 36 -17 37 -14 1 17 -18 16 -68 48 -110 71 -70 38 -101 61 -82 61 3 0 48 -22 99 -50 51 -27 101 -50 111 -50 28 0 139 65 139 80 0 10 -613 372 -672 397 -7 3 -13 -8 -16 -29 -3 -23 -4 -17 -5 20 -2 58 10 92 33 92 8 0 15 -4 15 -8 0 -5 39 -30 88 -57 48 -27 161 -91 252 -144 91 -52 194 -111 230 -130 64 -36 84 -60 95 -114 6 -28 7 -28 28 -13 12 9 29 19 37 23 8 4 74 41 145 83 230 136 268 155 274 139 7 -23 55 -62 107 -88 27 -14 104 -58 171 -98 67 -40 129 -73 138 -73 9 0 27 7 40 16 l25 16 0 218 c0 181 -3 221 -15 234 -8 8 -15 21 -15 29 0 9 58 49 133 93 72 42 174 103 225 135 l92 57 -45 26 c-62 37 -57 41 10 9 60 -30 52 -31 165 27 54 28 55 29 85 11 16 -10 61 -37 99 -60z m-7885 -22 c55 -19 69 -82 26 -124 -53 -54 -145 -16 -145 60 0 29 6 39 33 55 37 23 43 24 86 9z m468 -191 c-2 -18 -4 -4 -4 32 0 36 2 50 4 33 2 -18 2 -48 0 -65z m7820 40 c-3 -8 -6 -5 -6 6 -1 11 2 17 5 13 3 -3 4 -12 1 -19z m-2602 -18 c3 -5 1 -10 -4 -10 -6 0 -11 5 -11 10 0 6 2 10 4 10 3 0 8 -4 11 -10z m-1747 -135 c-3 -83 -5 -89 -30 -108 -15 -11 -30 -18 -33 -15 -3 3 -8 43 -12 88 l-6 84 33 28 c19 15 38 24 42 20 5 -5 8 -48 6 -97z m2069 73 c-3 -8 -6 -5 -6 6 -1 11 2 17 5 13 3 -3 4 -12 1 -19z m393 -28 c-8 -6 -22 -10 -30 -10 -8 0 -4 6 10 13 27 15 44 12 20 -3z m1920 -15 c0 -3 -16 -11 -36 -20 -29 -12 -41 -27 -72 -92 -34 -73 -37 -76 -40 -46 -7 66 63 163 117 163 17 0 31 -2 31 -5z m-4520 -112 l0 -88 -35 -23 -35 -22 0 87 c0 88 0 88 33 110 17 12 33 22 35 22 1 1 2 -38 2 -86z m3240 16 c12 -23 19 -47 17 -53 -7 -18 -207 -127 -236 -129 -20 -2 -30 11 -70 86 -45 85 -45 88 -27 102 30 23 40 19 70 -30 22 -35 32 -42 45 -35 9 5 52 29 96 54 44 25 81 46 82 46 1 0 12 -18 23 -41z m1300 29 c0 -20 -63 -118 -77 -118 -11 0 -33 29 -33 44 0 2 10 6 23 8 13 2 30 17 42 40 19 36 45 51 45 26z m-8209 -82 c6 -22 3 -33 -16 -52 -30 -30 -56 -30 -91 0 -26 22 -27 25 -14 55 12 31 15 32 63 29 46 -3 51 -6 58 -32z m4076 -28 c-3 -8 -6 -5 -6 6 -1 11 2 17 5 13 3 -3 4 -12 1 -19z m4133 -23 c0 -2 -10 -10 -22 -16 -21 -11 -22 -11 -9 4 13 16 31 23 31 12z m-8516 -44 c28 -28 14 -69 -29 -87 -40 -16 -78 -6 -94 25 -16 29 -14 39 15 68 20 20 31 24 57 19 18 -4 40 -15 51 -25z m5812 -32 c102 -61 103 -84 1 -27 -82 46 -97 57 -97 69 0 15 9 11 96 -42z m-1429 19 c-3 -8 -6 -5 -6 6 -1 11 2 17 5 13 3 -3 4 -12 1 -19z m-3740 -50 c-2 -13 -4 -5 -4 17 -1 22 1 32 4 23 2 -10 2 -28 0 -40z m4441 36 c6 -2 12 -17 12 -34 0 -45 47 -60 112 -35 8 3 26 -3 40 -15 22 -17 25 -25 19 -48 -11 -37 3 -72 29 -72 18 0 20 -6 20 -70 0 -61 -2 -70 -18 -70 -28 0 -42 -21 -42 -62 0 -32 -5 -40 -30 -53 -27 -14 -34 -13 -32 5 0 4 -22 6 -50 5 -48 0 -51 -1 -62 -35 -8 -26 -19 -37 -44 -44 -28 -8 -35 -6 -57 18 -34 37 -103 32 -128 -10 -4 -8 -24 -14 -43 -14 -28 0 -36 5 -45 27 -5 14 -8 32 -5 39 6 16 -79 24 -116 10 -39 -14 -58 6 -58 60 0 41 -2 45 -30 51 -27 5 -30 9 -30 43 0 28 -6 42 -22 54 -15 10 -17 14 -5 10 11 -4 17 -1 17 10 0 10 13 21 29 27 29 10 47 44 30 55 -19 12 -8 49 19 64 21 12 36 13 64 6 53 -13 88 4 88 43 0 21 6 30 23 35 38 10 58 7 84 -14 37 -29 100 -27 138 4 28 23 45 25 93 10z m6997 -39 c14 -13 25 -31 25 -40 0 -20 -44 -65 -64 -65 -32 0 -66 20 -72 44 -7 30 10 64 39 76 35 14 46 12 72 -15z m-7698 -17 c-3 -8 -6 -5 -6 6 -1 11 2 17 5 13 3 -3 4 -12 1 -19z m-580 -20 c-3 -7 -5 -2 -5 12 0 14 2 19 5 13 2 -7 2 -19 0 -25z m2068 -28 c-6 -10 -95 39 -95 53 0 4 23 -4 50 -18 28 -14 48 -30 45 -35z m2045 52 c0 -4 -13 -13 -29 -19 -36 -13 -91 -104 -91 -151 0 -20 -4 -31 -10 -27 -17 10 -11 76 11 121 11 24 35 52 52 63 32 21 67 28 67 13z m3570 -7 c21 -26 -5 -45 -62 -45 -57 0 -88 21 -68 45 17 21 113 20 130 0z m-10843 -42 c-3 -10 -5 -4 -5 12 0 17 2 24 5 18 2 -7 2 -21 0 -30z m-781 6 c22 -24 12 -47 -31 -68 -59 -29 -106 36 -53 73 31 22 61 20 84 -5z m3949 -9 c3 -5 1 -10 -4 -10 -6 0 -11 5 -11 10 0 6 2 10 4 10 3 0 8 -4 11 -10z m4128 -3 c3 -8 -11 -42 -31 -75 l-36 -62 -23 22 c-17 16 -20 25 -12 34 6 7 16 11 23 8 7 -3 21 15 34 41 22 46 36 56 45 32z m-2003 -83 c13 -12 13 -14 0 -14 -17 0 -116 55 -125 69 -8 13 106 -37 125 -55z m10 46 c39 -20 56 -37 47 -47 -5 -4 -56 29 -91 59 -17 14 4 9 44 -12z m-2615 -10 c3 -5 52 -35 108 -66 56 -31 154 -87 217 -124 63 -37 243 -141 400 -230 157 -89 291 -169 298 -178 11 -14 18 -92 8 -92 -9 0 -833 474 -933 537 -57 35 -110 66 -118 69 -13 5 -15 -45 -18 -407 l-2 -414 -3 438 c-1 288 2 445 8 458 12 21 25 25 35 9z m1115 -60 c0 -5 -2 -10 -4 -10 -3 0 -8 5 -11 10 -3 6 -1 10 4 10 6 0 11 -4 11 -10z m1641 -7 c16 -10 29 -21 29 -25 0 -10 -56 18 -65 32 -9 15 3 12 36 -7z m5874 -22 c10 -18 -26 -41 -65 -41 -45 0 -61 17 -35 37 21 15 91 18 100 4z m-6093 -93 c-9 -9 -94 31 -87 42 3 4 25 -2 50 -13 25 -12 42 -24 37 -29z m-106 -6 c-4 -3 -14 2 -24 12 -16 18 -16 18 6 6 13 -6 21 -14 18 -18z m5921 20 c6 -4 16 -20 22 -34 8 -21 7 -31 -5 -43 -26 -26 -81 -23 -106 7 -36 41 -14 77 47 78 17 0 35 -4 42 -8z m-11037 -59 l0 -48 -58 0 c-44 0 -64 -5 -86 -22 -47 -38 -136 -24 -136 20 0 8 12 25 26 36 21 17 40 21 88 20 65 -1 156 18 156 32 0 5 2 9 5 9 3 0 5 -21 5 -47z m5215 -4 c29 -28 4 -23 -36 7 -29 23 -31 25 -9 19 14 -4 34 -16 45 -26z m5377 -21 c-9 -9 -12 -4 -11 23 0 32 1 33 11 11 8 -17 8 -26 0 -34z m102 21 c-8 -14 -34 -10 -34 5 0 9 7 12 20 9 11 -3 17 -9 14 -14z m107 10 c15 -7 18 -16 13 -32 -14 -49 -64 -62 -89 -23 -32 48 20 86 76 55z m-4149 -26 c-39 -26 -82 -96 -82 -137 0 -8 -3 -22 -6 -31 -5 -13 -8 -14 -15 -3 -14 22 -10 50 16 105 24 54 71 93 110 93 13 0 7 -8 -23 -27z m-7436 -47 c36 -56 -38 -114 -85 -67 -12 12 -21 30 -21 40 0 51 77 70 106 27z m7494 0 c0 -21 -63 -126 -75 -126 -15 0 -35 21 -35 37 0 7 5 13 12 13 15 0 58 40 58 55 0 13 20 35 32 35 4 0 8 -6 8 -14z m-2690 -30 c0 -3 -4 -8 -10 -11 -5 -3 -10 -1 -10 4 0 6 5 11 10 11 6 0 10 -2 10 -4z m6567 -18 c-3 -8 -6 -5 -6 6 -1 11 2 17 5 13 3 -3 4 -12 1 -19z m773 6 c0 -8 -4 -12 -10 -9 -5 3 -10 10 -10 16 0 5 5 9 10 9 6 0 10 -7 10 -16z m-11872 -19 c12 -27 8 -32 -36 -44 -27 -8 -93 17 -93 34 0 14 46 33 82 34 29 1 38 -4 47 -24z m8189 -322 c-1 -65 -3 -14 -3 112 0 127 2 180 3 118 2 -62 2 -165 0 -230z m-3717 317 c0 -5 -5 -10 -11 -10 -5 0 -7 5 -4 10 3 6 8 10 11 10 2 0 4 -4 4 -10z m590 -10 c0 -5 -2 -10 -4 -10 -3 0 -8 5 -11 10 -3 6 -1 10 4 10 6 0 11 -4 11 -10z m-5260 -15 c-19 -7 -51 -13 -70 -13 l-35 0 39 11 c21 7 53 13 70 14 l31 1 -35 -13z m-200 -45 c0 -5 -7 -10 -15 -10 -8 0 -15 5 -15 10 0 6 7 10 15 10 8 0 15 -4 15 -10z m4745 0 c-3 -5 -12 -10 -18 -10 -7 0 -6 4 3 10 19 12 23 12 15 0z m6921 -45 c21 -14 39 -31 39 -37 0 -6 -28 -19 -63 -29 -67 -19 -107 -14 -118 16 -3 8 -10 12 -15 9 -5 -3 -9 4 -9 16 0 12 5 18 10 15 6 -3 10 1 10 10 0 21 58 45 85 35 12 -4 39 -20 61 -35z m-4511 -5 c3 -5 0 -10 -8 -10 -35 0 -107 -113 -107 -167 0 -14 -4 -21 -10 -18 -16 10 -11 73 9 113 33 64 99 110 116 82z m1665 -5 c27 -14 60 -51 60 -66 0 -4 -25 6 -55 23 -30 16 -55 36 -55 44 0 18 14 18 50 -1z m-7913 -27 c-3 -8 -6 -5 -6 6 -1 11 2 17 5 13 3 -3 4 -12 1 -19z m7842 8 c9 -10 6 -17 -13 -30 -15 -10 -28 -30 -32 -51 -7 -39 -19 -45 -29 -15 -8 26 2 60 28 88 24 26 30 27 46 8z m3562 -6 c23 -13 25 -48 4 -56 -8 -4 -26 -3 -40 0 -29 8 -34 40 -7 55 21 13 20 13 43 1z m-5121 -33 c0 -9 -55 -101 -76 -126 -7 -8 -34 22 -34 36 0 8 9 17 20 20 12 3 30 23 41 44 18 37 49 53 49 26z m-3327 -126 c106 -59 222 -125 260 -145 37 -20 67 -44 67 -51 0 -23 -19 -18 -91 25 -37 22 -71 40 -74 40 -4 0 -60 31 -124 68 -64 38 -144 84 -178 103 -41 22 -63 40 -63 51 0 10 2 18 6 18 3 0 91 -49 197 -109z m5075 20 c7 -21 12 -53 12 -70 0 -50 -24 -32 -32 23 -3 26 -14 58 -23 72 -9 13 -13 29 -9 35 10 17 40 -17 52 -60z m3113 19 c5 0 16 -12 26 -26 16 -26 16 -27 -6 -45 -28 -23 -54 -24 -75 -3 -32 32 -7 93 32 79 8 -3 18 -5 23 -5z m-7859 -62 c51 -31 83 -55 76 -59 -14 -9 -26 -4 -115 44 -40 21 -73 45 -73 53 0 23 19 17 112 -38z m-3702 23 c0 -15 -19 -23 -38 -16 -14 5 -14 7 -2 15 19 12 40 13 40 1z m420 -53 c0 -31 -4 -39 -22 -43 -26 -5 -71 -5 -105 1 -26 5 -32 24 -8 24 8 0 29 14 47 30 22 21 40 29 60 28 25 -2 28 -6 28 -40z m7615 -6 c-3 -3 -11 0 -18 7 -9 10 -8 11 6 5 10 -3 15 -9 12 -12z m-2924 -33 l20 -41 -22 -17 c-51 -37 -233 -140 -239 -136 -10 6 -113 186 -109 189 9 8 49 26 56 26 5 0 19 -20 33 -45 14 -25 29 -45 35 -45 5 1 48 25 95 55 47 29 91 54 97 54 7 1 22 -17 34 -40z m-5472 -25 c-13 -16 -45 -18 -54 -4 -7 12 34 30 53 23 9 -4 10 -9 1 -19z m12241 7 c0 -14 -18 -23 -30 -16 -6 4 -8 11 -5 16 8 12 35 12 35 0z m-11795 -23 c29 -13 31 -25 9 -57 -15 -20 -22 -23 -63 -17 -29 4 -61 0 -86 -9 -53 -19 -86 -19 -79 -1 3 7 29 20 58 29 29 8 64 26 79 41 29 29 44 32 82 14z m5915 -62 c-33 -22 -72 -85 -90 -144 -8 -24 -8 -23 -9 13 -1 65 65 155 114 155 15 0 12 -5 -15 -24z m60 -39 c0 -23 -61 -127 -74 -127 -18 0 -36 21 -36 42 0 13 8 18 25 18 15 0 28 7 32 18 18 48 53 80 53 49z m5599 -23 c3 -2 0 -9 -6 -15 -16 -16 -47 -7 -51 15 -3 16 0 18 24 12 16 -4 31 -10 33 -12z m-11253 -40 c-19 -18 -51 -15 -51 6 0 9 13 17 30 20 35 7 43 -3 21 -26z m10611 4 c-3 -8 -6 -5 -6 6 -1 11 2 17 5 13 3 -3 4 -12 1 -19z m-11413 3 c17 -7 17 -9 -9 -29 -32 -25 -73 -29 -81 -7 -14 35 39 56 90 36z m8001 -27 c14 -9 25 -20 25 -25 0 -11 -56 16 -65 31 -9 15 13 12 40 -6z m183 -119 c35 -20 61 -39 58 -42 -8 -9 -186 108 -186 123 0 3 15 -6 33 -20 17 -13 60 -41 95 -61z m-7708 60 c-14 -16 -46 -20 -54 -6 -9 13 5 21 37 21 25 0 28 -2 17 -15z m8477 -7 c-3 -8 -6 -5 -6 6 -1 11 2 17 5 13 3 -3 4 -12 1 -19z m2843 -3 c0 -16 -17 -19 -44 -9 -26 10 -18 24 14 24 20 0 30 -5 30 -15z m-2863 -11 c-3 -3 -12 -4 -19 -1 -8 3 -5 6 6 6 11 1 17 -2 13 -5z m-2949 -38 c-43 -19 -76 -56 -94 -105 -23 -61 -34 -72 -34 -33 0 72 66 153 124 151 l31 -1 -27 -12z m2183 -33 c38 -21 69 -43 69 -51 0 -9 -9 -7 -31 9 -17 12 -54 35 -83 50 -28 16 -45 29 -37 29 7 0 45 -17 82 -37z m-143 -13 c23 -17 42 -34 42 -39 0 -11 -99 50 -99 62 -2 14 16 7 57 -23z m4106 14 c19 -7 21 -20 4 -27 -19 -7 -60 11 -53 23 7 11 26 13 49 4z m-11314 -12 c0 -5 -11 -15 -25 -22 -27 -15 -54 -2 -41 19 8 13 66 15 66 3z m5200 -8 c0 -21 -58 -124 -70 -124 -14 0 -41 32 -37 44 2 6 14 12 26 14 13 2 26 14 32 30 18 48 49 70 49 36z m-5945 -13 c7 -13 -3 -18 -55 -25 l-45 -6 40 19 c47 23 52 24 60 12z m7955 -32 c28 -17 49 -33 46 -36 -5 -6 -103 44 -111 57 -11 19 14 10 65 -21z m3489 15 c2 -2 2 -6 -1 -9 -8 -9 -58 6 -58 16 0 8 48 2 59 -7z m-112 -76 c-2 -18 -4 -6 -4 27 0 33 2 48 4 33 2 -15 2 -42 0 -60z m-3229 25 c80 -44 77 -41 69 -50 -8 -7 -157 68 -157 80 0 14 22 7 88 -30z m-108 -41 c0 -13 -100 47 -100 61 0 5 22 -4 50 -20 27 -15 50 -34 50 -41z m155 -39 c11 -6 17 -15 13 -18 -10 -10 -127 55 -139 77 -9 17 19 4 126 -59z m-7730 57 c-3 -5 -12 -10 -18 -10 -7 0 -29 -9 -50 -20 -20 -11 -49 -20 -64 -20 -27 1 -27 1 -9 15 11 8 31 15 45 16 14 0 42 7 61 14 44 17 42 17 35 5z m322 -22 c-3 -8 -6 -5 -6 6 -1 11 2 17 5 13 3 -3 4 -12 1 -19z m6293 2 c8 -5 11 -10 5 -10 -5 0 -17 5 -25 10 -8 5 -10 10 -5 10 6 0 17 -5 25 -10z m5180 -21 c-75 -27 -226 -59 -275 -58 -34 0 -37 2 -18 9 13 5 43 12 69 15 25 3 80 14 122 25 134 33 183 38 102 9z m-4107 -37 c31 -19 57 -38 57 -44 0 -12 -87 37 -115 64 -25 25 -15 22 58 -20z m-4365 -15 c6 -7 31 -14 55 -15 35 -2 47 2 66 22 24 25 32 26 93 10 9 -3 18 -17 20 -32 4 -38 43 -55 91 -40 30 9 40 8 61 -6 22 -14 26 -24 26 -61 0 -39 3 -47 25 -55 17 -6 25 -17 25 -33 0 -21 -6 -25 -39 -31 -44 -7 -59 -22 -41 -39 9 -9 15 -7 26 7 12 18 14 18 14 3 0 -14 4 -16 19 -8 15 9 18 7 17 -11 -1 -14 -9 -24 -23 -28 -27 -6 -84 -77 -77 -95 11 -27 -5 -34 -40 -20 -18 8 -43 11 -54 8 -19 -5 -22 -1 -23 28 -1 22 -5 11 -11 -31 -6 -36 -12 -67 -13 -68 -2 -2 -20 -8 -41 -12 -30 -7 -40 -5 -50 8 -7 9 -10 21 -7 26 4 5 1 6 -5 2 -14 -8 -94 12 -88 22 2 4 -1 15 -8 24 -12 16 -14 16 -24 -7 -6 -14 -16 -25 -22 -25 -6 0 -5 -9 2 -25 15 -33 9 -37 -38 -27 -34 7 -39 12 -42 39 -3 27 -9 33 -40 42 -37 10 -37 10 -4 7 27 -2 32 1 32 19 0 29 -44 50 -79 36 -14 -5 -35 -12 -46 -16 -16 -5 -17 -8 -5 -15 10 -7 11 -10 3 -10 -7 0 -13 -7 -13 -16 0 -14 -3 -14 -15 -4 -9 8 -15 30 -15 56 0 32 -4 44 -15 44 -8 0 -15 4 -15 10 0 5 -8 7 -17 4 -14 -4 -13 -2 2 7 28 19 58 22 49 7 -4 -7 -3 -9 1 -5 14 12 15 41 2 49 -7 4 -24 8 -39 8 -35 0 -49 37 -22 57 10 7 24 13 31 13 7 0 13 9 13 19 0 23 16 36 25 21 3 -5 1 -10 -6 -10 -7 0 -10 -3 -6 -6 3 -3 11 -3 17 1 8 5 8 11 -1 21 -6 7 -15 11 -20 8 -5 -3 -9 6 -9 19 0 37 40 59 87 49 57 -13 91 2 95 41 3 28 7 33 38 38 37 5 59 -1 78 -24z m-3569 8 c-9 -9 -181 -66 -186 -62 -2 3 35 19 84 35 87 30 111 36 102 27z m11177 -9 c3 -9 12 -12 21 -9 12 5 14 3 8 -7 -5 -8 -4 -11 2 -7 6 4 28 0 49 -8 l39 -15 -50 5 c-71 8 -82 13 -88 35 -6 23 11 27 19 6z m-10868 -63 c-16 -2 -40 -2 -55 0 -16 2 -3 4 27 4 30 0 43 -2 28 -4z m-544 -20 c-10 -7 -29 -13 -42 -13 -19 0 -22 3 -13 13 6 8 25 14 42 14 29 0 30 -2 13 -14z m234 10 c-16 -2 -40 -2 -55 0 -16 2 -3 4 27 4 30 0 43 -2 28 -4z m7957 -73 c3 -6 -1 -7 -9 -4 -18 7 -21 14 -7 14 6 0 13 -4 16 -10z m-3660 -30 c-3 -5 -14 -10 -23 -9 -14 0 -13 2 3 9 27 11 27 11 20 0z m3788 -22 c-2 -5 -15 -8 -28 -8 -13 0 -26 3 -28 8 -3 4 10 7 28 7 18 0 31 -3 28 -7z m-7516 -35 c-3 -10 -5 -4 -5 12 0 17 2 24 5 18 2 -7 2 -21 0 -30z m4483 15 c0 -17 -64 -117 -75 -118 -17 0 -35 22 -35 42 0 12 8 18 25 18 19 0 29 10 45 40 19 36 40 46 40 18z m6233 -48 c48 -16 99 -30 114 -31 21 0 24 -2 10 -7 -13 -6 -2 -13 43 -31 81 -33 70 -38 -13 -6 -37 14 -93 28 -124 32 -49 6 -53 8 -28 13 28 6 27 7 -32 29 -35 13 -63 25 -63 27 0 6 2 5 93 -26z m-7998 0 c3 -5 2 -10 -4 -10 -5 0 -13 5 -16 10 -3 6 -2 10 4 10 5 0 13 -4 16 -10z m680 0 c3 -5 1 -10 -4 -10 -6 0 -11 5 -11 10 0 6 2 10 4 10 3 0 8 -4 11 -10z m-3722 -17 c-7 -2 -19 -2 -25 0 -7 3 -2 5 12 5 14 0 19 -2 13 -5z m245 0 c-10 -2 -26 -2 -35 0 -10 3 -2 5 17 5 19 0 27 -2 18 -5z m11405 0 c-18 -2 -48 -2 -65 0 -18 2 -4 4 32 4 36 0 50 -2 33 -4z m-11323 -11 c0 -5 -13 -7 -30 -4 -16 2 -30 6 -30 8 0 2 14 4 30 4 17 0 30 -4 30 -8z m11093 1 c-13 -2 -35 -2 -50 0 -16 2 -5 4 22 4 28 0 40 -2 28 -4z m-486 -19 c-3 -3 -12 -4 -19 -1 -8 3 -5 6 6 6 11 1 17 -2 13 -5z m-10639 -11 c-10 -2 -26 -2 -35 0 -10 3 -2 5 17 5 19 0 27 -2 18 -5z m29 -70 c-2 -16 -4 -3 -4 27 0 30 2 43 4 28 2 -16 2 -40 0 -55z m10590 15 c-2 -13 -4 -5 -4 17 -1 22 1 32 4 23 2 -10 2 -28 0 -40z m891 35 c-10 -2 -26 -2 -35 0 -10 3 -2 5 17 5 19 0 27 -2 18 -5z m-71 -9 c-3 -3 -12 -4 -19 -1 -8 3 -5 6 6 6 11 1 17 -2 13 -5z m-70 -10 c-3 -3 -12 -4 -19 -1 -8 3 -5 6 6 6 11 1 17 -2 13 -5z m-7387 -8 c0 -3 -4 -8 -10 -11 -5 -3 -10 -1 -10 4 0 6 5 11 10 11 6 0 10 -2 10 -4z m7333 -3 c-7 -2 -19 -2 -25 0 -7 3 -2 5 12 5 14 0 19 -2 13 -5z m-12016 -9 c-3 -3 -12 -4 -19 -1 -8 3 -5 6 6 6 11 1 17 -2 13 -5z m11956 -1 c-7 -2 -19 -2 -25 0 -7 3 -2 5 12 5 14 0 19 -2 13 -5z m-8353 -13 c0 -5 -2 -10 -4 -10 -3 0 -8 5 -11 10 -3 6 -1 10 4 10 6 0 11 -4 11 -10z m1015 -10 c-3 -5 -12 -10 -18 -10 -7 0 -6 4 3 10 19 12 23 12 15 0z m-4478 -16 c-3 -3 -12 -4 -19 -1 -8 3 -5 6 6 6 11 1 17 -2 13 -5z m11352 -30 c3 -4 -19 -4 -49 0 -30 3 -72 6 -92 6 -21 0 -38 4 -38 8 0 9 170 -4 179 -14z m-11282 10 c-3 -3 -12 -4 -19 -1 -8 3 -5 6 6 6 11 1 17 -2 13 -5z m4343 -4 c0 -5 -5 -10 -11 -10 -5 0 -7 5 -4 10 3 6 8 10 11 10 2 0 4 -4 4 -10z m-360 -10 c0 -5 -4 -10 -10 -10 -5 0 -10 5 -10 10 0 6 5 10 10 10 6 0 10 -4 10 -10z m-4352 -7 c-10 -2 -26 -2 -35 0 -10 3 -2 5 17 5 19 0 27 -2 18 -5z m11775 0 c-7 -2 -19 -2 -25 0 -7 3 -2 5 12 5 14 0 19 -2 13 -5z m-11705 -10 c-10 -2 -26 -2 -35 0 -10 3 -2 5 17 5 19 0 27 -2 18 -5z m70 -10 c-10 -2 -26 -2 -35 0 -10 3 -2 5 17 5 19 0 27 -2 18 -5z m11930 0 c-15 -2 -42 -2 -60 0 -18 2 -6 4 27 4 33 0 48 -2 33 -4z m-11758 -17 c47 -8 72 -14 55 -14 -16 0 -70 6 -120 13 -50 7 -74 13 -55 13 19 0 73 -5 120 -12z m4100 4 c0 -5 -2 -10 -4 -10 -3 0 -8 5 -11 10 -3 6 -1 10 4 10 6 0 11 -4 11 -10z m7130 -15 c10 -12 45 -15 193 -15 99 0 178 -2 176 -4 -8 -8 -395 -9 -408 -2 -9 6 -9 11 0 22 15 18 23 18 39 -1z m-6945 -5 c-3 -5 -11 -10 -16 -10 -6 0 -7 5 -4 10 3 6 11 10 16 10 6 0 7 -4 4 -10z m-4147 -7 c-10 -2 -26 -2 -35 0 -10 3 -2 5 17 5 19 0 27 -2 18 -5z m439 -60 c-2 -16 -4 -5 -4 22 0 28 2 40 4 28 2 -13 2 -35 0 -50z m3583 57 c0 -5 -2 -10 -4 -10 -3 0 -8 5 -11 10 -3 6 -1 10 4 10 6 0 11 -4 11 -10z m-3957 -7 c-7 -2 -19 -2 -25 0 -7 3 -2 5 12 5 14 0 19 -2 13 -5z m11894 1 c-3 -3 -12 -4 -19 -1 -8 3 -5 6 6 6 11 1 17 -2 13 -5z m-926 -98 c1 -48 -1 -90 -5 -93 -3 -4 -6 38 -6 92 0 54 2 96 5 94 2 -3 5 -44 6 -93z m-3909 -32 c-12 -8 -30 -13 -40 -11 -13 4 -12 5 5 6 12 0 25 6 28 11 3 6 11 10 18 10 6 0 1 -7 -11 -16z m4111 -21 c-29 -2 -78 -2 -110 0 -32 2 -8 3 52 3 61 0 87 -1 58 -3z m-116 -239 c-6 -7 -86 40 -91 53 -3 7 17 -2 45 -19 27 -16 48 -32 46 -34z m149 -35 c23 0 25 -2 10 -8 -14 -5 35 -33 198 -109 120 -56 229 -102 244 -103 15 0 21 -3 14 -6 -6 -2 -9 -10 -5 -15 4 -8 -2 -9 -18 -3 -24 7 -102 17 -264 34 l-90 9 110 -5 c61 -2 126 -6 145 -9 24 -4 32 -2 25 5 -19 19 -416 200 -429 195 -7 -3 -19 2 -26 10 -7 9 -16 13 -21 10 -5 -3 -9 -1 -9 5 0 15 53 18 71 4 8 -7 29 -13 45 -14z m-233 6 c-3 -9 -8 -14 -10 -11 -3 3 -2 9 2 15 9 16 15 13 8 -4z m127 -185 c72 -9 72 -9 -24 -4 -76 4 -101 2 -107 -8 -6 -9 -9 -7 -9 9 0 19 4 21 33 17 17 -3 66 -9 107 -14z m168 -17 c-16 -2 -40 -2 -55 0 -16 2 -3 4 27 4 30 0 43 -2 28 -4z m535 -20 c-13 -2 -35 -2 -50 0 -16 2 -5 4 22 4 28 0 40 -2 28 -4z m-12310 -30 c-7 -2 -21 -2 -30 0 -10 3 -5 5 12 5 17 0 24 -2 18 -5z m876 -2 c12 -8 12 -12 2 -25 -8 -9 -21 -16 -30 -16 -9 0 -45 -17 -81 -38 -91 -53 -552 -284 -557 -279 -2 3 85 50 194 105 377 192 427 219 437 241 10 23 15 25 35 12z m10729 2 c-21 -2 -55 -2 -75 0 -21 2 -4 4 37 4 41 0 58 -2 38 -4z m-11236 -10 c-62 -2 -161 -2 -220 0 -59 1 -8 3 113 3 121 0 169 -2 107 -3z m11461 0 c-23 -2 -64 -2 -90 0 -26 2 -7 3 42 3 50 0 71 -1 48 -3z m-11070 -10 c-40 -2 -106 -2 -145 0 -40 1 -8 3 72 3 80 0 112 -2 73 -3z m11300 0 c-29 -2 -78 -2 -110 0 -32 2 -8 3 52 3 61 0 87 -1 58 -3z m-582 -105 c-3 -21 -6 -26 -9 -15 -3 17 3 47 11 47 2 0 1 -15 -2 -32z m186 16 c-3 -3 -12 -4 -19 -1 -8 3 -5 6 6 6 11 1 17 -2 13 -5z m211 -11 c-16 -2 -40 -2 -55 0 -16 2 -3 4 27 4 30 0 43 -2 28 -4z m320 -10 c-10 -2 -28 -2 -40 0 -13 2 -5 4 17 4 22 1 32 -1 23 -4z m-658 -127 c25 -8 95 -19 155 -26 60 -6 112 -14 115 -17 3 -3 -42 -3 -100 1 -63 4 -101 3 -95 -3 12 -10 145 -64 160 -64 5 0 19 3 31 7 14 4 32 -2 57 -21 20 -16 36 -32 37 -37 0 -5 7 -17 16 -27 22 -25 10 -41 -22 -29 -14 6 -36 10 -49 10 -14 0 -39 6 -57 14 -18 8 -42 18 -53 21 -13 5 -15 9 -7 12 6 3 12 8 12 13 0 13 -181 103 -220 110 -26 4 -36 11 -38 28 -4 26 -1 26 58 8z m-63 -153 c-2 -16 -4 -3 -4 27 0 30 2 43 4 28 2 -16 2 -40 0 -55z m-10587 -26 l0 -72 -44 3 c-32 3 -57 -3 -95 -23 -48 -24 -51 -24 -42 -6 6 11 21 27 33 35 29 20 19 28 -42 34 -27 2 -50 8 -50 12 0 4 30 10 67 14 49 5 74 13 95 31 16 14 38 25 49 25 10 0 19 5 19 10 0 6 2 10 5 10 3 0 5 -33 5 -73z m-473 -13 c-3 -3 -12 -4 -19 -1 -8 3 -5 6 6 6 11 1 17 -2 13 -5z m108 -4 c3 -5 1 -10 -4 -10 -6 0 -11 5 -11 10 0 6 2 10 4 10 3 0 8 -4 11 -10z m111 3 c-11 -11 -75 -13 -82 -2 -3 5 16 9 42 9 26 0 44 -3 40 -7z m6372 -155 c-2 -17 -10 -23 -28 -23 -20 0 -26 -6 -28 -27 -3 -24 0 -28 22 -28 19 0 26 -5 26 -20 0 -15 -7 -20 -25 -20 l-25 0 0 -105 0 -105 -30 0 -30 0 0 104 c0 95 -2 104 -20 109 -26 7 -26 27 0 34 13 3 22 17 26 39 8 41 37 64 82 64 29 0 33 -3 30 -22z m-1244 2 c35 -13 59 -53 50 -82 -4 -12 -19 -34 -34 -48 l-28 -26 29 -32 c29 -32 49 -35 49 -6 0 8 10 14 25 14 22 0 24 -3 18 -32 -3 -18 -9 -40 -13 -48 -5 -10 -1 -24 12 -40 l20 -25 -26 -3 c-15 -2 -34 2 -42 9 -11 9 -17 9 -28 -1 -24 -19 -99 -17 -130 3 -54 36 -59 95 -10 144 23 23 24 26 10 49 -37 55 -2 125 66 133 4 1 18 -3 32 -9z m-1159 -112 c15 -62 31 -116 35 -121 3 -4 19 47 35 113 l29 121 30 -3 c31 -3 31 -4 60 -120 15 -65 31 -118 35 -118 4 0 17 46 30 103 32 144 28 137 62 137 24 0 29 -4 25 -17 -5 -16 -26 -94 -72 -260 -13 -48 -17 -53 -43 -53 -27 0 -29 3 -61 118 -18 64 -34 119 -36 121 -1 1 -8 -17 -14 -40 -54 -208 -50 -199 -80 -199 -26 0 -28 4 -69 148 -23 81 -44 155 -47 165 -4 13 1 17 24 17 28 0 29 -2 57 -112z m685 56 c0 -55 0 -55 22 -40 28 20 61 20 97 1 38 -19 54 -63 49 -132 -4 -46 -10 -61 -32 -80 -32 -27 -96 -31 -119 -8 -13 13 -16 13 -21 -1 -3 -9 -15 -14 -26 -12 -19 3 -21 11 -24 123 -2 66 -1 139 2 163 4 36 8 42 28 42 22 0 24 -4 24 -56z m953 36 c31 -24 50 -78 41 -114 -3 -14 -17 -37 -31 -51 -22 -21 -35 -25 -84 -25 l-58 0 -3 -57 c-3 -55 -4 -58 -30 -61 l-28 -3 0 165 0 166 84 0 c68 0 88 -4 109 -20z m147 -145 l0 -165 -25 0 -25 0 0 165 0 165 25 0 25 0 0 -165z m388 113 c2 -19 10 -28 25 -30 33 -5 35 -38 3 -38 -26 0 -26 -1 -26 -78 0 -74 1 -79 25 -90 36 -17 32 -42 -7 -42 -56 0 -68 21 -68 122 0 81 -2 88 -20 88 -13 0 -20 7 -20 19 0 10 9 21 20 24 14 3 20 14 20 32 0 22 4 26 23 23 15 -2 23 -11 25 -30z m-1631 -60 c15 -15 27 -41 30 -66 l6 -42 -87 0 c-74 0 -86 -2 -86 -17 0 -45 81 -73 110 -38 14 16 46 20 54 6 10 -16 -42 -61 -71 -62 -45 -2 -77 2 -96 12 -68 37 -67 186 2 225 38 21 107 12 138 -18z m1485 2 c15 -18 18 -41 18 -122 l0 -99 -27 3 c-19 2 -27 8 -25 18 3 11 -1 11 -16 -3 -27 -24 -96 -23 -122 3 -20 20 -26 65 -12 86 12 18 44 32 95 39 51 8 67 25 47 50 -16 19 -64 19 -80 0 -16 -20 -60 -20 -60 0 0 8 15 24 33 36 43 27 123 22 149 -11z m569 14 c74 -38 77 -169 7 -218 -25 -18 -100 -21 -129 -6 -44 24 -65 134 -35 189 27 49 99 65 157 35z m159 -4 l0 -20 20 20 c11 11 31 20 45 20 20 0 25 -5 25 -25 0 -20 -5 -25 -27 -25 -50 0 -63 -24 -63 -117 0 -82 0 -83 -25 -83 l-25 0 0 125 0 125 25 0 c18 0 25 -5 25 -20z m172 -5 c-4 -19 -3 -19 20 3 30 27 79 29 102 3 18 -20 18 -20 39 0 43 40 126 12 128 -43 0 -13 2 -60 5 -105 l3 -83 -29 0 -30 0 0 95 c0 83 -2 96 -19 105 -27 14 -37 13 -55 -6 -12 -12 -16 -37 -16 -105 0 -88 0 -89 -25 -89 -25 0 -25 1 -25 89 0 68 -4 93 -16 105 -20 20 -33 20 -56 -1 -15 -13 -18 -32 -18 -105 l0 -89 -27 3 c-28 3 -28 3 -31 92 -5 122 3 158 31 154 16 -2 21 -9 19 -23z m4082 -185 c35 -13 54 -54 35 -76 -9 -11 -23 -14 -47 -10 -58 9 -94 53 -66 80 18 18 42 20 78 6z m-10727 -42 c-3 -8 -6 -5 -6 6 -1 11 2 17 5 13 3 -3 4 -12 1 -19z m4081 -238 c48 -30 72 -75 72 -140 0 -67 -23 -117 -69 -147 -28 -19 -47 -23 -116 -23 l-82 0 -2 165 -2 165 83 0 c65 0 90 -4 116 -20z m962 -145 l0 -165 -25 0 -25 0 0 165 0 165 25 0 25 0 0 -165z m1630 115 c0 -26 4 -30 26 -30 33 0 30 -33 -4 -38 -21 -3 -22 -8 -22 -83 0 -67 3 -81 18 -86 17 -7 32 -22 32 -35 0 -14 -65 -9 -86 6 -16 12 -19 28 -20 88 -2 105 -2 108 -19 108 -23 0 -18 37 6 43 12 3 20 13 19 24 -4 30 -1 33 25 33 21 0 25 -5 25 -30z m-2306 -40 c28 -10 52 -50 57 -95 l4 -30 -87 -3 c-94 -3 -101 -8 -72 -50 18 -26 74 -30 98 -6 10 9 24 13 36 9 27 -8 25 -19 -6 -44 -30 -24 -97 -28 -138 -10 -53 25 -73 126 -36 187 29 48 86 65 144 42z m171 -85 c16 -53 31 -92 35 -88 3 5 18 47 34 96 24 78 30 87 52 87 13 0 24 -5 24 -12 0 -6 -19 -63 -42 -125 -42 -112 -44 -114 -72 -111 -28 3 -32 9 -73 123 -23 66 -43 121 -43 123 0 1 13 2 29 2 27 0 29 -4 56 -95z m343 81 c31 -16 50 -47 54 -91 l3 -30 -87 -3 c-94 -3 -101 -8 -72 -50 18 -26 74 -30 98 -6 19 18 51 15 51 -5 0 -27 -50 -53 -101 -53 -43 0 -52 4 -82 37 -32 35 -34 40 -30 96 4 60 23 93 63 110 31 12 73 10 103 -5z m414 -25 c23 -26 28 -40 28 -84 0 -101 -67 -155 -154 -125 -89 30 -104 175 -24 233 17 12 37 15 72 12 40 -4 55 -11 78 -36z m134 24 c5 -13 8 -13 27 0 25 17 70 19 98 5 58 -31 70 -156 20 -212 -22 -25 -37 -32 -64 -32 -20 0 -44 8 -55 17 -10 9 -20 17 -23 17 -2 0 -2 -27 -1 -61 l4 -61 -29 4 -28 3 -2 160 c-1 87 1 163 3 167 9 14 44 9 50 -7z m275 3 c1 -7 0 -17 -1 -23 -1 -5 9 0 22 13 30 27 75 28 103 2 l22 -20 18 20 c26 29 79 27 110 -5 23 -22 25 -31 25 -125 l0 -100 -25 0 c-25 0 -25 2 -25 78 0 85 -15 125 -47 130 -40 6 -53 -22 -53 -119 0 -88 0 -89 -25 -89 -25 0 -25 1 -25 89 0 91 -11 121 -45 121 -34 0 -45 -30 -45 -121 0 -88 0 -89 -24 -89 -25 0 -25 0 -28 121 -2 66 -1 123 1 125 10 9 41 3 42 -8z m513 0 c32 -14 53 -45 61 -92 l7 -36 -91 0 c-97 0 -105 -5 -75 -48 18 -27 91 -32 100 -7 7 17 40 20 49 4 10 -16 -24 -48 -64 -60 -80 -23 -151 35 -151 124 0 97 81 154 164 115z m159 -6 c-4 -16 7 -15 31 3 24 18 75 19 98 1 28 -21 38 -62 38 -152 l0 -84 -28 0 -28 0 -2 93 c-2 72 -6 95 -19 105 -23 16 -43 15 -65 -5 -15 -13 -18 -32 -18 -105 0 -87 0 -88 -25 -88 l-25 0 0 126 c0 124 0 125 23 122 12 -2 21 -9 20 -16z m-6870 -134 c21 -8 27 -17 27 -39 0 -23 -7 -32 -39 -48 -21 -11 -48 -36 -60 -56 -29 -49 -81 -71 -133 -56 -42 13 -58 35 -58 81 0 38 43 86 86 95 16 4 49 12 74 19 59 16 70 16 103 4z m11757 -603 c58 -30 71 -103 26 -142 -65 -56 -176 -11 -176 72 0 72 77 108 150 70z m-11263 -57 c-3 -8 -6 -5 -6 6 -1 11 2 17 5 13 3 -3 4 -12 1 -19z m0 -115 c-2 -16 -4 -5 -4 22 0 28 2 40 4 28 2 -13 2 -35 0 -50z"
       id="path1"
       style="fill:#000080" />
    <path
       d="M8867 6143 c-4 -3 -7 -21 -7 -38 0 -41 34 -85 66 -85 20 0 24 5 24 30 0 62 -54 122 -83 93z"
       id="path2"
       style="fill:#000080" />
    <path
       d="M8548 6067 c-6 -30 4 -56 31 -84 33 -35 51 -30 51 16 0 68 -71 126 -82 68z m68 -48 c10 -17 -13 -36 -27 -22 -12 12 -4 33 11 33 5 0 12 -5 16 -11z"
       id="path3"
       style="fill:#000080" />
    <path
       d="M7888 5323 c7 -3 16 -2 19 1 4 3 -2 6 -13 5 -11 0 -14 -3 -6 -6z"
       id="path4"
       style="fill:#000080" />
    <path
       d="M7896 5309 c-49 -13 -136 -62 -136 -76 0 -7 -4 -13 -9 -13 -18 0 -21 -33 -4 -47 13 -10 15 -16 5 -19 -6 -3 -9 -10 -6 -15 3 -6 11 -5 20 2 10 8 14 8 14 0 0 -6 7 -11 15 -11 8 0 15 -5 15 -11 0 -7 9 -20 21 -30 11 -10 18 -22 15 -28 -10 -15 12 -23 31 -12 16 9 16 10 2 11 -22 0 -32 27 -13 34 31 12 55 6 53 -11 -3 -36 2 -41 41 -48 22 -4 40 -11 40 -16 0 -5 9 -9 19 -9 11 0 40 -9 66 -20 46 -20 47 -20 88 -1 58 27 102 65 92 80 -4 7 -16 10 -27 8 -12 -4 -21 1 -25 11 -4 9 -11 20 -17 24 -6 4 -5 13 5 24 11 14 11 16 0 10 -8 -5 -17 -3 -23 5 -8 11 -9 10 -4 -3 3 -10 1 -20 -4 -23 -7 -4 -6 -13 0 -25 14 -26 12 -34 -4 -21 -8 6 -20 10 -27 9 -9 -2 -13 5 -12 16 1 11 -6 26 -15 32 -25 19 -2 40 27 25 18 -10 20 -9 14 5 -5 13 -3 15 7 9 9 -6 11 -4 6 4 -5 7 -14 10 -22 7 -8 -3 -13 -2 -13 2 4 28 -3 44 -17 38 -8 -3 -12 -2 -9 4 4 6 -6 7 -26 3 -21 -4 -30 -3 -26 4 9 14 -29 47 -44 37 -8 -4 -10 -3 -5 4 4 8 0 12 -11 12 -10 0 -29 6 -43 13 -16 9 -36 11 -54 6z m14 -34 c0 -8 6 -12 13 -9 7 2 25 -6 40 -20 14 -13 37 -28 49 -31 37 -11 68 -34 68 -50 0 -13 -3 -13 -25 1 -15 10 -25 12 -25 5 0 -6 -9 -11 -20 -11 -22 0 -28 25 -7 33 7 3 5 6 -5 6 -10 1 -18 6 -18 11 0 6 -7 10 -15 10 -8 0 -15 7 -15 15 0 8 -3 14 -7 13 -5 -1 -23 3 -40 9 -34 12 -43 28 -20 36 16 6 27 -1 27 -18z m-60 -11 c0 -8 -71 -36 -77 -30 -3 3 10 12 28 20 38 16 49 19 49 10z m-80 -69 c-7 -8 -17 -12 -23 -8 -6 4 -3 11 8 19 23 17 32 10 15 -11z m96 -4 c-9 -13 -46 -15 -46 -1 0 14 34 30 44 20 4 -4 5 -13 2 -19z m54 -21 c0 -11 -7 -20 -15 -20 -15 0 -21 21 -8 33 12 13 23 7 23 -13z m70 -50 c0 -21 -15 -27 -25 -10 -7 12 2 30 16 30 5 0 9 -9 9 -20z m10 -54 c0 -8 -5 -18 -11 -22 -14 -8 -33 11 -25 25 10 16 36 13 36 -3z"
       id="path5"
       style="fill:#000080" />
    <path
       d="M8056 5261 c10 -10 21 -17 23 -15 6 6 -20 34 -32 34 -6 0 -2 -8 9 -19z"
       id="path6"
       style="fill:#000080" />
    <path
       d="M6921 4712 c0 -7 -5 -11 -11 -7 -5 3 -18 0 -29 -7 -15 -9 -24 -9 -31 -2 -8 8 -28 3 -71 -18 -57 -28 -75 -48 -44 -48 8 0 15 -5 15 -11 0 -7 -12 -9 -34 -5 -26 5 -37 3 -44 -10 -18 -33 -1 -62 57 -97 77 -47 317 -177 326 -177 16 0 216 125 206 128 -6 2 -8 9 -4 15 4 7 -5 4 -20 -5 -34 -23 -41 -23 -34 2 3 13 0 20 -9 20 -8 0 -14 7 -14 16 0 9 5 12 13 8 8 -5 8 -2 -2 9 -7 9 -10 17 -5 18 5 0 -2 5 -15 10 -14 5 -27 6 -30 2 -3 -4 -11 -9 -16 -10 -6 -1 -23 -5 -39 -9 -22 -5 -28 -4 -24 7 3 8 14 19 27 25 20 10 20 12 4 25 -15 12 -16 12 -8 -1 6 -11 3 -10 -12 3 -11 9 -26 17 -34 17 -8 0 -31 15 -52 33 -28 25 -34 36 -26 44 9 9 7 11 -9 7 -14 -4 -22 0 -25 13 -3 10 -5 12 -6 5z m-73 -37 c-3 -3 -9 2 -12 12 -6 14 -5 15 5 6 7 -7 10 -15 7 -18z m-18 -9 c0 -21 -20 -30 -33 -17 -9 9 -8 14 3 21 21 14 30 12 30 -4z m-50 -56 c0 -5 -4 -10 -10 -10 -5 0 -10 5 -10 10 0 6 5 10 10 10 6 0 10 -4 10 -10z m64 -6 c14 -5 12 -34 -3 -34 -16 1 -33 19 -27 29 8 13 9 13 30 5z m-37 -56 c42 -39 22 -54 -22 -16 -14 12 -25 25 -25 30 0 15 24 8 47 -14z m143 -38 c0 -5 -7 -10 -16 -10 -8 0 -12 5 -9 10 3 6 10 10 16 10 5 0 9 -4 9 -10z m31 -3 c-1 -12 -15 -9 -19 4 -3 6 1 10 8 8 6 -3 11 -8 11 -12z m-91 -16 c0 -5 10 -11 22 -13 25 -3 37 -28 15 -28 -9 0 -22 7 -31 15 -8 8 -19 15 -25 15 -6 0 -11 5 -11 10 0 6 7 10 15 10 8 0 15 -4 15 -9z m154 0 c9 -15 -23 -36 -36 -23 -5 5 -7 15 -4 21 9 13 33 14 40 2z m144 -43 c-6 -18 -28 -21 -28 -4 0 9 7 16 16 16 9 0 14 -5 12 -12z m-158 -13 c0 -8 -4 -15 -10 -15 -5 0 -10 7 -10 15 0 8 5 15 10 15 6 0 10 -7 10 -15z m-30 1 c0 -3 -4 -8 -10 -11 -5 -3 -10 -1 -10 4 0 6 5 11 10 11 6 0 10 -2 10 -4z m140 -10 c0 -15 -37 -32 -48 -22 -6 6 27 35 41 36 4 0 7 -6 7 -14z m-77 -22 c9 -10 -4 -34 -19 -34 -8 0 -14 9 -14 20 0 19 19 27 33 14z"
       id="path7"
       style="fill:#000080" />
    <path
       d="M6230 4409 c0 -5 -4 -8 -9 -5 -5 3 -14 0 -20 -8 -9 -11 4 -23 70 -60 45 -25 85 -44 88 -41 3 4 -1 10 -9 15 -13 9 -13 10 0 10 12 0 13 2 1 9 -10 6 -6 11 15 20 16 6 20 10 8 7 -12 -2 -32 5 -45 15 -13 10 -34 19 -47 19 -13 0 -21 4 -18 9 3 5 -1 12 -10 15 -21 8 -24 8 -24 -5z"
       id="path8"
       style="fill:#000080" />
    <path
       d="M6148 4372 c-1 -5 -41 -28 -88 -52 -47 -23 -103 -55 -125 -69 -22 -15 -77 -49 -122 -76 -46 -28 -83 -53 -83 -56 0 -11 148 -98 414 -244 l68 -38 67 32 c116 57 399 215 439 246 1 1 0 9 -4 18 -5 15 -9 15 -31 -3 -42 -33 -51 -30 -198 58 -33 20 -91 57 -130 82 -61 41 -186 110 -199 110 -2 0 -6 -4 -8 -8z m48 -47 c-11 -8 -24 -15 -29 -15 -5 0 -4 -6 2 -14 10 -12 8 -13 -8 -9 -27 7 -26 18 1 37 30 21 61 22 34 1z m-90 -60 c-23 -17 -36 -19 -36 -6 0 11 18 19 40 20 11 0 10 -3 -4 -14z m-61 -24 c7 -13 -9 -22 -51 -27 -22 -3 -33 -1 -29 6 3 5 15 10 25 10 10 0 22 5 25 10 8 13 22 13 30 1z m75 -21 c0 -5 -7 -10 -16 -10 -8 0 -12 5 -9 10 3 6 10 10 16 10 5 0 9 -4 9 -10z m270 -10 c0 -5 -4 -10 -10 -10 -5 0 -10 5 -10 10 0 6 5 10 10 10 6 0 10 -4 10 -10z m-405 -30 c-3 -5 -11 -10 -16 -10 -6 0 -7 5 -4 10 3 6 11 10 16 10 6 0 7 -4 4 -10z m363 -6 c-9 -10 -24 -14 -33 -10 -23 9 -9 26 23 26 24 0 25 -1 10 -16z m-418 1 c0 -6 -56 -35 -67 -35 -14 1 39 40 53 40 8 0 14 -2 14 -5z m520 -25 c0 -5 -4 -10 -10 -10 -5 0 -10 5 -10 10 0 6 5 10 10 10 6 0 10 -4 10 -10z m-520 -19 c0 -14 -18 -23 -30 -16 -6 4 -8 11 -5 16 8 12 35 12 35 0z m346 -6 c-19 -14 -36 -12 -36 6 0 5 12 9 28 9 26 -1 26 -1 8 -15z m-416 -4 c0 -11 -26 -22 -34 -14 -12 12 -5 23 14 23 11 0 20 -4 20 -9z m140 -21 c0 -5 -4 -10 -9 -10 -6 0 -13 5 -16 10 -3 6 1 10 9 10 9 0 16 -4 16 -10z m-120 -10 c0 -5 -2 -10 -4 -10 -3 0 -8 5 -11 10 -3 6 -1 10 4 10 6 0 11 -4 11 -10z m77 -25 c3 -9 3 -19 -1 -22 -7 -7 -36 16 -36 28 0 15 30 10 37 -6z m303 5 c0 -5 -9 -14 -20 -20 -22 -12 -27 -1 -8 18 14 14 28 16 28 2z m276 -5 c-11 -8 -25 -15 -30 -15 -6 0 -2 7 8 15 11 8 25 15 30 15 6 0 2 -7 -8 -15z m-146 -20 c0 -8 -7 -15 -15 -15 -8 0 -15 7 -15 15 0 8 7 15 15 15 8 0 15 -7 15 -15z m80 -4 c0 -12 -20 -25 -27 -18 -7 7 6 27 18 27 5 0 9 -4 9 -9z m-465 -21 c8 -13 -5 -13 -25 0 -13 8 -13 10 2 10 9 0 20 -4 23 -10z m120 0 c3 -5 -3 -10 -15 -10 -12 0 -18 5 -15 10 3 6 10 10 15 10 5 0 12 -4 15 -10z m75 -18 c0 -13 -12 -22 -22 -16 -10 6 -1 24 13 24 5 0 9 -4 9 -8z m215 -2 c4 -7 -53 -40 -71 -40 -14 0 1 22 24 34 32 18 39 19 47 6z m-344 -15 c-1 -15 -24 -12 -29 3 -3 9 2 13 12 10 10 -1 17 -7 17 -13z m44 -15 c3 -5 1 -10 -4 -10 -6 0 -11 5 -11 10 0 6 2 10 4 10 3 0 8 -4 11 -10z m59 -11 c-3 -5 -10 -7 -15 -3 -5 3 -7 10 -3 15 3 5 10 7 15 3 5 -3 7 -10 3 -15z m146 -8 c0 -14 -18 -23 -30 -16 -6 4 -8 11 -5 16 8 12 35 12 35 0z m-107 -33 c3 -10 9 -10 25 -1 12 7 24 9 27 4 3 -5 -9 -17 -27 -26 -30 -15 -34 -15 -45 1 -12 17 -9 34 7 34 4 0 10 -6 13 -12z"
       id="path9"
       style="fill:#000080" />
    <path
       d="M6376 4328 c-19 -11 -19 -11 -1 -24 18 -14 18 -14 -1 -14 -17 -1 -17 -3 6 -21 14 -12 51 -34 82 -50 31 -16 78 -42 104 -59 64 -40 84 -40 84 3 0 24 -3 28 -10 17 -5 -8 -10 -10 -10 -4 0 10 -25 21 -57 25 -5 1 -19 10 -33 21 -22 17 -25 18 -28 4 -2 -9 -8 -16 -13 -16 -6 0 -7 5 -4 10 4 6 3 10 -2 9 -20 -3 -27 2 -13 11 11 8 8 9 -12 4 -28 -6 -40 9 -15 19 9 4 9 6 0 6 -7 1 -24 12 -38 26 -26 27 -33 41 -13 29 7 -4 8 -3 4 4 -8 14 -6 14 -30 0z"
       id="path10"
       style="fill:#000080" />
    <path
       d="M6434 4295 c11 -8 24 -15 30 -15 5 0 1 7 -10 15 -10 8 -23 14 -29 14 -5 0 -1 -6 9 -14z"
       id="path11"
       style="fill:#000080" />
    <path
       d="M4893 4760 c-1 -11 2 -18 8 -15 11 7 12 35 1 35 -4 0 -8 -9 -9 -20z"
       id="path12"
       style="fill:#000080" />
    <path
       d="M5107 4750 c-22 -17 -25 -25 -17 -45 6 -16 5 -25 -2 -27 -18 -6 20 -36 60 -48 87 -24 175 -4 205 47 20 35 13 65 -20 77 -15 6 -14 4 3 -15 19 -22 19 -22 0 -12 -15 8 -23 7 -34 -3 -14 -15 -63 -20 -61 -6 1 4 1 17 0 28 -1 20 -4 21 -47 13 -25 -5 -50 -11 -55 -14 -5 -4 -9 -2 -9 4 0 5 6 12 13 14 7 3 8 6 1 6 -6 1 -23 -8 -37 -19z"
       id="path13"
       style="fill:#000080" />
    <path
       d="M5256 4752 c-2 -4 -2 -12 2 -17 11 -16 30 -16 36 0 3 10 0 12 -11 8 -11 -4 -14 -2 -9 5 4 7 3 12 -3 12 -5 0 -12 -4 -15 -8z"
       id="path14"
       style="fill:#000080" />
    <path
       d="M4853 4636 c-4 -5 -1 -6 7 -1 10 6 12 3 7 -11 -7 -18 -7 -18 7 0 15 18 42 13 30 -6 -4 -7 -2 -8 4 -4 6 4 9 13 6 21 -6 16 -52 17 -61 1z"
       id="path15"
       style="fill:#000080" />
    <path
       d="M5516 4531 c-12 -5 -15 -10 -9 -14 6 -4 16 0 23 8 14 17 13 17 -14 6z"
       id="path16"
       style="fill:#000080" />
    <path
       d="M5536 4501 c-4 -7 -5 -15 -2 -18 9 -9 19 4 14 18 -4 11 -6 11 -12 0z"
       id="path17"
       style="fill:#000080" />
    <path
       d="M3903 3255 c0 -7 6 -11 14 -8 7 3 13 6 13 8 0 2 -6 5 -13 8 -8 3 -14 -1 -14 -8z"
       id="path18"
       style="fill:#000080" />
    <path
       d="M4003 3255 c-18 -5 -33 -16 -33 -23 0 -11 -9 -13 -37 -9 -21 4 -32 3 -25 -2 9 -5 5 -11 -15 -20 -23 -10 -26 -10 -15 0 6 7 12 17 12 22 0 5 -7 2 -15 -7 -8 -8 -15 -19 -15 -24 0 -18 36 -41 83 -53 55 -15 147 -1 178 27 26 23 24 67 -3 90 -14 12 -18 13 -10 3 16 -21 4 -32 -16 -13 -8 9 -23 13 -33 11 -10 -3 -19 -2 -21 2 -2 3 -18 2 -35 -4z m20 -22 c-7 -2 -21 -2 -30 0 -10 3 -4 5 12 5 17 0 24 -2 18 -5z m61 -12 c3 -4 -6 -6 -19 -3 -14 2 -25 6 -25 8 0 8 39 4 44 -5z"
       id="path19"
       style="fill:#000080" />
    <path
       d="M5770 1555 c-10 -12 -10 -21 -2 -41 10 -20 15 -23 31 -15 25 14 34 40 20 57 -15 18 -34 18 -49 -1z"
       id="path20"
       style="fill:#000080" />
    <path
       d="M5752 1408 c-19 -19 -15 -66 7 -78 27 -14 56 -13 69 3 9 10 5 22 -15 50 -28 39 -41 45 -61 25z"
       id="path21"
       style="fill:#000080" />
    <path
       d="M5370 1470 c-14 -14 -20 -33 -20 -63 0 -55 22 -87 60 -87 38 0 60 32 60 87 0 48 -26 83 -60 83 -11 0 -29 -9 -40 -20z"
       id="path22"
       style="fill:#000080" />
    <path
       d="M6170 1505 l0 -65 44 0 c54 0 76 19 76 65 0 42 -29 65 -82 65 l-38 0 0 -65z"
       id="path23"
       style="fill:#000080" />
    <path
       d="M5092 1474 c-41 -29 -28 -44 38 -44 64 0 72 8 40 40 -24 24 -48 25 -78 4z"
       id="path24"
       style="fill:#000080" />
    <path
       d="M6605 1388 c-49 -11 -59 -20 -50 -48 10 -33 74 -25 95 12 20 36 6 47 -45 36z"
       id="path25"
       style="fill:#000080" />
    <path
       d="M7160 1470 c-14 -14 -20 -33 -20 -65 0 -32 6 -51 20 -65 46 -46 105 -9 105 65 0 74 -59 111 -105 65z"
       id="path26"
       style="fill:#000080" />
    <path
       d="M4890 895 l0 -116 57 3 c53 3 59 6 80 37 15 22 23 49 23 76 0 27 -8 54 -23 76 -21 31 -27 34 -80 37 l-57 3 0 -116z"
       id="path27"
       style="fill:#000080" />
    <path
       d="M5220 918 c-11 -12 -20 -25 -20 -30 0 -4 27 -8 60 -8 53 0 60 2 60 20 0 41 -67 53 -100 18z"
       id="path28"
       style="fill:#000080" />
    <path
       d="M5730 920 c-32 -32 -24 -40 40 -40 65 0 76 12 42 43 -25 23 -58 21 -82 -3z"
       id="path29"
       style="fill:#000080" />
    <path
       d="M6123 925 c-27 -19 -38 -71 -23 -110 13 -35 26 -45 61 -45 35 0 50 20 56 73 4 33 0 48 -17 70 -24 31 -46 34 -77 12z"
       id="path30"
       style="fill:#000080" />
    <path
       d="M6400 920 c-27 -27 -28 -110 -2 -133 67 -61 139 53 81 127 -24 31 -52 33 -79 6z"
       id="path31"
       style="fill:#000080" />
    <path
       d="M7072 917 c-12 -13 -22 -26 -22 -30 0 -4 27 -7 60 -7 64 0 76 12 44 44 -22 23 -57 20 -82 -7z"
       id="path32"
       style="fill:#000080" />
    <path
       d="M0 3221 c0 -9 198 -26 207 -18 2 3 -31 8 -74 11 -43 4 -90 9 -105 11 -16 3 -28 1 -28 -4z"
       id="path33"
       style="fill:#000080" />
    <path
       d="M0 3173 c0 -29 33 -38 108 -29 72 8 152 28 152 37 0 4 -59 9 -130 11 -129 3 -130 3 -130 -19z"
       id="path34"
       style="fill:#000080" />
    <path
       d="M0 2680 l0 -30 50 20 c28 11 53 20 55 20 3 0 5 5 5 10 0 6 -25 10 -55 10 -54 0 -55 0 -55 -30z"
       id="path35"
       style="fill:#000080" />
    <path
       d="M175 2563 c-194 -4 -175 13 -175 -163 0 -83 1 -150 3 -150 21 0 599 277 647 309 15 10 -120 11 -475 4z"
       id="path36"
       style="fill:#000080" />
  </g>
</svg>
