<?xml version="1.0" encoding="UTF-8" standalone="no"?>
<svg
   version="1.0"
   width="1248.000000pt"
   height="832.000000pt"
   viewBox="0 0 1248.000000 832.000000"
   preserveAspectRatio="xMidYMid meet"
   id="svg73"
   sodipodi:docname="service-cloud.svg"
   inkscape:version="1.4.3 (0d15f75, 2025-12-25)"
   xmlns:inkscape="http://www.inkscape.org/namespaces/inkscape"
   xmlns:sodipodi="http://sodipodi.sourceforge.net/DTD/sodipodi-0.dtd"
   xmlns="http://www.w3.org/2000/svg"
   xmlns:svg="http://www.w3.org/2000/svg">
  <defs
     id="defs73" />
  <sodipodi:namedview
     id="namedview73"
     pagecolor="#ffffff"
     bordercolor="#000000"
     borderopacity="0.25"
     inkscape:showpageshadow="2"
     inkscape:pageopacity="0.0"
     inkscape:pagecheckerboard="0"
     inkscape:deskcolor="#d1d1d1"
     inkscape:document-units="pt"
     showguides="true"
     inkscape:zoom="0.72746394"
     inkscape:cx="832.34366"
     inkscape:cy="586.28335"
     inkscape:window-width="1920"
     inkscape:window-height="1009"
     inkscape:window-x="-8"
     inkscape:window-y="-8"
     inkscape:window-maximized="1"
     inkscape:current-layer="svg73" />
  <g
     transform="translate(0.000000,832.000000) scale(0.100000,-0.100000)"
     fill="#000000"
     stroke="none"
     id="g73"
     style="fill:#000080">
    <path
       d="M0 4160 l0 -4160 2621 0 2621 0 -7 29 c-13 60 83 114 144 82 26 -14 30 -78 6 -87 -45 -18 5 -24 185 -24 110 0 200 4 200 9 0 8 -102 51 -123 51 -7 0 -37 12 -67 26 -36 17 -74 27 -112 28 -46 2 -63 7 -85 27 -41 38 -117 71 -146 64 -13 -4 -41 0 -62 9 -55 23 -70 22 -51 -6 25 -35 20 -94 -9 -123 -68 -69 -175 23 -120 102 9 13 34 28 56 35 l41 12 -28 14 c-17 9 -40 12 -66 8 -50 -8 -74 5 -88 50 -10 29 -21 40 -59 55 -25 11 -78 37 -117 56 l-72 37 -32 -27 c-36 -31 -56 -33 -104 -13 -25 10 -36 22 -41 46 -4 17 -13 34 -20 37 -8 2 -11 11 -9 18 10 26 -32 53 -93 60 -32 4 -62 8 -68 10 -5 2 89 4 209 4 121 1 216 -2 213 -5 -7 -7 43 -41 139 -93 58 -32 62 -33 90 -18 29 15 29 15 80 -33 34 -32 67 -53 100 -63 28 -8 89 -35 137 -61 80 -42 94 -46 157 -46 61 0 72 -3 97 -26 28 -27 81 -54 105 -54 8 0 19 13 25 30 20 53 92 33 78 -23 -6 -21 -2 -26 26 -36 17 -6 47 -11 65 -11 19 0 34 -4 34 -10 0 -5 13 -10 28 -10 16 0 37 -7 48 -15 25 -19 79 -19 108 0 20 13 24 14 29 2 3 -8 26 -19 51 -26 59 -14 76 -14 76 2 0 17 32 47 49 47 9 0 11 -8 7 -27 -8 -29 5 -43 40 -43 11 0 29 -9 39 -20 10 -11 24 -20 32 -20 7 0 16 -7 19 -15 7 -18 31 -20 37 -2 4 9 7 9 18 0 20 -19 39 -16 39 7 0 26 17 26 25 0 6 -19 15 -20 188 -19 l182 1 -89 17 c-50 9 -91 22 -94 29 -5 15 3 15 53 -2 22 -8 59 -17 83 -21 37 -6 42 -5 42 13 0 31 25 46 44 27 9 -9 16 -22 16 -29 0 -26 51 -36 180 -36 111 0 129 2 124 15 -4 10 0 15 11 15 11 0 15 -5 11 -15 -5 -13 14 -15 129 -15 93 0 135 3 135 11 0 8 4 8 13 0 21 -17 362 -14 377 4 7 9 8 15 1 19 -16 10 6 49 36 63 14 7 30 10 35 7 5 -3 15 -1 22 5 10 8 17 6 30 -8 17 -18 17 -20 -1 -29 -10 -5 -24 -7 -31 -5 -6 3 -12 0 -12 -6 0 -6 -6 -11 -14 -11 -7 0 -16 -9 -19 -20 -6 -22 8 -28 17 -7 3 8 8 7 16 -5 14 -22 34 -24 26 -2 -11 29 5 35 35 14 20 -15 27 -17 23 -7 -8 23 17 33 32 13 8 -11 14 -13 19 -6 9 15 25 2 18 -15 -4 -12 2 -14 27 -12 18 2 35 9 39 16 5 7 22 13 39 13 28 1 30 3 21 20 -16 30 -2 34 26 8 l24 -23 20 24 c16 19 22 22 32 12 20 -20 27 -16 21 12 -6 33 16 33 24 0 4 -16 13 -25 26 -25 10 0 16 4 13 10 -8 13 42 63 55 55 6 -3 10 -2 10 2 0 5 9 9 19 10 35 3 151 84 151 105 0 5 -7 2 -16 -6 -8 -9 -20 -16 -25 -16 -14 0 -11 18 5 27 7 4 13 19 12 32 -1 19 5 26 24 31 23 6 24 7 6 17 -17 9 -17 11 -1 16 9 4 23 0 32 -9 9 -8 19 -12 22 -7 3 4 15 9 26 11 30 5 68 35 83 66 10 19 19 26 30 21 9 -3 13 -3 10 1 -9 8 9 44 22 44 15 0 50 33 50 47 0 7 9 18 20 25 23 15 27 38 5 38 -8 0 -15 -4 -15 -10 0 -5 -4 -10 -10 -10 -5 0 -10 7 -10 15 0 10 10 15 34 15 43 0 52 -12 26 -35 -27 -25 -25 -36 12 -62 l31 -22 19 21 c24 27 23 34 -7 60 -13 11 -22 24 -20 28 6 10 113 12 119 2 3 -4 -6 -21 -20 -37 -31 -36 -24 -43 14 -16 20 14 29 27 25 39 -4 17 4 19 84 21 83 2 89 1 90 -19 2 -17 -1 -19 -19 -9 -19 10 -25 8 -47 -17 -13 -16 -29 -29 -35 -29 -6 0 -11 -17 -12 -37 -1 -35 10 -52 18 -28 2 6 14 12 27 15 13 2 31 11 41 20 9 8 26 15 37 15 29 0 52 28 33 40 -10 6 -6 10 16 16 47 11 51 18 14 25 -46 8 703 16 755 8 l40 -6 -42 -2 c-24 0 -43 -5 -43 -10 0 -4 -10 -7 -22 -4 -17 2 -28 -5 -43 -29 -27 -44 -52 -45 -99 -3 -44 40 -52 42 -65 16 -6 -10 -24 -24 -41 -31 -36 -15 -38 -25 -6 -45 13 -9 40 -41 61 -72 l37 -55 -34 25 c-33 26 -42 35 -87 92 -20 26 -22 27 -16 7 4 -13 2 -29 -5 -37 -10 -12 -9 -15 4 -15 9 0 16 5 16 12 0 6 3 8 7 4 5 -4 -1 -14 -11 -21 -17 -13 -17 -18 -6 -44 7 -17 15 -29 19 -26 4 2 8 -12 8 -31 1 -19 -3 -34 -8 -34 -4 0 -11 -15 -14 -34 -6 -31 -9 -33 -43 -29 -20 2 -41 8 -48 14 -16 13 -44 0 -44 -21 0 -20 -56 -100 -69 -100 -6 0 -22 -5 -38 -12 -15 -6 -34 -10 -40 -9 -7 1 -13 -7 -13 -18 0 -11 -15 -28 -37 -43 l-38 -23 240 -3 c189 -2 242 0 250 11 15 19 58 47 73 47 7 0 18 -13 23 -30 l11 -30 1209 0 1209 0 0 1148 c0 1086 -1 1148 -17 1149 -10 1 -29 4 -43 7 -14 3 -19 4 -12 0 16 -8 15 -29 -1 -43 -18 -14 -30 -2 -16 15 7 9 7 19 1 30 -8 15 -12 12 -27 -19 -9 -21 -24 -37 -32 -37 -11 0 -14 -7 -11 -24 4 -18 1 -23 -9 -19 -8 3 -11 13 -8 24 8 23 3 23 -35 4 -16 -8 -31 -11 -34 -6 -9 13 29 42 47 36 22 -9 31 13 16 41 -11 21 -10 26 7 38 25 19 40 9 20 -13 -9 -10 -16 -21 -16 -25 0 -12 25 0 26 12 3 25 5 27 14 12 5 -8 12 -11 17 -7 4 5 3 11 -2 15 -6 4 -16 18 -23 31 -12 21 -12 23 2 18 9 -4 16 -1 16 5 0 7 5 6 15 -2 31 -26 16 20 -16 50 -17 15 -28 33 -24 39 4 8 13 4 25 -11 11 -13 19 -18 20 -13 0 6 -5 16 -12 23 -9 9 -8 15 7 26 15 11 22 11 27 3 4 -7 0 -15 -10 -19 -11 -4 -12 -7 -3 -7 11 -1 10 -6 -3 -26 -13 -19 -13 -25 -3 -25 7 0 23 -9 35 -20 22 -21 37 -27 27 -11 -3 5 -1 12 4 15 19 12 24 -17 6 -31 -11 -7 -14 -13 -9 -13 31 0 34 26 34 282 0 209 -3 258 -13 258 -21 0 -40 49 -26 66 6 8 18 14 25 14 19 0 21 366 2 373 -10 4 -10 7 0 18 9 10 12 519 12 2476 l0 2463 -5583 0 -5583 0 -23 -31 c-12 -16 -33 -35 -47 -41 -21 -10 -26 -8 -45 17 -20 25 -27 27 -72 22 -42 -4 -50 -2 -54 14 -8 27 -106 27 -125 0 -19 -27 -85 -35 -130 -17 -20 9 -39 20 -43 26 -4 6 -141 10 -391 10 l-384 0 0 -4160z m10838 3760 c25 -15 32 -27 32 -50 0 -38 -31 -70 -70 -70 -66 0 -95 80 -42 119 34 25 39 26 80 1z m-9195 -207 c-13 -2 -33 -2 -45 0 -13 2 -3 4 22 4 25 0 35 -2 23 -4z m64 1 c-3 -3 -12 -4 -19 -1 -8 3 -5 6 6 6 11 1 17 -2 13 -5z m421 -1 c-21 -2 -57 -2 -80 0 -24 2 -7 4 37 4 44 0 63 -2 43 -4z m-13 -43 c13 -5 14 -9 5 -9 -8 0 -24 4 -35 9 -13 5 -14 9 -5 9 8 0 24 -4 35 -9z m-1040 -309 c-3 -6 3 -14 12 -20 10 -6 13 -11 8 -11 -6 0 -16 5 -21 10 -7 7 -15 2 -24 -15 -7 -14 -18 -25 -23 -25 -9 0 -1 13 32 53 15 18 26 23 16 8z m9 -57 c3 -8 2 -12 -4 -9 -6 3 -10 10 -10 16 0 14 7 11 14 -7z m1625 -74 c11 -22 9 -21 -13 5 -14 17 -25 34 -26 38 0 13 25 -16 39 -43z m-1876 -400 c3 -11 1 -18 -4 -14 -5 3 -9 0 -9 -7 0 -7 -3 -10 -6 -6 -5 5 4 47 11 47 1 0 5 -9 8 -20z m5767 -131 c0 -6 -4 -7 -10 -4 -5 3 -10 11 -10 16 0 6 5 7 10 4 6 -3 10 -11 10 -16z m96 -37 c6 -4 16 -17 23 -30 10 -19 8 -31 -13 -79 -14 -30 -26 -63 -26 -73 0 -22 -21 -31 -35 -16 -12 13 -55 112 -62 143 -10 43 71 83 113 55z m-3829 -119 c-3 -10 -5 -2 -5 17 0 19 2 27 5 18 2 -10 2 -26 0 -35z m3483 -53 c0 -5 -4 -10 -10 -10 -5 0 -10 5 -10 10 0 6 5 10 10 10 6 0 10 -4 10 -10z m-5503 -92 c-3 -7 -5 -2 -5 12 0 14 2 19 5 13 2 -7 2 -19 0 -25z m20 -45 c1 -24 1 -25 -7 -8 -11 26 -12 35 -2 35 4 0 8 -12 9 -27z m2838 -3 c3 -5 1 -10 -4 -10 -6 0 -11 5 -11 10 0 6 2 10 4 10 3 0 8 -4 11 -10z m1159 -5 c11 -8 29 -12 39 -9 14 4 18 2 15 -7 -3 -8 -18 -14 -34 -14 -16 0 -35 -4 -42 -8 -14 -10 -27 16 -18 38 7 19 16 18 40 0z m186 -4 c19 -3 33 -11 30 -16 -2 -6 -11 -9 -18 -7 -9 2 -11 -1 -7 -8 11 -18 -36 8 -60 33 -19 21 -19 21 0 13 11 -5 36 -12 55 -15z m202 -6 c4 -20 3 -23 -8 -14 -11 9 -14 8 -14 -2 0 -12 -2 -12 -9 0 -7 11 -10 10 -18 -4 -7 -12 -13 -14 -17 -6 -11 17 2 31 30 31 13 0 24 5 24 10 0 19 8 10 12 -15z m-72 5 c0 -5 -11 -10 -24 -10 -15 0 -26 -7 -29 -17 -3 -11 -5 -7 -6 10 -1 24 3 27 29 27 17 0 30 -4 30 -10z m110 -10 c0 -11 -4 -20 -10 -20 -5 0 -10 9 -10 20 0 11 5 20 10 20 6 0 10 -9 10 -20z m-340 1 c0 -6 -4 -13 -10 -16 -5 -3 -10 1 -10 9 0 9 5 16 10 16 6 0 10 -4 10 -9z m36 -18 c-7 -7 -26 7 -26 19 0 6 6 6 15 -2 9 -7 13 -15 11 -17z m364 12 c0 -7 -11 -12 -25 -12 -14 0 -25 5 -25 12 0 7 11 13 25 13 14 0 25 -6 25 -13z m30 0 c0 -8 -4 -15 -10 -15 -5 0 -10 7 -10 15 0 8 5 15 10 15 6 0 10 -7 10 -15z m-4459 -22 c-12 -20 -14 -14 -5 12 4 9 9 14 11 11 3 -2 0 -13 -6 -23z m6249 -10 c0 -9 10 -27 21 -40 21 -22 21 -23 3 -30 -17 -6 -17 -8 6 -14 18 -5 8 -7 -32 -8 -31 -1 -60 4 -63 9 -10 16 5 50 21 50 8 0 15 6 15 13 1 6 2 17 4 22 1 6 3 14 3 18 3 14 22 -4 22 -20z m283 20 c-29 -2 -77 -2 -105 0 -29 2 -6 3 52 3 58 0 81 -1 53 -3z m-1383 -34 c0 -13 -20 -21 -35 -15 -22 8 -7 35 16 29 10 -3 19 -9 19 -14z m1810 -9 c0 -6 -56 -10 -147 -10 -82 0 -203 -3 -270 -6 -124 -7 -179 -1 -168 16 8 14 585 13 585 0z m-370 -44 c0 -11 -23 -14 -105 -15 -95 -2 -117 3 -98 22 3 4 51 7 105 7 77 0 98 -3 98 -14z m-1126 -17 c-3 -5 -10 -7 -15 -3 -5 3 -7 10 -3 15 3 5 10 7 15 3 5 -3 7 -10 3 -15z m273 -5 c-9 -9 -28 6 -21 18 4 6 10 6 17 -1 6 -6 8 -13 4 -17z m-337 -186 c0 -95 3 -196 6 -224 6 -49 7 -50 35 -46 31 5 30 7 33 -80 2 -47 16 -43 16 5 0 25 4 48 9 52 6 3 9 -18 9 -52 -2 -129 2 -203 13 -203 5 0 7 5 4 10 -3 6 0 10 9 10 8 0 17 -6 19 -12 3 -8 6 -6 6 4 1 9 -6 21 -14 26 -18 10 -33 82 -17 82 6 0 9 8 8 18 -2 9 2 20 7 24 8 4 7 17 0 42 -12 39 -9 41 32 26 20 -8 24 -14 17 -23 -11 -13 -10 -202 1 -214 4 -3 7 3 7 15 0 12 4 22 9 22 5 0 7 -10 5 -22 -4 -22 -4 -22 6 1 7 17 7 27 -1 37 -9 11 -7 14 10 14 13 0 21 6 21 18 0 14 2 15 10 2 8 -12 10 -10 11 10 0 14 3 19 6 12 3 -8 9 -10 16 -3 8 6 11 34 9 76 -3 60 -6 65 -23 60 -12 -4 -19 -2 -19 8 0 21 12 28 26 16 9 -8 11 -5 7 9 -2 11 0 23 6 26 6 4 11 0 11 -10 0 -14 3 -15 12 -6 7 7 22 12 35 12 21 0 23 -4 23 -54 0 -76 10 -118 26 -112 10 4 15 -12 21 -57 4 -34 6 -66 5 -70 -1 -5 2 -6 8 -2 6 4 10 12 9 18 -3 26 4 81 8 65 9 -36 23 -16 24 35 0 38 3 47 9 32 5 -11 9 -33 10 -50 l2 -30 9 30 c6 17 10 126 9 243 0 205 1 212 20 212 19 0 20 -7 21 -167 1 -93 5 -213 9 -268 l8 -100 0 140 c0 177 -2 165 27 165 l25 0 2 -167 c2 -212 13 -115 15 132 2 150 4 170 18 173 16 4 17 -14 14 -200 -3 -243 -2 -268 10 -268 5 0 7 50 5 112 -1 61 -1 115 2 120 3 4 14 3 25 -2 17 -10 19 -22 19 -120 0 -88 3 -110 14 -110 8 0 17 6 20 13 5 10 7 10 12 0 4 -10 76 -13 310 -13 236 0 312 -3 338 -14 41 -17 94 -81 101 -121 2 -16 7 -262 9 -545 l5 -515 93 -1 c55 0 103 -6 117 -13 16 -9 30 -10 45 -4 80 36 110 31 170 -28 24 -24 28 -35 23 -63 -5 -32 -3 -35 24 -41 16 -4 29 -13 29 -20 0 -20 43 -84 56 -85 6 0 17 -7 24 -15 7 -9 22 -12 40 -9 15 3 37 1 49 -6 14 -7 27 -8 34 -2 19 14 112 8 140 -10 13 -9 28 -29 32 -45 9 -36 23 -53 45 -53 22 0 56 -37 53 -59 -2 -9 1 -22 6 -30 7 -11 15 -10 46 9 28 17 34 25 23 32 -10 8 -10 8 2 4 8 -3 23 -9 33 -12 9 -4 17 -12 17 -19 0 -7 25 -32 55 -55 30 -23 55 -48 55 -55 0 -7 7 -15 15 -18 19 -8 46 -73 38 -93 -3 -9 0 -20 7 -24 22 -14 3 -40 -29 -40 -23 0 -34 -8 -51 -35 -12 -20 -19 -42 -16 -50 3 -8 0 -18 -7 -22 -17 -11 -37 -49 -37 -72 0 -30 -25 -44 -72 -38 -58 7 -99 16 -125 29 -19 10 -36 8 -130 -8 -27 -5 -38 -1 -63 25 -18 17 -40 31 -51 31 -11 0 -27 5 -37 11 -15 10 -29 5 -77 -26 -58 -36 -59 -37 -87 -20 -29 16 -71 21 -118 12 -14 -3 -28 -6 -31 -6 -3 -1 -4 -24 -3 -51 2 -34 0 -50 -9 -50 -7 0 -18 -10 -25 -21 -12 -18 -20 -20 -55 -15 -23 4 -48 8 -54 8 -7 1 -13 10 -13 20 0 10 -5 18 -11 18 -6 0 -9 -7 -6 -15 5 -11 0 -13 -26 -8 -18 3 -36 9 -42 13 -5 4 -27 10 -48 13 -46 7 -107 51 -107 76 0 10 11 28 25 41 14 13 25 20 25 15 0 -5 4 -5 10 1 6 6 6 21 1 39 -6 18 -10 23 -10 11 -2 -29 -59 -95 -105 -118 -37 -20 -62 -22 -276 -28 -181 -5 -204 -7 -100 -8 l136 -2 49 -48 c28 -27 56 -58 64 -70 8 -11 25 -23 38 -27 13 -3 21 -9 18 -14 -6 -11 33 -38 67 -46 19 -5 28 -1 41 18 14 22 20 24 56 17 22 -4 45 -13 53 -21 32 -35 59 -82 54 -94 -3 -8 0 -28 5 -45 9 -26 15 -29 37 -24 15 4 31 11 36 15 20 18 56 9 66 -16 10 -28 45 -34 82 -14 15 8 26 8 44 -1 17 -10 27 -10 37 -2 19 16 35 2 87 -75 23 -35 46 -66 51 -69 6 -3 7 -19 4 -35 -6 -28 -5 -29 17 -24 16 4 33 -1 51 -15 15 -12 35 -19 44 -16 11 3 30 -4 47 -17 24 -20 30 -32 33 -80 4 -51 2 -57 -22 -73 -20 -13 -25 -24 -22 -41 3 -17 0 -23 -14 -23 -14 0 -19 -7 -19 -25 0 -35 -27 -45 -118 -45 -63 0 -84 -4 -104 -19 -24 -19 -25 -19 -65 -1 -23 10 -45 25 -50 34 -14 25 -121 33 -161 12 -39 -20 -71 -21 -78 -1 -4 8 -10 12 -15 9 -5 -3 -9 0 -9 5 0 6 -7 11 -15 11 -8 0 -15 -9 -15 -19 0 -11 -4 -23 -10 -26 -5 -3 -10 -17 -10 -29 0 -37 -46 -76 -89 -76 -34 0 -40 5 -66 50 -25 42 -35 50 -60 50 -35 1 -65 21 -65 44 0 9 -5 16 -11 16 -5 0 -15 14 -20 30 -11 30 -41 41 -54 20 -3 -5 -14 -10 -24 -10 -10 0 -24 -7 -32 -16 -19 -23 -135 -10 -195 22 -33 17 -61 24 -103 24 -51 0 -60 -3 -77 -26 -47 -65 -74 -76 -131 -53 l-28 11 28 10 c19 7 25 14 19 21 -5 7 -12 28 -16 48 -5 30 -13 39 -47 54 -33 15 -44 16 -60 7 -24 -15 -52 -15 -67 1 -7 6 -43 15 -80 18 -49 5 -31 7 68 6 112 0 134 2 131 14 -7 30 1 125 13 136 14 14 3 22 -41 29 -110 16 -220 134 -245 261 -6 32 -17 65 -26 73 -13 13 -14 10 -7 -25 4 -22 9 -52 10 -67 2 -15 9 -37 15 -48 6 -11 7 -20 1 -20 -5 0 -14 14 -20 32 -17 48 -32 23 -22 -39 5 -36 18 -63 46 -97 35 -43 36 -46 15 -44 -37 5 -34 -18 5 -48 28 -21 51 -29 95 -32 62 -5 78 5 60 38 -9 18 -8 19 12 11 18 -6 23 -16 23 -42 0 -28 4 -35 23 -37 27 -4 29 -22 2 -22 -11 0 -20 3 -20 8 0 4 -24 8 -53 9 -34 2 -73 13 -112 33 -61 30 -145 100 -145 119 0 6 -3 11 -8 11 -4 0 -13 14 -21 31 -7 16 -15 28 -18 25 -10 -9 16 -66 41 -91 30 -29 35 -47 8 -22 -10 10 -23 17 -29 17 -6 0 -19 24 -30 53 -17 42 -18 53 -7 55 8 2 14 8 14 13 0 6 -5 7 -10 4 -16 -10 -50 5 -50 22 0 9 -3 14 -6 10 -19 -19 61 -199 104 -234 16 -13 21 -22 13 -23 -8 0 -31 19 -53 42 -41 44 -82 62 -71 30 3 -9 10 -23 16 -29 12 -17 -5 -17 -21 -1 -16 16 -15 8 3 -36 8 -19 38 -58 67 -86 28 -27 47 -50 41 -50 -5 0 -23 15 -40 33 -31 33 -80 77 -87 77 -7 0 -15 -44 -9 -53 3 -6 8 -30 10 -55 l4 -45 -35 6 c-33 5 -36 4 -45 -26 -10 -34 -12 -31 -15 18 0 17 -6 30 -13 29 -7 -1 -22 -2 -32 -2 -30 -3 -34 -31 -6 -42 39 -15 30 -36 -12 -31 -7 1 -14 -2 -14 -6 -1 -4 -3 -21 -5 -37 -5 -48 -14 -42 -14 11 0 42 -3 52 -20 56 -10 3 -25 -2 -31 -9 -8 -10 -16 -11 -22 -5 -7 7 -23 3 -48 -10 -21 -10 -43 -19 -49 -19 -19 0 -10 17 16 28 14 7 23 16 19 21 -3 5 4 12 15 16 27 9 102 80 93 88 -3 4 2 7 12 7 18 0 18 1 3 16 -14 14 -18 14 -49 -2 -34 -18 -40 -20 -59 -23 -19 -2 -10 -20 13 -24 12 -2 4 -5 -19 -6 -23 0 -56 -4 -74 -8 -32 -6 -33 -6 -28 26 3 20 0 35 -7 37 -24 10 -207 -14 -216 -27 -5 -8 -14 -38 -20 -67 -9 -37 -16 -51 -26 -48 -7 3 -13 -1 -13 -10 0 -8 5 -12 10 -9 13 8 13 -4 0 -42 -6 -17 -22 -36 -36 -43 -26 -15 -54 -61 -54 -92 0 -18 -7 -19 -112 -16 -103 3 -113 1 -112 -14 3 -32 -49 -21 -153 32 -54 27 -103 50 -109 50 -6 0 -30 -17 -54 -38 -27 -22 -56 -38 -75 -39 -16 -1 -47 -5 -67 -9 -81 -14 -238 78 -238 139 0 23 -18 36 -33 25 -10 -7 -37 27 -37 45 0 21 0 21 -16 -1 -10 -14 -25 -22 -45 -22 -21 0 -32 -6 -37 -20 l-8 -21 -23 21 c-13 11 -32 20 -41 20 -9 0 -35 16 -57 35 -23 19 -48 35 -55 35 -8 0 -35 -19 -60 -43 -82 -77 -110 -98 -121 -94 -7 2 -29 10 -50 18 -37 13 -39 15 -35 54 3 22 8 48 12 58 8 17 7 17 -23 0 -28 -17 -31 -17 -47 -1 -9 9 -18 29 -20 45 -3 25 1 30 32 39 28 9 37 9 41 -1 3 -10 14 -7 40 11 20 13 39 24 44 24 4 0 7 10 7 23 -4 69 2 86 35 104 17 9 44 16 60 14 26 -2 34 6 41 41 12 56 63 114 93 104 27 -8 50 9 35 27 -17 20 9 78 45 105 21 16 31 34 40 79 l11 58 -5 -62 c-6 -62 -5 -63 20 -63 14 0 33 7 42 16 12 12 28 15 61 11 l44 -5 0 42 c0 22 9 70 20 104 11 35 20 77 20 93 0 32 31 181 37 175 2 -2 10 -56 18 -121 11 -90 12 -139 5 -204 -5 -47 -10 -90 -10 -95 0 -12 72 3 90 19 8 7 29 15 45 17 28 3 30 6 36 56 8 66 15 74 26 31 5 -17 16 -33 25 -35 8 -1 26 -5 38 -9 15 -5 20 -4 16 4 -5 7 -1 9 8 5 23 -9 20 -34 -3 -34 -11 0 -26 -9 -34 -20 -8 -11 -17 -17 -20 -13 -4 3 -7 -1 -7 -10 0 -9 18 -26 41 -37 26 -14 45 -33 54 -53 7 -18 17 -36 21 -40 5 -5 10 -34 11 -65 2 -47 7 -61 28 -80 29 -25 53 -23 118 11 39 20 53 18 99 -15 13 -9 23 -9 50 4 18 9 47 22 63 29 17 7 38 20 49 29 10 8 20 13 23 11 13 -10 108 57 156 110 41 44 56 56 60 44 4 -9 1 -15 -8 -15 -7 0 -24 -14 -37 -31 -13 -17 -39 -46 -58 -65 -45 -44 -31 -43 31 1 49 37 89 90 89 118 0 26 31 97 40 92 13 -8 34 56 34 104 l1 46 -149 3 c-145 3 -198 -1 -194 -16 5 -20 -17 -80 -37 -98 -49 -45 -136 -52 -214 -17 -28 13 -41 13 -66 4 -17 -6 -41 -11 -53 -11 -12 0 -22 -4 -22 -9 0 -6 -9 -9 -20 -8 -25 2 -27 33 -2 46 21 11 21 11 78 11 25 0 43 4 40 8 -3 5 6 16 20 26 13 11 24 25 24 32 0 10 16 14 62 14 34 0 59 2 56 5 -2 3 -86 5 -186 5 -195 1 -242 9 -242 42 0 15 5 18 17 14 61 -24 126 -29 343 -26 481 7 605 11 617 22 9 7 13 7 13 -1 0 -7 20 -11 53 -11 70 0 94 8 101 33 4 16 8 18 18 9 12 -10 82 4 178 35 11 4 164 6 233 3 4 0 12 -11 19 -25 6 -13 15 -22 19 -19 5 3 9 2 9 -3 0 -4 25 -9 56 -11 31 -1 65 -7 75 -13 29 -15 139 -9 139 8 0 20 31 29 44 11 25 -33 167 -42 513 -32 367 10 376 12 407 83 17 40 22 147 6 121 -8 -12 -10 -11 -10 6 0 12 -14 37 -31 55 -17 19 -39 54 -50 79 -11 24 -25 48 -31 51 -6 4 -12 35 -15 70 -3 35 -6 65 -8 67 -1 1 -5 -60 -9 -135 l-7 -138 -36 -35 -37 -35 32 38 32 38 -2 669 -3 670 -28 27 -27 28 -878 5 -877 5 870 6 c865 6 870 6 901 -14 59 -39 59 -35 61 -372 3 -361 4 -428 10 -399 4 20 9 21 78 16 l75 -5 2 469 3 469 5 -457 c3 -251 8 -460 13 -464 4 -4 7 205 7 464 0 260 -3 472 -7 472 -5 0 -6 24 -5 54 4 59 -11 98 -53 141 -14 14 -34 25 -45 25 -10 0 -20 6 -22 13 -4 9 -288 13 -1369 15 -1330 2 -1365 2 -1395 -17 -18 -11 -45 -36 -60 -57 l-29 -37 1 -409 c1 -297 -2 -408 -10 -405 -6 2 -12 27 -14 55 -3 43 -6 52 -22 52 -10 0 -35 19 -55 42 -36 42 -36 44 -29 108 3 36 7 66 9 68 1 1 19 3 40 5 34 2 40 -1 46 -23 l7 -25 2 25 c1 14 2 135 3 270 2 281 5 291 90 344 l47 29 285 5 c157 3 288 9 291 13 7 12 44 11 44 0 0 -14 52 -22 85 -13 28 8 30 12 27 50 -2 36 0 42 18 42 23 0 26 -10 8 -28 -8 -8 -8 -12 -1 -12 6 0 14 -11 17 -25 6 -22 12 -25 51 -25 29 0 45 5 46 13 3 29 -4 62 -13 68 -15 10 -2 39 17 39 9 0 15 -6 13 -12 -2 -7 2 -14 7 -15 6 -2 10 39 11 105 1 138 0 134 27 130 22 -3 22 -6 25 -165 2 -152 4 -163 21 -163 11 0 22 6 24 13 4 9 8 8 16 -3 10 -13 13 -12 26 4 11 14 15 16 15 5 1 -9 4 -8 12 6 11 19 11 19 18 0 4 -12 9 -15 13 -8 4 6 0 18 -8 26 -19 19 -19 27 -2 27 13 0 17 11 18 53 0 9 4 17 10 17 9 0 13 -19 9 -57 -1 -17 3 -21 14 -17 9 4 16 11 15 18 -3 28 2 69 8 62 4 -4 6 -22 5 -41 -2 -31 0 -35 23 -35 14 0 25 5 25 10 0 6 -8 10 -17 10 -15 0 -16 2 -3 10 13 9 13 11 0 20 -12 7 -12 10 -1 10 8 0 11 6 7 15 -6 17 11 71 20 62 3 -3 7 -50 9 -104 2 -54 4 -100 4 -102 1 -3 7 1 13 7 8 8 13 49 15 113 1 56 4 103 7 106 2 3 2 26 -1 52 -4 36 -1 50 11 60 14 11 16 40 16 196 0 100 3 185 7 188 3 4 15 7 25 7 17 0 18 -12 18 -172z m2150 127 c0 -25 -4 -45 -10 -45 -5 0 -10 20 -10 45 0 25 5 45 10 45 6 0 10 -20 10 -45z m-151 -50 c11 -19 16 -35 11 -35 -8 0 -50 61 -50 74 0 14 18 -5 39 -39z m309 5 c-13 -22 -26 -40 -30 -40 -13 0 -9 13 12 48 28 46 45 40 18 -8z m-4484 15 c49 -15 105 -51 139 -90 24 -27 50 -76 43 -82 -2 -3 -14 13 -25 35 -27 53 -33 56 -70 35 -24 -14 -30 -23 -26 -38 3 -11 8 -41 12 -67 l6 -48 53 0 54 0 1 38 c0 30 2 33 9 17 5 -11 8 -40 8 -65 0 -25 -3 -35 -5 -22 -4 21 -9 23 -61 20 l-57 -3 -7 -45 c-4 -25 -10 -54 -12 -66 -6 -24 45 -60 72 -49 29 11 -30 -45 -76 -72 -34 -20 -60 -27 -116 -29 -63 -3 -80 0 -132 25 -32 16 -72 43 -89 61 -21 23 -24 29 -9 20 19 -12 25 -10 49 8 16 13 41 22 59 21 17 -1 23 -3 14 -6 -10 -2 -18 -9 -18 -14 0 -12 80 -99 91 -99 5 0 9 56 9 125 l0 125 -70 0 -70 0 -2 -32 -1 -33 -4 33 c-4 32 -5 32 -59 32 -50 0 -54 -2 -54 -24 0 -13 9 -45 20 -70 24 -58 16 -61 -10 -3 -13 27 -19 62 -18 97 0 30 3 45 5 33 4 -21 10 -23 59 -23 52 0 54 1 55 28 l2 27 4 -27 c4 -27 6 -28 74 -28 l69 0 0 125 c0 70 -4 125 -9 125 -33 0 -113 -103 -88 -113 7 -3 6 -6 -5 -6 -10 -1 -20 -15 -27 -38 l-10 -38 5 42 c5 37 2 44 -21 59 -25 16 -27 16 -52 -7 -24 -22 -25 -23 -15 -3 21 40 99 96 162 115 40 12 91 10 144 -6z m2470 9 c20 -8 11 -24 -15 -24 -10 0 -19 7 -19 15 0 16 9 19 34 9z m729 -1 c-7 -2 -21 -2 -30 0 -10 3 -4 5 12 5 17 0 24 -2 18 -5z m100 0 c-13 -2 -35 -2 -50 0 -16 2 -5 4 22 4 28 0 40 -2 28 -4z m-1283 -17 c0 -3 -4 -8 -10 -11 -5 -3 -10 -1 -10 4 0 6 5 11 10 11 6 0 10 -2 10 -4z m1011 -8 c1 -7 1 -18 0 -24 -1 -7 6 -14 14 -18 9 -3 13 -10 10 -16 -3 -5 -1 -10 4 -10 6 0 11 -4 11 -10 0 -5 -25 -10 -55 -10 -30 0 -55 2 -55 5 0 3 11 16 25 29 14 13 25 33 25 45 0 22 19 30 21 9z m-761 -19 c0 -5 -7 -9 -15 -9 -15 0 -20 12 -9 23 8 8 24 -1 24 -14z m1435 1 c4 -7 -90 -10 -274 -10 -181 0 -281 4 -281 10 0 6 98 10 274 10 173 0 277 -4 281 -10z m-1288 -26 c-9 -9 -28 6 -21 18 4 6 10 6 17 -1 6 -6 8 -13 4 -17z m-477 -14 c0 -5 -4 -10 -9 -10 -6 0 -13 5 -16 10 -3 6 1 10 9 10 9 0 16 -4 16 -10z m1461 0 c113 0 179 -4 179 -10 0 -12 -416 -14 -424 -1 -10 15 8 23 38 17 16 -3 109 -6 207 -6z m1009 -19 c47 -25 90 -80 101 -129 10 -47 -7 -106 -45 -156 -39 -52 -56 -93 -56 -136 l0 -40 -80 0 c-77 0 -81 1 -90 26 -6 14 -10 37 -10 52 0 15 -16 51 -36 81 -53 79 -67 117 -59 168 17 115 171 190 275 134z m210 -1 c0 -10 -58 -50 -72 -50 -19 0 -5 18 30 38 43 25 42 25 42 12z m-549 -21 c23 -11 38 -23 35 -26 -8 -8 -86 27 -86 39 0 12 6 10 51 -13z m-1821 -9 c0 -5 -4 -10 -10 -10 -5 0 -10 5 -10 10 0 6 5 10 10 10 6 0 10 -4 10 -10z m45 -20 c0 -7 -6 -15 -12 -17 -8 -3 -13 4 -13 17 0 13 5 20 13 18 6 -3 12 -11 12 -18z m53 9 c-2 -6 -8 -10 -13 -10 -5 0 -11 4 -13 10 -2 6 4 11 13 11 9 0 15 -5 13 -11z m-5387 -16 c13 -16 12 -17 -3 -4 -10 7 -18 15 -18 17 0 8 8 3 21 -13z m5049 -3 c0 -5 -4 -10 -10 -10 -5 0 -10 5 -10 10 0 6 5 10 10 10 6 0 10 -4 10 -10z m-2343 -42 c-3 -8 -6 -5 -6 6 -1 11 2 17 5 13 3 -3 4 -12 1 -19z m2283 -28 c0 -20 5 -30 15 -30 20 0 19 -17 -1 -37 -11 -11 -15 -29 -12 -55 3 -33 1 -38 -18 -38 -16 0 -21 6 -21 31 0 17 -6 34 -13 39 -18 11 -15 72 4 86 9 6 16 16 16 23 0 6 7 11 15 11 10 0 15 -10 15 -30z m-280 10 c0 -5 -7 -10 -16 -10 -8 0 -12 5 -9 10 3 6 10 10 16 10 5 0 9 -4 9 -10z m740 -31 c0 -22 -4 -38 -9 -35 -9 6 -12 55 -4 69 9 15 13 6 13 -34z m259 -29 c0 -55 -3 -70 -14 -70 -19 0 -21 90 -2 90 6 0 4 5 -5 11 -24 13 -23 39 1 39 18 0 20 -8 20 -70z m-214 -15 c1 -41 -3 -75 -7 -75 -4 0 -8 34 -8 75 0 41 3 75 8 75 4 0 7 -34 7 -75z m1600 25 c26 -7 22 -8 -22 -9 -30 0 -53 3 -53 9 0 11 31 11 75 0z m-1485 -10 c0 -5 -2 -10 -4 -10 -3 0 -8 5 -11 10 -3 6 -1 10 4 10 6 0 11 -4 11 -10z m2095 0 c-3 -5 -24 -10 -45 -10 -21 0 -42 5 -45 10 -4 6 13 10 45 10 32 0 49 -4 45 -10z m-2603 -32 c-6 -6 -15 -9 -18 -5 -4 3 -4 14 0 23 5 13 9 15 18 6 9 -9 9 -15 0 -24z m278 22 c0 -5 -2 -10 -4 -10 -3 0 -8 5 -11 10 -3 6 -1 10 4 10 6 0 11 -4 11 -10z m-630 -46 c0 -16 -16 -19 -25 -4 -8 13 4 32 16 25 5 -4 9 -13 9 -21z m703 6 c3 -11 1 -20 -4 -20 -5 0 -9 9 -9 20 0 11 2 20 4 20 2 0 6 -9 9 -20z m-2223 -34 c-6 -19 -17 -40 -25 -46 -8 -7 -6 3 6 27 10 20 19 44 19 52 0 8 3 12 6 8 3 -3 1 -21 -6 -41z m-403 2 c-3 -8 -6 -5 -6 6 -1 11 2 17 5 13 3 -3 4 -12 1 -19z m3241 5 c-4 -22 -22 -20 -26 1 -2 10 3 16 13 16 10 0 15 -7 13 -17z m-354 -12 c3 -5 3 -23 0 -41 -5 -22 -9 -28 -15 -18 -6 9 -9 6 -9 -11 0 -13 -3 -22 -6 -19 -7 8 -13 81 -7 91 6 10 31 9 37 -2z m-604 -21 c0 -11 -36 -19 -50 -10 -9 6 -8 10 6 18 18 10 44 6 44 -8z m-360 -5 c0 -8 -7 -15 -15 -15 -8 0 -15 7 -15 15 0 8 7 15 15 15 8 0 15 -7 15 -15z m-1807 -2 c-7 -2 -19 -2 -25 0 -7 3 -2 5 12 5 14 0 19 -2 13 -5z m1921 -24 c-3 -5 -10 -7 -15 -3 -5 3 -7 10 -3 15 3 5 10 7 15 3 5 -3 7 -10 3 -15z m2296 17 c0 -9 -71 -48 -77 -43 -3 3 10 15 28 26 33 20 49 26 49 17z m454 -17 c20 -12 34 -25 31 -30 -5 -7 -85 37 -85 47 0 9 22 2 54 -17z m-3029 -10 c-8 -12 -35 -12 -35 0 0 11 22 20 33 14 4 -2 5 -9 2 -14z m519 0 c-3 -5 -18 -9 -34 -9 -19 0 -30 -6 -33 -17 -3 -12 -5 -9 -6 8 0 14 1 28 4 30 8 9 75 -3 69 -12z m396 -6 c0 -5 -5 -15 -10 -23 -8 -12 -10 -11 -10 8 0 12 5 22 10 22 6 0 10 -3 10 -7z m-753 -35 c-3 -7 -5 -2 -5 12 0 14 2 19 5 13 2 -7 2 -19 0 -25z m263 28 c0 -11 -19 -15 -25 -6 -3 5 1 10 9 10 9 0 16 -2 16 -4z m-486 -41 c-4 -8 -10 -12 -15 -9 -11 6 -2 24 11 24 5 0 7 -7 4 -15z m476 -10 c0 -8 -4 -15 -10 -15 -5 0 -7 7 -4 15 4 8 8 15 10 15 2 0 4 -7 4 -15z m1737 -41 c-3 -3 -12 -4 -19 -1 -8 3 -5 6 6 6 11 1 17 -2 13 -5z m-1822 -38 c0 -20 -30 -45 -41 -34 -3 4 -3 19 0 33 8 31 41 31 41 1z m1095 14 c0 -5 -4 -10 -10 -10 -5 0 -10 5 -10 10 0 6 5 10 10 10 6 0 10 -4 10 -10z m1440 -40 c0 -5 -17 -10 -37 -10 -28 0 -34 3 -23 10 20 13 60 13 60 0z m-143 -6 c-3 -3 -12 -4 -19 -1 -8 3 -5 6 6 6 11 1 17 -2 13 -5z m-2637 -14 c0 -5 -4 -10 -10 -10 -5 0 -10 5 -10 10 0 6 5 10 10 10 6 0 10 -4 10 -10z m2775 -20 c8 -13 -35 -13 -55 0 -11 7 -7 10 17 10 17 0 35 -4 38 -10z m-875 -76 c0 -2 -13 -4 -30 -4 -16 0 -30 4 -30 8 0 5 14 7 30 4 17 -2 30 -6 30 -8z m-2432 -66 c7 -7 12 -21 12 -33 0 -12 -5 -26 -12 -33 -7 -7 -21 -12 -33 -12 -12 0 -26 5 -33 12 -7 7 -12 21 -12 33 0 12 5 26 12 33 7 7 21 12 33 12 12 0 26 -5 33 -12z m147 -8 c35 -38 -17 -94 -53 -58 -13 13 -16 60 -5 71 12 13 40 7 58 -13z m3625 -46 c0 -8 -5 -12 -10 -9 -6 4 -8 11 -5 16 9 14 15 11 15 -7z m-4930 -30 c0 -8 -9 -14 -20 -14 -22 0 -26 10 -8 28 13 13 28 7 28 -14z m-249 -164 c5 0 12 7 15 15 8 21 24 19 24 -2 0 -13 -9 -19 -30 -20 -27 -2 -30 1 -29 25 2 23 2 24 6 5 2 -13 9 -23 14 -23z m121 20 c-25 -24 -28 -24 -35 -6 -4 10 -1 13 7 10 8 -3 17 -1 21 5 3 6 11 11 17 11 7 0 2 -9 -10 -20z m-284 -26 c-10 -10 -28 6 -28 24 0 15 1 15 17 -1 9 -9 14 -19 11 -23z m382 29 c0 -5 -5 -15 -10 -23 -7 -12 -9 -10 -7 8 1 19 17 33 17 15z m30 -7 c0 -8 -4 -18 -10 -21 -5 -3 -10 3 -10 14 0 12 5 21 10 21 6 0 10 -6 10 -14z m-180 -11 c0 -8 -2 -15 -4 -15 -2 0 -6 7 -10 15 -3 8 -1 15 4 15 6 0 10 -7 10 -15z m-240 -30 c10 -13 9 -15 -9 -15 -12 0 -21 6 -21 15 0 8 4 15 9 15 5 0 14 -7 21 -15z m4823 -2 c8 -7 -11 -33 -24 -33 -5 0 -9 9 -9 20 0 19 20 27 33 13z m-4780 -40 c22 -13 0 -23 -53 -23 -61 0 -70 6 -48 28 12 12 78 8 101 -5z m530 10 c-78 -2 -208 -2 -290 0 -81 1 -17 3 142 3 160 0 226 -2 148 -3z m4507 -293 l0 -270 -35 0 -35 0 0 270 0 270 35 0 35 0 0 -270z m-3580 253 c-19 -3 -43 -12 -52 -20 -22 -20 -24 -10 -2 11 9 10 30 15 52 14 l37 -1 -35 -4z m388 0 c-16 -2 -40 -2 -55 0 -16 2 -3 4 27 4 30 0 43 -2 28 -4z m-487 -84 c-5 -13 -10 -19 -10 -12 -1 15 10 45 15 40 3 -2 0 -15 -5 -28z m2426 9 c27 -26 30 -73 6 -100 -15 -17 -63 -18 -1122 -18 -985 0 -1109 2 -1129 16 -29 20 -30 72 -2 102 l21 22 1101 0 1102 0 23 -22z m1526 3 c2 -11 2 -117 -1 -235 l-5 -216 -33 0 -34 0 0 235 0 235 34 0 c25 0 35 -5 39 -19z m-4203 -31 c0 -5 -4 -10 -10 -10 -5 0 -10 5 -10 10 0 6 5 10 10 10 6 0 10 -4 10 -10z m-400 -15 c0 -12 -44 -15 -300 -17 -280 -3 -300 -2 -300 15 0 16 21 17 300 17 257 0 300 -2 300 -15z m-745 -25 c4 -16 13 -30 21 -30 8 0 14 -9 14 -20 0 -18 -7 -20 -55 -20 -30 0 -55 2 -55 4 0 18 15 36 30 36 10 0 18 6 17 13 -2 53 17 65 28 17z m4945 -162 c0 -212 -2 -218 -46 -218 l-34 0 0 195 0 195 40 0 40 0 0 -172z m-277 -25 c-2 -98 -3 -181 -3 -185 0 -5 -13 -8 -29 -8 -27 0 -29 3 -35 53 -3 28 -6 112 -6 185 l0 132 38 0 38 0 -3 -177z m-4165 145 c-4 -10 -51 -14 -181 -16 -153 -2 -177 0 -177 13 0 13 26 15 181 15 140 0 180 -3 177 -12z m7994 -35 c44 -40 10 -113 -53 -113 -28 0 -69 39 -69 65 0 7 9 24 21 39 24 31 72 35 101 9z m-3282 -128 c0 -62 -3 -127 -6 -144 -6 -29 -10 -32 -38 -29 l-31 3 -3 134 c-1 74 -1 140 2 146 2 7 19 9 40 7 l36 -4 0 -113z m-682 -27 l-3 -143 -32 -3 -33 -3 0 145 0 146 35 0 36 0 -3 -142z m272 -8 l0 -140 -35 0 -35 0 0 140 0 140 35 0 35 0 0 -140z m-3796 108 c7 -30 -7 -43 -25 -22 -9 12 -10 15 -1 10 6 -4 12 -2 12 3 0 6 -4 11 -10 11 -5 0 -10 5 -10 10 0 20 28 10 34 -12z m1206 -43 c16 -20 14 -453 -2 -472 -8 -10 -77 -13 -293 -13 -248 0 -284 2 -296 16 -15 18 -22 184 -8 184 5 0 9 -34 9 -76 0 -123 -23 -114 290 -114 238 0 270 2 285 17 16 15 17 36 10 207 -9 225 -9 228 -18 242 -4 8 -92 11 -279 10 l-273 -1 -8 -70 c-12 -94 -15 -104 -28 -85 -8 12 -9 11 -7 -5 5 -27 33 -21 81 16 40 32 62 30 51 -4 -10 -32 -37 -64 -89 -104 -25 -19 -50 -46 -55 -59 -11 -28 -30 -23 -65 16 -19 21 -19 21 3 27 16 4 22 13 22 35 0 34 37 111 49 103 13 -8 21 21 21 80 0 33 5 55 13 58 6 3 139 6 293 6 241 1 283 -1 294 -14z m-60 -30 c0 -8 -5 -15 -11 -15 -5 0 -8 4 -4 9 3 5 -5 12 -17 14 -20 4 -19 4 5 6 18 1 27 -4 27 -14z m37 9 c-3 -3 -12 -4 -19 -1 -8 3 -5 6 6 6 11 1 17 -2 13 -5z m-1784 -35 c-17 -17 -37 -1 -22 17 8 10 15 12 23 4 7 -7 7 -13 -1 -21z m1565 10 c-9 -6 -7 -14 11 -32 12 -14 25 -43 28 -65 5 -34 1 -45 -20 -66 -66 -66 -161 -4 -136 89 8 29 19 40 51 55 23 10 34 20 26 23 -7 3 2 5 20 4 21 0 28 -3 20 -8z m1852 -22 l0 -23 -712 1 c-669 0 -713 1 -716 17 -3 17 28 18 500 21 277 1 599 3 716 5 l212 2 0 -23z m-1816 -3 c6 -15 4 -15 -11 -3 -10 7 -20 15 -22 16 -2 2 3 3 11 3 9 0 19 -7 22 -16z m-873 -63 c11 -13 19 -33 19 -44 0 -11 12 -50 26 -86 24 -61 26 -74 21 -160 -5 -74 -2 -116 14 -199 l22 -105 -24 -18 c-13 -10 -27 -19 -31 -19 -12 0 -10 38 2 45 22 13 6 215 -32 403 -11 56 -18 109 -15 116 3 8 -2 21 -12 30 -16 15 -19 14 -31 -10 -12 -21 -12 -27 0 -34 23 -14 42 -210 20 -210 -5 0 -10 7 -10 15 0 22 -108 236 -132 262 -17 18 -19 25 -9 37 11 13 17 13 48 0 19 -8 32 -10 28 -5 -4 7 5 11 24 11 16 0 33 5 37 12 6 9 9 8 12 -2 3 -8 13 -26 23 -39z m2344 -11 c0 -13 -68 -15 -542 -18 -539 -2 -543 -2 -543 18 0 20 4 20 543 18 474 -3 542 -5 542 -18z m5062 -26 c-9 -9 -28 6 -21 18 4 6 10 6 17 -1 6 -6 8 -13 4 -17z m-7347 -49 c0 -5 -5 -3 -10 5 -5 8 -10 20 -10 25 0 6 5 3 10 -5 5 -8 10 -19 10 -25z m858 -28 c19 -15 62 -103 62 -127 0 -19 -6 -20 -189 -20 -114 0 -192 4 -196 10 -8 13 30 99 57 127 29 31 78 30 108 -2 23 -25 24 -25 44 -6 40 38 81 44 114 18z m-844 -2 c3 -8 1 -15 -4 -15 -6 0 -10 7 -10 15 0 8 2 15 4 15 2 0 6 -7 10 -15z m3453 -91 c-3 -3 -12 -4 -19 -1 -8 3 -5 6 6 6 11 1 17 -2 13 -5z m206 -1 c-7 -2 -21 -2 -30 0 -10 3 -4 5 12 5 17 0 24 -2 18 -5z m54 1 c-3 -3 -12 -4 -19 -1 -8 3 -5 6 6 6 11 1 17 -2 13 -5z m-1217 -14 c0 -7 -166 -10 -479 -10 -309 0 -482 4 -486 10 -4 7 158 10 479 10 317 0 486 -3 486 -10z m-6842 -57 c44 -36 66 -98 57 -163 -9 -62 -63 -116 -127 -125 -49 -7 -108 7 -142 35 -32 26 -56 86 -56 140 0 43 5 55 33 86 64 69 167 81 235 27z m3660 -74 c-16 -10 -33 5 -23 21 5 8 11 8 21 -1 12 -10 12 -14 2 -20z m7976 -30 c-3 -5 -10 -7 -15 -3 -5 3 -7 10 -3 15 3 5 10 7 15 3 5 -3 7 -10 3 -15z m-8058 -54 c10 -8 26 -15 34 -15 8 0 20 -9 27 -19 16 -26 90 -33 96 -10 6 23 45 45 90 52 l37 6 0 -48 c0 -42 9 -64 70 -165 67 -111 70 -119 61 -153 -11 -40 -7 -53 16 -53 13 0 14 -15 8 -117 -7 -118 -15 -162 -15 -86 0 35 -3 41 -25 45 -14 3 -25 2 -25 -1 0 -12 -204 -34 -238 -26 -41 8 -44 15 -29 54 10 27 9 33 -3 41 -28 18 -97 22 -137 9 -111 -36 -162 -73 -163 -116 0 -13 -6 -23 -13 -23 -18 0 -47 -53 -47 -85 0 -30 -24 -59 -43 -52 -6 2 -15 5 -19 6 -4 1 -18 11 -32 24 -52 48 -56 50 -104 43 -35 -4 -54 -14 -74 -36 -23 -24 -36 -30 -71 -30 -44 0 -80 18 -96 49 -7 13 -4 30 11 60 l21 42 -22 29 c-15 21 -21 44 -21 79 0 44 3 52 31 72 29 21 37 22 101 13 45 -6 72 -6 78 0 7 7 21 6 41 -1 41 -16 69 -2 69 35 0 20 11 34 40 55 22 16 38 32 35 37 -3 5 3 34 14 65 11 31 17 63 14 72 -7 19 39 64 56 54 27 -17 72 1 98 41 17 25 36 41 55 45 16 3 31 10 34 14 7 13 17 11 40 -6z m464 -81 c0 -30 -4 -54 -10 -54 -5 0 -19 18 -30 41 -18 35 -20 45 -9 77 l12 36 18 -23 c13 -16 19 -39 19 -77z m7800 83 c0 -8 11 -19 25 -25 30 -14 33 -48 5 -57 -30 -9 -42 3 -35 36 4 18 3 29 -4 29 -6 0 -11 7 -11 15 0 8 5 15 10 15 6 0 10 -6 10 -13z m-6498 -24 c16 -15 18 -36 18 -238 0 -166 -3 -225 -12 -233 -8 -6 -121 -10 -289 -11 -222 0 -279 2 -295 13 -18 13 -19 31 -22 226 -3 180 -1 216 13 236 l15 24 277 0 c243 0 279 -2 295 -17z m317 -9 c52 -43 40 -120 -22 -143 -51 -20 -107 23 -107 82 0 78 70 111 129 61z m1268 11 c44 -10 62 -98 27 -136 -16 -18 -44 -19 -581 -19 -547 0 -564 1 -583 20 -42 42 -34 110 16 135 21 10 1076 10 1121 0z m-2629 -154 c3 -8 -1 -12 -9 -9 -7 2 -15 10 -17 17 -3 8 1 12 9 9 7 -2 15 -10 17 -17z m7102 -91 c25 -25 25 -41 -1 -74 -23 -30 -45 -33 -77 -10 -44 31 -16 104 40 104 10 0 27 -9 38 -20z m-7272 -14 c28 -15 81 -66 68 -66 -4 0 -16 5 -27 10 -23 13 -24 4 -4 -44 8 -20 12 -36 8 -36 -5 0 -28 23 -52 51 -39 46 -46 50 -75 44 -33 -8 -31 -3 18 33 34 26 30 26 64 8z m2492 -26 c0 -20 -7 -20 -545 -20 -538 0 -545 0 -545 20 0 20 7 20 545 20 538 0 545 0 545 -20z m-219 -66 c5 -3 9 -12 9 -20 0 -12 -63 -14 -439 -14 -295 0 -442 3 -446 10 -20 33 10 35 441 32 235 -1 431 -5 435 -8z m5059 -124 c24 -24 26 -77 3 -102 -23 -26 -69 -23 -98 7 -33 32 -32 68 1 94 34 26 68 27 94 1z m-7871 -66 c2 -10 9 -23 17 -27 22 -13 16 -37 -12 -47 -19 -8 -24 -15 -19 -28 4 -9 10 -26 13 -37 5 -18 4 -18 -11 -6 -9 7 -17 11 -17 7 0 -4 -11 1 -24 10 -14 8 -33 14 -43 12 -10 -1 -29 5 -43 15 -13 9 -30 17 -36 17 -7 0 -14 6 -17 14 -4 9 8 18 33 26 22 7 42 22 48 36 8 17 21 24 49 27 52 5 57 3 62 -19z m8346 -24 c8 -25 -1 -40 -24 -40 -24 0 -43 23 -35 44 9 23 51 20 59 -4z m-4908 -6 c-3 -3 -12 -4 -19 -1 -8 3 -5 6 6 6 11 1 17 -2 13 -5z m4388 -114 c9 -27 -1 -40 -30 -40 -29 0 -39 13 -30 40 4 13 15 20 30 20 15 0 26 -7 30 -20z m-7408 -82 c-3 -7 -5 -2 -5 12 0 14 2 19 5 13 2 -7 2 -19 0 -25z m7868 -38 c-5 -8 -11 -8 -17 -2 -6 6 -7 16 -3 22 5 8 11 8 17 2 6 -6 7 -16 3 -22z m-4043 3 c3 -10 3 -24 1 -30 -6 -18 -48 -16 -63 2 -9 11 -9 15 -1 15 7 0 9 5 5 12 -4 6 -3 8 2 5 6 -3 16 -2 24 4 21 13 27 11 32 -8z m3704 -34 c7 -12 -15 -31 -28 -23 -4 3 -8 12 -8 20 0 17 26 19 36 3z m102 -26 c5 -10 7 -24 5 -30 -6 -18 -42 -16 -49 2 -15 38 26 63 44 28z m-288 -86 c0 -6 14 -18 30 -25 17 -8 30 -20 30 -28 0 -22 -37 -17 -43 6 -3 11 -17 24 -32 30 -14 5 -23 14 -20 20 9 14 35 12 35 -3z m285 -7 c3 -5 1 -10 -4 -10 -6 0 -11 5 -11 10 0 6 2 10 4 10 3 0 8 -4 11 -10z m-6395 -14 c0 -2 -7 -9 -15 -16 -12 -10 -15 -10 -15 4 0 9 7 16 15 16 8 0 15 -2 15 -4z m6027 -53 c-3 -10 -5 -4 -5 12 0 17 2 24 5 18 2 -7 2 -21 0 -30z m73 12 c0 -18 -5 -25 -20 -25 -22 0 -26 20 -8 38 19 19 28 14 28 -13z m-40 -61 c0 -8 -4 -12 -10 -9 -5 3 -10 10 -10 16 0 5 5 9 10 9 6 0 10 -7 10 -16z m574 -33 c3 -5 -1 -14 -9 -21 -13 -10 -15 -9 -15 9 0 21 14 28 24 12z m-266 -58 c-11 -41 5 -118 23 -108 5 4 12 -1 16 -10 7 -19 -13 -36 -32 -29 -7 3 -15 -2 -18 -10 -7 -18 -37 -22 -37 -5 0 6 8 13 18 16 16 4 18 15 18 76 -1 40 2 80 6 90 13 30 17 18 6 -20z m192 26 c0 -6 -10 -19 -22 -28 -24 -20 -17 -44 10 -34 9 3 27 18 38 32 20 24 22 24 38 8 25 -25 12 -61 -19 -53 -21 5 -22 3 -18 -29 5 -40 -7 -45 -35 -14 -17 18 -20 18 -26 4 -3 -9 -10 -13 -16 -10 -6 4 -7 12 -1 23 6 11 4 20 -7 28 -14 10 -14 14 -3 28 7 9 10 16 6 16 -5 0 0 9 10 20 20 22 45 27 45 9z m-130 -69 c0 -5 -5 -10 -11 -10 -5 0 -7 5 -4 10 3 6 8 10 11 10 2 0 4 -4 4 -10z m-355 -10 c3 -5 1 -10 -4 -10 -6 0 -11 5 -11 10 0 6 2 10 4 10 3 0 8 -4 11 -10z m415 -39 c0 -12 -20 -25 -27 -18 -7 7 6 27 18 27 5 0 9 -4 9 -9z m-10 -61 c0 -5 -7 -10 -16 -10 -8 0 -12 5 -9 10 3 6 10 10 16 10 5 0 9 -4 9 -10z m120 0 c0 -5 -7 -10 -15 -10 -8 0 -15 5 -15 10 0 6 7 10 15 10 8 0 15 -4 15 -10z m-322 -22 c-6 -18 -28 -21 -28 -4 0 9 7 16 16 16 9 0 14 -5 12 -12z m-5173 -16 c-3 -3 -11 0 -18 7 -9 10 -8 11 6 5 10 -3 15 -9 12 -12z m5309 -25 c-3 -9 -13 -17 -21 -17 -10 0 -13 6 -9 16 3 9 6 23 6 32 0 15 2 15 15 1 9 -9 13 -23 9 -32z m266 33 c0 -5 -4 -10 -10 -10 -5 0 -10 5 -10 10 0 6 5 10 10 10 6 0 10 -4 10 -10z m-460 -30 c0 -5 -5 -10 -11 -10 -5 0 -7 5 -4 10 3 6 8 10 11 10 2 0 4 -4 4 -10z m-39 -13 c-1 -12 -15 -9 -19 4 -3 6 1 10 8 8 6 -3 11 -8 11 -12z m304 3 c-3 -5 -10 -10 -16 -10 -5 0 -9 5 -9 10 0 6 7 10 16 10 8 0 12 -4 9 -10z m-5690 -20 c10 -11 16 -20 13 -20 -3 0 -15 9 -28 20 -13 11 -19 20 -13 20 5 0 18 -9 28 -20z m5493 3 c-3 -19 -48 -32 -48 -14 0 10 28 30 43 31 5 0 7 -8 5 -17z m346 11 c22 -9 20 -41 -4 -47 -23 -6 -45 16 -36 38 6 16 16 18 40 9z m-509 -34 c3 -5 1 -10 -4 -10 -6 0 -11 5 -11 10 0 6 2 10 4 10 3 0 8 -4 11 -10z m-5235 -30 c0 -18 -19 -11 -30 11 -11 19 -10 20 9 9 12 -6 21 -15 21 -20z m5460 4 c0 -7 -5 -14 -12 -16 -6 -2 -9 -12 -5 -21 8 -20 66 -24 85 -5 6 6 15 8 19 4 5 -4 -1 -14 -11 -22 -15 -11 -17 -16 -7 -28 6 -8 22 -17 35 -20 13 -3 27 -13 30 -22 11 -29 -4 -29 -30 -1 -25 27 -35 33 -33 20 5 -29 -4 -42 -31 -48 -16 -4 -32 -11 -35 -16 -4 -5 -11 -9 -17 -9 -10 0 -5 51 9 87 5 12 2 15 -10 10 -11 -4 -17 -1 -17 7 0 13 -20 26 -36 25 -4 0 -10 5 -14 11 -5 8 -10 1 -15 -19 -8 -36 -15 -39 -35 -12 -11 16 -17 18 -34 9 -21 -12 -20 -12 4 -18 14 -3 25 -12 25 -20 0 -20 -20 -23 -38 -5 -24 24 -46 18 -62 -17 -13 -29 -15 -30 -12 -7 2 14 -3 31 -10 38 -12 11 -14 11 -12 0 5 -38 -1 -51 -22 -46 -14 4 -19 2 -16 -7 3 -7 1 -19 -4 -27 -7 -11 -9 -10 -10 6 0 11 -2 32 -3 48 -2 17 2 27 10 27 7 0 22 9 33 21 12 13 29 20 47 18 16 -1 38 -1 49 0 17 2 15 5 -10 16 -16 8 -24 14 -16 15 8 0 23 7 33 16 14 13 21 14 32 5 8 -7 12 -20 10 -29 -4 -12 0 -10 14 5 23 27 49 38 92 39 18 1 30 -4 30 -12z m-250 -9 c0 -8 -7 -15 -15 -15 -16 0 -20 12 -8 23 11 12 23 8 23 -8z m330 11 c0 -3 -4 -8 -10 -11 -5 -3 -10 -1 -10 4 0 6 5 11 10 11 6 0 10 -2 10 -4z m-6294 -38 c-9 -5 -21 -6 -28 -2 -8 5 -5 10 8 14 25 10 41 0 20 -12z m224 8 c0 -3 -4 -8 -10 -11 -5 -3 -10 -1 -10 4 0 6 5 11 10 11 6 0 10 -2 10 -4z m-363 -12 c-3 -3 -12 -4 -19 -1 -8 3 -5 6 6 6 11 1 17 -2 13 -5z m6049 -21 c-3 -8 -6 -17 -6 -19 0 -2 -4 -4 -8 -4 -4 0 -8 11 -8 24 0 16 4 22 14 19 7 -3 11 -12 8 -20z m-6046 -7 c0 -2 -7 -6 -15 -10 -8 -3 -15 -1 -15 4 0 6 7 10 15 10 8 0 15 -2 15 -4z m810 -10 c0 -3 -4 -8 -10 -11 -5 -3 -10 -1 -10 4 0 6 5 11 10 11 6 0 10 -2 10 -4z m5748 -18 c-4 -27 -28 -36 -28 -10 0 20 8 32 22 32 5 0 8 -10 6 -22z m-5910 -20 c-6 -18 -28 -21 -28 -4 0 9 7 16 16 16 9 0 14 -5 12 -12z m132 2 c0 -5 -2 -10 -4 -10 -3 0 -8 5 -11 10 -3 6 -1 10 4 10 6 0 11 -4 11 -10z m5520 -15 c0 -9 -9 -15 -21 -15 -18 0 -19 2 -9 15 7 8 16 15 21 15 5 0 9 -7 9 -15z m236 -42 c-7 -7 -26 7 -26 19 0 6 6 6 15 -2 9 -7 13 -15 11 -17z m-6202 1 c9 -23 8 -24 -14 -24 -19 0 -27 20 -13 33 11 11 20 8 27 -9z m5866 6 c0 -5 -5 -10 -11 -10 -5 0 -7 5 -4 10 3 6 8 10 11 10 2 0 4 -4 4 -10z m-5810 -26 c0 -17 -22 -14 -28 4 -2 7 3 12 12 12 9 0 16 -7 16 -16z m-140 -4 c0 -5 -4 -10 -10 -10 -5 0 -10 5 -10 10 0 6 5 10 10 10 6 0 10 -4 10 -10z m-150 -10 c0 -5 -7 -10 -15 -10 -8 0 -15 5 -15 10 0 6 7 10 15 10 8 0 15 -4 15 -10z m6350 0 c0 -5 -2 -10 -4 -10 -3 0 -8 5 -11 10 -3 6 -1 10 4 10 6 0 11 -4 11 -10z m-350 -4 c0 -11 -19 -15 -25 -6 -3 5 1 10 9 10 9 0 16 -2 16 -4z m-5620 -16 c0 -5 -4 -10 -10 -10 -5 0 -10 5 -10 10 0 6 5 10 10 10 6 0 10 -4 10 -10z m5576 -25 c-19 -14 -19 -16 -2 -28 17 -13 17 -14 -8 -30 l-26 -17 0 34 c0 23 6 39 18 45 26 16 40 12 18 -4z m284 5 c0 -5 -4 -10 -10 -10 -5 0 -10 5 -10 10 0 6 5 10 10 10 6 0 10 -4 10 -10z m-110 -9 c0 -6 -4 -13 -10 -16 -5 -3 -10 1 -10 9 0 9 5 16 10 16 6 0 10 -4 10 -9z m176 -15 c15 4 24 2 24 -6 0 -15 -53 -9 -56 8 -1 7 0 8 3 2 2 -5 16 -7 29 -4z m79 -7 c-4 -5 1 -16 9 -25 15 -15 21 -34 11 -34 -12 0 -40 36 -39 50 2 27 4 31 14 25 6 -4 8 -11 5 -16z m-320 -29 c3 -5 1 -10 -4 -10 -6 0 -11 5 -11 10 0 6 2 10 4 10 3 0 8 -4 11 -10z m275 -15 c0 -8 -7 -15 -16 -15 -14 0 -14 3 -4 15 7 8 14 15 16 15 2 0 4 -7 4 -15z m-190 -11 c0 -8 -5 -12 -10 -9 -6 4 -8 11 -5 16 9 14 15 11 15 -7z m-25 -34 c3 -6 -4 -10 -17 -10 -18 0 -20 2 -8 10 19 12 18 12 25 0z m89 -10 c14 -14 -5 -32 -28 -26 -11 3 -27 1 -35 -3 -8 -5 -20 -7 -28 -4 -11 4 -9 11 8 29 22 23 59 25 83 4z m131 -13 c6 -5 3 -7 -7 -3 -12 3 -15 1 -11 -10 3 -7 0 -14 -6 -14 -6 0 -11 8 -11 18 0 22 11 35 19 25 3 -4 11 -12 16 -16z m-298 -13 c3 -9 0 -20 -8 -25 -21 -13 -29 -11 -29 9 0 33 26 44 37 16z m225 -6 c-12 -12 -35 -1 -27 12 3 5 13 6 21 3 10 -4 12 -9 6 -15z m-52 -17 c0 -5 -7 -11 -15 -15 -15 -5 -20 5 -8 17 9 10 23 9 23 -2z m-240 -17 c0 -14 -3 -14 -15 -4 -8 7 -15 14 -15 16 0 2 7 4 15 4 8 0 15 -7 15 -16z m290 -4 c0 -5 -4 -10 -10 -10 -5 0 -10 5 -10 10 0 6 5 10 10 10 6 0 10 -4 10 -10z m260 6 c0 -3 -4 -8 -10 -11 -5 -3 -10 -1 -10 4 0 6 5 11 10 11 6 0 10 -2 10 -4z m-465 -36 c-3 -5 -12 -10 -18 -10 -7 0 -6 4 3 10 19 12 23 12 15 0z m215 0 c0 -5 -4 -10 -10 -10 -5 0 -10 5 -10 10 0 6 5 10 10 10 6 0 10 -4 10 -10z m120 0 c0 -5 -2 -10 -4 -10 -3 0 -8 5 -11 10 -3 6 -1 10 4 10 6 0 11 -4 11 -10z m-375 -20 c-9 -15 -105 -62 -105 -52 0 4 15 14 34 20 19 7 40 19 46 27 14 17 35 21 25 5z m105 0 c0 -5 -2 -10 -4 -10 -3 0 -8 5 -11 10 -3 6 -1 10 4 10 6 0 11 -4 11 -10z m110 0 c0 -5 -6 -10 -14 -10 -31 0 -280 -145 -298 -173 -4 -7 -8 -7 -8 -2 0 24 68 74 170 125 36 18 72 38 80 45 13 11 35 20 63 24 4 0 7 -3 7 -9z m310 -10 c0 -5 -4 -10 -10 -10 -5 0 -10 5 -10 10 0 6 5 10 10 10 6 0 10 -4 10 -10z m-540 -70 c0 -5 -4 -10 -10 -10 -5 0 -10 5 -10 10 0 6 5 10 10 10 6 0 10 -4 10 -10z m360 -15 c-7 -8 -24 -15 -39 -14 -24 0 -24 1 9 14 45 17 44 17 30 0z m-117 -32 c-7 -2 -19 -2 -25 0 -7 3 -2 5 12 5 14 0 19 -2 13 -5z m-207 -51 c-8 -9 -36 -23 -60 -33 -39 -14 -47 -15 -57 -3 -9 11 -7 14 11 14 39 0 100 23 100 37 0 8 5 11 11 7 7 -4 6 -11 -5 -22z m54 14 c0 -2 -7 -7 -16 -10 -8 -3 -12 -2 -9 4 6 10 25 14 25 6z m-130 -80 c0 -3 -4 -8 -10 -11 -5 -3 -10 -1 -10 4 0 6 5 11 10 11 6 0 10 -2 10 -4z m80 -6 c0 -5 -4 -10 -10 -10 -5 0 -10 5 -10 10 0 6 5 10 10 10 6 0 10 -4 10 -10z m358 -43 c2 -11 -3 -17 -17 -17 -23 0 -35 15 -26 31 10 15 39 6 43 -14z m-180 4 c8 -4 12 -19 10 -32 -2 -18 -10 -25 -30 -27 -22 -3 -29 2 -34 23 -9 37 22 57 54 36z m-80 -54 c2 -12 -3 -17 -17 -17 -15 0 -21 6 -21 21 0 25 33 22 38 -4z m-128 -58 c0 -10 -6 -19 -14 -19 -16 0 -25 19 -19 37 7 18 33 4 33 -18z m-11193 -51 c-3 -7 -5 -2 -5 12 0 14 2 19 5 13 2 -7 2 -19 0 -25z m-25 -32 c-9 -20 -10 -20 -17 6 -9 34 4 58 17 33 7 -11 7 -25 0 -39z m11728 44 c0 -5 -4 -10 -10 -10 -5 0 -10 5 -10 10 0 6 5 10 10 10 6 0 10 -4 10 -10z m-206 -31 c-3 -5 -10 -7 -15 -3 -5 3 -7 10 -3 15 3 5 10 7 15 3 5 -3 7 -10 3 -15z m-244 -64 c0 -8 -7 -15 -15 -15 -9 0 -12 6 -9 15 4 8 10 15 15 15 5 0 9 -7 9 -15z m-80 -36 c0 -5 -4 -9 -10 -9 -5 0 -10 7 -10 16 0 8 5 12 10 9 6 -3 10 -10 10 -16z m-6432 -247 c4 -28 -24 -40 -45 -19 -21 21 -9 49 19 45 15 -2 24 -11 26 -26z m2662 13 c10 -12 10 -18 0 -30 -7 -8 -18 -15 -25 -15 -7 0 -18 7 -25 15 -10 12 -10 18 0 30 7 8 18 15 25 15 7 0 18 -7 25 -15z m1020 -1 c18 -21 -9 -49 -39 -39 -20 6 -28 34 -14 48 11 12 40 7 53 -9z m-5951 -30 c16 -16 32 -39 36 -51 10 -36 -36 -30 -75 8 -27 27 -36 31 -68 26 -57 -10 -82 -45 -82 -118 0 -54 3 -64 30 -91 27 -26 36 -30 68 -25 22 4 46 17 59 32 21 24 73 36 73 16 0 -17 -47 -76 -70 -89 -15 -8 -48 -11 -82 -9 -93 5 -138 61 -138 169 0 112 59 172 163 165 48 -3 63 -8 86 -33z m151 -134 l0 -170 -30 0 -30 0 0 163 c0 90 3 167 7 170 3 4 17 7 30 7 l23 0 0 -170z m840 0 l0 -170 -25 0 c-14 0 -28 7 -31 15 -5 13 -8 13 -27 0 -12 -8 -38 -15 -58 -15 -69 0 -115 88 -90 171 23 75 90 108 142 70 l29 -22 0 54 c0 60 4 67 37 67 l23 0 0 -170z m409 3 c32 -90 56 -165 53 -168 -3 -3 -16 -5 -29 -5 -18 0 -28 9 -41 42 -18 41 -18 41 -78 44 l-60 4 -15 -43 c-15 -40 -35 -54 -63 -44 -10 4 -2 39 34 144 72 210 64 195 106 191 l36 -3 57 -162z m589 104 l3 -58 26 21 c30 24 54 25 92 5 38 -19 41 -30 41 -146 l0 -100 -27 3 -28 3 0 87 c-1 93 -11 118 -50 118 -40 0 -54 -29 -57 -120 -3 -84 -3 -85 -30 -88 l-28 -3 0 171 0 171 28 -3 c26 -3 27 -6 30 -61z m2208 55 c16 -10 34 -48 34 -71 0 -11 -14 -36 -31 -56 l-32 -36 28 -29 c35 -37 45 -38 45 -5 0 20 5 25 26 25 25 0 26 -3 21 -32 -4 -18 -9 -42 -12 -53 -4 -13 1 -28 14 -41 11 -12 17 -25 14 -28 -12 -11 -51 -6 -63 9 -10 12 -15 12 -33 0 -22 -13 -50 -18 -95 -16 -13 1 -37 14 -53 30 -38 39 -38 79 -1 123 26 30 27 35 15 58 -22 42 -16 86 13 109 27 21 88 28 110 13z m389 -116 c28 -69 53 -122 57 -118 3 4 26 59 50 122 l44 115 37 3 37 3 -2 -168 -3 -168 -25 0 -25 0 2 110 c3 130 -5 128 -59 -15 -23 -62 -39 -90 -52 -94 -11 -3 -22 -3 -26 -1 -3 2 -26 52 -51 112 l-44 108 -3 -113 -3 -113 -27 3 -27 3 -3 155 c-1 85 0 160 2 167 3 7 20 13 38 13 33 0 33 -1 83 -124z m-1475 62 c0 -25 4 -29 23 -26 16 2 22 -2 22 -17 0 -13 -8 -21 -22 -23 -22 -3 -23 -8 -23 -82 0 -74 1 -79 23 -82 14 -2 23 -11 25 -25 3 -20 -1 -23 -32 -23 -61 0 -76 25 -76 125 0 78 -2 85 -20 85 -13 0 -20 7 -20 20 0 13 7 20 20 20 15 0 20 7 20 29 0 31 13 41 43 33 11 -3 17 -14 17 -34z m2682 10 c2 -25 8 -34 26 -36 14 -2 22 -10 22 -22 0 -12 -8 -20 -22 -22 -27 -4 -33 -29 -23 -105 5 -42 10 -53 25 -53 17 0 34 -33 22 -44 -3 -3 -20 -6 -37 -6 -51 0 -67 26 -71 122 -3 64 -7 84 -19 86 -24 5 -19 52 5 52 14 0 20 7 20 23 0 28 7 37 31 37 13 0 19 -9 21 -32z m-3390 -5 c2 -20 9 -29 26 -31 33 -5 30 -42 -3 -42 -26 0 -26 0 -23 -77 3 -71 5 -78 24 -81 21 -3 38 -34 26 -46 -14 -15 -70 -5 -88 15 -16 18 -19 34 -16 105 2 78 1 84 -18 84 -27 0 -27 36 0 43 14 3 20 14 20 31 0 21 5 26 24 26 19 0 25 -6 28 -27z m-2012 -52 c55 -39 63 -143 16 -197 -18 -22 -34 -28 -78 -32 -50 -4 -58 -2 -89 26 -32 29 -34 34 -34 96 0 58 3 68 29 95 42 44 103 49 156 12z m155 -62 c0 -92 11 -119 48 -119 44 0 57 27 57 117 l0 83 30 0 30 0 -2 -122 -3 -123 -27 -3 c-23 -3 -28 1 -28 18 l0 21 -26 -20 c-36 -28 -79 -27 -109 4 -23 22 -25 31 -25 124 0 101 4 112 40 108 12 -2 15 -19 15 -88z m989 85 c9 -3 16 -13 16 -21 0 -11 6 -10 26 6 40 32 64 28 64 -10 0 -25 -3 -30 -16 -25 -9 4 -27 0 -40 -9 -21 -13 -24 -24 -26 -102 -3 -88 -3 -88 -30 -91 l-28 -3 0 124 c0 135 2 143 34 131z m324 -29 c12 -14 22 -33 22 -41 0 -21 -43 -17 -63 6 -40 48 -97 12 -97 -61 0 -39 5 -51 25 -67 28 -22 55 -19 81 9 22 24 54 25 54 2 -1 -41 -48 -73 -107 -73 -68 0 -113 52 -113 130 0 67 25 100 90 124 31 11 85 -4 108 -29z m797 21 c38 -16 65 -60 65 -106 l0 -30 -85 0 c-78 0 -85 -2 -85 -19 0 -22 35 -51 61 -51 9 0 27 8 40 19 24 19 59 17 59 -4 0 -25 -41 -48 -94 -53 -48 -4 -56 -1 -86 25 -28 25 -34 38 -38 85 -5 68 16 114 61 133 41 18 60 18 102 1z m270 0 c31 -13 55 -41 55 -65 0 -19 -45 -12 -58 9 -15 24 -49 26 -80 4 -28 -19 -31 -97 -5 -126 22 -24 69 -23 85 2 12 19 48 27 61 14 9 -9 -11 -46 -37 -66 -13 -11 -39 -18 -69 -18 -42 0 -54 5 -83 34 -30 30 -34 40 -34 88 0 70 26 110 85 130 32 10 43 9 80 -6z m333 -77 c3 -94 18 -122 61 -117 39 5 52 41 45 124 l-6 71 31 5 31 5 0 -129 0 -129 -27 3 c-21 2 -27 8 -25 22 3 17 2 17 -24 -3 -29 -23 -64 -27 -95 -11 -35 19 -49 64 -49 154 0 72 3 85 18 89 33 9 37 0 40 -84z m280 70 c2 -5 13 -2 25 6 35 25 57 19 57 -15 0 -19 -4 -28 -12 -25 -7 3 -24 -1 -38 -8 -23 -12 -25 -19 -30 -102 -5 -88 -6 -90 -30 -90 l-25 0 -3 114 c-1 63 0 121 3 129 5 14 47 7 53 -9z m266 7 c44 -18 66 -51 66 -98 l0 -38 -85 0 c-93 0 -105 -10 -65 -50 25 -25 50 -25 82 -1 15 13 33 18 46 14 29 -7 28 -16 -9 -47 -36 -31 -110 -36 -147 -10 -68 47 -67 189 1 222 52 25 67 26 111 8z m1339 -18 l17 -20 0 21 c0 17 6 21 30 21 l30 0 0 -135 c0 -79 -5 -144 -11 -159 -26 -57 -147 -73 -194 -25 -20 20 -20 20 -1 34 17 13 22 13 36 0 20 -18 81 -20 98 -3 7 7 12 28 12 47 0 32 -1 33 -18 18 -11 -10 -36 -17 -61 -17 -72 0 -111 66 -91 155 19 84 104 119 153 63z m277 7 c0 -19 -5 -25 -22 -25 -46 0 -53 -14 -58 -112 -5 -93 -5 -93 -32 -96 l-28 -3 0 125 0 126 25 0 c16 0 25 -6 25 -16 0 -13 5 -12 26 5 37 29 64 28 64 -4z m218 -10 c20 -23 22 -37 22 -126 l0 -100 -27 3 c-16 2 -27 8 -25 16 3 17 -8 15 -30 -5 -26 -24 -84 -22 -109 3 -25 26 -28 78 -5 103 10 11 37 22 59 26 66 10 77 15 77 35 0 31 -71 43 -87 15 -5 -9 -17 -12 -31 -8 -41 10 -22 45 35 63 45 14 95 4 121 -25z m527 21 c87 -37 101 -176 23 -230 -29 -21 -107 -21 -136 0 -68 47 -67 189 1 222 52 25 67 26 112 8z m175 -12 c0 -8 5 -14 10 -14 6 0 10 4 10 9 0 15 56 32 84 25 43 -10 54 -39 58 -149 l3 -100 -27 -3 -28 -3 0 87 c0 91 -13 124 -49 124 -38 -1 -46 -17 -51 -112 -5 -93 -5 -93 -32 -96 l-28 -3 0 125 c0 90 3 126 13 129 18 6 37 -3 37 -19z m-4072 -106 l-3 -123 -27 -3 -28 -3 0 125 0 126 30 0 31 0 -3 -122z m2665 0 l-1 -123 -26 -3 -26 -3 0 125 0 126 28 0 27 0 -2 -122z m1015 0 l-3 -123 -25 0 -25 0 -3 123 -3 122 31 0 31 0 -3 -122z m2722 -28 c0 -11 -7 -20 -15 -20 -8 0 -15 9 -15 20 0 11 7 20 15 20 8 0 15 -9 15 -20z m-245 -450 c-3 -5 -12 -10 -18 -10 -7 0 -6 4 3 10 19 12 23 12 15 0z m-6247 -65 c3 -3 -4 -5 -16 -5 -13 0 -22 -6 -22 -15 0 -8 -12 -18 -26 -21 -20 -5 -24 -11 -20 -28 6 -25 -2 -39 -31 -55 -28 -14 -33 -14 -33 4 0 7 -8 19 -17 25 -17 9 -17 11 0 21 18 10 18 12 1 30 -9 10 -12 19 -7 19 6 0 16 -6 23 -14 6 -8 18 -12 26 -9 19 7 18 33 -1 33 -20 0 -19 18 2 22 24 4 115 -1 121 -7z m2102 -11 c0 -18 -36 -18 -43 0 -6 16 10 26 31 18 6 -2 12 -10 12 -18z m-3255 -4 c-34 -23 -76 -26 -108 -7 -12 6 -71 15 -132 18 -96 5 -86 6 80 7 l190 2 -30 -20z m965 10 c0 -13 -11 -13 -30 0 -12 8 -11 10 8 10 12 0 22 -4 22 -10z m704 -5 c-4 -8 -7 -15 -9 -15 -2 0 -5 7 -9 15 -3 9 0 15 9 15 9 0 12 -6 9 -15z m-949 -30 c0 -30 -39 -27 -43 3 -3 20 0 23 20 20 15 -2 23 -10 23 -23z m5320 4 c10 -15 -1 -23 -20 -15 -9 3 -13 10 -10 16 8 13 22 13 30 -1z m-4762 -59 c37 -18 85 -34 107 -37 22 -3 43 -10 46 -15 9 -14 -16 -38 -38 -38 -14 0 -18 -5 -14 -15 3 -8 2 -15 -3 -15 -17 0 -19 14 -4 36 15 23 14 24 -33 45 -27 11 -72 29 -100 40 -27 10 -59 26 -70 34 -18 13 -17 14 11 6 17 -5 60 -23 98 -41z m3885 32 c2 -7 -3 -12 -12 -12 -9 0 -16 7 -16 16 0 17 22 14 28 -4z m-3728 -12 c0 -5 -7 -10 -15 -10 -8 0 -15 5 -15 10 0 6 7 10 15 10 8 0 15 -4 15 -10z m2205 0 c9 -15 -3 -30 -20 -24 -7 3 -11 12 -8 20 6 16 19 18 28 4z m75 -8 c0 -13 -12 -22 -22 -16 -10 6 -1 24 13 24 5 0 9 -4 9 -8z m2000 -2 c0 -5 -5 -10 -11 -10 -5 0 -7 5 -4 10 3 6 8 10 11 10 2 0 4 -4 4 -10z m610 0 c0 -5 -4 -10 -10 -10 -5 0 -10 5 -10 10 0 6 5 10 10 10 6 0 10 -4 10 -10z m-1762 -33 c3 -27 -4 -32 -32 -21 -19 7 -21 25 -4 42 18 18 33 9 36 -21z m-2598 -5 c0 -32 -16 -52 -42 -52 -25 0 -33 25 -20 56 8 16 20 24 37 24 21 0 25 -5 25 -28z m1965 18 c3 -5 1 -10 -4 -10 -6 0 -11 5 -11 10 0 6 2 10 4 10 3 0 8 -4 11 -10z m85 -10 c0 -5 -4 -10 -9 -10 -6 0 -13 5 -16 10 -3 6 1 10 9 10 9 0 16 -4 16 -10z m486 -17 c3 -10 9 -25 14 -34 13 -24 1 -61 -17 -55 -8 3 -21 6 -29 6 -8 0 -14 5 -14 10 0 6 6 10 13 10 6 0 19 5 27 10 13 8 12 12 -7 25 -13 9 -23 23 -23 31 0 20 30 18 36 -3z m137 -30 c-24 -18 -37 -4 -16 17 12 12 20 14 25 6 4 -6 0 -16 -9 -23z m1308 21 c12 -14 11 -16 -5 -13 -11 2 -21 10 -24 17 -5 17 13 15 29 -4z m-2246 -24 c0 -16 -6 -26 -18 -28 -19 -4 -32 20 -23 44 9 25 41 13 41 -16z m-2170 -18 c5 -12 15 -22 22 -22 18 0 16 -17 -3 -24 -32 -12 -54 -6 -54 14 0 13 -9 22 -25 26 -14 3 -25 10 -25 16 0 5 9 7 19 3 11 -3 22 -1 26 5 10 16 28 7 40 -18z m3055 -6 c0 -5 -7 -3 -15 4 -8 7 -12 17 -9 22 7 10 24 -9 24 -26z m1095 -22 c-24 -18 -35 -18 -35 0 0 10 7 12 23 9 18 -5 20 -3 10 8 -20 20 -15 33 4 13 16 -15 16 -17 -2 -30z m342 21 c7 -20 -2 -29 -21 -22 -9 4 -13 13 -10 22 8 19 23 19 31 0z m-2847 -15 c0 -22 -14 -40 -31 -40 -21 0 -26 29 -8 47 12 12 39 7 39 -7z m230 -15 c0 -19 -13 -25 -29 -15 -19 11 -6 41 14 34 8 -3 15 -12 15 -19z m-1656 -18 c-7 -19 -20 -22 -29 -7 -9 15 16 43 27 32 5 -5 6 -16 2 -25z m2846 29 c0 -3 -4 -8 -10 -11 -5 -3 -10 -1 -10 4 0 6 5 11 10 11 6 0 10 -2 10 -4z m-4730 -26 c45 -45 11 -120 -55 -120 -46 0 -75 29 -75 74 0 25 7 39 22 50 31 22 84 20 108 -4z m1744 4 c9 -3 16 -10 16 -15 0 -14 -26 -10 -40 6 -13 16 -3 20 24 9z m92 -31 l34 -38 -25 -13 c-14 -7 -25 -18 -25 -25 0 -7 -8 -17 -19 -24 -15 -9 -23 -8 -40 3 -25 18 -28 42 -6 50 10 4 13 13 10 25 -4 11 -2 19 4 19 6 0 11 9 11 20 0 30 20 24 56 -17z m2004 21 c0 -9 -5 -14 -12 -12 -18 6 -21 28 -4 28 9 0 16 -7 16 -16z m70 -5 c0 -5 -4 -9 -10 -9 -5 0 -10 7 -10 16 0 8 5 12 10 9 6 -3 10 -10 10 -16z m170 11 c0 -5 -5 -10 -11 -10 -5 0 -7 5 -4 10 3 6 8 10 11 10 2 0 4 -4 4 -10z m-2055 -35 c0 -10 -5 -20 -11 -22 -13 -4 -27 24 -18 38 9 15 29 4 29 -16z m-290 -5 c10 -17 -19 -65 -41 -68 -11 -2 -26 4 -33 12 -10 12 -9 20 4 40 17 26 58 35 70 16z m2785 0 c0 -5 -4 -10 -9 -10 -6 0 -13 5 -16 10 -3 6 1 10 9 10 9 0 16 -4 16 -10z m-440 -4 c0 -3 -4 -8 -10 -11 -5 -3 -10 -1 -10 4 0 6 5 11 10 11 6 0 10 -2 10 -4z m40 -6 c0 -5 -4 -10 -10 -10 -5 0 -10 5 -10 10 0 6 5 10 10 10 6 0 10 -4 10 -10z m-675 -25 c0 -22 -31 -33 -47 -17 -17 17 -1 44 24 40 15 -2 23 -10 23 -23z m85 4 c0 -5 -4 -9 -10 -9 -5 0 -10 7 -10 16 0 8 5 12 10 9 6 -3 10 -10 10 -16z m64 6 c-4 -8 -10 -15 -15 -15 -5 0 -9 7 -9 15 0 8 7 15 15 15 9 0 12 -6 9 -15z m646 11 c0 -3 -4 -8 -10 -11 -5 -3 -10 -1 -10 4 0 6 5 11 10 11 6 0 10 -2 10 -4z m-1600 -33 c0 -10 -4 -25 -10 -33 -8 -12 -10 -12 -16 3 -7 20 1 47 16 47 5 0 10 -8 10 -17z m1880 7 c0 -5 -4 -10 -10 -10 -5 0 -10 5 -10 10 0 6 5 10 10 10 6 0 10 -4 10 -10z m1750 0 c0 -5 -4 -10 -10 -10 -5 0 -10 5 -10 10 0 6 5 10 10 10 6 0 10 -4 10 -10z m-3952 -19 c8 -5 12 -22 10 -42 -2 -27 -8 -35 -26 -37 -46 -7 -67 35 -35 70 18 20 31 22 51 9z m4590 -9 c2 -7 -3 -12 -12 -12 -9 0 -16 7 -16 16 0 17 22 14 28 -4z m-3168 -7 c0 -8 -4 -15 -10 -15 -5 0 -10 7 -10 15 0 8 5 15 10 15 6 0 10 -7 10 -15z m790 0 c0 -8 -7 -15 -15 -15 -16 0 -20 12 -8 23 11 12 23 8 23 -8z m-2450 -14 c0 -18 29 -31 185 -82 27 -9 34 -14 22 -17 -11 -2 -53 10 -95 27 -119 46 -130 48 -138 17 -3 -14 -10 -26 -15 -26 -12 0 -11 17 1 40 7 13 7 21 -1 25 -6 5 -4 12 8 21 25 18 33 17 33 -5z m760 9 c0 -5 -4 -10 -10 -10 -5 0 -10 5 -10 10 0 6 5 10 10 10 6 0 10 -4 10 -10z m1567 -16 c-9 -9 -28 6 -21 18 4 6 10 6 17 -1 6 -6 8 -13 4 -17z m-1647 0 c0 -8 -4 -12 -10 -9 -5 3 -10 10 -10 16 0 5 5 9 10 9 6 0 10 -7 10 -16z m910 6 c0 -5 -2 -10 -4 -10 -3 0 -8 5 -11 10 -3 6 -1 10 4 10 6 0 11 -4 11 -10z m490 -5 c0 -8 -6 -15 -14 -15 -20 0 -29 17 -14 23 22 9 28 7 28 -8z m-60 1 c0 -3 -4 -8 -10 -11 -5 -3 -10 -1 -10 4 0 6 5 11 10 11 6 0 10 -2 10 -4z m200 -11 c6 -8 9 -19 5 -25 -3 -5 1 -10 9 -10 18 0 21 -15 6 -25 -10 -6 -80 20 -80 30 0 4 5 15 10 26 13 23 33 25 50 4z m-2466 -11 c3 -8 2 -12 -4 -9 -6 3 -10 10 -10 16 0 14 7 11 14 -7z m1576 -14 c0 -30 -11 -37 -44 -24 -16 6 -22 35 -9 47 3 4 17 7 30 7 19 0 23 -5 23 -30z m-1170 5 c0 -8 -7 -15 -15 -15 -8 0 -15 7 -15 15 0 8 7 15 15 15 8 0 15 -7 15 -15z m190 -1 c0 -17 -22 -14 -28 4 -2 7 3 12 12 12 9 0 16 -7 16 -16z m1780 -20 c0 -9 -7 -14 -17 -12 -25 5 -28 28 -4 28 12 0 21 -6 21 -16z m245 7 c7 -13 -32 -34 -46 -26 -6 4 -3 12 8 21 22 16 30 17 38 5z m-1150 -29 c0 -18 -20 -15 -23 4 -3 10 1 15 10 12 7 -3 13 -10 13 -16z m802 -4 c-3 -8 -6 -5 -6 6 -1 11 2 17 5 13 3 -3 4 -12 1 -19z m-322 -8 c3 -6 -1 -13 -10 -16 -19 -8 -30 0 -20 15 8 14 22 14 30 1z m492 -5 c5 -16 -14 -38 -26 -31 -18 12 -13 48 6 44 9 -2 18 -7 20 -13z m-87 -10 c0 -8 -4 -15 -9 -15 -13 0 -22 16 -14 24 11 11 23 6 23 -9z m-1731 -29 c-2 -2 -17 -2 -34 2 -30 6 -30 6 -5 12 23 6 50 -4 39 -14z m891 14 c0 -5 -4 -10 -10 -10 -5 0 -10 5 -10 10 0 6 5 10 10 10 6 0 10 -4 10 -10z m791 -13 c-13 -13 -26 -3 -16 12 3 6 11 8 17 5 6 -4 6 -10 -1 -17z m-1113 2 c-2 -6 -8 -10 -13 -10 -5 0 -11 4 -13 10 -2 6 4 11 13 11 9 0 15 -5 13 -11z m582 -9 c0 -5 -4 -10 -10 -10 -5 0 -10 5 -10 10 0 6 5 10 10 10 6 0 10 -4 10 -10z m460 -5 c0 -12 -19 -12 -23 0 -4 9 -1 12 9 8 7 -3 14 -7 14 -8z m-1471 -10 c2 -2 1 -11 -2 -19 -5 -13 -10 -13 -37 0 -36 18 -30 39 9 29 14 -4 28 -8 30 -10z m781 -10 c0 -8 -4 -15 -9 -15 -13 0 -22 16 -14 24 11 11 23 6 23 -9z m790 5 c0 -5 -4 -10 -9 -10 -6 0 -13 5 -16 10 -3 6 1 10 9 10 9 0 16 -4 16 -10z m2840 -6 c0 -8 -4 -12 -10 -9 -5 3 -10 10 -10 16 0 5 5 9 10 9 6 0 10 -7 10 -16z m-3240 -4 c0 -5 -4 -10 -10 -10 -5 0 -10 5 -10 10 0 6 5 10 10 10 6 0 10 -4 10 -10z m220 0 c0 -5 -2 -10 -4 -10 -3 0 -8 5 -11 10 -3 6 -1 10 4 10 6 0 11 -4 11 -10z m-1440 -20 c0 -5 -4 -10 -10 -10 -5 0 -10 5 -10 10 0 6 5 10 10 10 6 0 10 -4 10 -10z"
       id="path1"
       style="fill:#000080" />
    <path
       d="M4830 6335 c0 -8 5 -15 10 -15 6 0 10 7 10 15 0 8 -4 15 -10 15 -5 0 -10 -7 -10 -15z"
       id="path2"
       style="fill:#000080" />
    <path
       d="M6330 5714 c0 -8 5 -12 10 -9 6 4 8 11 5 16 -9 14 -15 11 -15 -7z"
       id="path3"
       style="fill:#000080" />
    <path
       d="M6717 5573 c-10 -9 -9 -113 1 -113 5 0 9 27 9 60 1 63 0 64 -10 53z"
       id="path4"
       style="fill:#000080" />
    <path
       d="M5855 5511 c-4 -8 -2 -17 6 -22 10 -6 11 -9 2 -9 -7 0 -13 -4 -13 -10 0 -5 7 -10 15 -10 16 0 18 14 6 44 -6 15 -10 16 -16 7z"
       id="path5"
       style="fill:#000080" />
    <path
       d="M6825 5470 c-3 -5 -1 -10 4 -10 6 0 11 5 11 10 0 6 -2 10 -4 10 -3 0 -8 -4 -11 -10z"
       id="path6"
       style="fill:#000080" />
    <path
       d="M5598 3313 c6 -2 18 -2 25 0 6 3 1 5 -13 5 -14 0 -19 -2 -12 -5z"
       id="path7"
       style="fill:#000080" />
    <path
       d="M5856 3191 c-20 -114 -44 -159 -131 -245 -44 -43 -53 -56 -39 -57 59 -5 99 2 128 22 37 25 76 77 76 101 0 21 26 42 41 32 9 -5 10 2 5 26 -3 19 -3 31 0 27 4 -3 15 -2 25 4 15 7 17 6 13 -5 -4 -10 0 -13 14 -10 16 5 20 20 28 105 5 54 6 99 2 99 -5 0 -8 -11 -8 -24 0 -14 -5 -28 -12 -32 -7 -4 -8 -3 -4 4 4 7 -3 14 -19 18 -14 3 -25 12 -25 20 0 10 -12 14 -38 14 l-39 0 -17 -99z m45 52 c-12 -20 -14 -14 -5 12 4 9 9 14 11 11 3 -2 0 -13 -6 -23z m87 -94 c-1 -17 -7 -29 -14 -29 -8 0 -11 6 -8 15 4 9 0 15 -10 15 -9 0 -16 6 -16 14 0 8 10 14 24 14 21 0 24 -5 24 -29z m-78 -49 c0 -5 -4 -10 -10 -10 -5 0 -10 5 -10 10 0 6 5 10 10 10 6 0 10 -4 10 -10z m-30 -78 c0 -5 -7 -17 -15 -28 -14 -18 -14 -17 -4 9 12 27 19 34 19 19z"
       id="path8"
       style="fill:#000080" />
    <path
       d="M6716 3245 c4 -27 8 -52 10 -54 9 -10 3 76 -7 89 -7 11 -8 1 -3 -35z"
       id="path9"
       style="fill:#000080" />
    <path
       d="M6743 3194 c6 -102 29 -165 82 -229 19 -24 26 -27 34 -16 11 18 34 4 28 -18 -3 -12 3 -16 22 -17 14 0 41 -4 59 -9 37 -9 45 11 14 39 -26 23 -96 125 -90 131 3 3 20 -16 38 -43 45 -62 92 -108 132 -127 l33 -16 -30 23 c-91 70 -158 179 -171 278 -13 101 -35 129 -53 68 l-9 -33 -1 33 c-1 31 -2 32 -47 32 l-47 0 6 -96z m136 -44 c4 0 7 -9 8 -20 1 -11 -2 -20 -6 -20 -17 0 -30 27 -36 70 l-6 45 17 -37 c9 -21 19 -38 23 -38z m-89 50 c0 -5 -4 -10 -10 -10 -5 0 -10 5 -10 10 0 6 5 10 10 10 6 0 10 -4 10 -10z m50 -161 c0 -5 -4 -9 -10 -9 -5 0 -10 7 -10 16 0 8 5 12 10 9 6 -3 10 -10 10 -16z m135 -99 c3 -6 -1 -13 -10 -16 -19 -8 -30 0 -20 15 8 14 22 14 30 1z"
       id="path10"
       style="fill:#000080" />
    <path
       d="M6897 3258 c9 -49 29 -103 37 -100 8 3 46 -35 46 -47 0 -5 -5 -11 -12 -13 -21 -7 3 -62 46 -104 57 -54 120 -88 191 -102 32 -7 61 -12 65 -12 12 0 70 98 70 119 0 23 48 83 60 76 4 -2 24 4 45 15 24 12 44 16 54 11 9 -5 21 -6 28 -4 6 2 23 -3 37 -13 27 -17 36 -8 14 14 -9 9 -9 12 3 12 8 0 20 -5 26 -11 6 -6 16 -8 23 -4 7 4 -2 17 -26 35 -35 26 -39 26 -64 12 -27 -16 -29 -15 -65 17 -33 29 -39 31 -54 18 -18 -16 -41 -14 -103 9 -24 8 -54 18 -68 21 -14 3 -36 16 -50 28 -14 13 -40 26 -57 30 -18 4 -33 11 -33 16 0 5 -49 9 -110 9 l-109 0 6 -32z"
       id="path11"
       style="fill:#000080" />
    <path
       d="M6041 3239 c-1 -26 2 -38 9 -34 12 7 14 75 2 75 -4 0 -9 -18 -11 -41z"
       id="path12"
       style="fill:#000080" />
    <path
       d="M6544 3137 c8 -82 23 -102 18 -25 -2 35 -9 68 -14 73 -7 7 -8 -9 -4 -48z"
       id="path13"
       style="fill:#000080" />
    <path
       d="M6582 3160 c0 -19 2 -27 5 -17 2 9 2 25 0 35 -3 9 -5 1 -5 -18z"
       id="path14"
       style="fill:#000080" />
    <path
       d="M6034 3143 c-9 -28 -31 -85 -49 -126 -9 -22 -11 -36 -6 -32 6 3 11 -1 11 -10 0 -9 -5 -13 -10 -10 -13 8 -40 -12 -40 -29 0 -18 39 -14 45 5 3 9 14 26 24 38 16 19 22 44 37 154 4 30 -4 36 -12 10z"
       id="path15"
       style="fill:#000080" />
    <path
       d="M6730 3084 c0 -32 60 -136 96 -164 10 -8 5 3 -12 25 -40 52 -43 57 -65 118 -16 46 -18 48 -19 21z"
       id="path16"
       style="fill:#000080" />
    <path
       d="M6087 2911 c-4 -17 -3 -21 5 -13 5 5 8 16 6 23 -3 8 -7 3 -11 -10z"
       id="path17"
       style="fill:#000080" />
    <path
       d="M5545 2864 c-16 -9 -39 -18 -49 -20 -11 -2 -24 -9 -30 -15 -8 -9 -5 -10 14 -4 14 4 37 9 52 12 15 3 35 14 44 24 21 23 9 24 -31 3z"
       id="path18"
       style="fill:#000080" />
    <path
       d="M6056 2854 c-20 -19 -20 -25 -2 -18 8 3 17 12 20 20 7 18 1 18 -18 -2z"
       id="path19"
       style="fill:#000080" />
    <path
       d="M5610 2850 c-13 -8 -12 -10 3 -10 9 0 17 5 17 10 0 12 -1 12 -20 0z"
       id="path20"
       style="fill:#000080" />
    <path
       d="M5984 2794 c-18 -14 -18 -15 4 -4 12 6 22 13 22 15 0 8 -5 6 -26 -11z"
       id="path21"
       style="fill:#000080" />
    <path
       d="M4265 2660 c-6 -10 63 -100 77 -100 4 0 12 8 17 18 22 41 -70 121 -94 82z"
       id="path22"
       style="fill:#000080" />
    <path
       d="M6000 2631 c0 -6 4 -13 10 -16 6 -3 7 1 4 9 -7 18 -14 21 -14 7z"
       id="path23"
       style="fill:#000080" />
    <path
       d="M6280 2630 c-13 -8 -13 -10 2 -10 9 0 20 5 23 10 8 13 -5 13 -25 0z"
       id="path24"
       style="fill:#000080" />
    <path
       d="M5665 2590 c-3 -5 3 -22 14 -36 l21 -27 0 27 c0 14 0 29 1 34 0 12 -29 14 -36 2z"
       id="path25"
       style="fill:#000080" />
    <path
       d="M3944 6084 c-27 -14 -51 -28 -53 -30 -5 -5 29 -44 39 -44 8 0 72 91 67 96 -2 2 -26 -8 -53 -22z"
       id="path26"
       style="fill:#000080" />
    <path
       d="M4070 6046 c0 -63 1 -65 28 -69 l27 -4 -27 -2 c-27 -1 -28 -3 -28 -56 l0 -55 71 0 72 0 -6 49 c-7 58 -34 116 -78 166 -47 53 -59 47 -59 -29z"
       id="path27"
       style="fill:#000080" />
    <path
       d="M4156 6063 c20 -26 38 -50 40 -52 7 -8 54 30 49 40 -7 11 -69 43 -103 54 -21 6 -20 2 14 -42z"
       id="path28"
       style="fill:#000080" />
    <path
       d="M4077 5843 c-12 -11 -8 -103 4 -103 8 0 8 -4 0 -14 -15 -18 -10 -118 6 -123 12 -4 97 96 89 104 -3 3 -20 9 -38 14 -30 8 -29 8 9 4 41 -5 42 -5 52 32 6 21 11 50 11 66 0 27 -1 27 -63 27 -35 0 -67 -3 -70 -7z"
       id="path29"
       style="fill:#000080" />
    <path
       d="M4157 5654 c-37 -53 -37 -54 -14 -54 13 0 43 14 66 31 36 25 40 33 30 45 -30 37 -43 33 -82 -22z"
       id="path30"
       style="fill:#000080" />
    <path
       d="M3908 5689 c-30 -17 -20 -35 35 -62 73 -38 84 -34 43 15 -20 23 -36 45 -36 50 0 11 -21 10 -42 -3z"
       id="path31"
       style="fill:#000080" />
    <path
       d="M6790 5719 c0 -5 5 -7 10 -4 6 3 10 8 10 11 0 2 -4 4 -10 4 -5 0 -10 -5 -10 -11z"
       id="path32"
       style="fill:#000080" />
    <path
       d="M5345 4870 c-8 -13 -1 -24 14 -19 6 3 7 10 2 18 -6 10 -10 10 -16 1z"
       id="path33"
       style="fill:#000080" />
    <path
       d="M5435 4860 c-3 -5 -1 -10 4 -10 6 0 11 5 11 10 0 6 -2 10 -4 10 -3 0 -8 -4 -11 -10z"
       id="path34"
       style="fill:#000080" />
    <path
       d="M11880 2549 c0 -5 5 -7 10 -4 6 3 10 8 10 11 0 2 -4 4 -10 4 -5 0 -10 -5 -10 -11z"
       id="path35"
       style="fill:#000080" />
    <path
       d="M4013 1202 c-34 -22 -39 -116 -8 -142 22 -18 67 -15 82 6 18 24 16 95 -3 122 -15 22 -48 29 -71 14z"
       id="path36"
       style="fill:#000080" />
    <path
       d="M4465 1248 c-17 -46 -32 -108 -27 -112 3 -4 23 -6 45 -6 27 0 38 4 35 13 -3 6 -13 36 -22 65 -18 54 -23 61 -31 40z"
       id="path37"
       style="fill:#000080" />
    <path
       d="M7291 1276 c-9 -11 -10 -20 -1 -35 6 -12 14 -21 19 -21 16 0 41 38 35 54 -8 20 -37 21 -53 2z"
       id="path38"
       style="fill:#000080" />
    <path
       d="M7268 1114 c-16 -35 0 -58 42 -62 48 -5 54 9 19 51 -36 44 -46 46 -61 11z"
       id="path39"
       style="fill:#000080" />
    <path
       d="M3446 1188 c-23 -33 -21 -103 4 -128 25 -25 41 -25 71 -1 32 26 35 115 5 137 -29 21 -63 17 -80 -8z"
       id="path40"
       style="fill:#000080" />
    <path
       d="M5736 1194 c-31 -31 -20 -44 39 -44 41 0 55 4 55 14 0 22 -29 46 -55 46 -13 0 -31 -7 -39 -16z"
       id="path41"
       style="fill:#000080" />
    <path
       d="M6887 1192 c-29 -32 -21 -42 37 -42 62 0 72 7 50 38 -19 27 -65 29 -87 4z"
       id="path42"
       style="fill:#000080" />
    <path
       d="M8236 1195 c-34 -34 -32 -116 4 -135 49 -26 90 3 90 66 0 70 -53 109 -94 69z"
       id="path43"
       style="fill:#000080" />
    <path
       d="M8721 1111 c-42 -7 -61 -32 -42 -55 29 -34 91 -8 91 38 0 14 -3 25 -7 25 -5 -1 -23 -4 -42 -8z"
       id="path44"
       style="fill:#000080" />
    <path
       d="M9245 1186 c-25 -38 -16 -104 18 -129 l27 -21 28 21 c24 18 27 27 27 73 -1 39 -6 56 -20 66 -29 21 -63 17 -80 -10z"
       id="path45"
       style="fill:#000080" />
    <path
       d="M12360 2373 c0 -13 29 -38 35 -31 3 3 -4 13 -15 23 -11 10 -20 13 -20 8z"
       id="path46"
       style="fill:#000080" />
    <path
       d="M12433 2346 c-4 -7 -15 -16 -23 -19 -12 -4 -12 -6 2 -6 10 -1 22 8 28 19 12 22 6 28 -7 6z"
       id="path47"
       style="fill:#000080" />
    <path
       d="M12455 2330 c-3 -5 -2 -10 4 -10 5 0 13 5 16 10 3 6 2 10 -4 10 -5 0 -13 -4 -16 -10z"
       id="path48"
       style="fill:#000080" />
    <path
       d="M12330 2290 c0 -5 7 -10 15 -10 8 0 15 5 15 10 0 6 -7 10 -15 10 -8 0 -15 -4 -15 -10z"
       id="path49"
       style="fill:#000080" />
    <path
       d="M9090 560 c0 -5 7 -7 15 -4 8 4 15 8 15 10 0 2 -7 4 -15 4 -8 0 -15 -4 -15 -10z"
       id="path50"
       style="fill:#000080" />
    <path
       d="M9690 559 c0 -9 7 -22 15 -29 19 -16 19 0 0 26 -12 16 -14 16 -15 3z"
       id="path51"
       style="fill:#000080" />
    <path
       d="M9220 530 c0 -5 5 -10 11 -10 5 0 7 5 4 10 -3 6 -8 10 -11 10 -2 0 -4 -4 -4 -10z"
       id="path52"
       style="fill:#000080" />
    <path
       d="M9550 519 c-19 -11 -27 -18 -16 -14 10 3 25 0 32 -6 8 -6 14 -8 15 -3 0 5 2 17 4 27 2 9 3 17 2 17 -1 -1 -18 -10 -37 -21z"
       id="path53"
       style="fill:#000080" />
    <path
       d="M9627 510 c-30 -34 -27 -32 -85 -34 -33 -2 -41 1 -37 12 3 8 -6 5 -21 -7 -15 -12 -33 -21 -40 -21 -8 0 -14 -7 -14 -15 0 -8 -9 -19 -19 -25 -26 -13 -31 -13 -31 5 0 8 -4 15 -10 15 -5 0 -10 -5 -10 -11 0 -5 -4 -7 -10 -4 -5 3 -10 1 -10 -5 0 -6 -4 -9 -8 -6 -4 2 -14 0 -22 -5 -10 -6 -3 -7 23 -3 38 5 48 -5 23 -25 -9 -8 -16 -8 -20 -2 -7 11 -76 -25 -76 -40 0 -11 69 -9 76 3 3 4 13 8 23 8 25 0 121 48 121 60 0 6 -9 14 -21 18 -18 7 -19 10 -6 21 13 10 21 9 46 -4 17 -8 31 -20 31 -25 0 -14 -50 -45 -105 -65 -27 -10 -57 -24 -66 -31 -9 -8 -19 -11 -22 -7 -4 3 -7 2 -7 -4 0 -16 31 -38 38 -27 4 5 13 9 20 10 6 1 19 2 27 3 8 0 29 15 45 33 17 17 39 32 49 33 25 2 91 57 91 76 0 11 12 19 35 23 19 4 37 11 40 16 5 9 -38 4 -59 -6 -6 -3 -2 2 8 10 11 9 16 16 12 16 -4 0 -1 7 8 15 18 19 23 19 29 0 4 -12 5 -11 3 1 -2 28 -21 26 -49 -6z"
       id="path54"
       style="fill:#000080" />
    <path
       d="M8955 469 c-9 -17 -15 -32 -13 -33 2 -1 15 -7 30 -14 22 -9 27 -9 25 1 -1 6 5 11 14 9 9 -1 20 5 23 14 6 15 4 15 -11 3 -14 -12 -16 -12 -11 1 3 9 -4 22 -18 33 -23 17 -24 17 -39 -14z"
       id="path55"
       style="fill:#000080" />
    <path
       d="M9207 473 c-7 -11 10 -40 18 -31 4 4 3 14 -3 24 -5 9 -12 12 -15 7z"
       id="path56"
       style="fill:#000080" />
    <path
       d="M8896 387 c1 -10 -3 -21 -11 -24 -17 -6 -20 -33 -5 -33 6 0 10 5 10 11 0 6 6 9 14 6 9 -4 16 2 19 15 4 15 11 19 24 14 17 -6 17 -5 1 7 -10 8 -15 16 -12 19 3 3 -6 5 -19 4 -18 -1 -24 -6 -21 -19z"
       id="path57"
       style="fill:#000080" />
    <path
       d="M8850 371 c-6 -12 -7 -21 -1 -21 10 0 24 30 17 37 -2 3 -9 -5 -16 -16z"
       id="path58"
       style="fill:#000080" />
    <path
       d="M8930 360 c0 -5 5 -10 11 -10 5 0 7 5 4 10 -3 6 -8 10 -11 10 -2 0 -4 -4 -4 -10z"
       id="path59"
       style="fill:#000080" />
    <path
       d="M8842 314 c13 -14 24 -20 26 -15 2 6 13 11 23 11 11 0 17 5 14 10 -4 6 -11 8 -16 5 -5 -4 -15 -3 -21 2 -7 4 -21 9 -30 10 -15 2 -14 -1 4 -23z"
       id="path60"
       style="fill:#000080" />
    <path
       d="M9166 312 c-7 -20 1 -52 13 -52 4 0 15 6 24 13 17 12 14 23 -15 45 -14 11 -17 10 -22 -6z"
       id="path61"
       style="fill:#000080" />
    <path
       d="M9566 315 c4 -8 8 -15 10 -15 2 0 4 7 4 15 0 8 -4 15 -10 15 -5 0 -7 -7 -4 -15z"
       id="path62"
       style="fill:#000080" />
    <path
       d="M8797 308 c4 -7 8 -17 8 -22 0 -5 11 -16 24 -25 20 -13 23 -13 19 -1 -3 8 -11 14 -17 12 -7 -1 -10 2 -6 8 4 6 1 17 -5 25 -15 18 -34 20 -23 3z"
       id="path63"
       style="fill:#000080" />
    <path
       d="M9275 310 c-3 -5 -2 -10 4 -10 5 0 13 5 16 10 3 6 2 10 -4 10 -5 0 -13 -4 -16 -10z"
       id="path64"
       style="fill:#000080" />
    <path
       d="M9233 258 c-14 -7 -21 -19 -20 -32 1 -13 -4 -21 -13 -21 -8 0 -15 7 -14 16 1 13 -10 11 -65 -11 -51 -21 -65 -32 -64 -46 1 -11 0 -13 -3 -6 -7 15 -36 16 -52 0 -9 -9 -15 -9 -23 -1 -7 7 -2 14 20 21 37 13 41 21 6 15 -24 -5 -42 -19 -45 -38 -1 -5 -22 -16 -47 -23 -24 -7 -58 -22 -76 -32 -29 -18 -30 -20 -9 -20 12 0 22 -5 22 -11 0 -6 7 -17 15 -25 13 -14 15 -14 15 1 0 9 4 14 9 10 5 -3 13 -1 16 5 4 6 21 8 40 4 23 -4 41 -1 59 11 14 10 26 14 26 11 0 -4 15 4 33 17 17 13 57 36 88 51 31 15 65 35 76 44 10 9 23 18 28 19 6 1 23 8 38 16 30 16 26 25 -10 22 -12 -1 -20 2 -17 7 7 11 -6 9 -33 -4z"
       id="path65"
       style="fill:#000080" />
    <path
       d="M8776 235 c4 -8 11 -15 16 -15 6 0 5 6 -2 15 -7 8 -14 15 -16 15 -2 0 -1 -7 2 -15z"
       id="path66"
       style="fill:#000080" />
    <path
       d="M9104 235 c-18 -13 -18 -14 4 -8 12 3 25 9 28 14 8 14 -10 11 -32 -6z"
       id="path67"
       style="fill:#000080" />
    <path
       d="M8930 170 c-8 -5 -12 -12 -9 -15 4 -3 12 1 19 10 14 17 11 19 -10 5z"
       id="path68"
       style="fill:#000080" />
    <path
       d="M8864 145 c-18 -13 -18 -14 4 -8 12 3 25 9 28 14 8 14 -10 11 -32 -6z"
       id="path69"
       style="fill:#000080" />
    <path
       d="M9150 75 c0 -8 5 -15 10 -15 6 0 10 7 10 15 0 8 -4 15 -10 15 -5 0 -10 -7 -10 -15z"
       id="path70"
       style="fill:#000080" />
    <path
       d="M9107 63 c-14 -17 -14 -18 9 -19 25 -2 29 3 16 24 -7 10 -12 8 -25 -5z"
       id="path71"
       style="fill:#000080" />
    <path
       d="M8778 56 c-10 -7 -14 -16 -10 -20 4 -5 -8 -6 -26 -3 -25 4 -35 1 -42 -14 -9 -16 -7 -19 15 -19 14 0 25 4 25 9 0 5 14 8 30 7 17 -1 40 4 51 12 19 13 19 15 2 28 -22 17 -24 17 -45 0z"
       id="path72"
       style="fill:#000080" />
    <path
       d="M9000 15 c-11 -13 -8 -15 13 -15 19 0 25 4 21 15 -4 8 -10 15 -14 15 -4 0 -13 -7 -20 -15z"
       id="path73"
       style="fill:#000080" />
  </g>
</svg>
