<?xml version="1.0" encoding="UTF-8" standalone="no"?>
<svg
   version="1.0"
   width="1248.000000pt"
   height="832.000000pt"
   viewBox="0 0 1248.000000 832.000000"
   preserveAspectRatio="xMidYMid meet"
   id="svg89"
   sodipodi:docname="service-cyber.svg"
   inkscape:version="1.4.3 (0d15f75, 2025-12-25)"
   xmlns:inkscape="http://www.inkscape.org/namespaces/inkscape"
   xmlns:sodipodi="http://sodipodi.sourceforge.net/DTD/sodipodi-0.dtd"
   xmlns="http://www.w3.org/2000/svg"
   xmlns:svg="http://www.w3.org/2000/svg">
  <defs
     id="defs89" />
  <sodipodi:namedview
     id="namedview89"
     pagecolor="#ffffff"
     bordercolor="#000000"
     borderopacity="0.25"
     inkscape:showpageshadow="2"
     inkscape:pageopacity="0.0"
     inkscape:pagecheckerboard="0"
     inkscape:deskcolor="#d1d1d1"
     inkscape:document-units="pt"
     inkscape:zoom="0.72746394"
     inkscape:cx="832.34366"
     inkscape:cy="554.66667"
     inkscape:window-width="1920"
     inkscape:window-height="1009"
     inkscape:window-x="-8"
     inkscape:window-y="-8"
     inkscape:window-maximized="1"
     inkscape:current-layer="svg89" />
  <g
     transform="translate(0.000000,832.000000) scale(0.100000,-0.100000)"
     fill="#000000"
     stroke="none"
     id="g89"
     style="fill:#0034b4;fill-opacity:1">
    <path
       d="M0 6772 l0 -1547 28 -17 c15 -10 22 -18 15 -18 -6 0 -15 5 -18 10 -3 6 -10 10 -16 10 -5 0 -9 -967 -9 -2560 l0 -2559 31 -35 c17 -20 47 -40 67 -46 25 -7 2031 -10 6150 -10 5495 0 6116 2 6150 15 20 9 47 26 59 37 l23 21 0 4088 0 4087 -30 26 c-17 14 -47 30 -68 36 -25 7 -1994 10 -6209 10 l-6173 0 0 -1548z m3564 1458 l17 -35 -20 25 c-11 14 -21 31 -21 39 0 18 4 14 24 -29z m30 -56 c3 -8 2 -12 -4 -9 -6 3 -10 10 -10 16 0 14 7 11 14 -7z m50 -110 c19 -43 31 -81 27 -84 -5 -3 -11 -12 -14 -20 -2 -8 -3 -2 -1 13 2 15 0 26 -5 23 -4 -3 -6 5 -4 18 3 13 -2 30 -11 38 -8 9 -12 19 -8 23 4 5 -2 5 -12 1 -16 -5 -17 -4 -7 8 9 11 10 20 2 35 -11 20 -15 38 -6 29 3 -2 20 -40 39 -84z m-7 -50 c-3 -3 -12 -4 -19 -1 -8 3 -5 6 6 6 11 1 17 -2 13 -5z m53 -54 c0 -5 -5 -10 -11 -10 -5 0 -7 5 -4 10 3 6 8 10 11 10 2 0 4 -4 4 -10z m38 -130 c0 -8 -6 1 -13 20 -7 19 -13 42 -13 50 0 8 6 -1 13 -20 7 -19 13 -42 13 -50z m39 -152 c-3 -8 -6 -5 -6 6 -1 11 2 17 5 13 3 -3 4 -12 1 -19z m20 -90 c-3 -7 -5 -2 -5 12 0 14 2 19 5 13 2 -7 2 -19 0 -25z m13 -38 c0 -11 -4 -20 -9 -20 -5 0 -7 9 -4 20 3 11 7 20 9 20 2 0 4 -9 4 -20z m7 -72 c-3 -7 -5 -2 -5 12 0 14 2 19 5 13 2 -7 2 -19 0 -25z m10 -55 c-3 -10 -5 -4 -5 12 0 17 2 24 5 18 2 -7 2 -21 0 -30z m20 -285 c-2 -24 -4 -5 -4 42 0 47 2 66 4 43 2 -24 2 -62 0 -85z m1917 35 c4 -9 1 -23 -7 -30 -7 -8 -21 -11 -30 -7 -17 6 -23 35 -10 47 12 13 41 7 47 -10z m-1917 -115 c-3 -8 -6 -5 -6 6 -1 11 2 17 5 13 3 -3 4 -12 1 -19z m0 -40 c-3 -8 -6 -5 -6 6 -1 11 2 17 5 13 3 -3 4 -12 1 -19z m-17 -118 l-11 -25 6 25 c2 14 5 34 6 45 2 19 2 19 6 0 2 -12 -1 -32 -7 -45z m3700 10 c0 -13 -10 -13 -49 1 -32 11 -40 24 -18 32 15 5 67 -20 67 -33z m-81 -56 c-14 -18 -24 -11 -15 11 3 9 11 13 16 10 8 -5 7 -11 -1 -21z m101 16 c0 -5 -2 -10 -4 -10 -3 0 -8 5 -11 10 -3 6 -1 10 4 10 6 0 11 -4 11 -10z m-3725 -62 c-7 -70 -32 -192 -34 -168 -1 8 -4 26 -7 40 -4 17 -3 21 4 12 6 -10 13 16 22 82 15 107 26 131 15 34z m3681 22 c11 9 15 10 10 2 -4 -7 0 -26 8 -43 9 -17 13 -36 9 -42 -3 -6 -1 -7 5 -3 7 4 12 2 12 -5 0 -7 7 -21 17 -31 12 -13 13 -18 3 -18 -7 0 -10 -3 -7 -7 9 -8 -13 -34 -23 -28 -4 2 -5 -7 -2 -20 3 -19 0 -25 -13 -25 -11 0 -15 5 -11 16 3 8 2 12 -4 9 -6 -3 -10 4 -11 17 0 23 0 23 -10 -2 l-10 -25 -19 25 c-10 13 -21 41 -24 62 -4 21 -11 38 -17 38 -5 0 -7 5 -3 12 5 7 3 8 -6 3 -7 -4 -16 -2 -21 6 -14 22 -10 49 6 49 8 0 15 -4 15 -10 0 -5 5 -10 11 -10 5 0 7 5 4 11 -4 6 2 13 14 16 12 3 21 10 21 16 0 6 6 2 14 -8 12 -17 16 -18 32 -5z m-1099 -27 c2 -6 -7 -8 -23 -5 -19 3 -22 7 -12 13 15 10 30 7 35 -8z m966 -15 c2 -7 2 -21 -1 -31 -4 -15 -7 -16 -13 -5 -12 17 -11 48 0 48 5 0 11 -6 14 -12z m374 6 c-3 -3 -12 -4 -19 -1 -8 3 -5 6 6 6 11 1 17 -2 13 -5z m-157 -47 c0 -16 -18 3 -23 25 -6 22 -5 22 8 4 8 -11 15 -24 15 -29z m-675 2 c40 -35 71 -122 61 -170 -4 -21 -1 -31 9 -35 12 -5 15 -28 15 -114 0 -136 -5 -142 -92 -110 -35 13 -84 34 -110 47 l-48 23 0 120 c0 66 4 120 9 120 5 0 11 25 13 57 4 43 10 61 28 75 34 27 74 23 115 -13z m-548 5 c-3 -3 -12 -4 -19 -1 -8 3 -5 6 6 6 11 1 17 -2 13 -5z m1383 -35 c0 -5 -4 -9 -10 -9 -5 0 -10 7 -10 16 0 8 5 12 10 9 6 -3 10 -10 10 -16z m3525 2 c3 -5 1 -12 -5 -16 -5 -3 -10 1 -10 9 0 18 6 21 15 7z m-5858 -7 c-3 -3 -12 -4 -19 -1 -8 3 -5 6 6 6 11 1 17 -2 13 -5z m2203 -41 c0 -25 -1 -26 -16 -11 -9 9 -13 21 -10 27 13 20 26 11 26 -16z m-1373 -130 c-2 -21 -4 -6 -4 32 0 39 2 55 4 38 2 -18 2 -50 0 -70z m1567 70 c6 -16 0 -112 -10 -161 -4 -20 -7 -22 -19 -12 -16 14 -21 110 -6 110 5 0 7 18 4 40 -4 32 -2 40 10 40 8 0 18 -7 21 -17z m-4039 -75 c-29 -124 -56 -202 -66 -187 -5 8 -9 19 -9 24 0 6 4 4 8 -3 9 -14 30 46 58 170 10 43 20 76 22 73 2 -2 -3 -37 -13 -77z m1631 55 c-10 -10 -19 5 -10 18 6 11 8 11 12 0 2 -7 1 -15 -2 -18z m861 -125 c-2 -29 -3 -6 -3 52 0 58 1 81 3 53 2 -29 2 -77 0 -105z m1230 122 c24 0 39 -15 23 -25 -12 -7 -62 18 -81 41 -13 17 -13 17 11 1 13 -9 34 -17 47 -17z m670 -7 c-3 -10 -5 -4 -5 12 0 17 2 24 5 18 2 -7 2 -21 0 -30z m-17 17 c0 -5 -4 -10 -10 -10 -5 0 -10 5 -10 10 0 6 5 10 10 10 6 0 10 -4 10 -10z m-210 -25 c8 -9 10 -28 6 -49 -5 -25 -3 -35 9 -40 8 -3 15 -16 14 -28 l0 -23 -9 23 c-14 34 -19 26 -9 -15 8 -35 2 -143 -8 -143 -2 0 -26 9 -52 21 -42 17 -48 24 -46 47 3 48 5 52 19 52 8 0 17 -6 19 -12 3 -7 7 14 8 47 3 57 6 111 8 128 2 12 28 8 41 -8z m303 -5 c-3 -11 -7 -20 -9 -20 -2 0 -4 9 -4 20 0 11 4 20 9 20 5 0 7 -9 4 -20z m-2654 -31 c-15 -5 -31 -20 -37 -32 -8 -17 -11 -18 -11 -5 -1 19 36 48 59 47 8 0 3 -5 -11 -10z m2721 -9 c0 -5 -2 -10 -4 -10 -3 0 -8 5 -11 10 -3 6 -1 10 4 10 6 0 11 -4 11 -10z m-2645 -10 c-3 -5 -11 -10 -16 -10 -6 0 -7 5 -4 10 3 6 11 10 16 10 6 0 7 -4 4 -10z m2410 -14 c12 -19 14 -29 6 -44 -8 -15 -7 -23 4 -32 8 -7 15 -18 15 -24 0 -6 -4 -5 -9 3 -7 11 -14 5 -29 -25 l-20 -39 -3 53 c-2 28 -1 52 2 52 3 0 4 11 1 25 -4 24 2 55 12 55 3 0 13 -11 21 -24z m-238 -36 c1 -22 -2 -42 -7 -45 -6 -4 -10 15 -10 46 0 59 13 58 17 -1z m-2667 30 c0 -5 -5 -10 -11 -10 -5 0 -7 5 -4 10 3 6 8 10 11 10 2 0 4 -4 4 -10z m985 -52 c3 -35 5 -108 3 -163 -3 -86 -5 -100 -20 -103 -17 -3 -18 10 -18 162 0 137 3 166 14 166 10 0 16 -18 21 -62z m-2423 20 c-8 -8 -9 -4 -5 13 4 13 8 18 11 10 2 -7 -1 -18 -6 -23z m2354 11 c5 1 9 -70 9 -156 l0 -158 -24 -3 c-23 -4 -24 -2 -17 44 3 26 6 104 6 173 0 73 4 120 9 113 4 -8 12 -13 17 -13z m122 -141 c-3 -119 -5 -143 -18 -143 -12 0 -15 22 -18 129 -3 141 -1 156 23 156 13 0 15 -19 13 -142z m1129 101 c32 -12 62 -26 68 -31 5 -5 -22 3 -60 17 -66 25 -86 35 -72 35 3 0 32 -10 64 -21z m998 1 c3 -5 -1 -10 -9 -10 -9 0 -16 5 -16 10 0 6 4 10 9 10 6 0 13 -4 16 -10z m-2527 -188 c2 -169 1 -182 -16 -191 -11 -6 -22 -7 -26 -4 -3 3 -6 88 -6 189 0 182 3 198 35 190 6 -2 11 -74 13 -184z m-1548 163 c0 -8 -7 -15 -15 -15 -16 0 -20 12 -8 23 11 12 23 8 23 -8z m930 -28 c0 -6 9 -2 19 7 11 10 25 15 30 11 17 -10 13 -23 -7 -30 -22 -6 -42 -45 -42 -80 0 -13 -4 -27 -10 -30 -6 -4 -9 14 -8 47 1 29 -1 69 -6 88 -6 33 -6 34 9 16 8 -11 15 -24 15 -29z m1128 -54 c-3 -74 -6 -88 -20 -91 -16 -3 -18 5 -18 56 0 79 9 122 27 122 11 0 13 -17 11 -87z m-60 -105 c-24 -15 -28 -8 -28 46 0 39 4 55 15 60 9 3 16 20 17 43 1 21 4 -2 5 -51 3 -65 0 -92 -9 -98z m-393 7 c0 -119 -3 -147 -15 -155 -8 -5 -18 -10 -22 -10 -10 0 -11 294 -1 303 3 4 13 7 22 7 14 0 16 -19 16 -145z m115 22 c0 -124 -6 -147 -38 -147 -11 0 -13 8 -8 32 4 18 9 79 13 135 4 77 9 103 20 103 10 0 13 -26 13 -123z m2391 101 c6 -13 25 -37 41 -55 19 -20 35 -51 42 -85 16 -72 12 -90 -22 -82 -47 12 -136 61 -165 92 -35 36 -30 67 18 118 37 39 69 44 86 12z m-4291 3 c0 -5 -7 -12 -16 -15 -14 -5 -15 -4 -4 9 14 17 20 19 20 6z m1190 -11 c-18 -12 -30 -13 -30 -2 0 4 10 9 22 9 18 2 20 0 8 -7z m-100 -9 c0 -15 -29 -33 -41 -25 -9 5 -7 11 6 21 22 15 35 17 35 4z m-1200 -21 c0 -5 -4 -10 -10 -10 -5 0 -10 5 -10 10 0 6 5 10 10 10 6 0 10 -4 10 -10z m1121 -15 c35 -15 25 -20 -31 -15 -30 2 -34 5 -25 19 8 14 16 14 56 -4z m-184 -6 c-23 -13 -127 -49 -141 -48 -15 0 125 57 144 58 11 0 11 -2 -3 -10z m-1007 -9 c0 -5 -4 -10 -10 -10 -5 0 -10 5 -10 10 0 6 5 10 10 10 6 0 10 -4 10 -10z m1343 -10 c-3 -11 -9 -20 -14 -20 -5 0 -9 9 -9 20 0 11 6 20 14 20 9 0 12 -7 9 -20z m791 -62 c-7 -82 -9 -88 -30 -88 -11 0 -14 15 -14 64 0 78 6 96 32 96 18 0 19 -5 12 -72z m3003 -10 c-2 -18 -4 -6 -4 27 0 33 2 48 4 33 2 -15 2 -42 0 -60z m-4517 27 c-14 -8 -32 -14 -40 -14 -8 0 -1 6 15 14 40 18 57 18 25 0z m210 7 c0 -9 -139 -56 -146 -50 -3 3 114 50 144 57 1 1 2 -3 2 -7z m4095 -2 c3 -5 1 -10 -4 -10 -6 0 -11 5 -11 10 0 6 2 10 4 10 3 0 8 -4 11 -10z m-5173 -72 c-22 -48 -29 -56 -28 -36 0 15 7 30 14 33 7 3 10 9 7 15 -3 5 -2 10 3 10 6 0 13 12 16 26 4 15 10 24 13 21 3 -3 -8 -34 -25 -69z m1495 51 c4 -13 11 -18 21 -14 13 5 13 3 -1 -13 -21 -23 -64 -18 -69 7 -4 15 18 40 35 41 5 0 11 -9 14 -21z m-1500 -11 c-3 -8 -6 -5 -6 6 -1 11 2 17 5 13 3 -3 4 -12 1 -19z m1228 -3 c-27 -13 -59 -24 -70 -24 -11 0 7 11 40 23 78 31 94 31 30 1z m370 15 c-11 -5 -27 -9 -35 -9 -9 0 -8 4 5 9 11 5 27 9 35 9 9 0 8 -4 -5 -9z m3640 -6 c20 -8 35 -17 33 -20 -6 -5 -78 24 -78 31 0 7 4 6 45 -11z m85 6 c0 -5 -4 -10 -10 -10 -5 0 -10 5 -10 10 0 6 5 10 10 10 6 0 10 -4 10 -10z m-4525 -9 c-15 -13 -115 -44 -122 -37 -3 3 0 8 8 11 99 36 133 44 114 26z m1473 -50 c3 -51 -5 -70 -30 -71 -5 0 -8 30 -8 66 0 57 2 65 18 62 13 -2 18 -15 20 -57z m639 37 c-3 -8 -6 -5 -6 6 -1 11 2 17 5 13 3 -3 4 -12 1 -19z m1686 -3 c4 -8 2 -17 -3 -20 -6 -4 -10 3 -10 14 0 25 6 27 13 6z m607 5 c18 -12 2 -12 -25 0 -13 6 -15 9 -5 9 8 0 22 -4 30 -9z m-4350 -40 c-8 -5 -22 -9 -30 -9 -10 0 -8 3 5 9 27 12 43 12 25 0z m350 0 c-8 -5 -19 -10 -25 -10 -5 0 -3 5 5 10 8 5 20 10 25 10 6 0 3 -5 -5 -10z m2542 -23 c26 -54 154 -203 230 -267 73 -61 217 -142 276 -155 l32 -7 0 -156 c0 -300 -71 -630 -167 -776 -20 -32 -22 -38 -8 -32 14 5 16 4 7 -7 -7 -8 -9 -17 -5 -20 3 -4 1 -7 -4 -7 -6 0 -13 6 -16 13 -3 6 -5 1 -4 -13 0 -14 5 -31 10 -37 6 -8 6 -13 0 -13 -5 0 -15 6 -23 13 -8 6 -7 3 3 -9 9 -11 15 -23 12 -26 -3 -2 9 -2 26 0 21 3 30 1 25 -6 -3 -6 3 -17 15 -26 12 -8 18 -19 15 -24 -3 -5 2 -9 12 -8 9 0 16 -5 15 -11 -2 -7 1 -13 6 -13 5 0 12 -7 15 -16 4 -10 2 -13 -7 -8 -9 5 -9 4 1 -7 18 -20 15 -47 -8 -54 -11 -3 -20 -12 -20 -19 0 -23 -45 -36 -78 -24 -36 14 -90 1 -106 -24 -8 -13 -6 -21 7 -36 23 -25 36 -127 16 -120 -8 3 -15 10 -15 16 -1 7 -2 18 -3 26 0 8 -8 16 -16 20 -18 6 -16 -14 3 -29 10 -8 5 -15 -25 -29 -25 -12 -33 -21 -23 -24 7 -3 16 1 18 8 3 8 7 8 11 2 13 -22 69 -17 95 7 14 14 26 20 26 14 0 -6 -13 -22 -29 -36 -17 -14 -27 -28 -23 -32 4 -5 1 -5 -5 -1 -7 4 -21 2 -30 -4 -17 -11 -17 -11 0 -6 9 3 17 1 17 -4 0 -6 -6 -10 -14 -10 -7 0 -19 -6 -25 -14 -17 -21 -47 -12 -99 29 -25 19 -49 35 -54 35 -11 0 -10 -27 2 -50 13 -25 90 -70 118 -70 26 0 28 -17 6 -48 l-15 -22 -17 20 c-15 18 -20 19 -44 8 -25 -12 -33 -26 -29 -50 1 -11 0 -10 -49 7 -56 20 -87 19 -99 -3 -5 -10 -11 -86 -13 -170 -2 -118 0 -153 10 -157 18 -7 -18 -54 -38 -50 -8 2 -25 4 -37 4 -20 1 -23 6 -23 44 0 24 9 78 20 121 12 43 19 80 16 83 -2 2 -18 -3 -35 -12 l-32 -16 3 97 3 98 59 23 c63 24 72 30 64 39 -8 7 -151 -59 -184 -85 -21 -16 -30 -18 -50 -9 -28 13 -30 25 -9 75 14 33 14 39 -2 72 -15 30 -24 36 -55 39 -46 4 -78 -12 -78 -38 0 -25 -17 -25 -54 -1 l-29 19 29 16 c27 15 27 16 4 10 -34 -9 -110 -42 -110 -48 0 -2 14 1 30 7 26 10 35 9 58 -6 15 -9 39 -22 54 -29 21 -10 27 -20 32 -57 3 -25 6 -52 7 -59 1 -8 10 -11 20 -9 15 4 17 2 9 -13 -9 -17 -96 -80 -111 -80 -4 0 -11 -19 -16 -42 -5 -24 -22 -63 -37 -87 -27 -42 -29 -43 -69 -38 -34 5 -46 2 -64 -15 -17 -16 -20 -25 -13 -39 10 -17 8 -17 -42 1 -29 10 -79 30 -111 45 -32 15 -61 25 -63 22 -9 -8 161 -87 188 -87 13 0 -24 -21 -82 -46 -58 -25 -131 -57 -164 -71 -39 -17 -68 -23 -88 -19 -33 7 -164 62 -192 82 -18 13 -18 14 8 24 40 15 118 62 112 67 -2 3 -32 -10 -66 -29 -44 -23 -64 -29 -67 -20 -6 14 -63 17 -63 2 0 -5 -8 -10 -18 -10 -23 0 -62 41 -93 98 -16 30 -35 48 -64 61 -65 29 -71 42 -41 93 24 41 27 66 17 151 -1 4 -23 7 -50 7 -42 0 -53 -4 -70 -26 -25 -32 -27 -64 -5 -105 20 -40 5 -59 -49 -59 -44 0 -77 -22 -77 -52 0 -10 -2 -18 -5 -18 -10 0 -90 33 -102 42 -14 11 -6 38 12 38 7 0 23 9 36 21 l24 20 -29 -14 c-28 -14 -31 -13 -49 9 -21 28 -39 30 -57 9 -14 -17 -50 -20 -50 -5 0 6 -6 10 -14 10 -8 0 -24 13 -36 30 -20 29 -20 50 1 50 6 0 39 11 73 25 l62 25 50 -19 50 -19 89 43 c50 24 86 44 80 45 -5 0 -2 5 8 11 9 5 21 7 27 4 12 -7 80 21 80 34 0 5 -15 22 -32 37 -18 15 -32 31 -30 36 1 4 -5 8 -13 8 -12 0 -14 8 -9 43 12 72 19 82 76 104 29 12 61 24 71 28 17 7 19 2 17 -76 -3 -117 -1 -163 6 -157 3 4 6 61 7 128 l2 122 85 32 c144 56 130 59 131 -31 0 -43 4 -96 8 -118 7 -31 9 -13 10 77 0 64 4 123 7 132 5 12 -11 10 -78 -13 -99 -34 -284 -109 -386 -157 -41 -19 -80 -34 -87 -34 -16 0 -148 60 -155 71 -3 4 -35 22 -70 38 -36 17 -54 28 -40 25 14 -3 34 -8 45 -10 13 -3 9 1 -9 12 -35 20 -21 34 35 34 30 0 38 4 43 23 7 28 46 49 67 36 26 -16 27 -9 8 32 -11 22 -19 54 -17 70 l3 29 41 -40 c52 -49 84 -59 102 -29 12 19 11 25 -15 53 -15 17 -33 36 -38 41 -6 6 -20 26 -31 45 -21 37 -39 78 -29 69 3 -4 63 11 133 33 70 22 147 45 172 52 25 7 44 18 42 25 -1 7 2 10 8 6 14 -9 -6 -35 -26 -35 -8 0 -14 -4 -14 -9 0 -9 28 -6 60 6 32 12 51 13 44 2 -4 -8 1 -9 17 -3 13 4 31 8 39 9 24 3 67 24 51 24 -8 1 -12 3 -10 6 3 2 19 1 37 -4 26 -8 30 -7 25 7 -4 10 -2 13 6 8 6 -4 17 -4 24 2 25 19 134 52 185 56 28 2 52 2 52 1 0 -1 -7 -21 -15 -44 -18 -52 -57 -94 -107 -117 -29 -13 -38 -23 -38 -42 0 -24 -1 -24 -25 -8 -13 9 -27 16 -30 16 -6 0 0 -41 11 -81 3 -11 -6 -21 -26 -29 -17 -7 -29 -15 -26 -17 2 -3 17 2 32 10 26 14 29 13 46 -8 17 -22 133 -69 148 -60 24 15 -18 108 -58 129 l-27 14 27 11 c15 6 36 8 45 4 10 -3 15 -3 11 2 -9 9 9 35 23 35 5 0 9 -15 9 -32 0 -22 -3 -29 -9 -20 -6 10 -10 9 -14 -7 -3 -12 -1 -24 5 -27 5 -3 7 -17 4 -30 -5 -20 3 -31 17 -22 8 6 45 -25 50 -42 4 -16 0 -20 -18 -20 -18 0 -21 -4 -17 -25 2 -14 0 -25 -6 -25 -6 0 -51 16 -99 36 -117 47 -122 49 -102 32 8 -7 16 -32 18 -58 2 -42 59 -189 73 -190 3 0 25 15 47 34 63 53 87 54 228 11 29 -9 42 29 18 55 -16 18 -16 20 16 39 19 12 39 21 44 21 17 0 33 35 35 76 4 75 3 77 -27 69 -24 -5 -26 -5 -12 7 10 7 19 34 22 63 3 27 9 51 15 53 5 1 7 14 4 29 -3 15 -1 23 4 20 6 -3 8 9 6 29 -3 28 -7 32 -18 23 -11 -9 -16 -6 -23 13 -5 14 -17 33 -26 42 -20 20 -18 24 16 30 13 2 26 5 29 6 3 2 8 2 12 2 3 -1 9 5 12 14 4 10 1 13 -7 9 -6 -4 -3 1 7 9 11 9 16 16 10 16 -5 0 0 7 10 15 17 13 18 15 3 15 -9 0 -17 5 -17 10 0 6 4 10 9 10 22 0 19 41 -9 146 -17 63 -39 174 -50 247 -21 136 -44 547 -32 558 4 4 37 16 74 28 l67 21 78 -26 c104 -35 217 -32 278 7 45 29 162 78 186 79 8 0 22 -15 31 -33z m-2692 17 c0 -6 -65 -34 -77 -33 -4 0 10 9 32 19 48 22 45 21 45 14z m-265 -14 c-27 -12 -43 -12 -25 0 8 5 22 9 30 9 10 0 8 -3 -5 -9z m345 -5 c-46 -18 -64 -17 -25 0 17 8 37 14 45 14 8 0 -1 -7 -20 -14z m440 -10 c-17 -20 -40 -19 -39 3 0 10 3 12 6 5 3 -10 8 -9 20 3 19 19 30 10 13 -11z m3635 -15 c3 -5 -4 -6 -15 -3 -11 3 -22 9 -25 13 -3 5 4 6 15 3 11 -3 22 -9 25 -13z m-5175 1 c0 -9 -41 -23 -49 -16 -3 4 28 20 47 24 1 1 2 -3 2 -8z m467 3 c-3 -3 -12 -4 -19 -1 -8 3 -5 6 6 6 11 1 17 -2 13 -5z m213 2 c0 -2 -7 -7 -16 -10 -8 -3 -12 -2 -9 4 6 10 25 14 25 6z m220 -13 c-73 -32 -250 -91 -250 -83 0 4 28 17 63 28 34 11 94 32 132 46 77 27 110 33 55 9z m139 13 c-21 -19 -389 -137 -389 -125 0 5 12 11 28 14 32 7 169 53 267 89 62 22 106 33 94 22z m1031 -35 c0 -26 -5 -41 -16 -45 -24 -9 -24 -9 -24 39 0 38 3 45 20 45 17 0 20 -7 20 -39z m625 29 c-3 -5 -12 -10 -18 -10 -7 0 -6 4 3 10 19 12 23 12 15 0z m-2175 -43 c0 -5 -7 -7 -15 -3 -8 3 -15 1 -15 -5 0 -6 -4 -7 -10 -4 -5 3 -10 15 -10 25 0 17 3 18 25 8 14 -6 25 -15 25 -21z m-100 19 c0 -3 -4 -8 -10 -11 -5 -3 -10 -1 -10 4 0 6 5 11 10 11 6 0 10 -2 10 -4z m4825 -6 c3 -6 -1 -7 -9 -4 -18 7 -21 14 -7 14 6 0 13 -4 16 -10z m-5330 -29 c-16 -32 -35 -49 -35 -32 0 6 4 11 8 11 5 0 14 11 20 25 6 14 14 25 17 25 3 0 -1 -13 -10 -29z m2100 -2 c5 -13 2 -25 -6 -30 -19 -11 -29 -2 -29 27 0 30 26 32 35 3z m2984 -15 c14 -12 -19 -1 -35 12 -18 14 -18 14 6 3 14 -6 27 -13 29 -15z m-4059 12 c0 -6 -152 -58 -157 -53 -2 3 29 16 69 30 76 26 88 30 88 23z m-600 -21 c0 -8 -2 -15 -4 -15 -2 0 -6 7 -10 15 -3 8 -1 15 4 15 6 0 10 -7 10 -15z m142 -21 c15 -26 23 -32 29 -22 6 9 9 7 9 -9 0 -13 -4 -23 -10 -23 -5 0 -17 -17 -25 -37 -20 -48 -48 -78 -88 -94 -18 -7 -37 -20 -43 -28 -7 -9 -13 -11 -18 -3 -3 6 -2 13 4 17 6 4 1 18 -12 35 -27 38 -26 78 6 128 51 82 112 96 148 36z m628 -1 c-53 -23 -120 -42 -120 -33 0 4 30 16 68 28 80 24 100 26 52 5z m105 8 c-13 -12 -106 -43 -112 -37 -2 2 22 13 54 24 69 24 70 24 58 13z m1438 -8 c-7 -3 -33 -15 -58 -27 -25 -13 -45 -20 -45 -17 0 10 104 60 110 53 3 -2 -1 -7 -7 -9z m-786 -45 c-2 -13 -4 -5 -4 17 -1 22 1 32 4 23 2 -10 2 -28 0 -40z m-1130 16 c-3 -3 -12 -4 -19 -1 -8 3 -5 6 6 6 11 1 17 -2 13 -5z m1918 -2 c-13 -12 -95 -43 -95 -37 0 6 79 43 95 44 6 1 6 -2 0 -7z m-2345 -12 c0 -5 -5 -10 -11 -10 -5 0 -7 5 -4 10 3 6 8 10 11 10 2 0 4 -4 4 -10z m770 1 c-8 -5 -26 -11 -40 -15 -21 -5 -20 -3 5 9 32 15 60 20 35 6z m-1061 -108 c0 -13 -3 -11 -10 7 -6 14 -24 41 -42 60 -18 21 -14 18 11 -6 23 -24 42 -51 41 -61z m682 86 c-24 -11 -49 -18 -55 -16 -6 2 9 11 34 20 62 22 74 20 21 -4z m-848 -4 c-3 -9 -8 -14 -10 -11 -3 3 -2 9 2 15 9 16 15 13 8 -4z m4715 -3 c2 -7 -3 -12 -12 -12 -9 0 -16 7 -16 16 0 17 22 14 28 -4z m-3607 -13 c-30 -10 -56 -17 -58 -15 -5 5 77 34 97 34 8 1 -9 -8 -39 -19z m762 14 c-7 -2 -19 -2 -25 0 -7 3 -2 5 12 5 14 0 19 -2 13 -5z m-1937 -99 c-20 -30 -39 -54 -42 -54 -6 0 1 13 38 64 18 26 26 47 23 60 -6 19 -5 20 5 3 10 -15 6 -28 -24 -73z m2864 82 c0 -2 -7 -6 -15 -10 -8 -3 -15 -1 -15 4 0 6 7 10 15 10 8 0 15 -2 15 -4z m-2367 -31 c-7 -21 -13 -19 -13 6 0 11 4 18 10 14 5 -3 7 -12 3 -20z m527 10 c0 -2 -32 -14 -71 -25 -39 -12 -79 -24 -88 -27 -11 -4 -13 -3 -6 5 16 17 165 60 165 47z m54 -9 c-56 -25 -82 -28 -44 -7 19 11 44 20 55 20 15 0 12 -3 -11 -13z m361 -6 c-11 -5 -27 -9 -35 -9 -13 -1 -13 0 0 9 8 5 24 9 35 9 l20 0 -20 -9z m1161 -11 c3 -6 19 -9 34 -6 49 10 119 -42 120 -91 0 -20 -5 -17 -45 24 -43 45 -46 47 -90 41 -25 -4 -59 -14 -75 -22 -37 -19 -86 -85 -102 -137 -6 -21 -15 -38 -20 -38 -30 0 29 116 85 168 26 23 43 42 39 42 -9 1 29 30 39 30 4 0 11 -5 15 -11z m2919 -7 c-3 -3 -11 0 -18 7 -9 10 -8 11 6 5 10 -3 15 -9 12 -12z m-5340 -2 c-28 -12 -37 -12 -30 0 3 6 16 10 28 9 21 0 21 -1 2 -9z m1685 0 c0 -5 -5 -10 -11 -10 -5 0 -7 5 -4 10 3 6 8 10 11 10 2 0 4 -4 4 -10z m-900 -19 c-19 -10 -51 -21 -70 -25 -25 -4 -18 1 25 18 72 29 93 32 45 7z m-253 3 c-3 -3 -12 -4 -19 -1 -8 3 -5 6 6 6 11 1 17 -2 13 -5z m2087 -9 c3 -8 1 -15 -4 -15 -6 0 -10 7 -10 15 0 8 2 15 4 15 2 0 6 -7 10 -15z m-2169 -35 c-3 -5 -10 -10 -16 -10 -5 0 -9 5 -9 10 0 6 7 10 16 10 8 0 12 -4 9 -10z m84 7 c-2 -1 -13 -9 -24 -17 -19 -14 -19 -14 -6 3 7 9 18 17 24 17 6 0 8 -1 6 -3z m231 -1 c0 -2 -7 -7 -16 -10 -8 -3 -12 -2 -9 4 6 10 25 14 25 6z m3724 -3 c4 -5 12 -9 17 -9 5 -1 13 -2 18 -3 5 0 12 -9 15 -18 6 -15 4 -15 -14 2 -11 10 -20 13 -20 6 0 -8 -5 -8 -20 1 -20 13 -27 28 -12 28 5 0 12 -3 16 -7z m-2334 -16 c0 -8 -33 -25 -75 -40 -62 -22 -75 -24 -75 -11 0 11 6 14 23 8 12 -3 18 -3 14 2 -10 10 81 46 95 38 7 -4 8 -2 4 4 -4 7 -2 12 3 12 6 0 11 -6 11 -13z m720 3 c0 -5 -7 -10 -15 -10 -8 0 -15 5 -15 10 0 6 7 10 15 10 8 0 15 -4 15 -10z m-2175 -10 c-3 -5 -12 -10 -18 -10 -7 0 -6 4 3 10 19 12 23 12 15 0z m1792 -12 c7 -6 17 -27 23 -47 23 -83 -58 -221 -131 -221 -48 0 -72 22 -88 78 -7 23 -4 41 13 79 27 57 71 111 100 124 23 9 64 3 83 -13z m-2007 7 c0 -2 -10 -9 -22 -15 -22 -11 -22 -10 -4 4 21 17 26 19 26 11z m-106 -26 c29 -6 29 -7 5 -8 -14 -1 -34 6 -45 15 -10 8 -13 12 -5 8 8 -4 28 -11 45 -15z m1930 -33 c-3 -9 -10 -16 -15 -16 -5 0 -4 9 3 20 14 22 21 20 12 -4z m3053 -18 c-3 -7 -5 -2 -5 12 0 14 2 19 5 13 2 -7 2 -19 0 -25z m-5669 -3 c-3 -3 -9 2 -12 12 -6 14 -5 15 5 6 7 -7 10 -15 7 -18z m2896 -21 c-5 -50 -26 -108 -46 -127 -37 -35 -96 -75 -120 -81 -16 -3 -28 -11 -28 -17 0 -6 -4 -8 -8 -5 -5 3 -9 -1 -9 -9 0 -8 9 -15 19 -15 10 0 18 -7 18 -15 0 -9 -9 -15 -25 -15 -14 0 -25 -5 -25 -11 0 -5 5 -7 10 -4 6 3 10 1 10 -4 0 -6 -16 -11 -36 -11 -21 0 -33 4 -29 10 4 6 11 8 16 5 5 -4 9 -1 9 4 0 6 -9 11 -20 11 -12 0 -31 7 -44 15 -29 19 -66 101 -66 145 0 18 -4 29 -10 25 -18 -11 -11 3 14 28 19 19 26 21 40 12 17 -13 23 -30 6 -20 -5 3 -10 2 -10 -4 0 -5 6 -12 13 -15 6 -3 2 -3 -10 0 -20 5 -23 1 -23 -23 0 -31 32 -107 49 -117 6 -4 11 -2 11 3 0 6 -5 11 -12 11 -6 0 -9 3 -5 6 3 4 23 -3 43 -15 39 -23 50 -22 40 5 -4 9 -9 14 -13 11 -11 -12 -63 24 -79 56 l-17 32 28 -28 c37 -36 66 -42 129 -28 83 19 156 94 156 162 0 20 17 69 24 69 3 0 3 -21 0 -46z m-674 17 c0 -11 -4 -23 -10 -26 -6 -4 -10 5 -10 19 0 14 5 26 10 26 6 0 10 -9 10 -19z m-1220 -5 c0 -2 -7 -7 -16 -10 -8 -3 -12 -2 -9 4 6 10 25 14 25 6z m-1000 -22 c0 -2 -7 -4 -15 -4 -8 0 -15 4 -15 10 0 5 7 7 15 4 8 -4 15 -8 15 -10z m2980 -4 c0 -5 -4 -10 -10 -10 -5 0 -10 5 -10 10 0 6 5 10 10 10 6 0 10 -4 10 -10z m-3030 -10 c5 8 10 10 10 5 0 -6 -5 -16 -12 -23 -19 -19 3 -14 26 6 20 17 20 17 0 -10 -19 -28 -34 -36 -34 -18 0 5 -6 7 -14 4 -20 -8 -30 14 -15 32 10 12 14 12 21 2 6 -10 10 -10 18 2z m5375 0 c3 -5 2 -10 -4 -10 -5 0 -13 5 -16 10 -3 6 -2 10 4 10 5 0 13 -4 16 -10z m-2905 -9 c0 -9 -83 -41 -104 -41 -6 1 14 12 44 25 65 29 60 27 60 16z m-1233 -7 c-3 -3 -12 -4 -19 -1 -8 3 -5 6 6 6 11 1 17 -2 13 -5z m748 -24 c-3 -5 -1 -10 4 -10 6 0 11 5 11 10 0 6 7 10 15 10 8 0 15 -7 15 -15 0 -8 -7 -15 -15 -15 -7 0 -18 -6 -22 -14 -4 -8 -12 -15 -18 -16 -5 -1 -9 -8 -7 -16 2 -8 -1 -22 -6 -31 -8 -14 -12 -12 -25 13 -14 25 -23 21 -18 -8 0 -4 -14 -14 -32 -21 -48 -21 -80 -70 -51 -81 11 -4 13 0 8 19 -4 15 -2 25 5 25 6 0 8 -7 5 -15 -4 -8 -1 -15 6 -15 10 0 10 -3 0 -15 -7 -8 -21 -15 -32 -15 -18 0 -18 -1 -3 -17 14 -14 18 -14 26 -2 7 9 7 4 3 -16 -4 -16 -16 -39 -28 -51 -32 -31 -92 -65 -101 -56 -4 4 -3 -2 2 -13 6 -14 4 -35 -9 -70 -14 -37 -18 -42 -14 -17 4 23 1 34 -9 38 -15 6 -21 25 -7 23 19 -3 33 2 27 11 -3 5 -13 6 -23 3 -15 -6 -15 -4 -4 9 11 14 10 16 -7 11 -14 -3 -23 0 -27 11 -5 13 -10 14 -20 5 -7 -6 -18 -8 -24 -4 -13 8 -50 -3 -50 -16 0 -6 8 -5 21 1 40 22 31 1 -10 -22 -43 -24 -57 -54 -21 -45 11 3 20 1 20 -3 0 -17 -25 -66 -48 -94 -22 -27 -22 -31 -8 -42 15 -10 15 -15 1 -48 -8 -20 -12 -36 -9 -36 4 0 1 -7 -6 -15 -7 -9 -9 -19 -5 -23 4 -4 10 -1 12 6 3 6 9 10 13 7 5 -3 12 0 16 6 5 8 3 9 -6 4 -9 -5 -11 -4 -6 4 5 7 16 9 28 5 12 -3 18 -2 15 3 -4 6 4 8 18 5 15 -2 25 0 25 7 0 7 4 9 10 6 5 -3 21 19 34 49 29 65 42 74 21 15 -19 -52 -19 -51 3 -45 9 3 30 7 45 10 67 12 97 27 103 54 4 15 11 33 17 40 5 7 7 15 4 19 -4 3 1 12 11 20 16 12 16 13 -1 7 -21 -7 -72 36 -80 67 -7 26 20 25 28 -1 3 -11 11 -20 16 -20 6 0 7 -5 4 -10 -12 -19 27 -24 41 -5 14 18 14 18 14 0 0 -16 3 -15 28 8 27 26 49 37 38 18 -3 -5 6 -21 20 -36 14 -15 23 -30 20 -32 -3 -3 1 -12 9 -20 12 -12 18 -12 39 2 23 16 24 15 45 -28 12 -24 21 -59 22 -78 0 -27 2 -30 8 -14 6 15 9 9 12 -27 3 -37 1 -44 -9 -36 -9 8 -11 7 -7 -4 5 -12 -5 -17 -40 -21 -25 -4 -63 -16 -85 -27 -21 -11 -50 -20 -63 -20 -13 0 -35 -8 -48 -18 -21 -17 -147 -72 -164 -72 -3 0 -3 5 1 11 4 8 0 8 -15 0 -12 -7 -26 -9 -31 -6 -5 3 -12 0 -15 -5 -7 -11 -49 -32 -70 -35 -24 -3 -110 -47 -122 -63 -8 -9 -11 -11 -7 -3 5 9 1 12 -12 7 -23 -6 -111 -26 -139 -31 -45 -8 -134 -37 -158 -52 -7 -4 -20 -9 -31 -10 -24 -4 -375 -122 -398 -134 -11 -6 -21 -4 -31 5 -27 28 4 149 34 130 4 -2 10 3 13 12 3 8 10 13 15 9 6 -3 26 1 45 9 19 8 36 12 39 10 3 -3 8 7 11 23 6 21 9 24 17 12 8 -12 10 -12 19 1 5 8 10 11 10 7 0 -5 14 1 30 13 21 15 30 17 30 8 0 -8 3 -9 8 -3 4 6 16 12 27 13 10 2 27 13 37 24 17 20 18 20 19 2 1 -17 2 -17 6 -1 2 9 11 17 19 17 16 0 20 65 4 75 -16 10 -11 35 8 36 16 1 16 2 -1 6 -14 4 -16 8 -6 19 6 7 9 20 6 28 -6 15 10 33 28 31 6 0 20 -6 33 -13 12 -7 22 -11 22 -8 0 3 14 0 30 -5 32 -12 37 -27 19 -61 -10 -18 -9 -20 5 -15 9 4 16 2 16 -4 0 -27 20 6 21 34 0 18 3 26 6 20 11 -29 22 -16 86 110 11 21 16 41 12 45 -4 4 -10 2 -12 -5 -2 -7 -11 -9 -19 -6 -20 8 -17 24 4 16 12 -4 14 -3 7 5 -5 5 -19 12 -29 14 -11 1 -21 9 -24 17 -3 10 0 12 14 7 14 -5 16 -4 8 4 -8 8 -9 24 -3 48 4 20 6 39 3 41 -2 3 10 19 27 37 17 18 26 34 21 38 -13 8 21 79 54 115 13 14 24 29 24 34 0 4 5 5 10 2 6 -3 10 -2 10 4 0 6 6 8 14 5 7 -3 16 2 20 11 3 9 10 13 16 10 6 -3 7 1 4 9 -3 9 -1 16 5 16 6 0 11 -4 11 -8 0 -5 7 -17 16 -28 8 -10 13 -14 10 -8 -3 6 -1 24 4 40 l8 29 3 -30 c1 -16 2 -35 2 -42 0 -6 6 -9 13 -6 10 4 11 10 4 23 -7 14 -6 23 6 35 9 9 19 13 22 10 3 -3 -3 -12 -14 -20 -20 -15 -16 -19 10 -9 9 3 16 12 16 20 0 8 7 14 16 14 8 0 12 -4 9 -10 -3 -5 -1 -10 4 -10 6 0 11 8 11 18 0 14 2 15 10 2 7 -11 10 -11 10 -2 0 7 5 10 12 6 6 -4 9 -3 6 2 -3 5 -1 20 4 34 6 17 11 21 17 12 4 -7 15 -10 24 -6 23 8 22 25 0 18 -15 -5 -15 -4 -3 4 8 6 18 8 22 6 14 -9 49 7 42 18 -5 7 -1 9 9 5 12 -4 17 -1 17 11 0 15 2 15 10 2 8 -12 10 -12 11 5 0 11 3 14 6 8 2 -7 12 -13 21 -14 10 0 5 -6 -13 -15 l-30 -14 35 3 c29 3 35 7 32 25 -2 12 2 22 7 22 6 0 11 -6 12 -12 0 -10 2 -10 6 0 7 18 43 15 43 -5 0 -16 14 -10 16 8 2 16 4 19 10 19 3 0 2 -4 -1 -10z m2962 -158 l3 -153 -23 3 c-17 2 -22 9 -21 31 0 15 1 84 2 153 2 114 4 125 20 122 15 -3 17 -20 19 -156z m-3837 138 c-8 -5 -22 -9 -30 -9 -10 0 -8 3 5 9 27 12 43 12 25 0z m-1120 -4 c0 -2 -8 -10 -17 -17 -16 -13 -17 -12 -4 4 13 16 21 21 21 13z m1565 -16 c-3 -5 -11 -10 -16 -10 -6 0 -7 5 -4 10 3 6 11 10 16 10 6 0 7 -4 4 -10z m832 4 c-3 -3 -12 -4 -19 -1 -8 3 -5 6 6 6 11 1 17 -2 13 -5z m-1781 -31 c-10 -10 -19 5 -10 18 6 11 8 11 12 0 2 -7 1 -15 -2 -18z m424 17 c-8 -5 -22 -9 -30 -9 -10 0 -8 3 5 9 27 12 43 12 25 0z m432 -4 c10 6 9 3 -1 -9 -11 -14 -11 -20 -1 -32 7 -9 10 -19 6 -22 -9 -9 -26 17 -26 40 0 9 -7 17 -16 17 -8 0 -12 5 -9 10 5 8 11 7 20 0 8 -7 20 -8 27 -4z m993 -1 c-36 -15 -103 -30 -93 -20 6 7 95 33 113 33 6 0 -3 -5 -20 -13z m2623 -159 c3 -128 1 -156 -10 -156 -32 0 -38 24 -38 147 0 96 3 123 13 123 10 0 12 10 9 32 -4 27 -3 31 9 21 11 -8 15 -49 17 -167z m-2028 155 c0 -10 -24 -21 -43 -21 -7 0 -3 7 7 15 22 17 36 19 36 6z m-579 -15 c-6 -7 -24 -16 -39 -19 -15 -3 -36 -9 -47 -13 -11 -4 -17 -4 -14 0 5 6 87 40 108 45 2 1 -2 -5 -8 -13z m-861 -36 c0 -13 -1 -13 -10 0 -5 8 -10 22 -10 30 0 13 1 13 10 0 5 -8 10 -22 10 -30z m3598 -142 c2 -163 2 -168 -18 -168 -16 0 -20 7 -21 33 -10 312 -10 309 14 305 22 -3 22 -6 25 -170z m204 162 c11 0 8 -403 -3 -414 -3 -4 -14 -4 -23 0 -14 5 -16 31 -16 216 0 188 2 209 16 204 9 -3 20 -6 26 -6z m-3737 -10 c-3 -5 -11 -10 -16 -10 -6 0 -7 5 -4 10 3 6 11 10 16 10 6 0 7 -4 4 -10z m1370 0 c-3 -5 -13 -10 -21 -10 -8 0 -12 5 -9 10 3 6 13 10 21 10 8 0 12 -4 9 -10z m-3156 -32 c-67 -63 -114 -103 -99 -84 14 18 13 19 -5 12 -42 -16 -49 -17 -22 -1 15 9 32 13 37 10 5 -3 11 -1 15 5 3 5 -2 10 -11 10 -13 0 -11 5 9 23 15 12 27 28 27 35 0 9 5 10 19 3 14 -8 22 -7 31 4 7 8 17 15 22 15 6 0 -5 -14 -23 -32z m1536 22 c-3 -5 -11 -10 -16 -10 -6 0 -7 5 -4 10 3 6 11 10 16 10 6 0 7 -4 4 -10z m-165 -10 c0 -5 -4 -10 -10 -10 -5 0 -10 -5 -10 -12 0 -6 3 -8 6 -5 4 4 19 -1 35 -10 27 -16 28 -17 11 -45 -16 -28 -42 -38 -42 -16 0 6 -2 9 -5 6 -9 -8 6 -38 16 -32 14 8 10 -9 -8 -31 -14 -18 -15 -18 -9 -2 4 13 2 17 -6 14 -7 -2 -12 -10 -10 -16 1 -6 -2 -11 -8 -11 -5 0 -10 -5 -10 -11 0 -5 6 -7 13 -3 6 4 4 -1 -5 -12 -14 -14 -21 -15 -30 -6 -8 8 -8 15 2 27 11 13 10 14 -5 9 -15 -6 -17 -3 -13 14 4 12 2 20 -3 16 -5 -3 -9 0 -9 5 0 6 7 11 15 11 8 0 15 5 15 10 0 7 6 7 20 0 11 -6 20 -8 20 -5 0 3 -17 13 -37 21 -35 15 -37 15 -56 -8 -10 -12 -16 -18 -14 -13 3 6 2 17 -4 25 -7 12 -9 12 -9 1 0 -9 -9 -12 -30 -9 -16 2 -32 0 -34 -6 -3 -7 -5 -6 -5 2 -1 7 11 24 25 39 21 20 32 24 60 20 19 -3 36 -1 40 5 4 7 2 8 -4 4 -7 -4 -12 -2 -12 3 0 6 5 11 11 11 5 0 7 5 4 10 -11 17 27 11 40 -7 11 -15 13 -15 24 5 12 23 31 30 31 12z m3614 -54 c11 14 13 7 15 -50 2 -65 2 -66 -23 -66 l-26 0 1 93 c1 84 2 88 11 49 8 -39 11 -42 22 -26z m-1824 45 c0 -11 -31 -24 -39 -16 -3 3 1 10 9 15 19 12 30 12 30 1z m-220 -21 c0 -5 -4 -10 -10 -10 -5 0 -10 5 -10 10 0 6 5 10 10 10 6 0 10 -4 10 -10z m218 -12 c-5 -15 -138 -69 -138 -56 0 8 114 66 133 68 5 0 7 -5 5 -12z m-1588 -2 c0 -3 -4 -8 -10 -11 -5 -3 -10 -1 -10 4 0 6 5 11 10 11 6 0 10 -2 10 -4z m433 -11 c-3 -9 -8 -14 -10 -11 -3 3 -2 9 2 15 9 16 15 13 8 -4z m542 -16 c-40 -18 -85 -26 -71 -11 11 11 69 30 91 30 13 0 6 -6 -20 -19z m-1085 1 c0 -5 -4 -10 -10 -10 -5 0 -10 5 -10 10 0 6 5 10 10 10 6 0 10 -4 10 -10z m907 -112 c-2 -24 -4 -5 -4 42 0 47 2 66 4 43 2 -24 2 -62 0 -85z m3006 99 c8 -22 8 -247 0 -247 -17 0 -33 17 -34 35 -1 11 -1 66 -1 123 2 80 5 102 16 102 8 0 16 -6 19 -13z m-4695 -17 c-7 -10 -14 -18 -15 -16 -6 6 9 36 18 36 5 0 4 -9 -3 -20z m1912 16 c0 -8 -100 -38 -113 -33 -6 2 11 11 38 19 53 17 75 21 75 14z m2530 -71 c0 -45 -4 -65 -12 -65 -30 1 -39 17 -37 73 2 53 4 57 26 57 22 0 23 -3 23 -65z m-3923 39 c-3 -3 -12 -4 -19 -1 -8 3 -5 6 6 6 11 1 17 -2 13 -5z m-1348 -6 c-2 -2 -17 -14 -34 -28 l-30 -25 24 28 c14 15 29 27 34 27 6 0 8 -1 6 -2z m1562 -25 c-12 -20 -14 -14 -5 12 4 9 9 14 11 11 3 -2 0 -13 -6 -23z m4177 5 c13 -13 18 -288 5 -288 -5 0 -16 7 -25 14 -15 11 -18 30 -18 127 0 148 8 177 38 147z m-5733 -7 c-36 -33 -134 -110 -155 -121 -31 -16 -26 -11 31 32 57 44 88 70 103 85 6 7 15 12 21 13 5 0 5 -3 0 -9z m635 -1 c-8 -5 -22 -10 -30 -10 -13 0 -13 1 0 10 8 5 22 10 30 10 13 0 13 -1 0 -10z m700 6 c0 -3 -4 -8 -10 -11 -5 -3 -10 -1 -10 4 0 6 5 11 10 11 6 0 10 -2 10 -4z m-110 -16 c0 -5 -2 -10 -4 -10 -3 0 -8 5 -11 10 -3 6 -1 10 4 10 6 0 11 -4 11 -10z m115 -10 c31 0 34 -2 33 -30 -1 -16 -4 -30 -9 -30 -4 0 -4 -10 -1 -22 5 -23 5 -23 -13 -4 -18 17 -18 20 -3 47 17 29 6 36 -20 12 -16 -15 -42 -17 -42 -4 0 5 8 12 18 14 9 2 4 3 -12 1 -29 -4 -29 -4 -10 14 10 11 21 15 22 11 2 -5 19 -9 37 -9z m1455 7 c0 -2 -32 -17 -70 -32 -85 -34 -85 -45 0 -15 72 25 88 21 33 -10 -21 -12 -29 -18 -18 -14 78 26 71 7 -10 -27 -30 -12 -55 -28 -55 -35 0 -15 -35 -28 -50 -19 -16 10 -11 35 8 36 16 1 16 2 0 6 -10 2 -18 7 -18 10 0 3 8 12 18 20 16 14 16 14 0 9 -12 -3 -18 0 -18 9 0 8 6 15 14 15 8 0 13 8 11 18 -1 9 0 11 2 5 6 -17 29 -15 83 7 43 17 70 24 70 17z m3090 -166 c0 -76 -3 -140 -6 -144 -3 -3 -12 -3 -20 0 -11 4 -14 35 -14 148 0 138 1 143 20 138 19 -5 20 -14 20 -142z m-4605 110 c3 -9 1 -17 -5 -19 -6 -2 -16 -9 -23 -16 -6 -7 -25 -12 -42 -11 -16 1 -38 -2 -47 -7 -21 -10 -12 -39 9 -31 10 4 14 2 10 -4 -4 -6 -26 -13 -49 -17 -27 -4 -38 -10 -30 -15 8 -5 1 -8 -19 -8 l-31 0 23 18 c22 17 41 23 61 20 4 0 5 6 2 14 -5 11 -11 12 -25 4 -15 -8 -19 -6 -19 6 0 9 5 13 10 10 6 -3 10 1 10 9 0 9 5 16 11 16 5 0 7 -5 3 -12 -5 -8 0 -9 17 -4 13 5 38 9 56 10 33 1 32 11 -2 19 -19 4 -19 5 1 6 12 0 27 7 33 14 15 18 39 17 46 -2z m-1415 -5 c0 -2 -12 -11 -27 -20 l-28 -17 24 20 c23 21 31 25 31 17z m2190 0 c0 -2 -6 -9 -13 -15 -10 -8 -14 -7 -14 4 0 8 6 15 14 15 7 0 13 -2 13 -4z m169 -5 c10 -7 11 -13 2 -27 -6 -11 -11 -16 -12 -11 -1 4 -2 10 -3 15 -1 4 -5 13 -9 20 -9 14 2 16 22 3z m-739 -25 c0 -3 -4 -8 -10 -11 -5 -3 -10 -1 -10 4 0 6 5 11 10 11 6 0 10 -2 10 -4z m400 -17 c0 -6 -4 -7 -10 -4 -5 3 -10 11 -10 16 0 6 5 7 10 4 6 -3 10 -11 10 -16z m627 -76 c-2 -21 -4 -6 -4 32 0 39 2 55 4 38 2 -18 2 -50 0 -70z m2893 78 c0 -5 -9 -7 -20 -4 -11 3 -20 7 -20 9 0 2 9 4 20 4 11 0 20 -4 20 -9z m408 -94 c1 -48 -1 -87 -5 -87 -24 1 -31 21 -33 90 -3 95 -3 92 18 88 14 -3 17 -17 20 -91z m-4779 53 c7 0 10 4 6 9 -3 5 0 13 6 17 8 4 9 3 5 -4 -4 -7 -2 -12 3 -12 6 0 11 5 11 11 0 5 5 7 10 4 18 -11 10 -22 -22 -30 -18 -4 -35 -8 -38 -7 -3 0 -11 -7 -19 -16 -13 -13 -12 -14 15 -8 27 7 28 6 9 -7 -34 -23 -55 -28 -48 -10 3 8 0 19 -8 24 -11 7 -11 9 -1 9 7 0 10 5 7 10 -3 6 1 10 9 10 9 0 15 3 15 8 -4 21 3 25 15 10 7 -10 19 -18 25 -18z m179 23 c-3 -10 21 -53 37 -70 15 -14 57 -5 49 11 -3 6 2 2 10 -8 14 -18 21 -15 17 7 0 4 4 7 9 7 18 0 10 -22 -15 -42 -14 -11 -23 -23 -20 -28 3 -5 0 -12 -7 -17 -7 -4 -13 -17 -13 -27 0 -11 -6 -20 -13 -22 -7 -1 -8 0 -2 3 15 7 12 20 -5 27 -8 3 -14 2 -14 -2 3 -20 -2 -43 -9 -38 -4 2 -16 -3 -27 -11 -16 -13 -17 -15 -2 -10 11 4 17 1 17 -9 0 -9 -5 -13 -12 -9 -7 4 -4 -1 6 -9 11 -9 29 -16 40 -16 12 0 28 -5 36 -10 12 -8 9 -10 -13 -10 -35 0 -99 29 -91 41 3 5 0 9 -5 9 -6 0 -11 -4 -11 -10 0 -19 -15 -10 -32 20 -11 19 -13 30 -6 30 9 0 9 3 0 12 -13 13 -16 29 -4 27 21 -4 32 2 26 14 -5 7 0 6 11 -3 10 -8 16 -10 12 -3 -4 6 -3 14 2 18 9 5 9 35 -1 75 -1 8 2 14 8 13 19 -4 4 35 -15 40 -9 3 -4 5 12 6 15 0 26 -2 25 -6z m42 -3 c8 -5 12 -12 9 -15 -8 -8 -39 5 -39 16 0 11 11 11 30 -1z m4328 -2 c7 -7 12 -25 12 -40 0 -26 -2 -28 -20 -18 -13 7 -20 21 -20 40 0 32 9 37 28 18z m-4208 -13 c0 -1 -8 -9 -17 -16 -11 -10 -14 -10 -9 -1 4 6 2 12 -3 12 -6 0 -11 4 -11 9 0 5 9 7 20 4 11 -3 20 -7 20 -8z m1754 -11 c5 -14 4 -15 -9 -4 -17 14 -19 20 -6 20 5 0 12 -7 15 -16z m-1814 -4 c8 -5 11 -10 5 -10 -5 0 -17 5 -25 10 -8 5 -10 10 -5 10 6 0 17 -5 25 -10z m1773 -10 c-4 -4 -33 -17 -63 -28 -30 -11 -63 -23 -72 -27 -12 -5 -18 -2 -18 7 0 8 12 15 27 16 15 1 48 12 73 25 41 21 73 25 53 7z m-3328 1 c-6 -11 -153 -101 -195 -120 -21 -10 -22 -9 -7 1 10 7 26 19 35 26 15 12 15 13 -3 7 -20 -6 -20 -6 0 13 11 11 22 18 24 16 2 -2 11 2 20 9 14 11 14 10 2 -5 -15 -20 -9 -23 20 -7 11 5 17 15 13 20 -3 6 0 9 7 8 20 -3 50 12 43 22 -3 5 1 6 9 3 8 -3 18 -1 22 5 3 6 8 11 11 11 3 0 3 -4 -1 -9z m-2644 -15 c8 4 9 3 5 -4 -4 -7 13 -24 44 -43 27 -17 50 -33 50 -36 0 -3 -10 1 -22 9 -13 8 -44 27 -70 44 -27 16 -48 33 -48 38 0 5 7 3 15 -4 8 -6 20 -8 26 -4z m3543 -8 c9 -12 16 -35 16 -50 0 -16 5 -28 10 -28 15 0 13 -145 -2 -158 -24 -20 -148 -64 -163 -58 -11 4 -15 22 -15 75 0 38 5 73 10 76 6 3 10 26 10 50 0 86 94 151 134 93z m506 7 c0 -8 -9 -15 -20 -15 -11 0 -20 7 -20 15 0 8 9 15 20 15 11 0 20 -7 20 -15z m290 11 c0 -2 -13 -6 -29 -8 -17 -2 -28 -1 -25 4 5 8 54 12 54 4z m2018 -17 c28 -10 31 -14 25 -42 -8 -45 -21 -67 -39 -67 -16 0 -41 53 -26 58 4 1 6 16 4 32 -5 34 -6 34 36 19z m-893 -19 c-3 -5 -10 -10 -16 -10 -5 0 -9 5 -9 10 0 6 7 10 16 10 8 0 12 -4 9 -10z m-1445 -4 c0 -3 -4 -8 -10 -11 -5 -3 -10 -1 -10 4 0 6 5 11 10 11 6 0 10 -2 10 -4z m35 -6 c3 -5 1 -10 -4 -10 -6 0 -11 5 -11 10 0 6 2 10 4 10 3 0 8 -4 11 -10z m1962 -12 c-3 -8 -6 -5 -6 6 -1 11 2 17 5 13 3 -3 4 -12 1 -19z m-47 -2 c0 -8 -7 -17 -16 -20 -25 -10 -30 2 -8 19 24 18 24 18 24 1z m-547 -17 c5 -3 2 -9 -7 -12 -12 -5 -16 0 -16 15 0 12 3 17 8 12 4 -5 11 -12 15 -15z m350 -9 c-23 -10 -59 -23 -79 -29 -32 -9 -36 -8 -23 4 8 7 39 20 69 28 74 20 83 19 33 -3z m660 -17 c4 -18 -4 -53 -19 -93 -40 -103 -45 -112 -40 -60 3 25 8 54 12 63 3 9 2 17 -4 17 -5 0 -18 -35 -28 -77 -16 -65 -20 -72 -22 -45 -4 43 27 142 44 142 17 0 34 32 34 65 0 33 16 25 23 -12z m-513 17 c0 -5 -6 -10 -12 -11 -7 0 -23 -2 -35 -5 -13 -2 -23 -2 -23 1 0 7 40 23 58 24 6 1 12 -3 12 -9z m-285 -36 c-8 -16 -15 -23 -15 -16 0 17 20 55 26 49 2 -2 -2 -17 -11 -33z m-5481 17 c-2 -2 2 -11 9 -19 10 -12 6 -12 -20 2 -39 20 -41 24 -9 22 13 0 22 -3 20 -5z m5672 -17 c-4 -9 -9 -14 -13 -11 -3 4 -15 0 -27 -8 -11 -8 -29 -15 -39 -15 -9 0 -20 -7 -23 -15 -7 -18 -44 -20 -44 -3 0 6 -3 8 -6 5 -4 -4 -1 -13 6 -22 10 -13 9 -15 -9 -15 -18 0 -21 6 -21 37 0 28 3 34 12 25 8 -8 15 -9 25 0 7 6 32 15 56 20 63 13 66 14 73 21 11 11 17 0 10 -19z m2239 -2 c10 -6 11 -14 7 -49 -4 -26 -22 -12 -22 17 0 23 -3 28 -17 23 -11 -4 -14 -3 -9 5 8 14 26 15 41 4z m-7825 -37 c25 -13 41 -24 35 -24 -5 0 -30 11 -55 24 -25 13 -40 24 -35 24 6 0 30 -11 55 -24z m2090 -20 c-25 -13 -49 -24 -55 -24 -5 0 10 11 35 24 25 13 50 24 55 24 6 0 -10 -11 -35 -24z m3074 9 c9 -23 7 -77 -3 -92 -5 -8 -17 -12 -27 -10 -25 4 -44 96 -23 109 22 14 46 11 53 -7z m431 -2 c-17 -15 -113 -52 -132 -51 -10 0 16 13 57 29 84 32 88 33 75 22z m-173 -78 c-5 -9 -12 -10 -22 -4 -12 8 -11 10 5 10 19 0 19 0 -2 15 -11 8 -23 24 -26 35 -4 16 1 14 24 -11 18 -20 26 -36 21 -45z m-5332 52 c-4 -4 -16 -4 -26 2 -16 9 -14 10 8 9 15 -1 23 -6 18 -11z m1900 4 c-8 -5 -19 -10 -25 -10 -5 0 -3 5 5 10 8 5 20 10 25 10 6 0 3 -5 -5 -10z m6627 -27 c-3 -10 -5 -4 -5 12 0 17 2 24 5 18 2 -7 2 -21 0 -30z m-8483 6 c-2 -4 2 -10 8 -12 7 -3 8 -6 2 -6 -5 -1 -18 5 -28 12 -16 12 -16 13 3 13 11 0 18 -3 15 -7z m1884 6 c-8 -8 -261 -102 -293 -109 -27 -6 -28 -5 -10 6 11 7 27 13 35 13 28 3 140 48 135 55 -2 3 10 7 26 7 17 0 35 6 40 14 5 8 9 10 9 6 0 -4 8 -3 18 2 17 11 49 15 40 6z m3046 -31 c-8 -30 11 -54 41 -54 27 0 46 -54 51 -150 l4 -65 -14 60 c-26 112 -37 146 -46 140 -6 -3 -6 -15 0 -30 10 -27 26 -183 17 -175 -5 5 -69 237 -70 255 -1 33 4 55 13 50 6 -3 7 -17 4 -31z m2720 5 c-3 -6 -1 -15 6 -19 10 -6 7 -14 -12 -32 -23 -21 -29 -56 -7 -42 28 17 63 -72 40 -100 -10 -12 -9 -13 7 -9 10 2 35 -2 55 -10 31 -14 36 -21 42 -61 5 -32 3 -51 -6 -62 -10 -13 -10 -17 2 -25 8 -5 10 -9 4 -9 -24 0 56 -41 119 -61 39 -11 96 -34 128 -50 32 -16 61 -30 65 -30 5 -1 19 -6 33 -12 14 -5 30 -11 36 -12 19 -4 138 -58 149 -67 5 -5 2 -8 -7 -8 -9 0 -19 4 -22 9 -3 4 -40 21 -83 36 -43 15 -82 31 -88 35 -5 4 -37 17 -70 30 -33 13 -64 27 -70 31 -5 3 -46 16 -89 28 -44 12 -112 37 -151 56 -40 19 -78 35 -85 35 -20 0 32 -36 63 -44 15 -3 27 -11 27 -17 0 -6 5 -7 10 -4 6 3 10 1 10 -4 0 -6 -5 -11 -11 -11 -5 0 -7 -4 -4 -10 3 -5 3 -10 -2 -10 -12 1 -80 39 -70 40 5 0 17 -5 28 -11 11 -6 25 -8 32 -6 7 3 -4 12 -23 20 -25 11 -39 12 -48 5 -9 -8 -16 -8 -25 1 -9 10 -8 11 6 6 28 -11 19 9 -10 22 -38 17 -58 50 -42 69 6 7 9 21 5 29 -3 8 0 15 7 16 7 1 1 5 -13 9 -24 8 -24 8 -2 9 l22 1 -20 40 c-20 40 -26 80 -12 80 4 0 13 -21 20 -46 16 -60 24 -54 10 7 -13 56 -5 108 23 143 20 26 36 36 23 15z m107 -10 c19 -16 20 -18 4 -10 -34 17 -51 31 -39 31 7 0 22 -9 35 -21z m-7633 -21 c29 -11 51 -22 49 -25 -5 -4 -138 44 -146 54 -8 8 34 -5 97 -29z m3613 15 c13 -16 12 -17 -3 -4 -10 7 -18 15 -18 17 0 8 8 3 21 -13z m3954 -1 c-3 -3 -11 0 -18 7 -9 10 -8 11 6 5 10 -3 15 -9 12 -12z m-4199 -19 c-10 -10 -19 5 -10 18 6 11 8 11 12 0 2 -7 1 -15 -2 -18z m1394 13 c0 -13 -170 -80 -179 -70 -10 10 22 28 86 50 66 23 93 28 93 20z m3273 -111 c17 -9 56 -26 85 -37 29 -11 52 -22 50 -24 -4 -4 -47 8 -82 22 -14 5 -17 4 -12 -4 6 -11 -30 1 -146 47 -16 6 -28 13 -28 16 0 3 30 -7 68 -21 37 -14 76 -28 87 -31 45 -11 -14 18 -127 63 -65 25 -118 49 -118 54 0 8 161 -54 223 -85z m-384 51 c7 -8 11 -32 9 -53 -3 -33 -7 -38 -29 -41 -22 -3 -29 2 -38 29 -29 84 8 126 58 65z m-7530 13 c48 -17 32 -20 -19 -4 -25 7 -38 14 -29 14 9 1 30 -4 48 -10z m1311 -19 c0 -5 -10 -10 -22 -9 -22 0 -22 1 -3 9 11 5 21 9 23 9 1 1 2 -3 2 -9z m6415 -8 c-3 -3 -11 0 -18 7 -9 10 -8 11 6 5 10 -3 15 -9 12 -12z m485 3 c14 -8 21 -14 15 -14 -5 0 -21 6 -35 14 -14 8 -20 14 -15 14 6 0 21 -6 35 -14z m-8143 -1 c-3 -3 -12 -4 -19 -1 -8 3 -5 6 6 6 11 1 17 -2 13 -5z m3020 -16 c-3 -8 -6 -5 -6 6 -1 11 2 17 5 13 3 -3 4 -12 1 -19z m393 15 c-60 -23 -123 -42 -115 -34 13 11 95 40 115 40 13 -1 13 -1 0 -6z m-3373 -9 c-3 -3 -12 -4 -19 -1 -8 3 -5 6 6 6 11 1 17 -2 13 -5z m162 -28 c40 -7 102 -12 137 -11 37 2 62 -1 58 -6 -3 -5 2 -9 10 -9 9 0 16 4 16 9 0 5 6 11 14 14 8 3 13 -1 12 -11 -1 -14 12 -18 64 -23 47 -5 38 -6 -35 -3 -115 3 -304 28 -379 50 -45 13 -47 14 -11 9 22 -3 73 -12 114 -19z m958 18 c-3 -3 -12 -4 -19 -1 -8 3 -5 6 6 6 11 1 17 -2 13 -5z m3183 -15 c-8 -5 -35 -16 -60 -24 -25 -8 -78 -26 -119 -40 -121 -41 -91 -23 52 32 120 46 165 57 127 32z m3393 -22 c37 -16 67 -33 67 -37 0 -10 -169 62 -170 72 0 9 19 3 103 -35z m-6616 27 c-3 -3 -12 -4 -19 -1 -8 3 -5 6 6 6 11 1 17 -2 13 -5z m6441 -6 c14 -14 16 -88 2 -88 -5 0 -7 -12 -4 -27 6 -33 -27 -76 -51 -67 -18 7 -28 42 -23 75 2 20 8 24 32 22 26 -2 27 -1 12 16 -16 18 -22 62 -9 74 10 11 28 8 41 -5z m-6505 -5 c-7 -2 -19 -2 -25 0 -7 3 -2 5 12 5 14 0 19 -2 13 -5z m-50 -10 c-7 -2 -21 -2 -30 0 -10 3 -4 5 12 5 17 0 24 -2 18 -5z m-103 -14 c-25 -4 -63 -7 -85 -7 -38 1 -38 1 10 8 28 4 66 7 85 7 31 0 30 0 -10 -8z m-222 -16 c-10 -2 -28 -2 -40 0 -13 2 -5 4 17 4 22 1 32 -1 23 -4z m65 0 c-7 -2 -21 -2 -30 0 -10 3 -4 5 12 5 17 0 24 -2 18 -5z m7025 -39 c90 -37 138 -66 67 -40 -53 19 -172 74 -162 75 5 1 47 -15 95 -35z m-4598 -4 c0 -11 -4 -20 -9 -20 -5 0 -7 9 -4 20 3 11 7 20 9 20 2 0 4 -9 4 -20z m3962 -23 c9 -4 8 -10 -6 -21 -17 -14 -18 -16 -3 -16 9 0 17 -3 17 -6 0 -15 -35 -64 -44 -61 -19 6 -22 71 -7 135 1 2 8 -3 16 -11 8 -9 20 -18 27 -20z m-3063 18 c-9 -9 -202 -76 -206 -71 -4 4 34 19 137 55 56 20 77 25 69 16z m3911 -5 c8 -5 11 -10 5 -10 -5 0 -17 5 -25 10 -8 5 -10 10 -5 10 6 0 17 -5 25 -10z m-3675 -10 c3 -6 -1 -7 -9 -4 -18 7 -21 14 -7 14 6 0 13 -4 16 -10z m1585 -56 c0 -36 -21 -58 -101 -102 -78 -44 -87 -40 -13 6 91 56 94 59 94 111 0 33 3 42 10 31 5 -8 10 -29 10 -46z m-1519 39 c0 6 7 -6 15 -28 9 -22 13 -55 10 -73 -3 -23 -1 -35 10 -39 10 -3 14 -21 14 -58 0 -80 12 -101 70 -126 27 -12 50 -23 50 -24 0 -5 -60 -64 -65 -64 -3 -1 -17 -4 -31 -7 -20 -5 -25 -11 -21 -30 2 -12 0 -29 -4 -36 -5 -7 -6 19 -4 61 6 84 -2 101 -50 101 -72 0 -103 -58 -71 -134 13 -32 13 -34 -10 -45 -14 -6 -38 -11 -54 -11 -33 0 -60 -23 -60 -51 0 -10 -2 -19 -5 -19 -14 0 -105 51 -105 59 0 5 12 16 26 26 14 9 23 19 21 22 -3 2 -17 -3 -31 -13 -24 -15 -28 -15 -44 -1 -13 12 -26 14 -54 8 -25 -6 -42 -5 -52 3 -16 12 -48 104 -41 117 3 4 -14 16 -38 28 -23 11 -53 29 -67 40 -22 18 -23 21 -6 21 11 0 27 -7 37 -16 17 -15 20 -13 50 20 19 23 38 35 47 31 10 -3 12 0 8 10 -3 8 0 15 7 15 7 0 3 8 -8 16 l-20 16 20 -2 c33 -4 46 0 40 9 -3 5 5 13 17 17 13 4 46 17 75 30 28 13 60 24 70 24 11 0 23 4 29 10 5 5 18 11 29 13 24 5 54 15 76 27 10 5 21 4 28 -3 8 -8 11 -8 11 1 0 7 7 9 17 5 13 -5 15 -2 10 11 -6 14 -3 16 16 11 20 -6 21 -5 5 8 -26 20 -22 28 7 17 18 -7 25 -6 26 3z m2876 -25 c-3 -8 -6 -5 -6 6 -1 11 2 17 5 13 3 -3 4 -12 1 -19z m498 -14 c44 -16 73 -30 65 -32 -8 -1 -53 14 -100 33 -96 41 -83 40 35 -1z m-742 19 c-7 -2 -19 -2 -25 0 -7 3 -2 5 12 5 14 0 19 -2 13 -5z m947 -20 l25 -14 -25 7 c-14 4 -36 13 -50 21 l-25 14 25 -7 c14 -4 36 -13 50 -21z m-750 -2 c0 -6 -4 -13 -10 -16 -5 -3 -10 1 -10 9 0 9 5 16 10 16 6 0 10 -4 10 -9z m475 -1 c3 -6 -1 -7 -9 -4 -9 3 -16 3 -16 0 0 -9 92 -48 98 -41 3 2 -10 11 -29 19 -19 9 -29 15 -22 16 24 0 82 -33 86 -51 5 -17 2 -17 -47 2 -61 24 -96 46 -96 59 0 13 27 13 35 0z m-3835 -10 c-20 -13 -33 -13 -25 0 3 6 14 10 23 10 15 0 15 -2 2 -10z m3425 -38 c-3 -3 -11 0 -18 7 -9 10 -8 11 6 5 10 -3 15 -9 12 -12z m427 -6 c30 -14 75 -30 99 -37 24 -6 39 -14 32 -16 -11 -4 -154 48 -183 67 -26 17 -5 11 52 -14z m-3972 -1 c-14 -8 -29 -14 -35 -14 -5 0 1 6 15 14 14 8 30 14 35 14 6 0 -1 -6 -15 -14z m3490 -15 c0 -3 -16 -46 -36 -96 -25 -60 -38 -111 -42 -156 -3 -44 -9 -68 -17 -68 -9 0 -10 11 -4 43 5 23 15 83 23 132 9 50 18 100 22 113 3 12 2 22 -2 22 -5 0 -24 -39 -42 -88 -33 -90 -37 -62 -4 39 15 47 21 55 47 59 41 8 55 8 55 0z m449 1 c16 -11 6 -32 -13 -25 -7 3 -13 11 -13 19 0 17 6 18 26 6z m201 -16 c31 -18 16 -18 -30 0 -23 9 -28 14 -15 14 11 0 31 -6 45 -14z m-3372 -43 c3 -10 -1 -9 -14 2 -11 9 -28 23 -39 32 -14 11 -10 11 14 -3 19 -10 36 -24 39 -31z m-878 28 c-8 -5 -19 -10 -25 -10 -5 0 -3 5 5 10 8 5 20 10 25 10 6 0 3 -5 -5 -10z m4176 -15 c38 -14 71 -25 73 -25 2 0 2 -2 -1 -5 -5 -5 -136 40 -147 50 -8 9 6 5 75 -20z m-3950 -10 c3 -14 3 -33 -1 -42 -7 -17 -8 -16 -15 2 -12 28 -12 65 0 65 5 0 12 -11 16 -25z m4044 5 c18 -12 2 -12 -25 0 -13 6 -15 9 -5 9 8 0 22 -4 30 -9z m-4853 -133 c-2 -23 -3 -1 -3 48 0 50 1 68 3 42 2 -26 2 -67 0 -90z m413 93 c-8 -5 -22 -9 -30 -9 -10 0 -8 3 5 9 27 12 43 12 25 0z m4547 4 c-3 -3 -12 -4 -19 -1 -8 3 -5 6 6 6 11 1 17 -2 13 -5z m-4737 -74 c-8 -5 -19 -10 -25 -10 -5 0 -3 5 5 10 8 5 20 10 25 10 6 0 3 -5 -5 -10z m4205 -42 c5 4 5 1 1 -6 -4 -7 0 -15 11 -18 50 -18 162 -74 168 -85 6 -8 4 -11 -6 -7 -139 57 -171 69 -176 64 -4 -3 2 -6 13 -6 14 0 15 -3 6 -9 -18 -11 32 -62 78 -81 19 -7 63 -26 98 -42 34 -15 65 -28 68 -28 4 0 41 -16 83 -36 42 -20 99 -45 126 -56 28 -11 64 -26 80 -33 36 -16 171 -74 240 -103 28 -12 44 -21 38 -22 -7 0 -22 -9 -33 -20 -11 -11 -26 -20 -33 -20 -8 0 -72 -25 -143 -56 -314 -136 -424 -182 -424 -174 0 9 110 59 330 149 96 40 197 83 224 96 l49 24 -29 12 c-16 7 -67 29 -114 49 -47 21 -157 67 -245 103 -224 92 -478 197 -492 204 -7 3 -13 0 -13 -5 0 -10 27 -23 60 -28 8 -2 16 -8 18 -13 2 -6 9 -11 15 -11 15 0 239 -111 234 -116 -7 -7 -87 27 -87 37 0 5 -8 9 -17 9 -10 0 -33 9 -51 20 -18 11 -37 20 -43 20 -19 0 -129 52 -129 61 0 5 -6 9 -13 9 -13 0 -9 30 19 138 3 9 13 8 43 -7 21 -11 42 -17 46 -13z m-405 0 c0 -27 -27 -58 -50 -58 -20 0 -50 31 -35 37 6 2 24 12 40 22 39 25 45 25 45 -1z m-2301 -17 c19 -12 4 -31 -25 -31 -17 0 -24 5 -24 20 0 21 24 27 49 11z m-1259 -21 c0 -5 -2 -10 -4 -10 -3 0 -8 5 -11 10 -3 6 -1 10 4 10 6 0 11 -4 11 -10z m110 -22 c0 -23 -3 -29 -9 -19 -7 11 -11 10 -20 -5 -6 -11 -11 -13 -11 -6 0 6 -7 12 -15 12 -27 0 -16 18 15 25 17 4 30 11 30 16 0 5 2 9 5 9 3 0 5 -15 5 -32z m1280 2 c0 -20 -5 -30 -15 -30 -10 0 -15 10 -15 30 0 20 5 30 15 30 10 0 15 -10 15 -30z m-307 -3 c-4 -6 0 -8 10 -4 10 3 17 2 17 -2 0 -16 -26 -19 -45 -5 -10 8 -13 14 -6 14 7 0 9 4 6 10 -3 6 1 7 9 4 9 -3 13 -11 9 -17z m-1045 -49 c5 -24 13 -51 17 -60 4 -11 3 -18 -4 -18 -6 0 -11 -4 -11 -10 0 -5 5 -9 12 -7 12 2 34 -70 25 -80 -4 -3 -18 -5 -32 -5 -15 0 -79 -25 -143 -54 -64 -30 -124 -54 -133 -54 -8 0 -24 -7 -35 -15 -21 -16 -44 -20 -44 -7 0 5 26 16 58 26 100 32 182 70 188 89 4 14 12 17 29 13 14 -4 27 0 34 8 10 12 8 14 -11 9 -18 -4 -20 -2 -8 6 27 18 3 22 -36 6 -22 -9 -109 -41 -194 -70 -85 -29 -177 -63 -203 -75 -27 -12 -51 -20 -53 -17 -6 6 131 62 240 99 50 16 111 38 136 48 25 10 54 21 64 24 10 4 16 9 13 12 -6 6 -93 -21 -192 -61 -103 -41 -359 -134 -388 -141 -26 -6 -27 -7 -10 -19 53 -36 424 -215 446 -215 25 0 36 -18 21 -33 -3 -3 -114 49 -247 115 -133 66 -251 124 -264 129 -33 12 -28 25 10 32 44 7 233 76 590 214 37 14 66 27 65 29 -2 1 -25 -4 -53 -11 -37 -9 -52 -9 -57 -1 -6 8 -8 7 -8 -1 0 -16 -88 -56 -106 -49 -10 4 -12 2 -8 -6 5 -7 -1 -9 -20 -4 -16 4 -26 2 -26 -5 0 -6 -7 -8 -16 -5 -8 3 -31 -1 -50 -9 -19 -8 -41 -12 -49 -9 -8 4 -46 -3 -84 -15 -38 -12 -75 -21 -82 -21 -27 0 8 18 76 40 39 12 77 24 85 26 13 5 13 6 0 15 -11 8 -9 9 11 5 14 -3 47 3 75 14 27 10 45 19 39 20 -5 0 -3 5 5 10 8 5 24 7 35 4 16 -5 18 -4 7 7 -10 11 -5 15 30 24 28 7 48 8 56 1 9 -7 12 -5 10 5 -2 8 4 13 15 13 9 -1 17 2 17 8 0 5 4 7 9 4 5 -4 11 -1 13 4 3 10 44 22 80 24 9 0 14 4 12 8 -3 4 2 8 11 8 9 0 13 5 10 10 -3 6 -2 10 4 10 5 0 14 -19 19 -42z m3467 32 c3 -5 2 -10 -4 -10 -5 0 -13 5 -16 10 -3 6 -2 10 4 10 5 0 13 -4 16 -10z m179 -79 c17 -19 17 -20 -4 -31 -12 -6 -35 -13 -52 -15 -27 -4 -28 -3 -16 12 11 14 11 17 -1 21 -9 3 -4 9 15 18 39 17 38 17 58 -5z m211 -12 c-4 -5 -13 -9 -21 -9 -12 0 -12 2 -2 14 14 15 32 11 23 -5z m449 10 c-3 -5 -10 -6 -16 -3 -7 5 -8 2 -3 -5 4 -8 17 -10 34 -7 15 4 21 3 14 -2 -15 -10 129 -74 166 -74 17 0 19 -3 10 -9 -12 -7 -12 -9 0 -9 8 0 68 -24 135 -54 67 -30 139 -61 161 -70 21 -9 42 -20 45 -24 3 -4 41 -23 85 -41 44 -18 84 -36 88 -40 17 -17 -7 -37 -71 -60 -85 -29 -387 -148 -414 -162 -17 -9 -18 -13 -7 -20 10 -7 6 -8 -11 -4 -22 5 -116 -19 -192 -50 -10 -4 -18 -3 -18 3 0 6 26 20 58 32 208 77 609 239 594 240 -7 0 -10 5 -7 10 4 6 11 8 16 5 5 -4 9 -3 9 0 0 3 -17 13 -37 21 -68 28 -108 46 -125 55 -40 21 -57 29 -143 67 -49 22 -115 52 -145 65 -113 52 -242 98 -256 93 -8 -3 -13 -2 -9 3 8 14 -16 19 -47 10 -20 -5 -28 -3 -33 9 -3 8 0 19 7 23 18 11 119 9 112 -2z m-4109 -9 c3 -6 -1 -7 -9 -4 -18 7 -21 14 -7 14 6 0 13 -4 16 -10z m4400 0 c3 -5 1 -10 -4 -10 -6 0 -11 5 -11 10 0 6 2 10 4 10 3 0 8 -4 11 -10z m52 -27 c-3 -10 -5 -4 -5 12 0 17 2 24 5 18 2 -7 2 -21 0 -30z m-727 -38 c58 -26 110 -52 115 -57 14 -13 -15 -2 -111 42 -45 21 -91 41 -103 45 -11 3 -21 14 -21 23 0 10 3 13 8 6 4 -6 54 -32 112 -59z m-3040 37 c0 8 4 8 13 -1 10 -11 9 -14 -2 -18 -10 -4 -10 -7 -1 -13 7 -4 8 -10 3 -13 -4 -3 -22 8 -38 25 l-30 29 28 -10 c20 -8 27 -7 27 1z m-344 -53 c4 -8 -1 -9 -17 -5 -13 3 -18 3 -11 0 20 -9 14 -24 -11 -24 -32 0 -40 10 -19 26 21 16 49 18 58 3z m-1128 -14 c2 -1 -4 -5 -12 -8 -8 -3 -22 1 -33 9 -17 13 -16 14 12 8 17 -4 31 -8 33 -9z m4462 -25 c0 -5 -4 -10 -10 -10 -5 0 -10 5 -10 10 0 6 5 10 10 10 6 0 10 -4 10 -10z m330 0 c0 -5 -7 -7 -15 -4 -8 4 -15 8 -15 10 0 2 7 4 15 4 8 0 15 -4 15 -10z m-3694 -11 c3 -6 1 -16 -6 -22 -10 -9 -11 -9 -6 1 10 18 -5 15 -81 -13 -89 -34 -101 -27 -22 13 67 33 103 40 115 21z m3640 -8 c-17 -19 -17 -20 22 -40 22 -11 81 -36 132 -55 51 -19 98 -40 104 -47 8 -9 7 -10 -4 -6 -192 78 -243 101 -285 122 -27 14 -40 23 -28 20 14 -4 32 0 45 9 30 21 35 20 14 -3z m-4107 -23 c0 -22 -3 -27 -7 -16 -7 15 -11 15 -62 -3 -78 -28 -85 -23 -13 10 35 15 66 31 70 34 11 12 13 8 12 -25z m4211 22 c8 -5 11 -10 5 -10 -5 0 -17 5 -25 10 -8 5 -10 10 -5 10 6 0 17 -5 25 -10z m-4270 -4 c0 -2 -7 -7 -16 -10 -8 -3 -12 -2 -9 4 6 10 25 14 25 6z m-843 -12 c-3 -3 -12 -4 -19 -1 -8 3 -5 6 6 6 11 1 17 -2 13 -5z m3690 -21 c-3 -3 -11 -2 -17 2 -9 6 -9 10 1 16 14 8 27 -7 16 -18z m1225 10 c1 -4 8 -13 17 -20 13 -10 9 -10 -19 -2 -19 6 -40 11 -47 12 -7 0 -10 4 -7 9 3 4 17 5 31 2 20 -6 24 -4 18 7 -5 8 -5 11 -1 7 4 -3 8 -10 8 -15z m-4865 -21 c16 -9 22 -9 25 0 3 7 7 4 12 -7 4 -11 4 -16 0 -12 -4 4 -12 0 -18 -7 -6 -8 -22 -17 -36 -20 -24 -7 -24 -6 3 9 15 9 27 18 27 21 0 3 -3 3 -7 1 -5 -3 -27 -10 -50 -16 -23 -6 -48 -17 -55 -24 -7 -7 -26 -21 -42 -31 -25 -16 -28 -16 -23 -2 8 19 -13 17 -31 -4 -10 -11 -12 -11 -6 -1 4 9 3 12 -4 7 -29 -18 28 -62 65 -50 15 5 16 4 3 -5 -8 -6 -10 -11 -4 -11 6 0 17 7 24 15 9 11 17 12 31 4 18 -9 27 -30 12 -28 -53 9 -16 -17 145 -97 106 -53 191 -98 189 -100 -6 -6 -286 114 -297 127 -3 3 -57 30 -121 59 -109 50 -147 79 -134 100 3 4 41 20 85 35 85 28 100 38 48 29 l-33 -5 35 14 c43 16 127 16 157 -1z m119 4 c24 -25 16 -33 -63 -62 -43 -15 -82 -31 -87 -35 -19 -17 52 -63 239 -154 108 -52 224 -107 258 -121 34 -15 102 -46 150 -70 48 -25 93 -42 99 -38 6 4 8 3 5 -3 -4 -6 0 -14 9 -17 8 -3 13 -2 11 2 -3 4 8 7 25 8 24 1 29 -2 25 -17 -3 -11 0 -20 6 -21 7 0 17 -2 22 -3 6 -2 23 -3 39 -4 21 -1 27 -5 22 -16 -4 -11 24 -30 112 -75 64 -32 108 -59 97 -60 -11 0 -30 -3 -42 -6 -16 -4 -23 -2 -23 8 0 17 -247 141 -266 134 -7 -3 -16 0 -20 6 -5 7 -2 8 7 4 8 -4 5 0 -5 8 -11 9 -25 16 -30 16 -6 0 -5 -4 2 -9 11 -7 11 -9 -2 -14 -11 -5 -16 -1 -16 14 0 19 -37 42 -52 32 -5 -2 -8 1 -8 7 0 6 -4 8 -10 5 -5 -3 -10 -2 -10 4 0 6 -7 7 -17 4 -10 -4 -14 -2 -10 4 4 6 -11 19 -35 31 -37 17 -46 18 -75 6 -49 -21 -61 -17 -29 11 l28 24 -262 131 c-144 71 -267 130 -274 130 -19 0 -49 37 -37 44 6 4 34 14 63 23 29 8 66 22 82 30 26 13 27 17 13 25 -10 5 -15 13 -12 19 9 14 55 11 71 -5z m1295 -3 c13 -16 12 -17 -3 -4 -17 13 -22 21 -14 21 2 0 10 -8 17 -17z m3389 -9 c0 -2 -7 -4 -15 -4 -8 0 -15 4 -15 10 0 5 7 7 15 4 8 -4 15 -8 15 -10z m385 -2 c-3 -3 -11 0 -18 7 -9 10 -8 11 6 5 10 -3 15 -9 12 -12z m-4485 -7 c0 -2 -15 -8 -32 -13 -18 -6 -42 -13 -53 -18 -12 -4 -17 -3 -12 2 16 17 97 42 97 29z m4140 -5 c0 -5 -5 -10 -11 -10 -5 0 -7 5 -4 10 3 6 8 10 11 10 2 0 4 -4 4 -10z m40 -21 c0 -4 -7 -6 -15 -3 -8 4 -15 10 -15 15 0 4 7 6 15 3 8 -4 15 -10 15 -15z m137 -14 c42 -19 74 -38 71 -40 -3 -3 -27 5 -54 18 -27 13 -65 31 -84 39 -19 9 -29 17 -22 17 7 1 47 -15 89 -34z m3 -52 c7 -6 -22 -23 -40 -23 -12 0 -12 2 -2 9 10 6 -1 17 -37 41 -28 17 -51 34 -51 36 0 4 121 -54 130 -63z m-1040 42 c17 -9 30 -17 30 -19 0 -4 -83 24 -89 30 -11 11 33 2 59 -11z m-3560 -9 c0 -8 6 -17 13 -20 6 -3 3 -5 -8 -3 -20 2 -35 37 -16 37 6 0 11 -6 11 -14z m143 0 c4 -10 1 -13 -8 -9 -8 3 -12 9 -9 14 7 12 11 11 17 -5z m-307 -31 c25 -19 14 -19 -22 0 -16 8 -22 15 -13 15 8 0 24 -7 35 -15z m427 -25 c9 0 17 -4 17 -10 0 -5 -2 -10 -5 -10 -10 0 -115 49 -115 54 0 3 19 -4 43 -14 23 -11 50 -20 60 -20z m599 0 c-3 -27 -9 -40 -19 -40 -8 0 -12 4 -9 8 3 5 -4 15 -14 22 -19 14 -18 15 8 32 37 24 38 24 34 -22z m488 -8 c-6 -2 -18 4 -25 14 -24 31 -17 39 11 13 14 -13 20 -25 14 -27z m-1235 28 c3 -5 1 -10 -4 -10 -6 0 -11 5 -11 10 0 6 2 10 4 10 3 0 8 -4 11 -10z m4890 0 c3 -5 1 -10 -4 -10 -6 0 -11 5 -11 10 0 6 2 10 4 10 3 0 8 -4 11 -10z m-325 -10 c0 -9 -102 -60 -119 -60 -5 0 107 67 117 69 1 1 2 -4 2 -9z m86 -5 c-23 -17 -36 -19 -36 -6 0 5 8 12 18 14 32 9 37 6 18 -8z m434 -6 c0 -11 -3 -11 -24 -3 -23 9 -20 23 4 17 11 -3 20 -9 20 -14z m-1731 -32 c1 -5 -3 -5 -9 -2 -5 3 -10 16 -9 28 0 21 1 21 9 2 5 -11 9 -24 9 -28z m-3564 23 c3 -6 -1 -7 -9 -4 -18 7 -21 14 -7 14 6 0 13 -4 16 -10z m195 -5 c0 -8 -9 -15 -20 -15 -25 0 -26 17 -2 23 9 3 18 5 20 6 1 0 2 -6 2 -14z m85 5 c3 -6 -1 -7 -9 -4 -18 7 -21 14 -7 14 6 0 13 -4 16 -10z m75 -30 c8 -5 11 -10 5 -10 -5 0 -17 5 -25 10 -8 5 -10 10 -5 10 6 0 17 -5 25 -10z m100 0 c-8 -5 -19 -10 -25 -10 -5 0 -3 5 5 10 8 5 20 10 25 10 6 0 3 -5 -5 -10z m620 0 c0 -5 -8 -10 -17 -10 -15 0 -16 2 -3 10 19 12 20 12 20 0z m2509 -24 c18 -21 3 -103 -20 -109 -17 -5 -19 1 -19 59 0 65 13 82 39 50z m1011 10 c0 -2 -11 -6 -25 -8 -13 -3 -22 -1 -19 3 5 9 44 13 44 5z m-3015 -15 c-11 -11 -161 -72 -173 -70 -11 1 152 78 168 78 9 1 10 -2 5 -8z m3135 -1 c-8 -5 -19 -10 -25 -10 -5 0 -3 5 5 10 8 5 20 10 25 10 6 0 3 -5 -5 -10z m-103 -6 c-3 -3 -12 -4 -19 -1 -8 3 -5 6 6 6 11 1 17 -2 13 -5z m-2857 -64 c0 -28 -1 -29 -30 -19 -25 9 -30 16 -30 45 l0 35 30 -16 c23 -12 30 -22 30 -45z m2897 34 c-3 -3 -12 -4 -19 -1 -8 3 -5 6 6 6 11 1 17 -2 13 -5z m-920 -30 c31 -13 33 -18 33 -60 l0 -46 -47 7 c-27 4 -51 9 -55 12 -5 2 -8 29 -8 59 0 61 -2 61 77 28z m192 -26 c-5 -10 -15 -18 -22 -17 -9 0 -9 2 1 6 6 2 12 17 12 31 0 20 3 23 9 13 6 -9 6 -22 0 -33z m626 22 c3 -5 1 -10 -4 -10 -6 0 -11 5 -11 10 0 6 2 10 4 10 3 0 8 -4 11 -10z m-667 -31 c2 -10 1 -11 -5 -2 -5 7 -14 9 -22 3 -8 -4 -21 -6 -29 -2 -13 4 -12 7 4 12 27 10 47 6 52 -11z m92 11 c8 -5 11 -10 5 -10 -5 0 -17 5 -25 10 -8 5 -10 10 -5 10 6 0 17 -5 25 -10z m-2390 -104 l0 -85 -30 11 c-26 9 -70 54 -70 72 0 3 8 6 19 6 10 0 30 17 45 40 14 22 28 40 31 40 3 0 5 -38 5 -84z m2286 41 c14 -3 12 -5 -8 -6 -16 0 -28 4 -29 12 0 6 -4 3 -9 -8 -7 -16 -9 -14 -9 15 0 35 0 35 18 14 9 -12 26 -24 37 -27z m2 25 c2 -7 -2 -10 -12 -6 -9 3 -16 11 -16 16 0 13 23 5 28 -10z m1043 8 c15 -9 17 -13 7 -24 -7 -8 -17 -12 -21 -9 -13 8 -98 -27 -92 -38 4 -5 -2 -6 -11 -2 -12 4 -15 3 -10 -5 4 -8 2 -10 -8 -6 -8 3 -75 -22 -149 -55 -74 -33 -147 -63 -163 -67 -16 -4 -41 -13 -56 -21 -15 -7 -29 -13 -30 -13 -2 1 -34 -12 -73 -28 -38 -17 -100 -40 -138 -52 -37 -12 -74 -29 -82 -37 -16 -15 -60 -9 -50 8 6 9 54 32 125 59 19 8 41 20 48 27 7 7 20 13 28 13 24 0 94 24 94 32 0 5 12 8 26 8 15 0 43 9 63 20 20 11 88 37 151 59 127 42 277 106 300 127 17 17 16 17 41 4z m-4741 -26 c0 -2 -7 -4 -15 -4 -8 0 -15 4 -15 10 0 5 7 7 15 4 8 -4 15 -8 15 -10z m4210 12 c0 -3 -4 -8 -10 -11 -5 -3 -10 -1 -10 4 0 6 5 11 10 11 6 0 10 -2 10 -4z m-3203 -61 c-3 -7 3 -16 16 -20 14 -4 17 -8 9 -12 -6 -2 -10 -9 -6 -14 3 -5 0 -9 -6 -9 -7 0 -10 7 -6 15 3 9 0 15 -9 15 -8 0 -15 3 -15 8 0 15 -86 5 -132 -16 -38 -17 -47 -18 -52 -6 -3 7 3 18 14 24 28 15 36 12 14 -5 -17 -14 -15 -14 18 -1 21 8 46 20 55 26 15 9 14 10 -7 5 -21 -5 -19 -2 8 13 18 10 29 22 25 26 -4 5 11 -1 35 -13 27 -14 42 -27 39 -36z m1766 30 c54 -22 45 -28 -10 -6 -73 28 -80 32 -52 26 14 -2 42 -11 62 -20z m1534 0 c-5 -10 4 -16 30 -21 l36 -7 -64 -32 c-35 -17 -113 -51 -174 -75 -60 -24 -180 -72 -265 -108 -85 -35 -198 -81 -250 -102 -52 -21 -202 -82 -333 -135 -243 -98 -328 -125 -145 -46 56 25 109 52 118 61 9 9 23 14 30 12 11 -4 10 -1 -2 12 -16 15 -20 15 -58 0 -69 -28 -55 -9 15 21 43 19 61 31 53 36 -9 6 -2 13 22 23 23 9 37 11 41 4 4 -7 13 -7 26 0 35 19 158 63 148 54 -6 -6 -44 -24 -85 -41 -96 -41 -169 -80 -150 -81 9 0 20 4 25 9 17 15 74 30 77 21 4 -14 48 0 48 15 0 7 7 16 16 19 14 5 15 4 5 -8 -9 -11 1 -10 41 5 29 11 82 31 118 43 36 13 130 51 210 84 80 33 201 84 270 112 196 81 192 79 173 99 -15 15 -15 16 0 19 9 2 17 8 17 13 0 5 3 9 6 9 3 0 4 -7 1 -15z m-4107 -31 c0 -2 -13 2 -30 11 -16 9 -30 18 -30 21 0 2 14 -2 30 -11 17 -9 30 -18 30 -21z m1690 16 c0 -5 -4 -10 -10 -10 -5 0 -10 5 -10 10 0 6 5 10 10 10 6 0 10 -4 10 -10z m699 -85 c16 -84 22 -152 12 -130 -9 19 -10 19 -10 -3 -1 -15 -5 -21 -13 -16 -8 5 -9 2 -4 -11 5 -15 4 -16 -9 -5 -13 11 -14 10 -9 -4 3 -9 1 -16 -5 -16 -6 0 -11 6 -12 13 0 9 -2 9 -5 0 -3 -7 -13 -10 -22 -7 -9 2 -4 -2 12 -9 24 -12 26 -15 11 -21 -10 -4 -23 -2 -29 4 -5 5 -21 10 -34 10 -13 0 -20 4 -17 10 3 6 -3 10 -13 10 -27 0 -34 -23 -16 -49 9 -12 11 -21 5 -21 -6 0 -11 4 -11 8 0 14 -73 14 -81 0 -6 -9 -9 -6 -9 10 0 17 6 22 24 22 13 0 30 8 37 17 13 15 12 15 -5 6 -10 -6 -27 -8 -37 -6 -16 5 -19 16 -19 82 l0 77 58 27 c32 15 61 27 65 27 4 0 7 -16 7 -35 0 -19 5 -35 10 -35 6 0 10 18 10 40 0 37 3 41 48 64 41 21 47 22 50 8 1 -10 6 -39 11 -67z m1668 79 c-3 -3 -12 -4 -19 -1 -8 3 -5 6 6 6 11 1 17 -2 13 -5z m-2009 -95 c50 -23 52 -25 52 -64 0 -89 -12 -144 -34 -158 -28 -19 -98 -34 -76 -17 12 10 12 11 -5 5 -11 -4 -28 -10 -37 -12 -10 -3 -15 -9 -12 -14 3 -5 -6 -8 -20 -7 -30 3 -38 38 -9 38 11 0 14 3 7 10 -7 7 -6 47 2 123 15 141 14 144 -77 126 -39 -7 -76 -22 -93 -36 l-29 -24 -17 28 c-47 75 -28 101 44 62 l44 -23 33 26 33 25 71 -32 c38 -18 94 -43 123 -56z m-1933 41 c5 -4 52 -26 104 -49 72 -31 98 -38 108 -29 10 8 12 7 8 -4 -4 -10 7 -20 35 -33 56 -25 79 -53 25 -30 -94 39 -345 161 -345 167 0 8 48 -8 65 -22z m823 -5 c2 -1 0 -14 -4 -29 -5 -22 -8 -23 -20 -12 -7 8 -19 17 -26 19 -10 4 -10 7 0 15 11 7 11 10 -3 15 -9 4 -14 3 -12 -1 3 -4 -1 -13 -9 -19 -8 -8 -15 -9 -19 -3 -3 6 -1 10 5 10 7 0 10 6 7 14 -3 8 -3 16 0 19 4 4 71 -19 81 -28z m391 -42 c1 -44 -4 -49 -28 -34 -10 6 -11 13 -2 29 6 11 11 36 12 54 0 27 2 30 9 13 5 -11 9 -39 9 -62z m1727 21 c8 -19 19 -34 25 -34 6 0 9 -7 6 -14 -4 -10 -1 -13 9 -9 9 3 14 0 12 -8 -2 -7 18 -21 48 -34 28 -11 62 -28 75 -38 23 -17 23 -17 1 -7 -13 6 -36 12 -52 12 -17 1 -27 5 -23 11 4 6 0 8 -11 4 -10 -4 -15 -3 -11 3 3 6 1 10 -4 10 -6 0 -11 -4 -11 -9 0 -6 -9 -8 -21 -6 -15 3 -19 0 -15 -10 3 -8 1 -15 -4 -15 -6 0 -10 -5 -10 -11 0 -5 4 -8 9 -5 5 3 8 -2 7 -12 0 -9 5 -16 12 -14 8 1 11 -2 7 -8 -3 -6 -12 -8 -18 -4 -7 3 -3 -2 8 -11 28 -23 79 -13 168 33 4 2 7 0 7 -5 0 -4 -45 -26 -99 -48 -65 -26 -97 -44 -94 -52 3 -7 0 -13 -7 -13 -6 0 -8 5 -4 12 5 7 1 9 -12 5 -10 -3 -34 -10 -53 -16 -64 -20 -16 10 56 35 74 25 73 26 -4 28 -38 1 -49 -2 -42 -10 6 -8 4 -14 -6 -18 -11 -4 -14 -2 -9 7 4 6 4 9 -1 5 -4 -4 -13 -4 -19 0 -6 5 -22 5 -36 1 -23 -7 -23 -7 8 -8 17 -1 32 -5 32 -10 0 -10 -56 1 -101 19 -24 10 -29 18 -29 47 0 28 -3 33 -17 29 -77 -23 -93 -17 -93 30 0 17 10 25 44 36 72 24 196 99 202 123 9 34 53 21 70 -21z m-2467 22 c-2 -2 -15 -7 -29 -10 l-25 -7 25 15 c21 12 42 14 29 2z m426 -6 c-28 -12 -37 -12 -30 0 3 6 16 10 28 9 21 0 21 -1 2 -9z m-148 -36 c-3 -3 -12 -4 -19 -1 -8 3 -5 6 6 6 11 1 17 -2 13 -5z m-482 -14 c3 -5 2 -10 -4 -10 -5 0 -13 5 -16 10 -3 6 -2 10 4 10 5 0 13 -4 16 -10z m75 0 c-8 -5 -22 -9 -30 -9 -10 0 -8 3 5 9 27 12 43 12 25 0z m749 -29 c-2 -30 -3 -32 -6 -8 -2 15 -9 27 -14 27 -5 0 -9 4 -9 8 0 5 7 9 15 9 11 0 15 -10 14 -36z m1318 9 c4 -15 12 -20 31 -18 34 4 42 -26 12 -42 -30 -16 -57 -4 -69 32 -15 41 -14 48 5 48 9 0 18 -9 21 -20z m-2102 -8 c-3 -3 -11 0 -18 7 -9 10 -8 11 6 5 10 -3 15 -9 12 -12z m2265 -77 c0 -17 -5 -25 -17 -25 -12 0 -18 8 -18 25 0 17 6 25 18 25 12 0 17 -8 17 -25z m-2124 -49 c113 -51 392 -185 629 -302 103 -51 114 -67 15 -21 -25 11 -47 21 -50 22 -4 1 -221 107 -635 310 -49 24 -87 44 -84 44 3 1 59 -23 125 -53z m2644 34 c11 -7 4 -10 -25 -10 -29 0 -36 3 -25 10 8 5 20 10 25 10 6 0 17 -5 25 -10z m-1820 -36 c0 -2 -7 -4 -15 -4 -8 0 -15 4 -15 10 0 5 7 7 15 4 8 -4 15 -8 15 -10z m422 -6 c3 -7 2 -23 -1 -35 -4 -16 -10 -20 -20 -14 -9 6 -12 18 -7 35 7 28 21 34 28 14z m625 -4 c-3 -3 -12 -4 -19 -1 -8 3 -5 6 6 6 11 1 17 -2 13 -5z m-157 -8 c0 -2 -9 -6 -20 -9 -11 -3 -18 -1 -14 4 5 9 34 13 34 5z m-795 -36 c-3 -5 -12 -10 -18 -10 -7 0 -6 4 3 10 19 12 23 12 15 0z m2150 -10 c0 -10 -15 -17 -45 -21 -25 -4 -63 -12 -85 -18 -48 -13 -55 -13 -55 -3 0 9 81 48 115 56 37 8 70 1 70 -14z m-2078 -36 c2 -24 1 -25 -5 -7 -5 17 -11 20 -22 13 -8 -5 -19 -10 -25 -10 -5 0 -3 5 5 10 9 6 10 10 3 10 -6 0 -15 -4 -18 -10 -3 -5 -13 -10 -21 -10 -14 0 -14 2 0 15 8 8 22 15 31 15 9 0 13 4 10 10 -4 6 2 7 17 1 16 -6 24 -17 25 -37z m718 36 c3 -6 -1 -7 -9 -4 -18 7 -21 14 -7 14 6 0 13 -4 16 -10z m617 -10 c18 -11 29 -20 25 -20 -11 0 -67 29 -67 35 0 9 9 5 42 -15z m-2309 -21 c40 -16 75 -37 80 -44 5 -9 19 -13 40 -11 21 3 37 -2 47 -13 8 -10 26 -23 39 -30 17 -9 20 -16 12 -24 -18 -18 -120 19 -133 48 -6 14 -14 23 -17 21 -10 -7 -151 62 -151 73 0 15 3 15 83 -20z m1487 26 c0 -2 -19 -14 -42 -26 -24 -12 -38 -16 -33 -11 9 9 65 42 73 42 1 0 2 -2 2 -5z m1950 -9 c0 -8 -5 -18 -11 -22 -14 -8 -33 11 -25 25 10 16 36 13 36 -3z m-2330 -16 c-8 -5 -17 -7 -19 -4 -3 3 1 9 9 14 8 5 17 7 19 4 3 -3 -1 -9 -9 -14z m-40 -4 c0 -2 -9 -6 -20 -9 -11 -3 -20 -1 -20 4 0 5 9 9 20 9 11 0 20 -2 20 -4z m50 -15 c0 -9 -80 -25 -87 -17 -3 2 15 9 39 14 23 5 44 10 46 11 1 1 2 -3 2 -8z m1692 -29 c11 -11 9 -16 -7 -28 -11 -9 -33 -18 -48 -21 -15 -3 -32 -14 -38 -25 -6 -11 -17 -17 -25 -14 -8 3 -14 1 -14 -5 0 -6 -4 -7 -10 -4 -5 3 -10 2 -10 -4 0 -6 -8 -8 -17 -4 -10 3 -15 2 -10 -2 11 -12 -64 -35 -92 -28 -16 4 -22 2 -17 -5 5 -8 1 -10 -10 -5 -12 4 -15 3 -10 -5 5 -8 1 -10 -10 -5 -11 4 -15 2 -11 -4 4 -6 0 -14 -9 -17 -10 -4 -13 -2 -8 6 5 8 2 9 -10 5 -10 -4 -22 -7 -27 -7 -5 0 -8 -5 -6 -12 1 -6 -7 -13 -18 -15 -16 -3 -17 -2 -5 6 22 15 6 13 -39 -5 -22 -9 -46 -14 -53 -11 -7 3 5 12 27 21 22 10 68 29 102 43 34 14 61 30 60 36 -2 13 71 57 96 57 9 0 17 5 17 11 0 5 -4 7 -10 4 -5 -3 -10 -2 -10 3 0 6 7 12 15 16 8 3 15 2 15 -3 0 -14 92 1 109 18 20 20 65 21 83 3z m-2431 -148 c63 -31 109 -58 103 -61 -5 -2 -55 18 -110 44 -62 29 -113 47 -137 47 -33 0 -36 2 -21 13 28 21 44 16 165 -43z m2319 31 c0 -2 -10 -9 -22 -15 -22 -11 -22 -10 -4 4 21 17 26 19 26 11z m-530 -65 c-8 -5 -19 -10 -25 -10 -5 0 -3 5 5 10 8 5 20 10 25 10 6 0 3 -5 -5 -10z m-2468 -872 c42 -23 88 -85 88 -120 0 -14 -8 -18 -38 -18 -34 0 -40 4 -54 33 -30 64 -121 84 -185 42 -39 -26 -66 -98 -61 -164 5 -71 24 -109 68 -139 67 -46 176 -10 194 64 5 20 13 24 46 24 39 0 40 -1 34 -27 -23 -95 -100 -153 -204 -153 -56 0 -108 19 -147 53 -53 46 -73 98 -73 187 0 121 50 204 145 239 46 16 138 7 187 -21z m566 -67 l3 -92 30 25 c60 51 163 26 202 -48 44 -84 23 -199 -46 -250 -42 -31 -126 -29 -161 3 -26 24 -26 24 -26 3 0 -19 -6 -22 -40 -22 l-40 0 0 234 0 235 28 4 c15 2 32 3 37 2 6 -1 11 -43 13 -94z m2612 49 l0 -40 -40 0 -40 0 0 40 0 40 40 0 40 0 0 -40z m157 -9 c7 -1 13 -20 15 -43 3 -43 3 -43 41 -41 36 2 37 2 37 -32 0 -34 -1 -35 -40 -35 l-40 0 0 -86 c0 -101 9 -124 50 -124 34 0 41 -8 33 -38 -5 -19 -12 -22 -57 -22 -85 0 -90 8 -96 152 l-5 123 -27 -3 c-25 -3 -28 0 -28 27 0 25 4 30 28 33 25 3 27 7 30 50 3 43 5 47 25 44 12 -3 27 -5 34 -5z m-3092 -211 c21 -66 41 -120 44 -120 3 0 23 54 44 120 l38 120 39 0 c22 0 40 -2 40 -4 0 -15 -136 -378 -151 -403 -22 -35 -63 -53 -119 -53 -35 0 -36 1 -32 30 3 22 10 30 24 30 27 0 56 17 68 40 8 14 4 35 -16 87 -14 37 -43 114 -64 170 l-37 102 36 3 c20 2 39 2 42 1 3 -1 23 -57 44 -123z m866 107 c41 -27 69 -79 69 -129 l0 -38 -121 0 -121 0 7 -27 c18 -74 101 -93 154 -35 12 14 25 17 48 13 l33 -6 -20 -32 c-42 -69 -132 -91 -210 -51 -59 31 -83 74 -84 152 -1 71 21 118 74 153 46 32 124 32 171 0z m199 -12 l0 -30 23 29 c18 22 32 29 62 30 41 1 41 1 36 -48 0 -8 -18 -16 -39 -20 -64 -10 -75 -31 -80 -156 l-5 -110 -33 0 -34 0 0 163 c0 90 3 166 6 170 4 3 19 5 35 4 25 -2 29 -6 29 -32z m386 1 c19 -19 34 -43 34 -55 0 -32 -54 -29 -84 6 -17 19 -32 26 -56 25 -42 -1 -69 -26 -54 -49 11 -17 33 -25 108 -38 89 -15 126 -106 68 -165 -32 -32 -98 -47 -157 -36 -44 9 -94 53 -97 86 -3 22 2 25 30 28 27 3 34 -1 42 -22 15 -41 101 -50 124 -14 16 26 -3 50 -45 60 -125 29 -149 46 -149 106 0 67 48 102 144 102 53 0 61 -3 92 -34z m321 14 c39 -23 73 -86 73 -135 l0 -35 -120 0 c-112 0 -120 -1 -120 -19 0 -11 11 -32 24 -47 30 -36 84 -38 119 -6 24 23 87 31 87 11 0 -25 -43 -69 -85 -84 -126 -49 -238 47 -222 187 7 59 28 92 77 126 43 29 121 30 167 2z m361 0 c27 -17 62 -70 62 -95 0 -3 -17 -5 -38 -5 -29 0 -39 5 -47 22 -22 50 -107 45 -135 -7 -20 -36 -15 -113 8 -144 32 -43 110 -41 130 4 9 20 19 25 47 25 44 0 47 -24 8 -71 -73 -86 -215 -73 -264 24 -28 54 -24 158 8 203 45 63 154 85 221 44z m183 10 c5 0 9 -53 9 -117 0 -132 9 -153 65 -153 57 0 69 26 75 159 5 125 2 118 60 113 19 -2 20 -9 20 -167 l0 -165 -40 0 c-34 0 -40 3 -40 22 l0 21 -24 -22 c-30 -28 -100 -38 -136 -19 -47 25 -60 70 -60 205 0 107 2 122 18 126 9 3 23 3 30 1 8 -2 18 -4 23 -4z m499 -25 c0 -33 -2 -35 -35 -35 -25 0 -44 -8 -60 -25 -24 -23 -25 -31 -25 -135 l0 -110 -40 0 -40 0 0 165 0 165 35 0 c31 0 35 -3 35 -27 1 -24 2 -26 13 -13 22 28 61 50 89 50 25 0 28 -3 28 -35z m523 -98 c22 -65 42 -115 45 -112 3 3 22 56 42 117 l37 113 41 3 42 3 -24 -63 c-13 -35 -45 -124 -72 -198 -60 -167 -79 -191 -157 -198 l-57 -4 0 31 c0 28 3 31 30 31 34 0 70 31 70 60 0 11 -27 89 -60 173 -33 85 -60 156 -60 160 0 3 10 7 23 9 49 8 59 -4 100 -125z m-403 -42 l0 -165 -40 0 -40 0 0 165 0 165 40 0 40 0 0 -165z m-2634 -454 c42 -19 74 -67 74 -111 0 -35 -30 -90 -58 -104 l-26 -13 22 -12 c30 -16 39 -37 52 -114 5 -36 13 -73 16 -81 5 -13 -2 -16 -35 -16 -35 0 -43 4 -51 26 -6 14 -10 38 -10 53 0 82 -36 111 -136 111 l-53 0 -3 -92 -3 -93 -37 -3 -36 -3 -4 179 c-2 99 -1 205 0 236 l4 56 121 0 c97 0 130 -4 163 -19z m1144 7 c0 -7 2 -83 4 -168 3 -85 2 -185 -1 -222 l-6 -68 -33 0 c-27 0 -34 4 -34 20 0 20 0 20 -30 -1 -40 -31 -118 -32 -156 -3 -55 41 -68 69 -68 147 -1 84 18 128 67 157 48 30 117 27 156 -6 l31 -26 0 91 0 91 35 0 c21 0 35 -5 35 -12z m160 -28 l0 -40 -40 0 -40 0 0 40 0 40 40 0 40 0 0 -40z m-942 -110 c44 -27 72 -76 72 -127 l0 -43 -121 0 -121 0 6 -27 c4 -16 16 -36 28 -45 28 -25 90 -23 113 2 23 25 85 28 85 4 0 -26 -54 -72 -99 -84 -72 -19 -145 7 -180 63 -40 66 -37 169 8 221 49 58 146 74 209 36z m341 9 c47 -17 58 -48 65 -196 l7 -133 -35 0 c-29 0 -36 4 -36 20 0 24 -8 25 -31 4 -45 -40 -153 -35 -184 9 -21 30 -19 89 4 119 24 30 81 48 150 48 46 0 51 2 51 22 0 12 -7 30 -17 40 -28 31 -113 18 -113 -17 0 -11 -12 -15 -40 -15 -44 0 -47 7 -26 49 28 53 126 77 205 50z m741 -15 l0 -26 31 26 c51 43 141 33 175 -19 14 -22 18 -53 19 -161 l2 -134 -38 0 -37 0 -4 121 c-3 113 -5 122 -27 140 -29 24 -53 24 -82 0 -22 -18 -24 -28 -29 -138 l-5 -118 -37 -3 -38 -3 0 165 0 165 28 4 c15 2 30 5 35 6 4 0 7 -11 7 -25z m508 12 c42 -22 69 -57 82 -105 18 -70 17 -71 -121 -71 -106 0 -120 -2 -115 -16 3 -9 6 -20 6 -25 0 -23 42 -49 80 -49 27 0 47 7 60 20 12 12 33 20 54 20 29 0 33 -3 29 -20 -8 -32 -68 -77 -111 -85 -113 -19 -196 57 -194 177 1 80 32 133 92 157 37 14 107 13 138 -3z m373 -24 c41 -45 39 -72 -4 -72 -26 0 -36 6 -45 24 -18 40 -103 40 -119 0 -10 -25 19 -44 87 -56 179 -31 152 -208 -32 -208 -46 0 -108 30 -123 61 -24 46 -20 59 20 59 19 0 35 -4 35 -10 0 -24 41 -50 78 -50 41 0 62 14 62 41 0 26 -23 39 -91 51 -85 15 -111 41 -107 105 3 41 7 50 38 71 30 21 44 23 104 20 62 -3 71 -7 97 -36z m315 4 c19 -19 34 -43 34 -55 0 -30 -66 -31 -75 0 -13 39 -84 46 -112 11 -23 -28 2 -49 73 -62 81 -16 113 -41 121 -95 7 -57 -21 -90 -91 -106 -30 -6 -70 -9 -92 -5 -44 9 -104 63 -104 95 0 17 6 21 35 21 29 0 37 -5 45 -25 15 -40 101 -49 124 -13 19 31 -5 51 -85 69 -83 19 -109 42 -109 96 0 72 41 102 139 103 59 0 65 -2 97 -34z m-1338 -143 l3 -163 -41 0 -40 0 0 166 0 165 38 -3 37 -3 3 -162z"
       id="path1"
       style="fill:#0034b4;fill-opacity:1" />
    <path
       d="M6814 6719 c-4 -6 -8 -33 -9 -60 l-2 -48 58 -20 59 -20 0 45 c0 50 -20 98 -45 108 -26 9 -53 7 -61 -5z"
       id="path2"
       style="fill:#0034b4;fill-opacity:1" />
    <path
       d="M6845 6510 c-8 -13 3 -50 16 -50 12 0 12 47 0 55 -5 3 -12 1 -16 -5z"
       id="path3"
       style="fill:#0034b4;fill-opacity:1" />
    <path
       d="M6850 6430 c0 -11 4 -20 9 -20 5 0 7 9 4 20 -3 11 -7 20 -9 20 -2 0 -4 -9 -4 -20z"
       id="path4"
       style="fill:#0034b4;fill-opacity:1" />
    <path
       d="M7305 6127 c-19 -14 -18 -16 23 -70 66 -85 169 -187 251 -247 41 -30 78 -56 83 -56 4 -1 13 -2 19 -3 5 0 7 -6 3 -13 -5 -8 -2 -9 9 -5 9 3 22 1 29 -6 7 -7 20 -13 28 -14 84 -10 87 -15 92 -156 5 -153 -15 -384 -47 -546 -18 -87 -14 -102 9 -34 44 133 74 350 78 567 l3 140 -26 6 c-58 16 -209 104 -278 162 -41 35 -103 99 -138 143 -126 158 -116 148 -138 132z"
       id="path5"
       style="fill:#0034b4;fill-opacity:1" />
    <path
       d="M6770 6082 c0 -8 133 -53 155 -52 6 1 -17 11 -50 24 -88 34 -105 38 -105 28z"
       id="path6"
       style="fill:#0034b4;fill-opacity:1" />
    <path
       d="M7164 5948 c-44 -33 -52 -42 -24 -28 34 18 75 50 63 50 -6 0 -23 -10 -39 -22z"
       id="path7"
       style="fill:#0034b4;fill-opacity:1" />
    <path
       d="M7240 5925 c0 -10 34 -56 84 -115 51 -60 164 -153 221 -182 52 -27 43 -17 -31 30 -78 51 -177 143 -231 216 -24 32 -43 55 -43 51z"
       id="path8"
       style="fill:#0034b4;fill-opacity:1" />
    <path
       d="M7144 5895 c-86 -52 -211 -68 -313 -40 l-54 14 7 -122 c4 -67 11 -155 17 -197 12 -95 51 -270 60 -270 4 0 5 9 2 20 -3 11 0 20 6 20 6 0 11 -3 11 -7 0 -5 14 -8 32 -7 27 1 35 7 49 40 10 21 18 50 18 62 1 15 9 26 21 29 17 4 20 14 20 57 0 145 76 223 176 181 45 -18 86 -56 115 -102 27 -43 68 -170 69 -210 0 -36 18 -83 32 -83 5 0 6 -4 3 -10 -3 -5 -1 -10 5 -10 7 0 10 -7 6 -15 -3 -8 0 -15 6 -15 6 0 9 -3 6 -6 -4 -3 -2 -19 3 -37 5 -17 9 -64 10 -104 1 -41 6 -73 11 -73 6 0 8 -13 4 -31 -5 -26 -3 -30 10 -25 12 4 15 2 10 -9 -3 -9 0 -15 9 -15 8 0 15 -6 15 -13 0 -8 7 -14 15 -14 9 0 14 6 11 14 -3 8 -2 12 3 8 5 -3 12 1 14 7 4 9 6 8 7 -2 1 -21 28 50 55 150 28 104 48 277 43 385 l-3 80 -89 48 c-137 74 -229 151 -302 253 -36 50 -62 75 -77 74 -1 0 -21 -11 -43 -25z"
       id="path9"
       style="fill:#0034b4;fill-opacity:1" />
    <path
       d="M6740 5874 c0 -55 21 -274 31 -319 7 -33 7 -29 3 20 -16 184 -20 320 -10 327 7 5 4 8 -6 8 -14 0 -18 -8 -18 -36z"
       id="path10"
       style="fill:#0034b4;fill-opacity:1" />
    <path
       d="M7080 5900 c-8 -5 -10 -10 -5 -10 6 0 17 5 25 10 8 5 11 10 5 10 -5 0 -17 -5 -25 -10z"
       id="path11"
       style="fill:#0034b4;fill-opacity:1" />
    <path
       d="M7410 5885 c13 -14 26 -25 28 -25 3 0 -5 11 -18 25 -13 14 -26 25 -28 25 -3 0 5 -11 18 -25z"
       id="path12"
       style="fill:#0034b4;fill-opacity:1" />
    <path
       d="M7038 5883 c7 -3 16 -2 19 1 4 3 -2 6 -13 5 -11 0 -14 -3 -6 -6z"
       id="path13"
       style="fill:#0034b4;fill-opacity:1" />
    <path
       d="M6883 5873 c9 -2 23 -2 30 0 6 3 -1 5 -18 5 -16 0 -22 -2 -12 -5z"
       id="path14"
       style="fill:#0034b4;fill-opacity:1" />
    <path
       d="M6958 5873 c12 -2 32 -2 45 0 12 2 2 4 -23 4 -25 0 -35 -2 -22 -4z"
       id="path15"
       style="fill:#0034b4;fill-opacity:1" />
    <path
       d="M7802 5625 c0 -16 2 -22 5 -12 2 9 2 23 0 30 -3 6 -5 -1 -5 -18z"
       id="path16"
       style="fill:#0034b4;fill-opacity:1" />
    <path
       d="M7590 5604 c0 -6 65 -34 77 -34 9 1 -58 39 -69 40 -5 0 -8 -2 -8 -6z"
       id="path17"
       style="fill:#0034b4;fill-opacity:1" />
    <path
       d="M7163 5583 c4 -3 -3 -11 -16 -17 -19 -10 -22 -21 -25 -72 l-3 -60 39 -22 c21 -12 54 -23 72 -24 29 -3 35 1 44 24 12 35 -21 124 -46 122 -9 -1 -14 4 -12 11 3 7 -6 19 -20 29 -25 16 -45 22 -33 9z"
       id="path18"
       style="fill:#0034b4;fill-opacity:1" />
    <path
       d="M7103 5495 c0 -22 2 -30 4 -17 2 12 2 30 0 40 -3 9 -5 -1 -4 -23z"
       id="path19"
       style="fill:#0034b4;fill-opacity:1" />
    <path
       d="M6782 5490 c0 -14 2 -19 5 -12 2 6 2 18 0 25 -3 6 -5 1 -5 -13z"
       id="path20"
       style="fill:#0034b4;fill-opacity:1" />
    <path
       d="M7683 5425 c0 -44 2 -61 4 -37 2 23 2 59 0 80 -2 20 -4 1 -4 -43z"
       id="path21"
       style="fill:#0034b4;fill-opacity:1" />
    <path
       d="M6792 5425 c0 -16 3 -39 8 -50 l9 -20 -1 20 c0 11 -4 34 -8 50 l-8 30 0 -30z"
       id="path22"
       style="fill:#0034b4;fill-opacity:1" />
    <path
       d="M6811 5334 c0 -11 3 -14 6 -6 3 7 2 16 -1 19 -3 4 -6 -2 -5 -13z"
       id="path23"
       style="fill:#0034b4;fill-opacity:1" />
    <path
       d="M7673 5280 c0 -25 2 -35 4 -22 2 12 2 32 0 45 -2 12 -4 2 -4 -23z"
       id="path24"
       style="fill:#0034b4;fill-opacity:1" />
    <path
       d="M7662 5210 c0 -14 2 -19 5 -12 2 6 2 18 0 25 -3 6 -5 1 -5 -13z"
       id="path25"
       style="fill:#0034b4;fill-opacity:1" />
    <path
       d="M7651 5154 c0 -11 3 -14 6 -6 3 7 2 16 -1 19 -3 4 -6 -2 -5 -13z"
       id="path26"
       style="fill:#0034b4;fill-opacity:1" />
    <path
       d="M7641 5094 c0 -11 3 -14 6 -6 3 7 2 16 -1 19 -3 4 -6 -2 -5 -13z"
       id="path27"
       style="fill:#0034b4;fill-opacity:1" />
    <path
       d="M7631 5054 c0 -11 3 -14 6 -6 3 7 2 16 -1 19 -3 4 -6 -2 -5 -13z"
       id="path28"
       style="fill:#0034b4;fill-opacity:1" />
    <path
       d="M7616 5004 c-4 -14 -5 -28 -3 -31 3 -2 8 8 11 23 4 14 5 28 3 31 -3 2 -8 -8 -11 -23z"
       id="path29"
       style="fill:#0034b4;fill-opacity:1" />
    <path
       d="M6900 4868 c-22 -8 -19 -28 5 -28 27 0 43 -38 35 -81 -8 -45 -25 -62 -52 -53 -23 7 -42 -27 -57 -99 -10 -47 -21 -67 -54 -100 -23 -23 -52 -49 -65 -57 -19 -12 -22 -21 -18 -50 3 -19 5 -37 6 -39 0 -3 10 5 23 16 28 26 99 73 109 73 19 0 5 -37 -24 -67 -30 -31 -31 -34 -16 -50 16 -15 20 -15 60 0 52 20 80 21 96 5 17 -17 15 -26 -8 -33 -11 -3 -24 -14 -30 -24 -8 -15 -6 -17 15 -14 14 3 48 -7 86 -27 47 -24 70 -30 94 -26 31 6 32 8 42 79 6 39 9 74 7 76 -2 2 -12 -2 -21 -10 -17 -13 -17 -13 -2 6 10 12 20 49 24 93 4 41 13 99 20 130 8 31 12 59 9 63 -6 11 -96 51 -101 45 -3 -2 14 -14 36 -26 24 -12 39 -25 35 -31 -4 -7 -9 -8 -13 -1 -3 5 -22 17 -41 27 -19 9 -47 28 -61 42 l-27 24 -7 -38 c-4 -21 -10 -42 -13 -48 -13 -21 -62 -170 -62 -189 0 -10 -3 -17 -6 -13 -6 6 11 155 22 195 3 12 2 22 -3 22 -16 0 -56 -141 -64 -225 l-8 -80 3 85 c5 119 32 229 59 239 27 11 70 58 92 101 15 29 15 34 1 55 -28 43 -70 54 -126 33z m17 -490 c-3 -7 -5 -2 -5 12 0 14 2 19 5 13 2 -7 2 -19 0 -25z"
       id="path30"
       style="fill:#0034b4;fill-opacity:1" />
    <path
       d="M5808 4863 c-10 -2 -18 -9 -18 -13 0 -6 10 -6 24 0 13 5 27 6 32 2 4 -4 4 -1 0 6 -7 12 -9 13 -38 5z"
       id="path31"
       style="fill:#0034b4;fill-opacity:1" />
    <path
       d="M6415 4800 c-3 -5 -1 -10 4 -10 6 0 11 5 11 10 0 6 -2 10 -4 10 -3 0 -8 -4 -11 -10z"
       id="path32"
       style="fill:#0034b4;fill-opacity:1" />
    <path
       d="M5795 4440 c3 -5 13 -10 21 -10 8 0 12 5 9 10 -3 6 -13 10 -21 10 -8 0 -12 -4 -9 -10z"
       id="path33"
       style="fill:#0034b4;fill-opacity:1" />
    <path
       d="M5539 4399 c46 -21 86 -38 88 -36 4 5 -153 77 -164 76 -4 0 30 -18 76 -40z"
       id="path34"
       style="fill:#0034b4;fill-opacity:1" />
    <path
       d="M6503 4403 c-7 -2 -13 -9 -13 -15 0 -12 41 -6 41 7 1 12 -11 15 -28 8z"
       id="path35"
       style="fill:#0034b4;fill-opacity:1" />
    <path
       d="M7610 4336 c0 -2 7 -6 15 -10 8 -3 15 -1 15 4 0 6 -7 10 -15 10 -8 0 -15 -2 -15 -4z"
       id="path36"
       style="fill:#0034b4;fill-opacity:1" />
    <path
       d="M6482 4321 c-11 -7 -11 -9 0 -14 9 -3 15 1 15 9 0 8 -1 14 -1 14 -1 0 -7 -4 -14 -9z"
       id="path37"
       style="fill:#0034b4;fill-opacity:1" />
    <path
       d="M7604 4160 c0 -13 4 -16 10 -10 7 7 7 13 0 20 -6 6 -10 3 -10 -10z"
       id="path38"
       style="fill:#0034b4;fill-opacity:1" />
    <path
       d="M5640 4030 c-8 -5 -10 -10 -5 -10 6 0 17 5 25 10 8 5 11 10 5 10 -5 0 -17 -5 -25 -10z"
       id="path39"
       style="fill:#0034b4;fill-opacity:1" />
    <path
       d="M4062 5983 c-19 -7 -42 -58 -42 -93 0 -27 3 -30 29 -30 36 0 71 40 71 79 0 41 -23 58 -58 44z"
       id="path40"
       style="fill:#0034b4;fill-opacity:1" />
    <path
       d="M5948 5423 c7 -3 16 -2 19 1 4 3 -2 6 -13 5 -11 0 -14 -3 -6 -6z"
       id="path41"
       style="fill:#0034b4;fill-opacity:1" />
    <path
       d="M3240 5630 c0 -5 5 -10 10 -10 6 0 10 5 10 10 0 6 -4 10 -10 10 -5 0 -10 -4 -10 -10z"
       id="path42"
       style="fill:#0034b4;fill-opacity:1" />
    <path
       d="M5195 5570 c3 -5 8 -10 11 -10 2 0 4 5 4 10 0 6 -5 10 -11 10 -5 0 -7 -4 -4 -10z"
       id="path43"
       style="fill:#0034b4;fill-opacity:1" />
    <path
       d="M5221 5564 c0 -11 3 -14 6 -6 3 7 2 16 -1 19 -3 4 -6 -2 -5 -13z"
       id="path44"
       style="fill:#0034b4;fill-opacity:1" />
    <path
       d="M5090 5553 c0 -19 21 -27 33 -13 9 10 9 11 -2 5 -8 -4 -17 -2 -22 6 -6 9 -9 10 -9 2z"
       id="path45"
       style="fill:#0034b4;fill-opacity:1" />
    <path
       d="M5050 5530 c-8 -5 -10 -10 -5 -10 6 0 17 5 25 10 8 5 11 10 5 10 -5 0 -17 -5 -25 -10z"
       id="path46"
       style="fill:#0034b4;fill-opacity:1" />
    <path
       d="M5133 5525 c-10 -10 -9 -14 2 -19 18 -7 45 3 45 16 0 5 -5 6 -11 2 -6 -3 -14 -2 -18 4 -4 6 -10 5 -18 -3z"
       id="path47"
       style="fill:#0034b4;fill-opacity:1" />
    <path
       d="M5105 5490 c-16 -7 -17 -9 -3 -9 9 -1 20 4 23 9 7 11 7 11 -20 0z"
       id="path48"
       style="fill:#0034b4;fill-opacity:1" />
    <path
       d="M5010 5462 c0 -17 4 -33 9 -36 10 -7 9 49 -2 60 -4 4 -7 -7 -7 -24z"
       id="path49"
       style="fill:#0034b4;fill-opacity:1" />
    <path
       d="M4980 5472 c0 -7 -9 -12 -19 -12 -20 0 -31 -18 -31 -51 0 -13 5 -17 16 -12 10 4 12 9 5 16 -11 11 -3 40 9 32 10 -6 35 23 26 32 -3 3 -6 1 -6 -5z"
       id="path50"
       style="fill:#0034b4;fill-opacity:1" />
    <path
       d="M4990 5431 c0 -6 4 -13 10 -16 6 -3 7 1 4 9 -7 18 -14 21 -14 7z"
       id="path51"
       style="fill:#0034b4;fill-opacity:1" />
    <path
       d="M4871 5423 c3 -20 -2 -34 -11 -28 -5 3 -10 -1 -10 -9 0 -8 4 -17 10 -21 5 -3 8 -11 6 -18 -1 -7 -1 -9 1 -4 3 4 9 5 14 2 5 -4 6 1 3 9 -3 9 -11 16 -17 16 -7 0 -6 5 2 13 11 10 14 10 18 0 3 -7 10 -13 16 -13 8 0 7 4 -1 12 -15 15 -16 32 -2 23 6 -3 10 -4 10 -1 0 3 -9 10 -20 16 -11 6 -20 7 -19 3z"
       id="path52"
       style="fill:#0034b4;fill-opacity:1" />
    <path
       d="M4816 5364 c-4 -9 -4 -19 -1 -22 3 -3 5 0 5 6 0 6 8 9 18 6 10 -4 13 -2 7 3 -5 4 -13 12 -16 16 -4 4 -9 0 -13 -9z"
       id="path53"
       style="fill:#0034b4;fill-opacity:1" />
    <path
       d="M5096 5344 c-11 -8 -16 -14 -10 -14 13 0 39 18 34 24 -3 2 -14 -2 -24 -10z"
       id="path54"
       style="fill:#0034b4;fill-opacity:1" />
    <path
       d="M4991 5334 c0 -11 3 -14 6 -6 3 7 2 16 -1 19 -3 4 -6 -2 -5 -13z"
       id="path55"
       style="fill:#0034b4;fill-opacity:1" />
    <path
       d="M4943 5325 c0 -8 4 -15 9 -15 4 0 8 4 8 9 0 6 -4 12 -8 15 -5 3 -9 -1 -9 -9z"
       id="path56"
       style="fill:#0034b4;fill-opacity:1" />
    <path
       d="M4862 5309 c-13 -5 -21 -13 -17 -18 6 -11 35 -3 35 9 0 5 10 11 23 13 18 4 19 4 2 5 -11 0 -30 -3 -43 -9z"
       id="path57"
       style="fill:#0034b4;fill-opacity:1" />
    <path
       d="M4590 5190 c-9 -6 -10 -10 -3 -10 6 0 15 5 18 10 8 12 4 12 -15 0z"
       id="path58"
       style="fill:#0034b4;fill-opacity:1" />
    <path
       d="M4677 5193 c-22 -22 12 -36 38 -16 19 13 18 14 -9 7 -21 -5 -27 -4 -22 5 8 12 3 15 -7 4z"
       id="path59"
       style="fill:#0034b4;fill-opacity:1" />
    <path
       d="M4675 5140 c3 -5 8 -10 11 -10 2 0 4 5 4 10 0 6 -5 10 -11 10 -5 0 -7 -4 -4 -10z"
       id="path60"
       style="fill:#0034b4;fill-opacity:1" />
    <path
       d="M4606 4951 c-26 -51 -45 -98 -42 -104 3 -9 5 -8 5 1 1 6 12 12 25 12 27 0 86 19 87 28 5 42 4 52 -9 57 -11 4 -12 9 -3 19 8 10 8 22 -3 47 l-14 33 -46 -93z"
       id="path61"
       style="fill:#0034b4;fill-opacity:1" />
    <path
       d="M4688 5035 c-6 -7 2 -54 11 -59 3 -2 6 7 6 20 0 13 -4 24 -8 24 -5 0 -5 5 -2 10 7 11 2 14 -7 5z"
       id="path62"
       style="fill:#0034b4;fill-opacity:1" />
    <path
       d="M3109 5443 c-13 -16 -12 -17 4 -4 9 7 17 15 17 17 0 8 -8 3 -21 -13z"
       id="path63"
       style="fill:#0034b4;fill-opacity:1" />
    <path
       d="M4340 5410 c0 -5 5 -10 11 -10 5 0 7 5 4 10 -3 6 -8 10 -11 10 -2 0 -4 -4 -4 -10z"
       id="path64"
       style="fill:#0034b4;fill-opacity:1" />
    <path
       d="M5710 5240 c-8 -5 -10 -10 -5 -10 6 0 17 5 25 10 8 5 11 10 5 10 -5 0 -17 -5 -25 -10z"
       id="path65"
       style="fill:#0034b4;fill-opacity:1" />
    <path
       d="M5665 5190 c-3 -6 1 -7 9 -4 18 7 21 14 7 14 -6 0 -13 -4 -16 -10z"
       id="path66"
       style="fill:#0034b4;fill-opacity:1" />
    <path
       d="M4268 5263 c7 -3 16 -2 19 1 4 3 -2 6 -13 5 -11 0 -14 -3 -6 -6z"
       id="path67"
       style="fill:#0034b4;fill-opacity:1" />
    <path
       d="M4232 5113 c3 -19 38 -31 38 -14 0 6 -7 8 -15 5 -8 -4 -15 -1 -15 4 0 6 8 13 18 15 12 3 11 5 -6 6 -17 1 -23 -4 -20 -16z"
       id="path68"
       style="fill:#0034b4;fill-opacity:1" />
    <path
       d="M4290 5085 c7 -8 17 -15 22 -15 5 0 3 7 -6 15 -8 8 -18 15 -22 15 -3 0 -1 -7 6 -15z"
       id="path69"
       style="fill:#0034b4;fill-opacity:1" />
    <path
       d="M3601 5106 c-7 -8 -15 -31 -18 -52 -6 -34 -4 -37 13 -30 10 5 31 13 47 18 29 11 34 27 17 59 -12 22 -43 25 -59 5z"
       id="path70"
       style="fill:#0034b4;fill-opacity:1" />
    <path
       d="M3617 4973 c-2 -5 -1 -21 3 -38 l6 -30 5 38 c4 33 -3 50 -14 30z"
       id="path71"
       style="fill:#0034b4;fill-opacity:1" />
    <path
       d="M8150 4661 c0 -6 4 -13 10 -16 6 -3 7 1 4 9 -7 18 -14 21 -14 7z"
       id="path72"
       style="fill:#0034b4;fill-opacity:1" />
    <path
       d="M8223 4599 c9 -6 15 -14 12 -20 -3 -5 1 -6 10 -3 14 6 14 8 -2 20 -10 7 -22 13 -28 13 -5 0 -2 -4 8 -10z"
       id="path73"
       style="fill:#0034b4;fill-opacity:1" />
    <path
       d="M4810 4490 c-18 -12 -2 -12 25 0 13 6 15 9 5 9 -8 0 -22 -4 -30 -9z"
       id="path74"
       style="fill:#0034b4;fill-opacity:1" />
    <path
       d="M4925 4348 c-6 -16 -1 -45 8 -54 4 -4 -1 -13 -11 -21 -16 -13 -15 -13 3 -5 11 5 27 7 35 5 13 -4 13 -3 0 7 -12 9 -10 10 12 6 21 -5 30 -1 39 16 10 18 8 24 -11 40 -26 21 -69 24 -75 6z"
       id="path75"
       style="fill:#0034b4;fill-opacity:1" />
    <path
       d="M4977 4257 c-4 -10 -18 -17 -34 -18 -17 -1 -21 -3 -10 -6 9 -2 17 -9 17 -14 0 -5 4 -9 10 -9 12 0 32 38 27 53 -2 6 -6 4 -10 -6z"
       id="path76"
       style="fill:#0034b4;fill-opacity:1" />
    <path
       d="M7375 3250 c-3 -6 1 -7 9 -4 18 7 21 14 7 14 -6 0 -13 -4 -16 -10z"
       id="path77"
       style="fill:#0034b4;fill-opacity:1" />
    <path
       d="M6550 3370 c-13 -8 -12 -10 3 -10 9 0 17 5 17 10 0 12 -1 12 -20 0z"
       id="path78"
       style="fill:#0034b4;fill-opacity:1" />
    <path
       d="M6445 3310 c3 -5 8 -10 11 -10 2 0 4 5 4 10 0 6 -5 10 -11 10 -5 0 -7 -4 -4 -10z"
       id="path79"
       style="fill:#0034b4;fill-opacity:1" />
    <path
       d="M7300 3310 c8 -5 20 -10 25 -10 6 0 3 5 -5 10 -8 5 -19 10 -25 10 -5 0 -3 -5 5 -10z"
       id="path80"
       style="fill:#0034b4;fill-opacity:1" />
    <path
       d="M7148 3293 c7 -3 16 -2 19 1 4 3 -2 6 -13 5 -11 0 -14 -3 -6 -6z"
       id="path81"
       style="fill:#0034b4;fill-opacity:1" />
    <path
       d="M5150 1957 c-13 -7 -30 -24 -37 -37 -29 -58 -5 -154 41 -166 74 -18 121 24 120 108 0 44 -5 55 -32 80 -35 31 -54 34 -92 15z"
       id="path82"
       style="fill:#0034b4;fill-opacity:1" />
    <path
       d="M5514 1962 c-13 -9 -44 -54 -44 -64 0 -5 38 -8 85 -8 47 0 85 2 85 5 0 16 -31 63 -45 69 -22 8 -68 7 -81 -2z"
       id="path83"
       style="fill:#0034b4;fill-opacity:1" />
    <path
       d="M6422 1963 c-11 -4 -42 -54 -42 -68 0 -3 36 -5 80 -5 71 0 80 2 80 18 0 42 -69 75 -118 55z"
       id="path84"
       style="fill:#0034b4;fill-opacity:1" />
    <path
       d="M4870 1275 l0 -75 65 0 c35 0 75 5 88 11 47 21 56 80 19 122 -12 13 -31 17 -94 17 l-78 0 0 -75z"
       id="path85"
       style="fill:#0034b4;fill-opacity:1" />
    <path
       d="M6018 1215 c-79 -43 -49 -205 38 -205 46 0 63 9 79 41 31 59 9 150 -41 169 -33 13 -44 12 -76 -5z"
       id="path86"
       style="fill:#0034b4;fill-opacity:1" />
    <path
       d="M5302 1213 c-11 -10 -23 -28 -27 -40 -6 -23 -5 -23 74 -23 74 0 81 2 81 20 0 52 -85 80 -128 43z"
       id="path87"
       style="fill:#0034b4;fill-opacity:1" />
    <path
       d="M5680 1093 c-35 -7 -50 -21 -50 -48 0 -34 24 -49 68 -42 42 7 72 38 72 73 0 21 -5 24 -32 23 -18 -1 -44 -4 -58 -6z"
       id="path88"
       style="fill:#0034b4;fill-opacity:1" />
    <path
       d="M6896 1199 c-14 -17 -26 -35 -26 -40 0 -15 162 -7 167 8 3 7 -7 24 -21 38 -37 37 -86 34 -120 -6z"
       id="path89"
       style="fill:#0034b4;fill-opacity:1" />
  </g>
</svg>
