<?xml version="1.0" encoding="UTF-8" standalone="no"?>
<svg
   version="1.0"
   width="1248.000000pt"
   height="832.000000pt"
   viewBox="0 0 1248.000000 832.000000"
   preserveAspectRatio="xMidYMid meet"
   id="svg50"
   sodipodi:docname="service-devops.svg"
   inkscape:version="1.4.3 (0d15f75, 2025-12-25)"
   xmlns:inkscape="http://www.inkscape.org/namespaces/inkscape"
   xmlns:sodipodi="http://sodipodi.sourceforge.net/DTD/sodipodi-0.dtd"
   xmlns="http://www.w3.org/2000/svg"
   xmlns:svg="http://www.w3.org/2000/svg">
  <defs
     id="defs50" />
  <sodipodi:namedview
     id="namedview50"
     pagecolor="#ffffff"
     bordercolor="#000000"
     borderopacity="0.25"
     inkscape:showpageshadow="2"
     inkscape:pageopacity="0.0"
     inkscape:pagecheckerboard="0"
     inkscape:deskcolor="#d1d1d1"
     inkscape:document-units="pt"
     inkscape:zoom="0.72746394"
     inkscape:cx="832.34366"
     inkscape:cy="554.66667"
     inkscape:window-width="1920"
     inkscape:window-height="1009"
     inkscape:window-x="-8"
     inkscape:window-y="-8"
     inkscape:window-maximized="1"
     inkscape:current-layer="svg50" />
  <g
     transform="translate(0.000000,832.000000) scale(0.100000,-0.100000)"
     fill="#000000"
     stroke="none"
     id="g50"
     style="fill:#000080">
    <path
       d="M0 6401 c0 -1909 0 -1920 20 -1926 59 -19 67 -76 16 -128 -33 -34 -33 -36 -35 -135 l-2 -101 49 6 c68 8 115 -16 157 -81 24 -37 33 -62 34 -93 0 -24 -4 -43 -9 -43 -5 0 -21 -11 -35 -24 -24 -23 -113 -46 -173 -46 l-22 0 0 -464 0 -464 44 -6 c62 -10 165 12 193 41 20 21 46 29 83 23 7 -1 33 -15 56 -31 24 -16 46 -29 49 -29 4 0 24 18 46 41 37 39 41 40 96 38 32 -1 74 1 94 5 50 11 61 -10 16 -29 -20 -8 -45 -28 -57 -45 -21 -29 -21 -31 -3 -60 9 -16 24 -30 33 -31 9 0 7 -3 -6 -9 -12 -5 -40 -4 -64 1 -44 10 -67 6 -31 -6 12 -3 21 -10 21 -14 0 -4 19 -14 43 -21 63 -19 119 -49 111 -61 -4 -7 -9 -7 -13 -2 -3 6 -13 10 -21 10 -8 0 -44 14 -81 31 -94 45 -115 52 -194 66 -74 13 -263 14 -305 2 -23 -6 -23 -5 4 10 l28 16 -27 14 c-15 8 -47 14 -71 14 l-44 0 0 -183 0 -184 87 -26 c49 -15 101 -29 116 -33 15 -3 26 -8 23 -11 -2 -3 -48 7 -101 22 -54 14 -104 24 -111 21 -11 -4 -14 -43 -14 -194 l0 -189 83 23 c45 12 199 51 342 86 259 63 260 63 200 69 l-60 6 74 1 c51 1 72 5 65 12 -11 11 -118 43 -219 65 -84 19 -246 67 -241 72 3 3 149 -32 403 -98 l82 -21 27 21 c15 11 41 21 58 21 28 0 42 11 104 83 55 63 71 89 72 113 0 29 -3 32 -42 39 -41 7 -42 7 -18 17 14 6 51 12 84 14 73 4 106 -14 106 -59 0 -37 -24 -56 -72 -57 -33 0 -42 -6 -77 -52 -21 -29 -53 -66 -70 -81 -17 -16 -31 -33 -31 -38 0 -21 57 -30 146 -24 66 5 94 4 99 -5 11 -18 2 -21 -48 -11 -26 5 -44 5 -41 0 3 -5 -25 -9 -63 -10 l-68 0 37 -14 c20 -7 71 -19 112 -26 42 -7 76 -17 76 -21 0 -10 -18 -10 -77 1 -26 5 -68 12 -93 15 -43 5 -42 4 40 -35 47 -22 96 -45 110 -51 15 -6 20 -12 13 -15 -7 -3 -28 4 -45 15 -18 11 -67 32 -108 46 l-75 26 30 -25 c31 -26 100 -79 168 -129 20 -15 37 -32 37 -38 0 -7 -12 0 -28 14 -40 39 -224 168 -238 168 -7 0 -16 -4 -19 -10 -8 -13 -52 -13 -60 0 -16 26 -69 8 -170 -57 -58 -38 -202 -131 -321 -208 -119 -77 -221 -139 -225 -137 -5 1 -9 -3 -9 -8 0 -6 -11 -15 -25 -20 -19 -7 -25 -17 -25 -39 0 -15 7 -34 15 -41 14 -11 14 -15 1 -29 -13 -15 -15 -125 -15 -839 l0 -822 2885 0 c2747 0 2886 1 2873 18 -26 33 -46 50 -70 57 -66 20 -130 56 -127 71 2 11 -31 36 -112 81 -211 119 -281 151 -321 146 -25 -3 -41 0 -53 12 -21 21 -131 41 -236 44 -41 1 -86 4 -100 7 -21 4 -19 1 10 -15 l35 -20 -55 -1 -55 -1 50 -25 50 -25 -40 6 c-22 3 -67 10 -100 16 -33 5 -74 11 -90 14 -17 2 -62 11 -102 19 -55 12 -79 13 -103 4 -36 -12 -127 -4 -158 15 -8 6 -9 14 -3 26 15 28 -2 41 -70 52 -88 15 -101 32 -21 27 52 -2 62 0 62 14 0 14 13 16 92 17 l92 0 33 -35 c36 -39 69 -47 233 -59 47 -3 121 -10 165 -15 44 -5 127 -11 185 -14 95 -5 103 -4 80 9 -14 8 -79 32 -145 54 -156 52 -193 65 -202 76 -10 10 -9 9 199 -62 155 -54 169 -57 201 -45 27 10 41 10 61 1 21 -10 29 -9 43 3 42 36 163 117 163 109 0 -6 -38 -35 -85 -65 -79 -52 -106 -79 -92 -92 3 -3 27 -12 54 -19 47 -13 47 -13 13 -15 l-35 -1 50 -25 c28 -15 61 -37 74 -51 12 -13 29 -22 36 -19 8 3 19 -2 25 -10 7 -8 19 -14 27 -14 14 0 113 -40 193 -77 19 -9 38 -16 41 -15 3 0 31 -9 62 -22 50 -20 63 -21 107 -12 43 9 56 8 78 -7 59 -37 70 -40 126 -33 31 4 54 11 52 15 -3 4 0 8 7 8 7 0 84 17 172 36 88 20 198 44 245 53 47 10 87 22 88 26 2 4 9 8 17 8 7 0 18 7 26 16 9 11 22 14 46 9 20 -4 43 0 61 9 16 8 80 36 141 61 61 24 154 65 206 90 53 25 97 45 99 45 12 0 77 32 73 36 -6 7 -103 22 -252 39 -156 19 -185 35 -55 31 51 -2 95 -8 99 -13 3 -5 53 -16 110 -23 79 -10 107 -11 122 -2 18 12 49 7 49 -8 0 -11 46 -27 115 -40 132 -24 405 -84 401 -87 -2 -2 -117 19 -256 46 -139 28 -254 51 -256 51 -2 0 -4 -7 -4 -15 0 -8 44 -61 98 -117 54 -57 111 -118 127 -135 22 -26 36 -33 65 -33 24 0 43 -7 55 -20 23 -25 35 -25 290 4 116 14 260 30 320 36 162 17 240 31 224 41 -10 6 -5 8 13 6 15 -1 28 2 28 6 1 5 -57 69 -129 142 -118 120 -150 165 -121 165 5 0 7 -6 4 -13 -2 -7 53 -73 129 -153 116 -120 136 -137 150 -126 12 11 23 11 56 1 39 -12 43 -10 203 66 90 42 207 98 261 123 53 26 96 51 94 57 -2 5 -21 16 -43 23 l-39 12 35 -4 c19 -2 44 -8 54 -12 16 -6 18 -4 13 9 -8 22 1 22 25 0 15 -13 23 -14 44 -5 13 7 37 11 52 11 21 -1 18 -4 -15 -12 -24 -5 -43 -14 -43 -18 0 -5 3 -9 8 -9 4 0 39 -7 77 -15 39 -9 82 -13 97 -9 23 4 27 3 22 -10 -7 -17 -78 -23 -88 -7 -10 16 -135 35 -149 22 -9 -6 -17 -7 -23 -1 -6 6 -89 -30 -222 -95 -116 -57 -212 -106 -212 -108 0 -7 97 13 162 34 83 26 96 23 23 -6 l-60 -24 40 -2 c35 -1 32 -3 -22 -10 -112 -16 -114 -27 -3 -22 58 3 103 3 100 1 -4 -5 -139 -21 -265 -33 -122 -11 -135 -27 -135 -160 l0 -95 1679 0 c1645 0 1680 0 1686 19 7 23 62 67 110 87 76 31 160 10 227 -58 44 -45 50 -48 97 -48 l51 0 0 744 c0 701 -1 745 -17 749 -17 4 -17 5 0 6 13 1 17 10 17 46 0 25 -3 45 -7 45 -18 0 -362 -95 -358 -99 3 -2 19 -4 37 -3 23 1 28 -2 18 -8 -8 -6 -25 -10 -37 -10 -32 0 -53 -10 -53 -25 0 -15 12 -19 75 -30 21 -4 52 -13 67 -21 15 -8 37 -14 49 -14 12 0 19 -3 16 -6 -8 -9 -127 16 -127 26 0 4 -28 6 -62 4 -35 -3 -89 -6 -121 -7 -57 -3 -58 -3 -135 -78 -84 -82 -225 -205 -203 -176 7 9 11 17 7 17 -17 0 67 85 154 155 36 29 76 65 90 80 l25 27 -35 -7 c-19 -3 -136 -29 -259 -56 -122 -27 -227 -49 -232 -49 -5 0 -9 8 -9 18 0 16 32 28 194 73 107 30 192 57 188 61 -4 3 -18 8 -32 11 -14 2 7 5 47 6 81 1 113 11 156 47 25 21 36 24 69 19 l40 -7 166 168 c177 178 183 190 80 160 -60 -17 -78 -14 -21 4 21 7 47 17 58 23 19 10 19 10 0 19 -15 6 -11 7 13 3 17 -2 32 0 32 5 0 6 -1 10 -2 10 -2 0 -48 16 -103 34 -124 43 -103 46 31 6 118 -36 124 -36 158 -9 48 37 35 56 -46 68 -40 7 -113 18 -163 26 -49 8 -101 16 -115 18 -15 3 -10 5 15 6 30 0 205 -22 301 -40 33 -6 34 0 34 231 l0 230 -37 1 c-21 1 -42 0 -48 -2 -21 -7 -211 -4 -221 3 -6 4 -44 8 -86 9 -66 1 -80 -2 -114 -25 -44 -30 -76 -33 -118 -11 -16 9 -40 16 -53 17 -12 1 -23 3 -23 4 0 2 14 17 30 36 17 18 39 43 50 55 13 15 30 23 52 23 39 0 47 -5 76 -47 14 -19 30 -31 42 -30 11 1 20 4 20 8 0 8 73 24 159 35 32 4 63 14 75 26 34 32 63 33 106 4 22 -14 51 -26 65 -26 l25 0 0 163 0 163 -35 13 c-19 7 -47 22 -63 35 -15 12 -44 30 -64 40 -21 9 -38 20 -38 24 0 12 51 39 87 47 18 3 36 11 39 17 4 5 22 16 40 24 l34 14 0 110 c0 109 0 110 -22 105 -13 -3 -45 -1 -73 3 -27 4 -78 4 -113 -1 -56 -7 -68 -13 -106 -51 -23 -24 -53 -47 -67 -51 -13 -4 -43 -19 -66 -32 -58 -33 -135 -34 -192 -2 -22 12 -41 26 -41 30 0 5 -16 11 -35 15 -32 6 -34 9 -28 33 13 53 81 134 137 163 52 27 140 17 292 -32 18 -6 49 -12 71 -14 l38 -4 1 56 c0 107 56 165 152 160 l52 -3 0 841 c0 723 -2 843 -15 860 -19 25 -19 58 0 74 13 11 15 187 15 1476 l0 1464 -6240 0 -6240 0 0 -1919z m4290 1344 c116 -23 191 -133 176 -259 -17 -129 -156 -221 -282 -187 -48 13 -115 73 -144 128 -45 88 -12 236 64 283 33 21 120 49 136 45 8 -2 31 -7 50 -10z m5880 -85 c0 -5 -4 -10 -10 -10 -5 0 -10 5 -10 10 0 6 5 10 10 10 6 0 10 -4 10 -10z m-7843 -190 c352 -48 665 -268 830 -585 58 -112 91 -215 111 -353 72 -488 -208 -970 -673 -1158 -135 -54 -244 -74 -415 -74 -154 0 -228 13 -370 64 -85 31 -213 101 -287 159 -84 65 -202 191 -254 272 -47 72 -129 243 -129 267 0 8 -4 18 -9 24 -5 5 -17 62 -26 128 -37 245 13 510 133 711 234 392 655 603 1089 545z m3842 -242 c14 -24 14 -28 -3 -47 -23 -25 -43 -27 -68 -4 -22 20 -23 46 -2 68 23 22 56 15 73 -17z m5513 -552 c12 -17 -12 -46 -37 -46 -21 0 -25 5 -25 29 0 16 6 31 13 34 15 5 40 -3 49 -17z m-6003 -215 c12 -21 -7 -35 -34 -25 -18 7 -20 30 -2 37 21 9 26 7 36 -12z m1221 -656 c6 -8 10 -20 7 -27 -4 -8 -6 -7 -6 4 -1 9 -9 22 -18 27 -10 6 -13 11 -7 11 6 0 17 -7 24 -15z m-833 -27 c-3 -8 -6 -5 -6 6 -1 11 2 17 5 13 3 -3 4 -12 1 -19z m121 -21 c6 3 12 -3 12 -12 0 -9 -6 -15 -12 -12 -7 2 -23 0 -36 -4 -27 -11 -41 13 -22 36 11 13 15 14 29 2 9 -8 22 -12 29 -10z m103 1 c49 3 50 3 39 -17 -10 -21 -30 -29 -30 -13 0 4 -16 6 -35 4 -25 -3 -35 0 -35 9 0 11 -2 11 -10 -1 -5 -8 -10 -10 -10 -4 0 14 24 37 28 26 1 -5 25 -7 53 -4z m-198 -582 l22 -18 -25 14 -25 15 0 289 0 289 2 -285 c3 -281 4 -285 26 -304z m210 512 c-2 -5 -44 -8 -94 -8 -49 0 -89 3 -89 8 0 4 42 7 94 7 52 0 92 -3 89 -7z m67 0 c0 -4 -12 -8 -27 -8 -19 0 -24 3 -15 8 17 11 42 11 42 0z m-487 -25 c-7 -2 -21 -2 -30 0 -10 3 -4 5 12 5 17 0 24 -2 18 -5z m377 -3 c0 -6 -30 -9 -72 -8 l-73 2 70 6 c39 4 71 7 73 8 1 1 2 -2 2 -8z m-363 -26 c2 -7 -6 -10 -22 -6 -14 2 -58 -3 -98 -12 -119 -28 -200 -45 -242 -51 -22 -3 -326 -62 -675 -132 -411 -81 -641 -131 -653 -141 -16 -14 -17 -30 -13 -166 3 -83 10 -326 16 -541 18 -668 23 -756 42 -768 20 -13 112 7 268 58 205 66 430 129 437 121 3 -3 -16 -10 -42 -17 -34 -9 -43 -14 -33 -21 9 -7 8 -8 -5 -4 -33 11 -493 -125 -466 -138 8 -3 4 -3 -8 0 -13 3 -23 1 -23 -5 0 -11 64 -42 147 -71 100 -36 97 -24 48 -152 -24 -62 -48 -114 -53 -116 -11 -3 -210 75 -226 89 -6 5 8 56 33 125 23 64 40 118 37 121 -3 3 -30 -1 -60 -10 -92 -26 -86 -53 -96 428 -6 231 -14 512 -20 625 -14 303 -13 435 4 453 8 8 43 19 78 26 35 6 117 23 183 36 133 28 473 96 750 151 229 45 512 102 590 119 69 15 97 15 102 -1z m673 -139 c0 -162 2 -155 -42 -159 -10 -1 -14 39 -18 157 l-5 157 33 0 32 0 0 -155z m-843 139 c-3 -3 -12 -4 -19 -1 -8 3 -5 6 6 6 11 1 17 -2 13 -5z m-40 -10 c-3 -3 -12 -4 -19 -1 -8 3 -5 6 6 6 11 1 17 -2 13 -5z m-60 -10 c-3 -3 -12 -4 -19 -1 -8 3 -5 6 6 6 11 1 17 -2 13 -5z m1578 -53 c77 -17 194 -42 260 -56 119 -26 369 -79 700 -149 227 -48 228 -49 240 -72 6 -12 8 -77 5 -165 l-5 -144 -5 129 -5 129 -110 23 c-60 13 -173 37 -250 54 -77 17 -192 41 -255 55 -63 13 -146 31 -185 40 -259 59 -494 111 -542 119 l-32 5 -4 -52 c-2 -38 -4 -30 -5 31 l-2 82 28 0 c15 0 90 -13 167 -29z m-1788 13 c-3 -3 -12 -4 -19 -1 -8 3 -5 6 6 6 11 1 17 -2 13 -5z m-50 -10 c-3 -3 -12 -4 -19 -1 -8 3 -5 6 6 6 11 1 17 -2 13 -5z m1293 -114 c0 -81 -3 -110 -12 -111 -7 0 -21 -2 -30 -4 -16 -3 -18 8 -18 111 l0 114 30 0 30 0 0 -110z m-180 -11 l0 -99 -35 0 -35 0 0 99 0 100 28 3 c15 2 30 2 35 0 4 -2 7 -48 7 -103z m642 28 c7 -7 21 -16 31 -20 9 -3 17 -13 17 -21 0 -13 -4 -13 -34 -1 -18 8 -36 11 -40 8 -3 -4 -6 6 -6 20 0 29 11 34 32 14z m-746 -10 c3 -3 8 -30 11 -61 l6 -56 -37 0 -36 0 0 64 c0 63 1 64 25 61 14 -1 28 -5 31 -8z m374 -57 l0 -60 -30 0 -30 0 0 60 0 60 30 0 30 0 0 -60z m446 13 c-11 -11 -19 6 -11 24 8 17 8 17 12 0 3 -10 2 -21 -1 -24z m27 2 c-7 -21 -13 -19 -13 6 0 11 4 18 10 14 5 -3 7 -12 3 -20z m37 6 c0 -22 -16 -36 -24 -22 -8 12 3 41 15 41 5 0 9 -9 9 -19z m-1506 -5 c-10 -8 -21 -12 -24 -10 -5 6 21 24 34 24 6 0 1 -6 -10 -14z m-1187 -12 c-3 -3 -12 -4 -19 -1 -8 3 -5 6 6 6 11 1 17 -2 13 -5z m-50 -10 c-3 -3 -12 -4 -19 -1 -8 3 -5 6 6 6 11 1 17 -2 13 -5z m960 -41 c-3 -10 -5 -2 -5 17 0 19 2 27 5 18 2 -10 2 -26 0 -35z m143 38 c0 -5 -23 -14 -50 -20 -62 -13 -60 -13 -60 -2 0 5 24 14 53 19 28 5 53 10 55 11 1 0 2 -3 2 -8z m140 6 c0 -2 -17 -19 -37 -38 l-38 -34 34 38 c33 34 41 42 41 34z m530 -26 c0 -23 -5 -30 -25 -33 -30 -6 -35 -2 -35 34 0 24 4 28 30 28 26 0 30 -3 30 -29z m-1823 13 c-3 -3 -12 -4 -19 -1 -8 3 -5 6 6 6 11 1 17 -2 13 -5z m-40 -10 c-3 -3 -12 -4 -19 -1 -8 3 -5 6 6 6 11 1 17 -2 13 -5z m-54 -11 c-7 -2 -19 -2 -25 0 -7 3 -2 5 12 5 14 0 19 -2 13 -5z m2807 -3 c0 -5 -2 -10 -4 -10 -3 0 -8 5 -11 10 -3 6 -1 10 4 10 6 0 11 -4 11 -10z m-2857 -7 c-7 -2 -19 -2 -25 0 -7 3 -2 5 12 5 14 0 19 -2 13 -5z m-50 -10 c-7 -2 -19 -2 -25 0 -7 3 -2 5 12 5 14 0 19 -2 13 -5z m-72 -14 c-13 -5 -30 -17 -37 -27 -8 -9 -14 -12 -14 -5 0 15 39 43 60 42 8 0 4 -5 -9 -10z m2695 -146 c-3 -7 -11 -13 -18 -12 -10 0 -10 2 0 6 8 3 13 31 14 81 l2 77 3 -69 c2 -38 2 -75 -1 -83z m-1212 126 c-3 -6 7 -24 22 -41 l29 -31 -27 18 c-16 9 -28 22 -28 28 0 6 -11 0 -26 -13 -27 -26 -29 -25 -55 25 -6 11 1 7 14 -8 l24 -29 22 31 c21 29 41 45 25 20z m1503 -7 c40 -10 78 -23 84 -29 5 -5 9 -30 7 -54 -4 -51 -8 -52 -120 -16 l-68 21 0 48 c0 55 -3 54 97 30z m-1710 -144 c-2 -29 -3 -6 -3 52 0 58 1 81 3 53 2 -29 2 -77 0 -105z m310 120 c2 -27 -14 -48 -35 -48 -12 0 -11 4 6 16 16 11 21 22 17 35 -4 10 -3 19 2 19 5 0 9 -10 10 -22z m503 12 c0 -5 -16 -10 -35 -10 -19 0 -35 5 -35 10 0 6 16 10 35 10 19 0 35 -4 35 -10z m90 2 c0 -5 -13 -7 -30 -4 -16 2 -30 6 -30 8 0 2 14 4 30 4 17 0 30 -4 30 -8z m97 -6 c3 -3 -10 -6 -30 -6 -20 0 -37 4 -37 9 0 10 57 8 67 -3z m93 4 c0 -5 -16 -9 -35 -8 -19 1 -35 5 -35 10 0 4 16 8 35 8 19 0 35 -4 35 -10z m90 0 c0 -5 -14 -10 -31 -10 -17 0 -28 4 -24 10 3 6 17 10 31 10 13 0 24 -4 24 -10z m80 1 c0 -5 -9 -7 -20 -4 -11 3 -20 7 -20 9 0 2 9 4 20 4 11 0 20 -4 20 -9z m730 -1 c0 -5 -4 -10 -10 -10 -5 0 -10 5 -10 10 0 6 5 10 10 10 6 0 10 -4 10 -10z m91 -28 c-7 -2 -18 1 -23 6 -8 8 -4 9 13 5 13 -4 18 -8 10 -11z m-971 -6 c8 -2 -9 -4 -37 -5 -29 0 -53 3 -53 7 0 7 52 6 90 -2z m-270 -6 c0 -5 -18 -10 -39 -10 -22 0 -43 5 -46 10 -4 6 12 10 39 10 25 0 46 -4 46 -10z m148 3 c-10 -2 -28 -2 -40 0 -13 2 -5 4 17 4 22 1 32 -1 23 -4z m272 3 c0 -2 -18 -6 -40 -8 -22 -2 -40 0 -40 4 0 5 18 8 40 8 22 0 40 -2 40 -4z m900 -6 c0 -5 -4 -10 -9 -10 -6 0 -13 5 -16 10 -3 6 1 10 9 10 9 0 16 -4 16 -10z m-3135 -48 c-6 -15 -8 -15 -15 3 -8 18 -9 18 -9 2 -1 -25 -26 -16 -26 9 0 12 6 18 18 18 9 -1 17 3 17 10 0 6 5 3 11 -7 6 -10 8 -26 4 -35z m33 24 c2 -10 0 -22 -6 -28 -6 -6 -11 1 -14 22 -5 32 14 38 20 6z m34 12 c-5 -7 -12 -22 -14 -33 -3 -14 -6 -11 -9 13 -5 27 -2 32 14 32 14 0 17 -3 9 -12z m3108 2 c0 -5 -2 -10 -4 -10 -3 0 -8 5 -11 10 -3 6 -1 10 4 10 6 0 11 -4 11 -10z m98 -12 c6 -1 12 -6 12 -11 0 -11 -68 0 -90 15 -10 6 -3 7 25 3 22 -4 46 -7 53 -7z m-3621 -80 c-2 -18 -4 -6 -4 27 0 33 2 48 4 33 2 -15 2 -42 0 -60z m208 61 c6 -19 8 -19 19 -3 12 16 13 15 18 -4 6 -21 -15 -38 -33 -26 -6 3 -16 0 -24 -6 -8 -6 -19 -9 -25 -5 -11 7 -14 48 -3 58 14 14 42 6 48 -14z m3065 11 c20 -6 21 -8 5 -8 -11 0 -29 3 -40 8 -25 11 1 11 35 0z m-2992 -12 c16 -16 15 -28 -3 -28 -8 0 -15 2 -15 4 0 2 -3 11 -6 20 -7 19 7 21 24 4z m807 -17 c20 -11 36 -33 50 -69 18 -46 23 -52 48 -52 41 0 87 -51 87 -96 0 -28 4 -34 23 -35 l22 0 -22 -9 c-16 -6 -23 -18 -23 -35 0 -32 -14 -61 -47 -96 -32 -35 -29 -80 7 -91 23 -6 23 -7 -5 -5 -26 2 -30 6 -33 35 -3 34 -9 36 -61 26 -19 -4 -31 -13 -31 -23 0 -12 -2 -13 -8 -3 -7 10 -19 10 -60 1 l-52 -12 -2 -121 -2 -121 -3 119 -4 118 -25 -6 c-15 -4 -39 -10 -55 -13 l-29 -5 0 -109 c0 -100 -2 -109 -22 -123 -12 -9 -29 -16 -38 -15 -8 0 0 7 18 15 l32 14 0 105 c0 58 -4 105 -8 105 -5 0 -31 -7 -58 -15 -77 -23 -108 -20 -138 16 -14 17 -27 43 -28 57 0 15 -2 34 -2 42 -1 10 -10 14 -26 13 -25 -2 -25 -2 3 9 15 7 27 18 27 25 0 20 60 83 86 89 18 5 24 13 24 34 0 36 43 87 80 97 21 6 36 22 57 63 48 93 132 120 218 71z m2660 -82 c325 -82 388 -99 359 -99 -9 0 -688 167 -769 189 l-40 11 45 -6 c25 -2 207 -45 405 -95z m-3105 80 c0 -5 -12 -9 -26 -9 -14 0 -23 4 -20 8 7 11 46 12 46 1z m-70 -8 c0 -5 -11 -11 -25 -13 -14 -3 -25 -3 -25 -1 0 3 34 19 48 22 1 1 2 -3 2 -8z m2473 -17 l67 -17 0 -53 c0 -63 1 -63 -104 -36 -63 16 -71 21 -78 47 -4 17 -5 43 -2 58 5 24 10 28 27 23 12 -3 52 -13 90 -22z m-575 9 c-10 -2 -28 -2 -40 0 -13 2 -5 4 17 4 22 1 32 -1 23 -4z m-1958 -7 c0 -3 -4 -8 -10 -11 -5 -3 -10 -1 -10 4 0 6 5 11 10 11 6 0 10 -2 10 -4z m1010 -5 c0 -5 -29 -16 -65 -25 -104 -26 -116 -19 -24 14 59 21 89 25 89 11z m1343 -550 c11 -14 10 -14 -5 -2 -17 12 -18 37 -16 290 l3 276 2 -274 c3 -199 7 -279 16 -290z m-2386 543 c-3 -3 -12 -4 -19 -1 -8 3 -5 6 6 6 11 1 17 -2 13 -5z m-57 -8 c0 -3 -4 -8 -10 -11 -5 -3 -10 -1 -10 4 0 6 5 11 10 11 6 0 10 -2 10 -4z m145 -6 c-3 -5 -11 -10 -16 -10 -6 0 -7 5 -4 10 3 6 11 10 16 10 6 0 7 -4 4 -10z m35 6 c0 -3 -4 -8 -10 -11 -5 -3 -10 -1 -10 4 0 6 5 11 10 11 6 0 10 -2 10 -4z m-70 -16 c0 -5 -5 -10 -11 -10 -5 0 -7 5 -4 10 3 6 8 10 11 10 2 0 4 -4 4 -10z m-200 -10 c-14 -4 -34 -8 -45 -8 l-20 -1 20 9 c11 5 31 8 45 8 l25 0 -25 -8z m170 2 c0 -5 -6 -9 -12 -9 -7 0 -33 -3 -58 -6 l-45 -6 50 14 c63 17 65 17 65 7z m2960 -50 c14 -6 21 -11 16 -11 -17 -2 -241 53 -250 60 -10 9 199 -35 234 -49z m-3230 28 c0 -5 -5 -10 -11 -10 -5 0 -7 5 -4 10 3 6 8 10 11 10 2 0 4 -4 4 -10z m150 2 c0 -5 -33 -16 -72 -25 -40 -9 -90 -21 -110 -26 -21 -5 -38 -6 -38 -2 0 3 49 18 108 33 59 14 108 27 110 27 1 1 2 -3 2 -7z m-190 -6 c0 -2 -7 -6 -15 -10 -8 -3 -15 -1 -15 4 0 6 7 10 15 10 8 0 15 -2 15 -4z m305 -6 c-3 -5 -16 -10 -28 -9 -21 0 -21 1 -2 9 28 12 37 12 30 0z m2990 -72 c132 -32 256 -63 275 -68 19 -5 70 -17 113 -26 45 -10 77 -23 77 -30 0 -7 -8 -10 -17 -8 -454 104 -723 175 -723 192 0 10 6 12 18 7 9 -4 125 -34 257 -67z m-3075 50 c-14 -6 -38 -13 -55 -14 -26 -3 -24 -1 10 10 48 17 80 19 45 4z m947 -4 c-3 -3 -12 -4 -19 -1 -8 3 -5 6 6 6 11 1 17 -2 13 -5z m1303 -22 c63 -31 78 -99 34 -151 -14 -17 -32 -31 -40 -31 -8 0 -33 -18 -55 -40 -48 -46 -63 -51 -49 -14 16 41 13 47 -21 40 -134 -27 -206 132 -88 195 47 25 171 26 219 1z m965 -11 c89 -19 407 -97 434 -107 8 -2 12 -7 9 -9 -3 -3 -67 11 -144 31 -76 20 -195 49 -264 64 -69 16 -136 33 -150 39 l-25 12 25 -6 c14 -3 66 -14 115 -24z m-590 -4 l70 -23 3 -43 c2 -24 0 -47 -5 -51 -12 -12 -156 28 -170 47 -7 9 -13 34 -13 55 0 46 11 48 115 15z m-2776 3 c-23 -13 -99 -29 -99 -21 0 4 21 12 48 18 63 14 70 14 51 3z m120 -4 c-10 -10 -79 -24 -79 -16 0 5 8 11 18 13 22 6 67 8 61 3z m2977 -36 c199 -52 338 -91 343 -96 16 -15 -21 -11 -125 16 -278 70 -310 79 -336 89 -16 6 -28 16 -28 22 0 6 7 8 17 4 10 -3 68 -19 129 -35z m-3111 0 c-11 -5 -29 -9 -40 -9 -17 -1 -17 1 -5 9 8 5 26 9 40 9 23 0 23 -1 5 -9z m1266 -10 c10 -6 19 -18 19 -28 0 -13 -3 -12 -16 7 -14 19 -22 22 -53 17 -26 -4 -30 -3 -16 4 27 12 43 12 66 0z m-94 -16 c-3 -3 -12 -4 -19 -1 -8 3 -5 6 6 6 11 1 17 -2 13 -5z m2052 -59 c15 -16 -20 -13 -120 10 -137 31 -142 32 -135 44 5 8 243 -43 255 -54z m1142 6 c134 -33 256 -64 272 -70 l27 -11 -2 -127 -2 -128 -3 107 -4 107 -32 9 c-18 5 -143 35 -279 68 -233 55 -248 60 -248 82 0 12 6 22 14 22 7 0 123 -27 257 -59z m-3264 33 c-3 -3 -12 -4 -19 -1 -8 3 -5 6 6 6 11 1 17 -2 13 -5z m1678 -47 l80 -23 3 -43 c5 -72 4 -72 -95 -42 -81 26 -88 30 -91 56 -4 32 5 75 16 75 4 0 43 -11 87 -23z m293 -7 c40 -11 70 -25 68 -29 -8 -12 -169 32 -174 48 -3 9 2 11 14 8 11 -3 52 -15 92 -27z m919 -122 c-2 -29 -3 -6 -3 52 0 58 1 81 3 53 2 -29 2 -77 0 -105z m-2702 132 c-3 -5 -11 -10 -16 -10 -6 0 -7 5 -4 10 3 6 11 10 16 10 6 0 7 -4 4 -10z m2937 -41 c39 -11 68 -22 66 -24 -5 -6 -127 23 -147 35 -28 16 6 12 81 -11z m-32 -24 c19 -7 28 -13 20 -13 -8 0 -31 6 -50 13 -19 7 -28 13 -20 13 8 0 31 -6 50 -13z m-1265 -5 c3 -5 1 -10 -4 -10 -6 0 -11 5 -11 10 0 6 2 10 4 10 3 0 8 -4 11 -10z m-6881 -14 c50 -21 114 -83 125 -121 9 -33 1 -97 -17 -146 -24 -61 -126 -109 -231 -109 -57 0 -131 31 -168 72 -24 26 -47 115 -32 124 5 3 9 14 9 24 0 10 18 42 41 70 69 87 184 123 273 86z m5296 6 c0 -5 -25 -16 -56 -26 -31 -10 -54 -19 -52 -22 3 -2 27 3 54 11 58 18 54 17 54 6 0 -4 -21 -14 -46 -21 -25 -7 -52 -20 -60 -28 -14 -13 -15 -10 -12 29 3 48 -3 44 106 57 6 1 12 -2 12 -6z m1715 -18 c17 -8 52 -18 78 -23 26 -5 51 -11 54 -15 13 -12 -4 -15 -38 -6 -141 38 -189 54 -189 62 0 12 53 1 95 -18z m1323 11 c13 -13 -7 -13 -43 1 l-40 15 39 -5 c21 -3 41 -8 44 -11z m-2508 -15 c0 -5 -4 -10 -10 -10 -5 0 -10 5 -10 10 0 6 5 10 10 10 6 0 10 -4 10 -10z m61 -7 c1 -10 1 -22 0 -27 -1 -5 3 -12 10 -16 8 -6 5 -14 -9 -28 l-20 -20 21 -6 c12 -3 32 -6 45 -6 31 0 82 -52 82 -84 0 -42 -39 -77 -94 -83 -27 -3 -50 -12 -53 -20 -3 -8 -9 -10 -17 -5 -6 5 -32 12 -57 16 -51 8 -83 34 -94 78 -6 23 -1 34 28 63 21 21 45 35 60 35 23 0 25 3 22 43 -3 38 0 43 28 59 41 22 47 22 48 1z m2346 11 c-3 -3 -12 -4 -19 -1 -8 3 -5 6 6 6 11 1 17 -2 13 -5z m-4194 -30 c-17 -13 -17 -14 1 -7 13 4 17 3 12 -5 -8 -13 -112 -36 -132 -28 -16 6 -19 36 -4 36 6 0 10 -7 10 -15 0 -18 2 -18 51 -3 22 6 39 15 39 20 0 5 -5 6 -10 3 -15 -9 -74 -16 -66 -7 10 9 99 29 109 24 5 -2 0 -10 -10 -18z m4105 16 c6 0 12 -11 12 -24 0 -23 -2 -24 -35 -13 -24 7 -35 16 -35 30 0 15 5 18 23 13 12 -3 28 -6 35 -6z m-3958 -15 c0 -8 -9 -15 -20 -15 -20 0 -26 11 -13 23 12 13 33 7 33 -8z m2540 -13 l85 -29 3 -51 c3 -51 3 -52 -25 -51 -15 0 -57 10 -93 22 l-65 22 -3 58 c-2 31 1 57 5 57 5 0 47 -13 93 -28z m1546 9 c17 -11 17 -11 -5 -5 -15 4 -21 2 -17 -4 4 -6 -2 -8 -14 -5 -11 3 -20 9 -20 13 0 5 -8 11 -17 13 -10 3 -2 4 18 3 19 -2 44 -8 55 -15z m274 -1 c12 -8 11 -10 -7 -10 -13 0 -23 5 -23 10 0 13 11 13 30 0z m-1351 -19 c7 -5 9 -11 4 -14 -4 -3 -17 1 -28 9 -21 16 0 20 24 5z m1165 1 c2 -4 -11 -6 -30 -4 -19 2 -34 6 -34 8 0 8 59 4 64 -4z m-4637 -154 c-2 -29 -3 -6 -3 52 0 58 1 81 3 53 2 -29 2 -77 0 -105z m3359 128 c38 -14 64 -25 58 -25 -5 -1 -41 10 -80 23 -38 14 -64 25 -58 25 5 1 41 -10 80 -23z m1043 13 c24 -8 31 -17 31 -36 0 -21 -4 -24 -22 -19 -13 3 -28 6 -34 6 -6 0 -11 14 -12 30 0 17 1 30 2 30 2 0 17 -5 35 -11z m184 -9 c4 -4 -13 -4 -38 0 -25 4 -48 9 -51 13 -8 8 80 -4 89 -13z m-4253 1 c0 -5 -24 -14 -52 -21 -29 -6 -62 -14 -73 -16 l-20 -5 20 12 c11 7 43 18 70 25 28 7 51 13 53 13 1 1 2 -3 2 -8z m1014 -6 c3 -8 1 -15 -4 -15 -6 0 -10 5 -10 11 0 8 -11 9 -32 5 -24 -4 -29 -3 -18 4 23 15 57 12 64 -5z m3172 -13 c-10 -2 -22 0 -28 6 -6 6 0 7 19 4 21 -5 23 -7 9 -10z m321 2 c-3 -3 -12 -4 -19 -1 -8 3 -5 6 6 6 11 1 17 -2 13 -5z m-1494 -45 c65 -19 114 -35 109 -37 -11 -3 -252 65 -261 74 -7 7 -6 7 152 -37z m1162 21 c3 -5 -4 -6 -15 -3 -11 3 -22 9 -25 13 -3 5 4 6 15 3 11 -3 22 -9 25 -13z m95 10 c13 -9 13 -10 0 -10 -8 0 -22 5 -30 10 -13 9 -13 10 0 10 8 0 22 -5 30 -10z m-1143 -6 c-3 -3 -12 -4 -19 -1 -8 3 -5 6 6 6 11 1 17 -2 13 -5z m-943 -12 c2 -4 -4 -9 -15 -9 -11 -1 -17 2 -14 8 7 11 22 12 29 1z m983 2 c-3 -3 -12 -4 -19 -1 -8 3 -5 6 6 6 11 1 17 -2 13 -5z m1123 -15 c16 -5 6 -6 -25 -2 -27 3 -57 10 -65 14 -17 10 48 1 90 -12z m27 15 c-3 -3 -12 -4 -19 -1 -8 3 -5 6 6 6 11 1 17 -2 13 -5z m73 -4 c11 -8 7 -9 -15 -4 -37 8 -45 14 -19 14 10 0 26 -5 34 -10z m-1447 -21 c45 -11 88 -25 97 -31 12 -8 11 -8 -4 -4 -10 4 -51 14 -90 22 -64 15 -114 33 -93 34 5 0 45 -9 90 -21z m392 -14 c124 -32 249 -73 232 -74 -4 -1 -69 17 -145 38 -75 22 -162 46 -192 55 -30 8 -48 15 -40 15 8 1 74 -15 145 -34z m838 18 c-7 -2 -21 -2 -30 0 -10 3 -4 5 12 5 17 0 24 -2 18 -5z m93 -20 c-7 -7 -65 7 -71 17 -3 4 13 3 35 -2 23 -6 39 -13 36 -15z m-3126 7 c-14 -4 -32 -8 -40 -9 -13 -1 -13 0 0 9 8 5 26 9 40 9 l25 -1 -25 -8z m54 -6 c3 -9 2 -23 -4 -32 -8 -14 -10 -14 -10 -2 -1 8 -3 23 -5 33 -4 21 11 23 19 1z m942 -19 c18 -25 25 -43 22 -62 -8 -43 -12 -57 -22 -64 -4 -4 4 -6 18 -6 14 0 26 3 26 8 0 5 5 9 10 9 6 0 10 -25 10 -55 0 -30 2 -55 4 -55 3 0 16 4 30 10 19 7 29 6 41 -6 8 -9 15 -19 15 -24 0 -5 20 -21 45 -36 51 -29 55 -46 30 -128 -8 -26 -16 -66 -17 -87 -2 -21 -7 -37 -13 -36 -11 4 -11 20 -2 139 5 61 3 79 -9 89 -11 9 -18 9 -26 1 -14 -14 -38 -83 -33 -92 3 -4 -7 -18 -20 -30 -14 -13 -25 -30 -25 -38 0 -12 -4 -11 -21 4 -12 10 -23 14 -27 9 -11 -15 -32 -20 -102 -21 -93 -2 -100 -3 -100 -15 0 -7 11 -8 30 -4 17 4 63 1 102 -5 l72 -12 -110 -38 c-60 -21 -123 -43 -140 -51 -27 -11 -37 -10 -68 5 -20 10 -52 20 -70 23 -32 5 -33 4 -29 -21 6 -31 5 -32 -51 -4 -30 14 -44 27 -43 40 1 21 8 23 25 6 9 -9 15 -9 24 0 9 9 8 12 -5 12 -9 0 -17 4 -17 9 0 14 28 21 34 8 7 -13 -2 58 -10 85 -3 9 -17 21 -32 26 -15 6 -34 13 -43 17 -11 4 -19 0 -23 -11 -5 -12 -2 -15 9 -10 9 3 13 2 10 -4 -3 -6 -13 -10 -21 -10 -8 0 -13 -4 -9 -9 3 -6 -3 -14 -12 -20 -10 -6 -13 -11 -7 -11 26 0 19 -42 -21 -118 -39 -77 -43 -81 -61 -67 -10 8 -14 15 -7 15 19 0 26 65 12 119 -12 47 -11 50 14 81 15 17 27 28 27 23 1 -4 10 3 20 16 18 21 20 21 20 5 0 -14 2 -16 9 -6 4 7 6 24 3 38 -3 19 -7 22 -17 14 -10 -8 -23 -6 -51 8 l-37 19 48 7 c27 3 51 3 54 -1 3 -5 47 -22 96 -39 50 -17 97 -34 105 -37 10 -5 43 17 98 64 61 52 90 84 110 125 17 36 34 57 49 60 13 4 23 12 23 20 0 8 5 14 10 14 6 0 10 5 10 11 0 6 -6 9 -14 6 -24 -10 -27 18 -10 101 6 32 29 27 60 -13z m2251 29 c-3 -3 -12 -4 -19 -1 -8 3 -5 6 6 6 11 1 17 -2 13 -5z m47 -3 c4 -5 -3 -7 -14 -4 -23 6 -26 13 -6 13 8 0 17 -4 20 -9z m-3374 -13 l25 2 -24 -10 c-27 -12 -51 -7 -51 10 0 6 5 8 13 3 6 -4 23 -6 37 -5z m1903 -18 c4 0 7 -4 7 -9 0 -4 -25 -1 -55 8 -30 9 -55 19 -55 23 0 4 21 1 48 -7 26 -8 50 -15 55 -15z m1105 24 c12 -4 22 -14 22 -25 0 -16 -4 -17 -30 -8 -16 6 -30 17 -30 25 0 16 5 16 38 8z m239 -10 c-3 -3 -12 -4 -19 -1 -8 3 -5 6 6 6 11 1 17 -2 13 -5z m-130 -10 c-3 -3 -12 -4 -19 -1 -8 3 -5 6 6 6 11 1 17 -2 13 -5z m88 -4 c3 -6 -1 -7 -9 -4 -18 7 -21 14 -7 14 6 0 13 -4 16 -10z m180 0 c25 -11 -1 -11 -35 0 -20 6 -21 8 -5 8 11 0 29 -3 40 -8z m-4105 -15 c0 -8 -4 -15 -10 -15 -5 0 -7 7 -4 15 4 8 8 15 10 15 2 0 4 -7 4 -15z m2579 -5 c23 -6 41 -15 41 -19 0 -11 -91 16 -105 31 -7 8 -5 9 7 5 9 -3 35 -11 57 -17z m961 -153 c0 -143 -3 -177 -16 -193 -8 -10 -12 -13 -9 -6 10 20 13 71 14 230 1 78 3 142 6 142 3 0 5 -78 5 -173z m425 163 c3 -6 -1 -7 -9 -4 -18 7 -21 14 -7 14 6 0 13 -4 16 -10z m-1185 -10 c18 -12 2 -12 -25 0 -13 6 -15 9 -5 9 8 0 22 -4 30 -9z m1061 -8 c-7 -2 -18 1 -23 6 -8 8 -4 9 13 5 13 -4 18 -8 10 -11z m-3791 -34 c-12 -10 -30 -18 -39 -18 -9 1 -1 7 17 15 18 8 32 22 33 32 0 13 2 14 6 4 3 -8 -4 -23 -17 -33z m1900 38 c0 -2 -8 -10 -17 -17 -16 -13 -17 -12 -4 4 13 16 21 21 21 13z m295 -6 c13 -5 14 -9 5 -9 -8 0 -24 4 -35 9 -13 5 -14 9 -5 9 8 0 24 -4 35 -9z m519 -15 c15 -3 26 -8 23 -11 -6 -7 -96 17 -103 27 -2 4 8 4 23 -1 15 -4 41 -11 57 -15z m70 6 c4 -5 -3 -7 -14 -4 -23 6 -26 13 -6 13 8 0 17 -4 20 -9z m885 -2 c24 -8 31 -17 31 -36 0 -19 -4 -24 -16 -19 -9 3 -24 6 -35 6 -14 0 -19 7 -19 30 0 17 2 30 4 30 1 0 17 -5 35 -11z m191 1 c11 -8 7 -9 -15 -4 -37 8 -45 14 -19 14 10 0 26 -5 34 -10z m-3342 -42 c2 -23 -1 -38 -8 -38 -7 0 -9 12 -4 35 7 41 0 43 -66 20 -48 -17 -80 -19 -80 -6 0 5 8 7 18 5 9 -3 35 2 57 10 62 23 79 18 83 -26z m307 32 c-27 -12 -43 -12 -25 0 8 5 22 9 30 9 10 0 8 -3 -5 -9z m1573 -36 c79 -21 139 -40 134 -42 -11 -3 -253 61 -292 78 -36 15 -8 9 158 -36z m232 30 c0 -2 -9 -4 -20 -4 -11 0 -20 4 -20 9 0 5 9 7 20 4 11 -3 20 -7 20 -9z m1320 0 c0 -2 -7 -4 -15 -4 -8 0 -15 4 -15 10 0 5 7 7 15 4 8 -4 15 -8 15 -10z m-1063 0 c-3 -3 -12 -4 -19 -1 -8 3 -5 6 6 6 11 1 17 -2 13 -5z m200 -23 c59 -17 145 -40 191 -52 46 -12 81 -23 79 -25 -3 -4 -294 71 -372 95 -70 22 3 9 102 -18z m-3287 9 c-34 -11 -60 -11 -35 0 11 5 29 8 40 8 16 0 15 -2 -5 -8z m2867 4 c-3 -3 -12 -4 -19 -1 -8 3 -5 6 6 6 11 1 17 -2 13 -5z m-1827 -13 c0 -9 -38 -26 -83 -36 -45 -9 -28 17 19 32 49 14 64 15 64 4z m1475 -22 c93 -25 98 -33 90 -144 -3 -49 -8 -91 -11 -94 -2 -2 -25 2 -51 10 -45 14 -48 17 -55 58 -9 55 -31 89 -59 93 -31 4 -43 29 -35 70 7 40 -2 40 121 7z m972 25 c-3 -3 -12 -4 -19 -1 -8 3 -5 6 6 6 11 1 17 -2 13 -5z m516 -18 c20 -4 37 -11 37 -16 0 -5 -11 -5 -27 0 -16 4 -40 11 -55 14 -16 4 -28 11 -28 17 0 6 6 6 18 1 9 -5 34 -12 55 -16z m-3866 8 c-3 -3 -12 -4 -19 -1 -8 3 -5 6 6 6 11 1 17 -2 13 -5z m3074 -34 c130 -39 159 -50 159 -61 0 -12 -7 -11 -39 5 -15 8 -78 31 -139 51 -62 20 -112 39 -112 42 0 3 6 3 13 0 8 -3 61 -19 118 -37z m85 10 c134 -35 174 -48 174 -61 0 -12 -1 -12 -52 11 -25 11 -91 31 -148 44 -93 23 -131 36 -103 36 6 0 64 -14 129 -30z m-3409 14 c-3 -3 -12 -4 -19 -1 -8 3 -5 6 6 6 11 1 17 -2 13 -5z m173 -12 c-43 -17 -45 -19 -48 -62 -3 -46 -22 -71 -51 -69 -9 0 -4 5 11 10 24 9 27 16 30 62 3 50 5 53 38 64 54 18 71 14 20 -5z m2997 12 c-3 -3 -12 -4 -19 -1 -8 3 -5 6 6 6 11 1 17 -2 13 -5z m503 -4 c0 -5 -7 -7 -15 -4 -8 4 -15 8 -15 10 0 2 7 4 15 4 8 0 15 -4 15 -10z m-529 -15 c19 -8 27 -14 19 -14 -18 0 -79 27 -64 28 7 1 27 -6 45 -14z m833 5 c35 -13 33 -30 -4 -30 -23 0 -30 4 -30 20 0 23 0 23 34 10z m-4064 -7 c-8 -3 -22 -11 -30 -17 -13 -10 -13 -9 -1 7 7 9 21 17 30 16 13 0 14 -1 1 -6z m1304 -15 c8 -32 7 -101 -2 -114 -4 -6 -31 -17 -59 -24 -53 -14 -71 -30 -33 -30 29 0 76 -26 94 -52 47 -66 -16 -205 -109 -244 -34 -14 -47 -33 -22 -35 6 0 1 -6 -12 -12 -19 -9 -25 -9 -29 1 -2 7 -19 19 -37 26 -46 19 -67 56 -68 116 -1 42 -4 50 -16 45 -9 -4 -72 -22 -141 -41 -69 -19 -150 -44 -181 -55 -64 -22 -69 -23 -69 -9 0 5 24 16 53 24 28 8 111 31 182 51 72 20 139 39 150 42 12 2 32 25 45 51 19 36 38 53 80 75 50 27 48 29 -10 11 -19 -6 -20 -2 -19 82 1 49 3 81 6 72 4 -16 43 -22 43 -6 0 4 11 8 25 8 28 0 35 19 8 21 -29 2 27 15 73 18 36 1 42 -1 48 -21z m2020 13 c4 -5 -3 -7 -14 -4 -23 6 -26 13 -6 13 8 0 17 -4 20 -9z m875 -2 c48 -17 32 -20 -19 -4 -25 7 -38 14 -29 14 9 1 30 -4 48 -10z m-7579 -176 c0 -98 -4 -173 -8 -167 -4 6 -19 14 -33 17 -37 9 -98 75 -105 114 -13 71 21 147 85 190 61 41 61 42 61 -154z m7716 161 c27 -9 53 -21 59 -26 8 -7 -56 12 -115 35 -35 13 10 6 56 -9z m-1359 0 c-3 -3 -12 -4 -19 -1 -8 3 -5 6 6 6 11 1 17 -2 13 -5z m413 -20 c8 -9 -74 8 -84 16 -4 5 11 4 35 -1 24 -6 46 -13 49 -15z m-315 -5 c14 -6 9 -7 -15 -3 -19 4 -44 11 -55 15 -14 6 -9 7 15 3 19 -4 44 -11 55 -15z m1135 11 c20 -6 21 -8 5 -8 -11 0 -29 3 -40 8 -25 11 1 11 35 0z m84 -10 c25 -12 46 -23 46 -25 0 -6 -83 26 -94 37 -15 13 -2 10 48 -12z m-3652 -22 c-15 -15 -26 -4 -18 18 5 13 9 15 18 6 9 -9 9 -15 0 -24z m2473 -33 c99 -29 249 -72 334 -96 l154 -43 -6 -134 c-4 -74 -8 -136 -10 -139 -7 -7 -168 37 -217 59 -25 11 -92 32 -150 47 l-105 28 3 41 c3 34 -1 46 -22 67 -23 23 -33 26 -83 23 -44 -2 -59 -7 -61 -19 -2 -9 5 -19 16 -21 14 -4 20 -17 25 -53 6 -62 -7 -94 -39 -90 -13 1 -24 -2 -24 -6 0 -5 10 -9 21 -9 16 0 20 -5 16 -20 -3 -10 1 -25 9 -31 9 -7 11 -16 5 -23 -4 -6 -8 -18 -8 -26 0 -32 -34 -128 -47 -133 -11 -5 -14 6 -12 50 2 63 -9 79 -19 27 -5 -28 -10 -34 -23 -29 -51 21 -61 10 -63 -79 0 -26 -2 -28 -9 -11 -7 18 -4 164 4 220 2 11 -1 31 -6 45 l-10 25 -9 -30 c-5 -16 -13 -59 -19 -94 -5 -35 -15 -68 -22 -72 -7 -5 -13 -13 -13 -19 0 -5 -3 -9 -6 -7 -3 1 -13 -4 -21 -11 -13 -10 -24 -10 -59 2 -34 12 -46 12 -58 3 -10 -8 -13 -9 -8 0 5 7 0 9 -13 6 -12 -3 -20 0 -20 7 0 7 -8 9 -20 5 -20 -6 -75 26 -64 38 3 3 -8 4 -25 3 -19 -1 -37 5 -47 15 -13 15 -13 23 6 78 24 72 24 77 6 62 -30 -25 -41 32 -19 96 14 39 18 44 24 28 4 -11 8 -14 8 -7 1 6 8 12 17 12 11 0 14 6 9 20 -7 21 -3 23 48 34 26 6 27 8 21 59 -4 37 -2 63 10 90 l16 39 30 -33 c21 -23 30 -44 30 -67 l0 -33 22 21 c12 11 23 18 25 16 7 -7 -10 -65 -18 -61 -4 3 -11 0 -15 -7 -4 -7 -4 -10 1 -6 4 4 22 -4 40 -17 17 -14 36 -25 41 -25 5 0 25 -13 44 -29 42 -34 178 -81 188 -65 4 6 14 14 22 17 12 4 11 6 -2 6 -10 1 -18 7 -18 15 0 7 -9 20 -19 27 -24 17 -24 15 -22 162 l1 117 28 -6 c15 -4 108 -30 207 -59z m969 49 c21 -20 20 -34 -1 -33 -31 1 -56 15 -59 32 -3 22 39 23 60 1z m-338 -21 c-8 -8 -56 6 -56 17 0 5 13 5 31 -2 16 -6 28 -13 25 -15z m438 19 c3 -5 -8 -6 -25 -4 -16 2 -29 6 -29 8 0 8 49 4 54 -4z m266 -8 c0 -2 -9 -4 -20 -4 -11 0 -20 4 -20 9 0 5 9 7 20 4 11 -3 20 -7 20 -9z m-4023 0 c-3 -3 -12 -4 -19 -1 -8 3 -5 6 6 6 11 1 17 -2 13 -5z m508 -3 c-15 -15 -65 -25 -65 -13 0 13 17 20 50 21 15 1 20 -3 15 -8z m2567 -7 c35 -9 70 -20 78 -26 17 -10 22 -11 -90 17 -63 16 -85 25 -62 25 5 0 39 -7 74 -16z m-3542 -15 c0 -11 -4 -17 -10 -14 -5 3 -10 13 -10 21 0 8 5 14 10 14 6 0 10 -9 10 -21z m3240 6 c22 -8 28 -13 15 -13 -11 0 -36 6 -55 13 -22 8 -28 13 -15 13 11 0 36 -6 55 -13z m975 5 c17 -8 16 -9 -7 -7 -15 2 -30 6 -34 10 -10 10 17 8 41 -3z m102 4 c-3 -3 -12 -4 -19 -1 -8 3 -5 6 6 6 11 1 17 -2 13 -5z m117 -3 c3 -4 -6 -6 -19 -3 -14 2 -25 6 -25 8 0 8 39 4 44 -5z m-4046 -12 c-10 -5 -18 -18 -19 -27 0 -11 -2 -12 -6 -4 -6 15 14 42 31 42 6 0 3 -5 -6 -11z m690 -73 l-3 -60 -74 -28 c-131 -48 -151 -42 -151 44 0 47 0 47 40 58 22 6 40 13 40 16 0 3 -10 3 -22 0 l-23 -6 23 11 c12 7 22 16 22 20 0 5 7 5 17 2 11 -4 14 -3 9 5 -4 7 -2 10 6 7 8 -3 32 -2 53 3 57 12 66 1 63 -72z m379 32 c-2 -13 -4 -5 -4 17 -1 22 1 32 4 23 2 -10 2 -28 0 -40z m2902 16 c3 -3 -8 -2 -24 2 -17 5 -43 8 -60 7 -16 -1 -24 1 -17 4 6 2 10 8 7 13 -5 9 84 -16 94 -26z m-4 26 c3 -6 -1 -7 -9 -4 -18 7 -21 14 -7 14 6 0 13 -4 16 -10z m110 -20 c66 -25 46 -25 -30 0 -33 10 -51 19 -40 19 11 0 43 -9 70 -19z m-240 -8 c-3 -3 -11 0 -18 7 -9 10 -8 11 6 5 10 -3 15 -9 12 -12z m-2787 -47 c-3 -24 -1 -31 7 -25 8 7 12 5 12 -5 0 -16 -55 -45 -84 -44 -14 0 -14 2 -3 6 37 14 60 47 61 87 0 23 3 35 6 28 3 -7 3 -28 1 -47z m2285 38 c37 -10 67 -21 67 -25 0 -10 -23 -5 -100 22 -70 24 -55 25 33 3z m-1803 -26 c0 -5 -4 -5 -10 -2 -5 3 -10 14 -10 23 0 15 2 15 10 2 5 -8 10 -19 10 -23z m2413 12 c26 -6 47 -13 47 -15 0 -8 -62 4 -105 21 -40 15 -35 15 58 -6z m-4173 -4 c-30 -17 -40 -18 -40 -6 0 10 22 18 50 19 8 1 4 -5 -10 -13z m210 -21 c0 -8 -4 -14 -10 -14 -5 0 -10 9 -10 21 0 11 5 17 10 14 6 -3 10 -13 10 -21z m330 17 c0 -10 -100 -34 -108 -26 -9 8 5 17 40 25 47 11 68 11 68 1z m-650 -9 c0 -4 -25 -16 -55 -27 -30 -10 -55 -22 -55 -27 0 -5 13 -2 29 6 16 9 31 13 34 10 3 -3 15 0 27 6 11 6 26 9 33 7 14 -5 -64 -42 -108 -51 -26 -6 -30 -4 -31 16 -1 19 8 26 60 44 33 12 62 22 64 23 1 1 2 -3 2 -7z m3455 -2 c13 -5 14 -9 5 -9 -8 0 -24 4 -35 9 -13 5 -14 9 -5 9 8 0 24 -4 35 -9z m915 0 c8 -5 11 -10 5 -10 -5 0 -17 5 -25 10 -8 5 -10 10 -5 10 6 0 17 -5 25 -10z m51 -18 c-7 -2 -18 1 -23 6 -8 8 -4 9 13 5 13 -4 18 -8 10 -11z m-2536 -2 c3 -5 1 -10 -4 -10 -6 0 -11 5 -11 10 0 6 2 10 4 10 3 0 8 -4 11 -10z m1695 -16 l35 -14 -35 6 c-19 4 -50 13 -70 20 l-35 14 35 -6 c19 -4 50 -13 70 -20z m-3173 10 c-3 -3 -12 -4 -19 -1 -8 3 -5 6 6 6 11 1 17 -2 13 -5z m327 -10 c3 -9 6 -30 6 -47 0 -67 -5 -71 -111 -106 -55 -18 -107 -30 -115 -27 -17 7 -18 112 0 124 14 9 187 70 202 71 7 1 15 -6 18 -15z m3731 6 c3 -6 -1 -7 -9 -4 -18 7 -21 14 -7 14 6 0 13 -4 16 -10z m72 -72 c-2 -18 -4 -6 -4 27 0 33 2 48 4 33 2 -15 2 -42 0 -60z m-347 57 c19 -7 28 -13 20 -13 -8 0 -31 6 -50 13 -19 7 -28 13 -20 13 8 0 31 -6 50 -13z m-3850 1 c0 -2 -9 -6 -20 -9 -11 -3 -18 -1 -14 4 5 9 34 13 34 5z m1097 -18 c-3 -8 -6 -5 -6 6 -1 11 2 17 5 13 3 -3 4 -12 1 -19z m2210 6 c-3 -3 -12 -4 -19 -1 -8 3 -5 6 6 6 11 1 17 -2 13 -5z m627 -13 c4 -5 -3 -7 -14 -4 -23 6 -26 13 -6 13 8 0 17 -4 20 -9z m-557 -7 c-3 -3 -12 -4 -19 -1 -8 3 -5 6 6 6 11 1 17 -2 13 -5z m-4007 -504 c8 -5 10 -10 4 -10 -27 0 -32 35 -37 270 l-5 245 12 -248 c9 -201 14 -250 26 -257z m615 491 c-12 -10 -73 -31 -92 -31 -34 0 -3 26 38 31 24 3 48 7 54 7 6 1 6 -1 0 -7z m2410 -2 c28 -7 45 -17 48 -30 3 -10 2 -21 -1 -23 -11 -6 -96 38 -100 52 -5 15 -2 15 53 1z m1112 -71 c6 -5 10 -17 8 -26 -2 -9 -4 -45 -4 -79 -1 -71 -11 -77 -75 -46 -33 15 -37 15 -85 -5 -27 -12 -53 -22 -57 -22 -5 0 -1 165 6 237 0 5 197 -51 207 -59z m-3421 -25 l-1 -67 -95 -28 c-52 -15 -101 -28 -108 -28 -34 0 -52 62 -33 111 7 20 20 28 63 38 29 7 67 18 83 26 17 7 44 14 61 14 l32 1 -2 -67z m3755 -21 c10 -27 -2 -56 -27 -66 -22 -9 -34 1 -34 29 0 13 -6 26 -12 29 -10 5 -10 7 0 12 6 3 12 22 12 42 l0 37 26 -30 c14 -16 30 -40 35 -53z m-4191 20 c0 -13 -40 -30 -87 -37 -39 -6 -43 -5 -43 13 0 15 8 22 28 25 51 8 102 7 102 -1z m-3762 -41 c18 -12 35 -34 38 -48 8 -30 -11 -91 -35 -114 -43 -41 -143 -48 -182 -13 -21 19 -25 44 -7 44 7 0 5 7 -5 18 -16 18 -13 66 7 91 17 22 88 49 122 47 17 -1 45 -12 62 -25z m6026 14 c-4 -8 -13 -15 -22 -15 -13 0 -12 3 4 15 24 18 25 18 18 0z m-2165 -60 l2 -65 -46 -20 c-51 -22 -79 -26 -55 -9 12 9 12 10 -3 5 -10 -3 -28 -6 -40 -6 -17 0 -19 -2 -8 -9 11 -7 10 -10 -6 -15 -11 -4 -28 -3 -38 0 -12 5 -16 4 -12 -3 4 -6 0 -13 -8 -17 -8 -3 -15 -1 -15 4 0 6 -6 10 -13 10 -15 0 -20 37 -6 45 5 4 7 11 4 16 -4 5 -2 9 4 9 6 0 8 7 5 15 -10 24 13 43 64 54 26 5 67 19 92 30 72 33 77 31 79 -44z m2959 48 c-4 -22 -22 -20 -26 1 -2 10 3 16 13 16 10 0 15 -7 13 -17z m1275 10 c-7 -2 -19 -2 -25 0 -7 3 -2 5 12 5 14 0 19 -2 13 -5z m44 1 c-3 -3 -12 -4 -19 -1 -8 3 -5 6 6 6 11 1 17 -2 13 -5z m-2162 -14 c-3 -5 -11 -10 -16 -10 -6 0 -7 5 -4 10 3 6 11 10 16 10 6 0 7 -4 4 -10z m-735 -14 c0 -2 -7 -7 -16 -10 -8 -3 -12 -2 -9 4 6 10 25 14 25 6z m141 -19 c-10 -9 -11 -8 -5 6 3 10 9 15 12 12 3 -3 0 -11 -7 -18z m2664 -18 c-3 -10 -1 -36 6 -58 10 -34 9 -44 -5 -66 -12 -18 -23 -24 -35 -20 -15 5 -19 -2 -24 -47 -4 -28 -4 -54 -2 -57 3 -2 5 5 5 16 0 28 27 48 60 45 16 -2 34 3 41 11 7 7 23 12 35 9 12 -2 30 0 40 6 28 16 111 -40 116 -78 4 -29 4 -29 -43 20 -47 50 -69 62 -69 38 0 -7 16 -24 36 -38 20 -13 32 -26 26 -28 -6 -2 -9 -9 -6 -15 4 -12 -44 -37 -80 -42 -17 -2 -81 -69 -81 -84 0 -14 -62 -110 -99 -155 -35 -42 -41 -46 -47 -30 -6 14 -8 11 -8 -13 -1 -36 -4 -36 -93 7 l-42 20 -99 -47 c-55 -26 -104 -55 -111 -64 -11 -16 -19 -15 -116 12 -58 16 -145 43 -194 59 -48 17 -106 33 -127 36 -34 6 -39 11 -53 51 -9 25 -13 50 -10 55 4 6 36 24 73 40 l66 31 -78 24 c-71 22 -80 28 -93 58 -8 19 -14 58 -15 87 -1 42 -3 48 -9 28 -5 -17 -8 -19 -9 -7 -2 29 -2 32 -13 44 -6 7 -15 10 -21 6 -5 -3 -7 -1 -3 5 3 6 -1 18 -11 27 -15 16 -18 15 -34 -17 -10 -19 -25 -41 -34 -48 -15 -12 -16 -10 -9 16 l7 29 -23 -20 c-13 -11 -31 -39 -41 -61 -11 -23 -30 -49 -44 -58 l-25 -16 1 42 c0 65 14 123 27 121 15 -4 15 10 1 24 -14 14 -4 47 11 38 5 -3 10 -1 10 5 0 6 4 9 10 5 5 -3 8 -21 6 -39 -1 -21 2 -32 8 -30 17 7 55 83 45 90 -5 3 -9 9 -9 14 0 4 39 -3 87 -16 102 -28 113 -29 113 -10 0 24 50 6 56 -20 5 -19 18 -27 65 -40 47 -13 56 -19 45 -28 -12 -9 -11 -27 9 -126 42 -208 37 -194 73 -200 18 -3 33 -9 32 -15 0 -5 6 -10 13 -10 6 0 36 -4 65 -9 42 -6 57 -5 70 7 9 8 40 24 67 36 28 12 61 29 74 38 l25 16 -45 18 c-24 10 -55 18 -69 18 -25 1 -25 2 -22 81 3 71 6 80 23 80 24 0 25 -20 2 -21 -10 0 6 -11 36 -25 54 -24 78 -31 53 -15 -12 7 -11 14 2 40 16 30 48 42 60 23 3 -5 35 -3 72 4 81 15 109 41 119 108 7 44 26 76 44 76 12 0 6 -76 -8 -130 -12 -41 -14 -43 -27 -25 -9 11 -14 14 -14 6 0 -24 -54 -60 -100 -67 l-45 -7 89 -18 c48 -10 92 -16 97 -14 4 3 6 27 3 53 -4 37 -1 57 19 95 17 33 20 47 11 43 -20 -8 -18 3 9 41 12 18 28 33 35 33 7 0 11 4 8 9 -3 5 6 9 19 9 20 0 24 -4 20 -19z m-4763 -11 c-2 -10 -8 -15 -13 -12 -5 3 -9 1 -9 -5 0 -10 -10 -9 -63 11 -38 15 -17 26 43 24 39 -1 46 -4 42 -18z m1058 2 c12 -7 10 -9 -8 -7 -12 0 -22 5 -22 9 0 11 12 10 30 -2z m1671 -10 c17 5 31 5 34 -1 4 -5 2 -9 -2 -9 -5 0 -8 -15 -8 -32 0 -32 -2 -33 -35 -30 -28 3 -32 2 -22 -10 7 -9 23 -13 42 -10 39 6 33 -14 -15 -45 -22 -15 -32 -18 -29 -9 3 8 -3 19 -14 25 -12 7 -18 18 -16 33 12 87 16 100 26 90 6 -6 21 -7 39 -2z m-831 -45 c0 -14 -4 -25 -10 -25 -5 0 -10 11 -10 25 0 14 5 25 10 25 6 0 10 -11 10 -25z m-1876 -1 c3 -9 6 -26 6 -39 0 -13 5 -27 11 -31 8 -4 8 -9 0 -17 -6 -6 -11 -26 -11 -44 0 -21 -6 -36 -19 -42 -22 -12 -32 -5 -24 16 5 13 3 13 -16 4 -17 -9 -19 -16 -12 -30 7 -12 6 -22 -1 -29 -9 -9 -7 -17 6 -31 11 -12 16 -27 12 -37 -4 -10 5 -29 23 -50 17 -18 36 -53 42 -76 15 -53 28 -71 43 -60 45 34 157 41 162 9 2 -13 -7 -19 -36 -23 l-39 -6 35 -24 c23 -16 44 -22 60 -19 13 3 35 7 48 10 18 4 23 1 22 -13 -1 -14 9 -17 59 -18 33 -1 74 -6 90 -11 28 -9 25 -11 -65 -41 -69 -23 -97 -29 -105 -21 -7 8 -7 13 1 16 6 2 20 10 30 18 17 13 16 14 -16 8 -37 -6 -60 -20 -60 -35 0 -14 -27 -38 -42 -38 -8 0 -18 -4 -23 -9 -14 -14 -78 -24 -70 -11 3 5 1 10 -4 10 -6 0 -11 7 -11 16 0 10 -6 14 -15 10 -9 -3 -15 0 -15 10 0 8 -11 27 -25 42 -29 32 -32 49 -7 54 13 3 11 7 -13 20 -30 16 -74 58 -61 58 4 0 19 -7 34 -16 22 -14 20 -10 -9 17 -20 19 -42 43 -50 53 -13 18 -12 19 6 12 15 -5 17 -4 8 5 -19 19 -63 20 -64 1 0 -14 -2 -13 -9 3 -5 11 -9 16 -9 11 -1 -5 -8 -3 -16 4 -23 19 -18 -2 10 -40 14 -19 25 -35 25 -37 0 -11 -41 25 -54 49 -10 15 -21 28 -25 28 -12 0 -60 -57 -54 -64 9 -9 -10 -7 -23 2 -6 4 -14 16 -19 27 -8 19 -8 19 -12 2 -5 -18 -5 -18 -19 0 -20 27 -17 112 5 149 17 27 81 64 81 47 0 -4 11 4 25 17 28 27 34 14 8 -18 -10 -11 -26 -30 -36 -42 -10 -12 -16 -24 -13 -28 9 -8 58 17 52 27 -3 5 5 12 19 15 14 4 25 14 25 22 0 11 6 15 19 11 14 -3 18 -1 14 9 -3 8 0 14 6 14 6 0 11 7 11 16 0 10 6 14 15 11 12 -5 12 -2 3 18 -6 13 -7 32 -4 42 7 16 9 16 21 -6 7 -14 12 -30 11 -35 -2 -6 -1 -8 1 -3 3 4 9 5 14 2 5 -4 6 1 3 9 -3 8 0 24 6 36 9 17 9 29 0 50 -7 16 -9 34 -5 39 9 16 32 13 39 -5z m1104 -14 c2 -12 -2 -27 -10 -32 -9 -6 -8 -8 7 -6 13 2 19 -2 17 -12 -18 -77 -17 -78 33 -100 26 -11 70 -28 96 -36 27 -9 49 -22 49 -29 0 -11 64 -12 97 0 16 5 21 -13 34 -118 25 -196 21 -182 52 -179 21 3 33 -2 44 -17 17 -25 55 -27 132 -6 70 18 76 26 57 63 -9 17 -16 33 -16 35 0 2 45 22 100 43 98 38 100 40 100 71 0 18 4 33 9 33 10 0 31 -77 31 -114 0 -14 4 -26 9 -26 11 0 43 -89 33 -91 -4 -1 -11 -1 -16 0 -5 1 -6 -5 -3 -13 3 -8 1 -17 -6 -19 -9 -3 -9 -8 1 -18 10 -11 132 -21 132 -11 0 2 -4 11 -8 20 -6 12 1 26 24 48 l32 31 6 -31 c3 -17 8 -55 12 -84 4 -29 11 -55 15 -58 13 -7 12 6 -11 141 -24 147 -24 145 -2 145 9 0 78 25 152 54 99 40 137 51 142 42 4 -7 12 -53 18 -102 6 -49 16 -107 23 -128 7 -25 8 -41 2 -43 -6 -2 -71 -27 -145 -56 -111 -43 -134 -56 -132 -71 2 -10 -1 -15 -6 -12 -5 3 -15 -1 -22 -9 -8 -10 -18 -11 -35 -5 -15 6 -27 4 -35 -3 -7 -7 -10 -7 -7 -2 3 6 -14 10 -41 11 -26 0 -88 13 -138 28 -58 17 -102 24 -118 20 -18 -4 -26 -2 -26 7 0 10 -3 10 -11 2 -16 -16 -23 -132 -10 -165 6 -16 17 -28 25 -28 34 0 162 -51 184 -74 25 -24 24 -24 -31 4 -30 15 -98 38 -150 51 -81 19 -98 21 -112 9 -11 -9 -14 -22 -10 -41 6 -27 5 -28 -22 -20 -37 12 -134 49 -266 102 -83 34 -106 47 -101 59 4 8 9 30 12 47 2 18 8 30 13 27 5 -3 9 -1 9 5 0 5 3 16 6 24 6 15 -14 15 -56 0 -33 -12 -77 -12 -93 -1 -9 7 -32 42 -50 78 -22 43 -43 70 -62 80 -17 8 -32 16 -35 18 -2 2 2 8 10 13 12 8 10 10 -8 6 -18 -4 -33 4 -63 33 -40 39 -45 70 -10 70 14 0 17 -7 14 -32 l-4 -33 21 27 c29 37 38 194 12 206 -21 9 -43 9 -60 -2 -15 -9 -102 12 -102 25 0 4 15 18 33 31 44 32 134 29 171 -4 11 -10 25 -18 30 -18 6 0 -2 11 -17 25 -30 29 -35 56 -12 75 8 7 15 19 15 27 0 18 22 43 35 39 6 -1 12 -13 13 -26z m952 20 c0 -5 -4 -10 -10 -10 -5 0 -10 5 -10 10 0 6 5 10 10 10 6 0 10 -4 10 -10z m2115 -22 c2 -13 9 -54 15 -93 6 -38 13 -84 16 -102 l6 -32 -112 -56 c-62 -30 -114 -54 -115 -53 -9 12 -46 253 -39 256 5 1 54 25 109 52 55 26 103 49 107 49 4 1 10 -9 13 -21z m631 -14 c-3 -9 -6 -18 -6 -20 0 -2 -4 -4 -9 -4 -5 0 -7 9 -4 20 3 11 10 20 15 20 6 0 7 -7 4 -16z m-1986 -3 c0 -6 -4 -13 -10 -16 -5 -3 -10 1 -10 9 0 9 5 16 10 16 6 0 10 -4 10 -9z m-687 -33 c3 -10 8 -9 22 2 17 14 17 14 5 -10 -7 -14 -16 -32 -20 -40 -4 -8 -19 -16 -34 -18 -21 -3 -26 1 -26 19 0 22 26 59 41 59 4 0 9 -6 12 -12z m-1113 -40 c0 -10 -20 -11 -21 0 0 4 -2 16 -4 27 -4 20 -4 20 11 1 8 -11 14 -23 14 -28z m395 22 c-3 -5 -12 -10 -18 -10 -7 0 -6 4 3 10 19 12 23 12 15 0z m201 -15 c-11 -8 -22 -12 -25 -9 -6 6 19 24 34 24 6 -1 1 -7 -9 -15z m1037 -10 c-5 -13 -23 -22 -23 -11 0 15 14 35 21 31 4 -3 6 -12 2 -20z m-1108 -9 c-51 -16 -110 -28 -103 -21 8 8 99 32 123 33 11 0 2 -6 -20 -12z m135 -7 c0 -4 -11 -6 -25 -6 -13 0 -22 3 -20 8 6 9 45 8 45 -2z m1107 -116 c-14 -59 -29 -130 -32 -157 -4 -26 -10 -44 -15 -40 -12 13 -30 120 -30 181 0 50 1 53 19 43 22 -11 37 2 25 21 -6 10 46 69 55 62 2 -1 -8 -51 -22 -110z m-1187 103 c0 -2 -11 -6 -25 -8 -13 -3 -22 -1 -19 3 5 9 44 13 44 5z m239 -10 c-2 -2 -15 -7 -29 -10 l-25 -7 25 15 c21 12 42 14 29 2z m1180 -49 c46 -31 43 -47 -9 -39 -20 3 -30 10 -30 22 0 10 -7 23 -15 30 -18 15 -20 34 -2 24 6 -4 32 -21 56 -37z m615 34 c7 -10 -31 -19 -58 -13 -15 3 -16 6 -5 13 18 11 56 11 63 0z m-1873 -15 c-6 -8 -24 -16 -39 -19 -31 -7 -151 -49 -169 -60 -7 -5 -17 -5 -23 -2 -5 3 -10 2 -10 -3 0 -5 -9 -12 -20 -15 -15 -4 -20 0 -20 14 0 13 7 19 23 18 12 0 74 17 137 40 128 45 137 47 121 27z m393 -18 c-3 -5 -12 -4 -20 3 -7 6 -11 15 -8 21 3 5 12 4 20 -3 7 -6 11 -15 8 -21z m-679 2 c-3 -5 3 -10 14 -10 12 0 21 -4 21 -8 0 -12 -34 -11 -42 2 -7 10 -2 26 8 26 3 0 2 -4 -1 -10z m1905 -11 c0 -11 -34 -64 -57 -87 -18 -19 -7 -32 27 -32 25 0 29 4 36 43 7 42 7 42 15 13 5 -16 6 -33 3 -38 -3 -4 4 -8 16 -8 12 0 18 4 15 10 -3 5 -1 18 4 27 8 14 10 15 11 3 0 -13 1 -13 10 0 8 13 11 12 24 -5 14 -19 15 -17 17 30 1 43 2 46 8 20 4 -16 13 -40 20 -53 16 -29 7 -56 -15 -48 -26 10 -136 -15 -164 -37 l-25 -20 88 6 c93 6 137 -3 137 -28 0 -8 -3 -15 -7 -16 -5 0 -17 -2 -28 -4 -10 -2 -25 1 -31 6 -7 6 -15 6 -18 1 -17 -28 -167 35 -159 67 6 25 -34 41 -70 28 -21 -7 -26 -14 -21 -29 4 -13 0 -24 -12 -33 -15 -11 -22 -10 -41 3 l-24 15 21 22 c11 12 20 27 20 33 0 7 3 12 8 13 4 0 17 2 30 3 26 3 39 14 44 36 8 39 118 94 118 59z m-1473 -66 c-3 -10 -5 -2 -5 17 0 19 2 27 5 18 2 -10 2 -26 0 -35z m3146 31 c11 -12 -12 -42 -38 -48 -39 -10 -89 -60 -115 -115 -31 -67 -36 -59 -9 13 17 46 31 64 70 93 27 19 49 41 49 49 0 14 31 20 43 8z m-4226 -46 c-3 -7 -5 -2 -5 12 0 14 2 19 5 13 2 -7 2 -19 0 -25z m1290 26 c-3 -3 -12 -4 -19 -1 -8 3 -5 6 6 6 11 1 17 -2 13 -5z m116 -25 c15 -7 26 -16 25 -21 -4 -12 -97 -53 -104 -46 -3 3 -7 18 -10 34 -2 16 -6 34 -9 41 -2 6 -1 13 1 16 6 6 53 -6 97 -24z m-636 -9 c-60 -30 -84 -38 -57 -19 13 10 13 10 0 6 -63 -19 -65 -19 -54 -8 11 12 125 48 154 49 8 1 -11 -12 -43 -28z m923 5 c17 -9 20 -14 9 -15 -9 0 -22 -12 -29 -27 l-13 -28 -8 25 c-18 60 -7 72 41 45z m-826 -25 c-10 -10 -204 -71 -204 -64 0 7 44 26 73 31 17 3 51 13 76 23 53 22 70 25 55 10z m-839 -36 c16 -25 16 -26 -2 -22 -10 2 -18 12 -19 26 -2 28 0 28 21 -4z m2420 16 c3 -5 -1 -10 -10 -10 -9 0 -13 5 -10 10 3 6 8 10 10 10 2 0 7 -4 10 -10z m255 -14 c0 -3 -4 -8 -10 -11 -5 -3 -10 -1 -10 4 0 6 5 11 10 11 6 0 10 -2 10 -4z m-895 -17 c-4 -6 2 -17 13 -25 11 -8 22 -27 24 -42 3 -23 7 -27 31 -24 27 3 31 -5 30 -64 0 -8 34 -11 113 -10 110 1 114 2 114 23 0 12 5 25 10 28 8 5 9 -10 4 -45 -5 -41 -4 -51 7 -50 28 4 38 -1 45 -22 5 -13 7 -26 6 -30 -1 -5 2 -8 6 -8 5 0 23 -20 40 -43 24 -34 28 -47 19 -56 -9 -10 -8 -11 7 -5 19 7 19 7 0 -22 -11 -16 -28 -50 -38 -77 -10 -26 -26 -52 -36 -57 -30 -16 -37 -12 -11 6 29 21 52 73 41 94 -8 16 -22 16 -120 7 -14 -1 -32 -12 -41 -25 -8 -12 -19 -19 -22 -15 -4 3 -7 -5 -8 -18 0 -13 -9 -46 -19 -74 -19 -50 -19 -50 -13 -10 3 22 10 49 16 60 9 18 9 19 -6 6 -10 -7 -17 -23 -17 -35 0 -12 -9 -38 -19 -59 -10 -20 -22 -48 -25 -62 -4 -14 -11 -23 -16 -20 -6 3 -10 -3 -10 -13 0 -20 -25 -37 -34 -24 -12 19 -36 99 -36 120 0 20 5 22 48 22 46 0 72 13 72 34 0 6 -5 3 -11 -6 -5 -10 -16 -18 -24 -18 -20 0 -12 60 10 76 25 19 12 29 -17 13 -22 -12 -22 -11 -8 6 14 17 14 17 -19 1 -18 -10 -50 -23 -70 -31 -20 -7 -89 -36 -153 -65 -65 -28 -122 -50 -128 -48 -6 2 -2 19 10 43 25 49 25 55 -1 55 -16 0 -19 -4 -14 -20 10 -30 -3 -64 -20 -50 -10 8 -14 7 -18 -2 -3 -7 -6 -3 -6 9 -1 12 -9 24 -18 28 -22 7 -78 85 -62 85 8 0 8 4 2 13 -6 6 -15 27 -21 45 -8 25 -8 32 1 32 21 0 87 -37 79 -44 -10 -11 23 1 133 47 33 14 88 35 123 47 34 13 62 26 62 30 0 5 -25 16 -55 26 -53 16 -57 16 -98 -1 -71 -29 -119 -46 -123 -42 -2 2 33 18 77 36 l81 33 -6 37 c-18 102 -19 121 -6 121 7 0 35 20 61 45 44 41 80 60 64 34z m-6273 -11 c28 -22 31 -55 9 -77 -25 -25 -49 -27 -79 -5 -27 19 -28 48 -2 74 23 23 49 26 72 8z m4458 -3 c0 -8 -4 -15 -10 -15 -5 0 -10 7 -10 15 0 8 5 15 10 15 6 0 10 -7 10 -15z m815 6 c-6 -5 -26 -14 -45 -19 -21 -5 -34 -14 -32 -22 2 -11 0 -11 -12 -1 -10 8 -16 9 -21 1 -9 -15 -25 -12 -19 4 3 8 31 21 62 29 71 19 79 20 67 8z m-846 -35 c-9 -9 -89 -33 -89 -27 0 17 27 31 59 31 19 0 32 -2 30 -4z m-1023 -87 c32 -13 45 -25 62 -62 30 -63 28 -66 -11 -16 -26 35 -50 51 -122 82 -102 44 -104 45 -87 56 7 4 35 -3 65 -18 29 -15 70 -34 93 -42z m3583 33 c-7 -3 -22 -11 -31 -20 -10 -8 -18 -11 -18 -7 0 5 -6 1 -13 -9 -10 -14 -18 -16 -31 -9 -16 9 -15 12 11 29 34 23 63 32 82 25 13 -4 13 -5 0 -9z m261 -37 c0 -9 -14 -22 -30 -29 -20 -8 -37 -27 -49 -52 -33 -72 -51 -109 -60 -124 -5 -8 -12 -22 -15 -30 -20 -48 -54 -95 -71 -97 -15 -2 -28 11 -53 55 -18 31 -36 63 -41 70 -4 7 -15 10 -24 6 -22 -8 -12 -25 11 -18 16 5 16 5 0 -6 -18 -11 -58 1 -58 18 0 4 -16 25 -35 47 -34 39 -51 72 -42 81 2 3 22 -2 43 -10 22 -8 56 -17 77 -20 21 -2 51 -16 68 -30 17 -14 38 -26 47 -26 9 0 30 -7 45 -15 28 -14 29 -14 42 18 7 18 17 46 21 62 12 50 32 79 66 97 41 22 58 22 58 3z m1116 -47 c-10 -28 -28 -34 -61 -22 -14 6 -10 13 22 46 32 32 39 36 44 21 3 -9 1 -30 -5 -45z m-811 -4 c-11 -9 -47 -29 -80 -46 -82 -41 -119 -80 -146 -150 -12 -32 -23 -57 -26 -55 -9 9 47 142 69 163 31 31 158 102 183 103 l20 0 -20 -15z m672 -10 c-3 -3 -12 -4 -19 -1 -8 3 -5 6 6 6 11 1 17 -2 13 -5z m-7507 -104 l0 -100 -29 0 c-15 0 -40 9 -55 21 -21 17 -26 29 -26 66 0 38 5 50 34 79 19 19 43 34 55 34 20 0 21 -5 21 -100z m7171 -161 c-6 -82 -11 -191 -11 -242 0 -111 -10 -197 -22 -197 -4 0 -6 10 -4 23 3 12 8 92 11 177 10 289 21 432 32 402 3 -7 0 -80 -6 -163z m3096 29 c-2 -29 -3 -8 -3 47 0 55 1 79 3 53 2 -26 2 -71 0 -100z m-7307 90 c0 -12 -38 -10 -45 2 -4 6 -4 18 -1 27 6 14 9 14 26 -2 11 -10 20 -22 20 -27z m725 9 c66 -18 88 -30 118 -66 25 -30 61 -125 71 -191 8 -49 -7 -14 -33 76 -23 78 -48 117 -92 139 -40 21 -194 56 -213 49 -9 -3 -16 -2 -16 4 0 23 57 19 165 -11z m-870 -37 c5 -23 4 -32 -3 -25 -5 6 -12 28 -15 50 -7 47 7 27 18 -25z m515 50 c40 -21 22 -35 -45 -35 -36 0 -65 2 -65 5 0 3 -22 5 -50 4 -70 0 -62 13 13 23 100 14 126 14 147 3z m1885 -20 c-45 -21 -65 -24 -65 -11 0 4 19 13 43 18 62 15 67 14 22 -7z m-2110 0 c-3 -5 -15 -10 -26 -10 -11 0 -54 -11 -95 -25 -81 -27 -100 -31 -69 -13 21 13 161 56 183 57 7 1 10 -3 7 -9z m896 -27 c12 -15 12 -16 -4 -10 -10 4 -23 7 -28 7 -5 0 -9 5 -9 10 0 16 26 12 41 -7z m3523 -3 c30 -11 35 -30 9 -30 -31 0 -93 21 -93 30 0 13 52 13 84 0z m-1055 -38 c-2 -21 1 -44 6 -52 5 -9 4 -15 -4 -18 -7 -2 -16 -15 -21 -27 -7 -18 -18 -25 -47 -27 l-38 -4 29 -12 c16 -7 27 -15 24 -17 -3 -3 -38 9 -79 26 -41 16 -86 29 -100 27 -21 -3 -25 -1 -21 14 5 19 41 25 58 9 5 -5 29 -12 54 -15 44 -6 46 -6 65 31 11 21 26 44 33 51 6 8 17 22 22 33 16 29 22 23 19 -19z m1211 4 c60 -11 63 -13 34 -20 -32 -7 -120 10 -130 25 -7 12 18 11 96 -5z m-4535 -96 c-7 -11 -93 -40 -119 -40 -36 0 5 30 60 44 49 13 69 12 59 -4z m7131 -100 l6 -25 14 27 14 27 40 -17 39 -17 -32 -6 -32 -6 36 -2 c42 -1 63 -21 54 -50 -5 -17 3 -25 58 -51 35 -16 67 -30 71 -30 4 0 14 -7 23 -15 10 -10 22 -13 37 -8 11 4 30 7 42 6 16 0 26 12 44 55 28 63 64 85 133 80 40 -3 44 -6 70 -57 31 -61 28 -71 -38 -107 -34 -18 -45 -34 -25 -34 7 0 7 -6 0 -20 -6 -11 -15 -20 -21 -20 -17 0 -39 -27 -39 -49 0 -18 -23 -50 -38 -52 -4 0 -16 -3 -27 -6 -64 -17 -113 -14 -174 11 -35 14 -69 32 -75 40 -6 9 -37 18 -71 22 -33 3 -70 10 -83 15 -30 12 -30 12 -35 -8 -3 -10 -5 70 -4 177 0 107 1 184 4 170 2 -14 6 -36 9 -50z m-7312 46 c-5 -13 -46 -36 -65 -36 -6 0 -7 5 -4 10 3 6 -2 10 -12 10 -25 1 35 28 64 29 15 1 21 -4 17 -13z m2216 -109 c0 -4 -11 -12 -24 -18 -18 -9 -30 -7 -55 6 -41 21 -47 37 -31 88 l12 42 49 -55 c26 -30 49 -58 49 -63z m1102 96 c8 -10 19 -30 26 -45 11 -27 11 -27 -29 -24 -21 2 -42 6 -45 9 -8 7 15 77 25 77 4 0 14 -8 23 -17z m42 -9 c9 -3 16 -15 16 -26 0 -22 -15 -16 -30 13 -12 21 -10 22 14 13z m-315 -7 c-21 -16 -79 -45 -79 -39 0 10 52 41 69 42 8 0 12 -1 10 -3z m-2462 -39 c-3 -7 -5 -2 -5 12 0 14 2 19 5 13 2 -7 2 -19 0 -25z m456 15 c-7 -2 -19 -2 -25 0 -7 3 -2 5 12 5 14 0 19 -2 13 -5z m2437 -12 c0 -5 -11 -11 -25 -13 -24 -5 -32 2 -18 15 9 10 43 8 43 -2z m-6440 -41 c0 -9 -9 -25 -21 -36 -17 -16 -22 -16 -30 -4 -5 8 -7 21 -4 28 3 8 5 17 5 22 0 4 11 8 25 8 17 0 25 -6 25 -18z m5814 -27 c-7 -35 -35 -103 -42 -103 -9 0 -42 33 -42 42 0 4 7 8 15 8 8 0 26 18 40 40 30 47 38 50 29 13z m-1214 -34 c-12 -21 -40 -26 -40 -8 0 15 32 39 42 33 5 -3 3 -14 -2 -25z m1703 18 c41 -11 60 -24 42 -28 -17 -4 -124 25 -119 32 7 12 20 11 77 -4z m-2133 -1 c0 -4 -77 -46 -85 -46 -10 0 -5 26 7 38 11 11 78 18 78 8z m1505 -47 c20 -22 35 -43 32 -45 -6 -6 -117 56 -117 66 0 7 15 14 41 19 4 0 23 -17 44 -40z m-2872 10 c37 -10 46 -22 26 -34 -6 -4 -16 1 -23 10 -9 12 -29 17 -83 18 -39 1 -69 5 -66 10 6 11 102 9 146 -4z m3661 -5 c20 -3 39 -10 42 -15 8 -14 -80 -11 -94 3 -16 16 -15 31 2 25 8 -3 31 -9 50 -13z m-2424 -13 c0 -10 -91 -44 -98 -37 -5 6 69 45 86 46 6 0 12 -4 12 -9z m-410 -21 c0 -5 -5 -10 -11 -10 -5 0 -7 5 -4 10 3 6 8 10 11 10 2 0 4 -4 4 -10z m1480 0 c-8 -5 -19 -10 -25 -10 -5 0 -3 5 5 10 8 5 20 10 25 10 6 0 3 -5 -5 -10z m-2325 -7 c-70 -17 -96 -20 -89 -13 10 9 47 17 84 17 19 1 21 0 5 -4z m-140 -30 c-11 -3 -40 -11 -64 -19 -24 -7 -40 -9 -35 -4 11 11 73 28 99 28 20 0 20 0 0 -5z m740 -23 c-19 -21 -45 -27 -45 -10 0 6 9 10 19 10 11 0 23 5 26 10 3 6 9 10 12 10 3 0 -2 -9 -12 -20z m325 -5 c14 -8 21 -14 15 -14 -5 0 -21 6 -35 14 -14 8 -20 14 -15 14 6 0 21 -6 35 -14z m-620 -78 c0 -6 -13 2 -30 18 -16 16 -30 30 -30 33 0 2 14 -6 30 -18 17 -12 30 -26 30 -33z m-370 30 c0 -2 -10 -12 -22 -23 l-23 -19 19 23 c18 21 26 27 26 19z m-2720 -25 c0 -5 -6 -17 -14 -28 -11 -15 -17 -16 -27 -7 -16 16 -4 43 21 43 11 0 20 -4 20 -8z m5624 -2 c23 -9 37 -40 18 -40 -13 0 -52 30 -52 41 0 11 3 11 34 -1z m116 -60 c41 -21 54 -42 22 -33 -20 5 -82 52 -69 53 4 0 26 -9 47 -20z m-1936 -31 c15 -6 6 -8 -29 -4 -27 3 -71 6 -97 8 -27 1 -48 6 -48 11 0 10 145 -2 174 -15z m6532 -20 c32 -6 63 -15 68 -20 8 -7 -82 -55 -118 -62 -6 -1 -14 -6 -18 -12 -4 -5 -8 22 -8 60 0 39 4 64 8 58 5 -7 35 -18 68 -24z m-10519 5 c-3 -3 -12 -4 -19 -1 -8 3 -5 6 6 6 11 1 17 -2 13 -5z m10450 -206 c-2 -13 -4 -3 -4 22 0 25 2 35 4 23 2 -13 2 -33 0 -45z m0 -120 c-2 -13 -4 -3 -4 22 0 25 2 35 4 23 2 -13 2 -33 0 -45z m93 -30 c0 -10 -31 2 -52 20 -31 26 -19 33 17 10 19 -13 35 -26 35 -30z m-10967 15 c-29 -2 -78 -2 -110 0 -32 2 -8 3 52 3 61 0 87 -1 58 -3z m11116 -81 c98 -50 128 -62 151 -62 17 0 21 -3 12 -8 -12 -8 28 -22 226 -78 34 -9 60 -19 58 -21 -5 -5 -132 24 -181 42 -22 8 -84 21 -138 29 -86 13 -102 13 -133 0 -19 -8 -39 -12 -44 -9 -4 3 -15 -2 -24 -10 -11 -12 -20 -13 -33 -6 -17 9 -17 10 0 17 17 6 17 7 0 26 -13 15 -29 19 -68 17 -27 -1 -56 -7 -62 -12 -10 -7 -13 -2 -13 20 0 30 0 30 63 32 49 1 65 6 76 21 17 25 62 26 110 2z m449 -109 c-10 -2 -28 -2 -40 0 -13 2 -5 4 17 4 22 1 32 -1 23 -4z m-548 -27 c0 -11 -19 -15 -25 -6 -3 5 1 10 9 10 9 0 16 -2 16 -4z m625 -96 c13 -5 14 -9 5 -9 -8 0 -24 4 -35 9 -13 5 -14 9 -5 9 8 0 24 -4 35 -9z m52 -16 c-3 -3 -12 -4 -19 -1 -8 3 -5 6 6 6 11 1 17 -2 13 -5z m46 -11 c-7 -2 -19 -2 -25 0 -7 3 -2 5 12 5 14 0 19 -2 13 -5z m-3969 -49 c18 -7 22 -49 5 -59 -5 -4 -21 -4 -35 -1 -26 7 -32 34 -12 54 14 14 20 14 42 6z m-3511 -18 c113 -47 143 -232 53 -322 -62 -62 -158 -65 -227 -7 -42 36 -59 79 -59 150 1 91 42 160 110 186 28 10 91 7 123 -7z m1079 -16 c33 -41 14 -125 -33 -151 -21 -11 -21 -11 12 -45 39 -40 49 -42 49 -10 0 30 13 40 40 31 24 -8 25 -33 5 -82 -14 -34 -14 -38 5 -58 11 -12 20 -24 20 -28 0 -13 -68 -7 -72 5 -4 10 -10 10 -32 0 -40 -18 -127 -15 -152 6 -55 44 -58 100 -9 149 35 35 35 36 18 55 -12 13 -18 36 -18 65 0 38 5 49 30 70 25 20 38 23 75 20 30 -4 50 -12 62 -27z m-2025 -1 c50 -31 73 -84 73 -167 0 -55 -5 -76 -22 -102 -44 -63 -69 -75 -179 -78 l-99 -4 0 186 0 186 96 0 c81 0 102 -3 131 -21z m2516 -51 c112 -323 107 -298 63 -298 -31 0 -35 3 -47 45 l-13 45 -72 0 -71 0 -13 -45 c-12 -44 -14 -45 -52 -45 -34 0 -39 3 -33 18 3 9 15 42 25 72 55 162 92 265 96 272 3 4 25 8 49 8 l43 0 25 -72z m537 17 c0 -32 2 -35 30 -35 25 0 30 -4 30 -25 0 -21 -5 -25 -30 -25 l-31 0 3 -82 c3 -77 5 -83 26 -86 12 -2 22 -6 22 -10 0 -4 3 -17 6 -29 6 -21 3 -23 -37 -23 -69 0 -79 16 -79 132 0 91 -1 98 -20 98 -15 0 -20 7 -20 25 0 18 5 25 20 25 16 0 20 7 20 35 0 32 2 35 30 35 28 0 30 -3 30 -35z m1248 -2 c3 -27 7 -33 28 -33 19 0 24 -5 24 -25 0 -21 -5 -25 -28 -25 l-27 0 0 -77 c0 -85 6 -103 36 -103 14 0 19 -7 19 -25 0 -22 -4 -25 -40 -25 -67 0 -80 22 -80 135 0 88 -1 95 -20 95 -15 0 -20 7 -20 25 0 18 5 25 20 25 16 0 20 7 20 36 0 34 1 35 33 32 28 -3 32 -7 35 -35z m4066 22 c-17 -8 -44 -16 -60 -20 -16 -3 -6 4 21 14 57 22 86 26 39 6z m-11074 -18 c0 -22 -4 -23 -212 -42 -117 -11 -237 -20 -266 -21 -29 -1 -56 -4 -59 -8 -4 -3 -36 -6 -71 -6 -36 0 -63 2 -61 4 5 4 -8 3 363 50 153 19 281 38 284 41 12 12 22 4 22 -18z m10815 -64 c-398 -128 -548 -174 -552 -170 -2 3 49 22 114 43 312 100 549 173 563 172 8 0 -48 -20 -125 -45z m-7785 12 c36 -19 60 -62 60 -110 l0 -35 -95 0 c-82 0 -95 -2 -95 -17 0 -45 79 -72 114 -38 20 20 66 20 66 0 0 -23 -46 -62 -82 -69 -81 -16 -151 34 -163 118 -14 93 39 166 121 166 25 0 58 -7 74 -15z m179 -62 c43 -142 38 -141 75 -28 l32 100 36 3 35 3 -50 -140 -50 -141 -38 0 c-26 0 -39 5 -44 18 -19 49 -85 245 -85 253 0 5 15 9 33 9 32 0 33 -2 56 -77z m671 56 l0 -20 26 20 c32 25 90 28 122 5 70 -49 69 -203 -2 -249 -34 -23 -90 -23 -114 -2 -18 16 -20 16 -26 2 -3 -9 -6 -40 -6 -69 0 -50 -1 -52 -30 -54 l-30 -2 0 195 0 195 30 0 c24 0 30 -4 30 -21z m452 -10 c25 -25 29 -33 17 -40 -22 -14 -56 -11 -63 6 -3 9 -18 15 -34 15 -16 0 -35 -7 -42 -15 -19 -23 3 -43 56 -51 62 -9 94 -37 94 -80 0 -65 -64 -100 -153 -83 -41 7 -77 38 -77 65 0 18 54 18 69 0 27 -32 91 -22 91 13 0 15 -10 23 -37 30 -21 6 -45 11 -53 11 -37 1 -77 63 -65 101 12 37 54 59 112 59 48 0 58 -4 85 -31z m1098 -57 c0 -102 14 -132 60 -132 46 0 60 30 60 132 l0 88 30 0 30 0 0 -140 0 -140 -30 0 c-24 0 -30 4 -30 21 l0 20 -26 -20 c-26 -21 -76 -27 -109 -15 -33 13 -45 59 -45 169 l0 105 30 0 30 0 0 -88z m647 55 c31 -29 37 -41 41 -89 8 -100 -40 -161 -130 -162 -80 -1 -132 55 -132 144 1 89 49 139 137 140 40 0 53 -5 84 -33z m163 13 l0 -20 20 20 c28 28 94 27 114 -1 l15 -22 27 22 c36 28 91 28 121 -1 22 -20 23 -29 23 -140 l0 -118 -30 0 -30 0 0 97 c0 76 -4 100 -17 115 -20 22 -41 23 -65 1 -15 -13 -18 -32 -18 -115 l0 -98 -30 0 -30 0 0 97 c0 76 -4 100 -17 115 -20 22 -41 23 -65 1 -15 -13 -18 -32 -18 -115 l0 -98 -30 0 -30 0 0 140 0 140 30 0 c23 0 30 -4 30 -20z m587 -4 c27 -24 28 -27 31 -140 l4 -116 -36 0 c-27 0 -36 4 -36 17 0 15 -1 15 -18 0 -12 -11 -36 -17 -64 -17 -59 0 -91 31 -86 85 4 49 36 73 107 82 55 6 72 22 51 48 -16 20 -64 19 -84 -1 -12 -11 -25 -14 -48 -9 l-32 7 37 34 c32 30 43 34 91 34 44 0 61 -5 83 -24z m353 -117 l0 -140 -32 3 -31 3 -4 85 c-3 47 -2 109 2 138 6 49 8 52 36 52 l29 0 0 -141z m264 120 c83 -65 73 -205 -18 -248 -76 -36 -161 -1 -187 76 -12 36 -6 101 12 135 30 56 142 77 193 37z m173 1 c5 -20 5 -20 30 0 40 32 96 27 127 -11 25 -29 26 -37 26 -140 l0 -109 -35 0 -35 0 0 99 c0 92 -2 101 -22 115 -30 21 -44 20 -68 -4 -17 -17 -20 -33 -20 -116 l0 -95 -32 3 -33 3 0 137 0 138 28 0 c20 0 30 -6 34 -20z m3156 -127 c-7 -2 -21 -2 -30 0 -10 3 -4 5 12 5 17 0 24 -2 18 -5z m-324 -139 c8 -8 -145 -2 -169 6 -14 5 17 6 70 3 52 -3 97 -7 99 -9z m74 -11 c-13 -2 -33 -2 -45 0 -13 2 -3 4 22 4 25 0 35 -2 23 -4z m-10653 -174 c0 -12 -29 -24 -37 -16 -3 4 -3 13 0 21 6 16 37 11 37 -5z m10617 -209 c-9 -25 -8 -34 9 -56 10 -15 39 -35 64 -45 25 -10 39 -18 32 -18 -7 -1 -10 -6 -7 -11 4 -6 -7 -8 -31 -4 -27 4 -51 0 -86 -17 -43 -20 -53 -21 -83 -10 -38 13 -109 1 -118 -22 -3 -6 -5 20 -5 58 1 39 3 58 5 43 4 -24 7 -27 24 -18 10 6 19 16 19 22 0 6 11 26 26 45 19 25 33 33 57 34 24 0 90 18 104 28 1 0 -4 -12 -10 -29z m-8852 -520 c-3 -5 -26 -10 -51 -10 -24 0 -44 5 -44 10 0 6 23 10 51 10 31 0 48 -4 44 -10z m3771 -135 c46 -76 83 -139 82 -141 -4 -4 -165 247 -174 271 -13 36 6 9 92 -130z m4047 120 c-18 -7 -58 -31 -90 -53 -102 -70 -155 -102 -190 -114 -18 -7 -33 -17 -33 -24 0 -6 -9 -22 -19 -35 -13 -17 -16 -29 -10 -41 11 -20 2 -48 -16 -48 -7 0 -32 -9 -56 -20 -60 -27 -128 -26 -165 2 -65 49 -84 71 -72 85 6 7 18 28 27 46 10 20 33 41 61 55 47 23 75 23 153 -3 43 -15 77 -9 77 11 0 8 6 14 14 14 8 0 21 6 28 14 8 7 30 19 50 26 20 8 35 17 32 22 -3 4 4 8 16 8 11 0 45 13 75 29 47 25 52 30 33 34 -13 2 9 5 47 5 68 1 69 1 38 -13z m-9727 -76 c32 -18 65 -39 72 -48 91 -115 58 -262 -73 -327 -65 -31 -123 -33 -185 -6 -66 29 -105 80 -129 169 -11 39 -9 47 18 100 70 137 175 177 297 112z m7165 -106 c71 -14 127 -28 125 -31 -5 -4 -268 46 -275 53 -9 9 22 5 150 -22z m-2684 1 c-3 -3 -12 -4 -19 -1 -8 3 -5 6 6 6 11 1 17 -2 13 -5z m301 -31 c-10 -2 -28 -2 -40 0 -13 2 -5 4 17 4 22 1 32 -1 23 -4z m2655 -24 c37 -6 66 -13 63 -16 -6 -6 -196 27 -196 34 0 3 15 3 33 -1 17 -3 63 -10 100 -17z m-3450 4 c-7 -2 -21 -2 -30 0 -10 3 -4 5 12 5 17 0 24 -2 18 -5z m1082 -2 l40 -9 -45 0 c-25 0 -67 3 -95 8 l-50 7 55 1 c30 1 73 -3 95 -7z m3148 -8 c-7 -2 -21 -2 -30 0 -10 3 -4 5 12 5 17 0 24 -2 18 -5z m-3030 -10 c-13 -2 -33 -2 -45 0 -13 2 -3 4 22 4 25 0 35 -2 23 -4z m74 -9 c-3 -3 -12 -4 -19 -1 -8 3 -5 6 6 6 11 1 17 -2 13 -5z m2376 -21 c-7 -2 -19 -2 -25 0 -7 3 -2 5 12 5 14 0 19 -2 13 -5z m-4773 -41 c26 -13 37 -27 46 -59 12 -40 11 -43 -20 -79 -29 -34 -38 -38 -92 -42 -53 -4 -64 -1 -88 19 -46 41 -37 126 17 160 40 24 91 24 137 1z"
       id="path1"
       style="fill:#000080" />
    <path
       d="M6130 5750 c0 -5 5 -10 10 -10 6 0 10 5 10 10 0 6 -4 10 -10 10 -5 0 -10 -4 -10 -10z"
       id="path2"
       style="fill:#000080" />
    <path
       d="M4327 5213 c-12 -11 -8 -23 8 -23 8 0 15 7 15 15 0 16 -12 20 -23 8z"
       id="path3"
       style="fill:#000080" />
    <path
       d="M6597 4469 c6 -6 9 -18 6 -25 -3 -10 2 -14 18 -14 18 0 20 3 10 9 -8 5 -11 16 -8 25 5 12 0 16 -15 16 -16 0 -19 -3 -11 -11z"
       id="path4"
       style="fill:#000080" />
    <path
       d="M6714 4355 c-9 -13 -14 -28 -12 -33 1 -5 10 6 19 24 19 40 16 44 -7 9z"
       id="path5"
       style="fill:#000080" />
    <path
       d="M6541 4319 c-1 -24 -27 -44 -53 -40 -5 1 -8 -4 -8 -10 0 -13 -17 -30 -53 -54 -24 -15 -30 -16 -37 -5 -6 10 -12 11 -22 3 -7 -6 -22 -13 -33 -16 -11 -3 -2 -5 20 -6 22 -1 74 -4 116 -7 l76 -6 5 52 c3 28 2 66 -2 83 -7 30 -8 30 -9 6z"
       id="path6"
       style="fill:#000080" />
    <path
       d="M6247 4153 c3 -21 9 -41 13 -46 11 -12 105 -20 147 -12 l38 7 -45 15 c-63 20 -140 56 -140 65 0 5 -4 8 -9 8 -6 0 -7 -17 -4 -37z"
       id="path7"
       style="fill:#000080" />
    <path
       d="M6050 4090 c0 -5 5 -10 11 -10 5 0 7 5 4 10 -3 6 -8 10 -11 10 -2 0 -4 -4 -4 -10z"
       id="path8"
       style="fill:#000080" />
    <path
       d="M6185 4060 c3 -5 8 -10 11 -10 2 0 4 5 4 10 0 6 -5 10 -11 10 -5 0 -7 -4 -4 -10z"
       id="path9"
       style="fill:#000080" />
    <path
       d="M7063 4211 c-1 -14 3 -18 13 -14 16 6 14 25 -2 30 -5 2 -10 -6 -11 -16z"
       id="path10"
       style="fill:#000080" />
    <path
       d="M7333 4035 c-3 -9 -3 -18 -1 -21 3 -3 8 4 11 16 6 23 -1 27 -10 5z"
       id="path11"
       style="fill:#000080" />
    <path
       d="M4350 3981 c0 -6 5 -13 10 -16 6 -3 10 1 10 9 0 9 -4 16 -10 16 -5 0 -10 -4 -10 -9z"
       id="path12"
       style="fill:#000080" />
    <path
       d="M8421 3829 c-18 -6 -31 -13 -28 -16 8 -7 66 7 72 18 7 11 1 10 -44 -2z"
       id="path13"
       style="fill:#000080" />
    <path
       d="M8436 3803 c-7 -7 85 -38 147 -48 28 -5 38 -4 33 4 -4 6 -24 11 -44 11 -20 0 -57 9 -81 20 -50 23 -46 22 -55 13z"
       id="path14"
       style="fill:#000080" />
    <path
       d="M8331 3768 c-17 -11 -31 -24 -31 -29 0 -16 84 -31 140 -25 30 3 66 5 79 6 59 1 -56 59 -130 65 -15 1 -41 -6 -58 -17z"
       id="path15"
       style="fill:#000080" />
    <path
       d="M8703 3767 c-18 -6 -33 -15 -33 -19 0 -4 -8 -5 -17 -1 -13 4 -15 3 -7 -6 6 -6 25 -13 42 -16 27 -3 35 1 47 26 17 31 16 32 -32 16z"
       id="path16"
       style="fill:#000080" />
    <path
       d="M8452 3672 c0 -25 4 -29 52 -40 28 -7 62 -12 74 -12 19 0 20 3 11 18 -8 13 -20 17 -45 14 -19 -2 -41 -1 -50 2 -14 5 -14 9 -3 23 12 14 11 15 -10 8 -16 -5 -21 -4 -17 4 4 6 3 11 -2 11 -5 0 -9 -13 -10 -28z"
       id="path17"
       style="fill:#000080" />
    <path
       d="M8375 3561 c6 -5 24 -13 40 -17 20 -4 27 -3 20 3 -5 6 -23 14 -40 17 -20 5 -27 4 -20 -3z"
       id="path18"
       style="fill:#000080" />
    <path
       d="M3765 3702 c6 -5 21 -13 35 -17 17 -5 22 -4 15 3 -5 5 -21 13 -35 17 -17 5 -22 4 -15 -3z"
       id="path19"
       style="fill:#000080" />
    <path
       d="M4200 3540 c0 -13 20 -13 40 0 12 8 9 10 -12 10 -16 0 -28 -4 -28 -10z"
       id="path20"
       style="fill:#000080" />
    <path
       d="M5085 3729 c0 -64 4 -90 13 -94 22 -8 52 14 52 40 0 13 6 26 13 28 7 4 6 6 -4 6 -9 1 -20 -9 -23 -21 -5 -18 -11 -6 -26 51 -11 41 -21 75 -22 77 -2 1 -3 -38 -3 -87z"
       id="path21"
       style="fill:#000080" />
    <path
       d="M5195 3591 c-9 -15 14 -23 43 -16 25 7 25 8 7 15 -27 12 -43 12 -50 1z"
       id="path22"
       style="fill:#000080" />
    <path
       d="M5395 3528 c-33 -12 -66 -23 -74 -25 -31 -8 8 -21 82 -28 l77 -7 0 41 c0 47 -1 48 -85 19z"
       id="path23"
       style="fill:#000080" />
    <path
       d="M5175 3450 c-8 -13 5 -13 25 0 13 8 13 10 -2 10 -9 0 -20 -4 -23 -10z"
       id="path24"
       style="fill:#000080" />
    <path
       d="M5505 3451 c-2 -5 7 -12 23 -15 15 -4 36 -9 46 -13 16 -5 17 -3 5 10 -8 8 -16 13 -18 12 -1 -2 -14 0 -27 5 -13 5 -26 5 -29 1z"
       id="path25"
       style="fill:#000080" />
    <path
       d="M5988 3343 c7 -3 16 -2 19 1 4 3 -2 6 -13 5 -11 0 -14 -3 -6 -6z"
       id="path26"
       style="fill:#000080" />
    <path
       d="M5532 3283 c-24 -8 -41 -17 -39 -19 4 -5 97 26 97 32 0 6 -11 4 -58 -13z"
       id="path27"
       style="fill:#000080" />
    <path
       d="M6592 3524 c-28 -19 -29 -50 -2 -57 12 -3 54 -3 94 0 l74 6 -10 28 c-11 31 -23 37 -31 15 -4 -9 -17 -13 -39 -11 -18 2 -38 4 -45 4 -7 1 -10 8 -7 16 8 19 -6 19 -34 -1z m108 -40 c0 -2 -9 -4 -21 -4 -11 0 -18 4 -14 10 5 8 35 3 35 -6z"
       id="path28"
       style="fill:#000080" />
    <path
       d="M6700 3416 c0 -2 7 -6 15 -10 8 -3 15 -1 15 4 0 6 -7 10 -15 10 -8 0 -15 -2 -15 -4z"
       id="path29"
       style="fill:#000080" />
    <path
       d="M6748 3413 c7 -3 16 -2 19 1 4 3 -2 6 -13 5 -11 0 -14 -3 -6 -6z"
       id="path30"
       style="fill:#000080" />
    <path
       d="M6700 3280 c-8 -5 -10 -10 -5 -10 6 0 17 5 25 10 8 5 11 10 5 10 -5 0 -17 -5 -25 -10z"
       id="path31"
       style="fill:#000080" />
    <path
       d="M6625 3249 c-22 -10 -29 -16 -15 -13 28 7 80 33 65 33 -5 0 -28 -9 -50 -20z"
       id="path32"
       style="fill:#000080" />
    <path
       d="M6800 3241 c0 -6 4 -13 10 -16 6 -3 7 1 4 9 -7 18 -14 21 -14 7z"
       id="path33"
       style="fill:#000080" />
    <path
       d="M4661 1807 c-36 -21 -50 -56 -51 -124 0 -52 4 -66 26 -92 22 -26 33 -31 69 -31 64 0 96 31 102 97 6 57 -9 112 -36 137 -25 23 -81 29 -110 13z"
       id="path34"
       style="fill:#000080" />
    <path
       d="M5745 1801 c-7 -24 10 -61 29 -61 21 0 38 26 34 52 -4 31 -53 38 -63 9z"
       id="path35"
       style="fill:#000080" />
    <path
       d="M5730 1631 c-24 -46 -5 -81 45 -81 57 0 63 14 24 58 -39 46 -54 50 -69 23z"
       id="path36"
       style="fill:#000080" />
    <path
       d="M3666 1701 c-3 -60 -3 -116 0 -125 8 -20 100 -22 125 -3 54 42 60 178 8 220 -14 11 -39 17 -74 17 l-52 0 -7 -109z"
       id="path37"
       style="fill:#000080" />
    <path
       d="M6251 1728 c-12 -34 -21 -66 -21 -70 0 -4 20 -8 45 -8 25 0 45 4 45 8 0 11 -41 132 -45 132 -2 0 -13 -28 -24 -62z"
       id="path38"
       style="fill:#000080" />
    <path
       d="M4040 1710 c-33 -33 -24 -40 45 -40 71 0 85 15 43 44 -31 22 -64 20 -88 -4z"
       id="path39"
       style="fill:#000080" />
    <path
       d="M5030 1712 c-18 -15 -22 -28 -22 -72 0 -44 4 -57 22 -72 51 -42 100 -7 100 72 0 79 -49 114 -100 72z"
       id="path40"
       style="fill:#000080" />
    <path
       d="M7074 1722 c-19 -12 -34 -49 -34 -82 0 -17 5 -41 11 -53 32 -61 106 -47 122 24 18 73 -47 146 -99 111z"
       id="path41"
       style="fill:#000080" />
    <path
       d="M7856 1621 c-42 -6 -63 -28 -53 -55 8 -21 70 -21 91 0 16 15 23 65 9 63 -5 -1 -26 -5 -47 -8z"
       id="path42"
       style="fill:#000080" />
    <path
       d="M8444 1709 c-13 -15 -19 -36 -19 -69 0 -57 24 -90 66 -90 36 0 59 33 59 83 0 84 -60 127 -106 76z"
       id="path43"
       style="fill:#000080" />
    <path
       d="M620 2235 c-178 -41 -495 -119 -552 -136 l-68 -20 0 -150 c0 -83 3 -148 8 -146 61 35 235 143 337 209 72 46 144 93 162 104 127 77 203 128 203 136 0 6 -7 7 -16 4 -8 -3 -12 -2 -9 4 7 12 6 12 -65 -5z"
       id="path44"
       style="fill:#000080" />
    <path
       d="M12416 1883 c-4 -5 -12 -9 -17 -9 -5 -1 -13 -2 -18 -3 -5 0 -19 -16 -30 -33 -11 -18 -48 -60 -82 -93 -112 -109 -124 -121 -167 -170 -34 -38 -40 -50 -29 -56 9 -5 93 11 208 39 l194 48 3 57 c2 31 0 57 -3 57 -3 0 -24 -9 -46 -21 -23 -11 -39 -16 -36 -11 4 4 24 17 47 27 33 15 40 23 40 46 0 33 -4 33 -120 -26 -40 -20 -74 -34 -77 -31 -3 2 41 26 97 52 l101 48 -3 40 c-3 34 -7 40 -29 43 -14 2 -29 0 -33 -4z m-136 -198 c0 -4 -67 -52 -144 -104 -43 -30 1 9 68 58 68 51 76 55 76 46z m99 -9 c-12 -12 -248 -135 -269 -140 -14 -4 38 26 115 68 121 64 170 88 154 72z"
       id="path45"
       style="fill:#000080" />
    <path
       d="M11705 1421 c-154 -40 -231 -66 -170 -56 33 5 269 51 323 63 37 8 47 26 17 29 -11 2 -87 -15 -170 -36z"
       id="path46"
       style="fill:#000080" />
    <path
       d="M7155 454 c-55 -25 -174 -77 -265 -116 -183 -78 -198 -87 -178 -99 10 -7 10 -9 1 -9 -21 0 -15 -33 10 -60 13 -14 34 -41 48 -61 13 -20 38 -52 56 -72 l32 -37 861 0 860 0 0 48 c0 26 3 71 6 99 7 51 6 53 -22 64 -22 8 -63 7 -169 -5 -77 -8 -174 -18 -215 -21 -97 -8 -407 -44 -440 -51 l-25 -6 30 -14 c17 -7 57 -20 89 -29 53 -15 57 -18 43 -32 -22 -22 -101 -19 -144 7 -40 24 -55 24 -108 5 -53 -19 -76 -19 -69 0 5 13 -3 14 -57 9 -35 -3 -68 -9 -73 -11 -25 -16 -80 -21 -92 -8 -11 10 -2 16 49 33 34 11 74 23 90 26 31 7 36 22 10 29 -10 3 -5 5 12 6 36 1 75 26 75 46 0 15 -45 68 -180 211 -50 54 -87 84 -106 88 -22 5 -53 -5 -129 -40z m-160 -249 l110 -14 -105 5 c-58 3 -123 9 -145 14 l-40 8 35 0 c19 0 85 -6 145 -13z m148 -22 c-7 -2 -19 -2 -25 0 -7 3 -2 5 12 5 14 0 19 -2 13 -5z"
       id="path47"
       style="fill:#000080" />
    <path
       d="M6598 215 c-2 -3 -105 -27 -227 -55 -237 -53 -246 -56 -275 -89 l-19 -21 59 0 c33 0 75 -5 94 -11 19 -5 78 -12 130 -15 52 -3 109 -7 125 -9 17 -3 90 -8 163 -11 125 -7 132 -6 132 12 0 20 -78 146 -108 175 -17 17 -65 32 -74 24z"
       id="path48"
       style="fill:#000080" />
    <path
       d="M6098 113 c7 -3 16 -2 19 1 4 3 -2 6 -13 5 -11 0 -14 -3 -6 -6z"
       id="path49"
       style="fill:#000080" />
    <path
       d="M5946 15 c-18 -13 2 -15 185 -14 219 2 203 12 -36 23 -106 5 -134 3 -149 -9z"
       id="path50"
       style="fill:#000080" />
  </g>
</svg>
